0
SECTION
2
HEADER
9
$INSUNITS
70
4
9
$ACADVER
1
AC1014
9
$HANDSEED
5
FFFF
0
ENDSEC
0
SECTION
2
TABLES
0
TABLE
2
VPORT
5
8
100
AcDbSymbolTable
0
ENDTAB
0
TABLE
2
LTYPE
5
5
100
AcDbSymbolTable
0
LTYPE
5
14
100
AcDbSymbolTableRecord
100
AcDbLinetypeTableRecord
2
BYBLOCK
70
0
0
LTYPE
5
15
100
AcDbSymbolTableRecord
100
AcDbLinetypeTableRecord
2
BYLAYER
70
0
0
ENDTAB
0
TABLE
2
LAYER
5
2
100
AcDbSymbolTable
70
2
0
LAYER
5
50
100
AcDbSymbolTableRecord
100
AcDbLayerTableRecord
2
0
70
0
6
CONTINUOUS
0
ENDTAB
0
TABLE
2
STYLE
5
3
100
AcDbSymbolTable
70
1
0
STYLE
5
11
100
AcDbSymbolTableRecord
100
AcDbTextStyleTableRecord
2
STANDARD
70
0
0
ENDTAB
0
TABLE
2
VIEW
5
6
100
AcDbSymbolTable
70
0
0
ENDTAB
0
TABLE
2
UCS
5
7
100
AcDbSymbolTable
70
0
0
ENDTAB
0
TABLE
2
APPID
5
9
100
AcDbSymbolTable
70
2
0
APPID
5
12
100
AcDbSymbolTableRecord
100
AcDbRegAppTableRecord
2
ACAD
70
0
0
ENDTAB
0
TABLE
2
DIMSTYLE
5
A
100
AcDbSymbolTable
70
1
0
ENDTAB
0
TABLE
2
BLOCK_RECORD
5
1
100
AcDbSymbolTable
70
1
0
BLOCK_RECORD
5
1F
100
AcDbSymbolTableRecord
100
AcDbBlockTableRecord
2
*MODEL_SPACE
0
BLOCK_RECORD
5
1B
100
AcDbSymbolTableRecord
100
AcDbBlockTableRecord
2
*PAPER_SPACE
0
ENDTAB
0
ENDSEC
0
SECTION
2
BLOCKS
0
BLOCK
5
20
100
AcDbEntity
100
AcDbBlockBegin
2
*MODEL_SPACE
0
ENDBLK
5
21
100
AcDbEntity
100
AcDbBlockEnd
0
BLOCK
5
1C
100
AcDbEntity
100
AcDbBlockBegin
2
*PAPER_SPACE
0
ENDBLK
5
1D
100
AcDbEntity
100
AcDbBlockEnd
0
ENDSEC
0
SECTION
2
ENTITIES
0
LWPOLYLINE
5
100
100
AcDbEntity
8
0
100
AcDbPolyline
90
24
70
1
43
0.0
10
3.3250000000000024
20
26.240000000000006
42
-0.4142135623730932
10
5.3249999999999984
20
24.240000000000009
10
5.3249999999999869
20
19.315881171011885
42
0.31161939870201277
10
6.6158365632119693
20
17.445831112878945
42
-0.2179763006499276
10
17.527892439531826
20
6.395256310612627
42
0.21007195927228833
10
18.641371934336593
20
5.2330162878217292
10
23.290006687867123
20
3.3074887263902797
42
-0.30334668360733502
10
25.50000000000005
20
2.886579864025407e-14
42
-0.19891236737965662
10
18.031222920257125
20
-18.031222920256887
42
-0.30334668360734457
10
14.129773955742248
20
-18.80726936999946
10
9.4811392022118515
20
-16.881741808568279
42
0.21007195927229114
10
7.8719624992413593
20
-16.916220708561525
42
-0.33669915413740742
10
-14.183201091961466
20
-12.12283479369454
42
0.21007473086862016
10
-15.632925688018126
20
-11.423549706750082
10
-20.480246917290451
20
-11.2523367493969
42
-0.3056213686592798
10
-23.962161830040639
20
-8.7215136548045678
42
-0.29147342567681034
10
-18.031222515362728
20
18.031223325151146
42
-0.3033466399413039
10
-14.129773955742086
20
18.807269369999538
10
-9.4811392022117218
20
16.881741808568343
42
0.21007195927229341
10
-7.871962499241195
20
16.916220708561578
42
-0.018271705344582383
10
-6.6158365632119835
20
17.445831112878942
42
0.31161939870201194
10
-5.3250000000000028
20
19.315881171011881
10
-5.3250000000000171
20
24.240000000000023
42
-0.41421356237309404
10
-3.3250000000000086
20
26.240000000000027
0
CIRCLE
5
101
100
AcDbEntity
8
0
100
AcDbCircle
10
21.920000000000069
20
3.0066992588266013e-14
30
0
40
1.6500000000000001
210
0
220
-0
230
1
0
CIRCLE
5
102
100
AcDbEntity
8
0
100
AcDbCircle
10
-15.499780643609123
20
15.499780643609142
30
0
40
1.6500000000000001
210
0
220
-0
230
1
0
CIRCLE
5
103
100
AcDbEntity
8
0
100
AcDbCircle
10
-21.919999999999909
20
3.0066992588266013e-14
30
0
40
1.6500000000000001
210
0
220
-0
230
1
0
CIRCLE
5
104
100
AcDbEntity
8
0
100
AcDbCircle
10
15.499780643609274
20
-15.499780643609068
30
0
40
1.6500000000000001
210
0
220
-0
230
1
0
LINE
5
105
100
AcDbEntity
8
0
100
AcDbLine
10
-24.067391770478043
20
4.6111986908313298
30
0
11
-20.278825790063685
21
13.757606062693084
31
0
0
LINE
5
106
100
AcDbEntity
8
0
100
AcDbLine
10
-20.278825790063685
20
13.757606062693084
30
0
11
-16.121367893762891
21
12.035530617050199
31
-1.3684555315672042e-47
0
LINE
5
107
100
AcDbEntity
8
0
100
AcDbLine
10
-16.121367893762891
20
12.035530617050199
30
0
11
-19.909933874177273
21
2.8891232451883608
31
0
0
LINE
5
108
100
AcDbEntity
8
0
100
AcDbLine
10
-19.909933874177273
20
2.8891232451883613
30
0
11
-24.067391770478043
21
4.6111986908313298
31
1.3684555315672042e-47
0
LINE
5
109
100
AcDbEntity
8
0
100
AcDbLine
10
-19.909933874177273
20
-2.8891232451883013
30
0
11
-24.067391770478043
21
-4.6111986908312694
31
-1.3684555315672042e-47
0
LINE
5
110
100
AcDbEntity
8
0
100
AcDbLine
10
-17.652101623223171
20
-8.3400124870048646
30
0
11
-19.909933874177273
21
-2.8891232451883009
31
0
0
LINE
5
111
100
AcDbEntity
8
0
100
AcDbLine
10
-24.067391770478043
20
-4.6111986908312694
30
0
11
-21.809559519523969
21
-10.062087932647843
31
0
0
LINE
5
112
100
AcDbEntity
8
0
100
AcDbLine
10
-21.809559519523969
20
-10.062087932647843
30
0
11
-17.652101623223171
21
-8.3400124870048646
31
-2.7369110631344083e-47
0
LINE
5
113
100
AcDbEntity
8
0
100
AcDbLine
10
21.809559519523969
20
-10.062087932647843
30
0
11
17.652101623223171
21
-8.3400124870048646
31
-2.7369110631344083e-47
0
LINE
5
114
100
AcDbEntity
8
0
100
AcDbLine
10
17.652101623223171
20
-8.3400124870048646
30
0
11
19.909933874177273
21
-2.8891232451883009
31
-2.7369110631344083e-47
0
LINE
5
115
100
AcDbEntity
8
0
100
AcDbLine
10
19.909933874177273
20
-2.8891232451883013
30
0
11
24.067391770478043
21
-4.6111986908312694
31
-1.3684555315672042e-47
0
LINE
5
116
100
AcDbEntity
8
0
100
AcDbLine
10
24.067391770478043
20
-4.6111986908312694
30
0
11
21.809559519523969
21
-10.062087932647843
31
-2.7369110631344083e-47
0
LINE
5
117
100
AcDbEntity
8
0
100
AcDbLine
10
5.3249999999999922
20
13.999999999999984
30
0
11
-5.3249999999999984
21
13.999999999999984
31
1.3815786543876872e-93
0
LINE
5
118
100
AcDbEntity
8
0
100
AcDbLine
10
5.3249999999999993
20
26.240000000000006
30
0
11
5.3249999999999922
21
13.999999999999984
31
0
0
LINE
5
119
100
AcDbEntity
8
0
100
AcDbLine
10
-5.3249999999999984
20
13.999999999999984
30
0
11
-5.3250000000000171
21
26.24000000000003
31
0
0
LINE
5
120
100
AcDbEntity
8
0
100
AcDbLine
10
-5.3250000000000171
20
26.24000000000003
30
0
11
5.3249999999999993
21
26.240000000000006
31
-2.0187716201138946e-47
0
ENDSEC
0
SECTION
2
OBJECTS
0
DICTIONARY
5
C
100
AcDbDictionary
3
ACAD_GROUP
350
D
3
ACAD_MLINESTYLE
350
17
0
DICTIONARY
5
D
100
AcDbDictionary
0
DICTIONARY
5
1A
330
C
100
AcDbDictionary
0
DICTIONARY
5
17
100
AcDbDictionary
0
ENDSEC
0
EOF
