%TF.GenerationSoftware,KiCad,Pcbnew,(5.1.10)-1*%
%TF.CreationDate,2021-12-06T16:33:20+01:00*%
%TF.ProjectId,MiniAB-CAN-Board,4d696e69-4142-42d4-9341-4e2d426f6172,rev?*%
%TF.SameCoordinates,Original*%
%TF.FileFunction,Profile,NP*%
%FSLAX46Y46*%
G04 Gerber Fmt 4.6, Leading zero omitted, Abs format (unit mm)*
G04 Created by KiCad (PCBNEW (5.1.10)-1) date 2021-12-06 16:33:20*
%MOMM*%
%LPD*%
G01*
G04 APERTURE LIST*
%TA.AperFunction,Profile*%
%ADD10C,0.200000*%
%TD*%
G04 APERTURE END LIST*
D10*
X-42281889Y-43655991D02*
G75*
G02*
X-42281889Y-42241777I707107J707107D01*
G01*
X-36625029Y-36584916D02*
G75*
G02*
X-35210815Y-36584916I707107J-707107D01*
G01*
X-36625029Y-36584916D02*
X-42281889Y-42241777D01*
X-6219438Y-65676799D02*
X-144579Y-66686290D01*
X-42119999Y-43826800D02*
X-40448701Y-45489178D01*
X-40448700Y-45489178D02*
G75*
G02*
X-40633770Y-48481113I-1414214J-1414214D01*
G01*
X-40633770Y-48481113D02*
G75*
G02*
X-41357779Y-48995187I-6145721J7888607D01*
G01*
X1010000Y-65876798D02*
X2010000Y-59676799D01*
X-41357779Y-48995187D02*
X-47050972Y-52668640D01*
X-48689999Y-55676800D02*
G75*
G02*
X-47050972Y-52668640I3580000J0D01*
G01*
X-48374705Y-59674372D02*
G75*
G02*
X-48689999Y-55676800I25184705J3997572D01*
G01*
X-48374705Y-59674371D02*
X-47389999Y-65676799D01*
X-45911391Y-66667072D02*
G75*
G02*
X-47389999Y-65676799I-267824J1199119D01*
G01*
X-40160562Y-65676799D02*
G75*
G02*
X-37075005Y-67131344I0J-4000000D01*
G01*
X1009999Y-65876799D02*
G75*
G02*
X-144579Y-66686290I-1008845J210784D01*
G01*
X-9304995Y-67131345D02*
G75*
G02*
X-6219438Y-65676799I3085557J-2545453D01*
G01*
X-45911391Y-66667071D02*
X-40160562Y-65676798D01*
X2324701Y-55876793D02*
G75*
G02*
X2010000Y-59676799I-25514701J199993D01*
G01*
X-10681121Y-35877809D02*
X-3610048Y-42948884D01*
X-12095335Y-35877809D02*
G75*
G02*
X-10681121Y-35877809I707107J-707107D01*
G01*
X-3610048Y-44363098D02*
X-4861860Y-45614910D01*
X-28374521Y-36178569D02*
X-28374521Y-30177133D01*
X-9304996Y-67131345D02*
G75*
G02*
X-37075005Y-67131344I-13885004J11454545D01*
G01*
X-13956756Y-37739229D02*
G75*
G02*
X-18224523Y-35971462I-1767767J1767767D01*
G01*
X-18224523Y-30177133D02*
X-18224523Y-35971462D01*
X-28374521Y-30177133D02*
G75*
G02*
X-26874521Y-28677133I1500000J0D01*
G01*
X-19724523Y-28677133D02*
G75*
G02*
X-18224523Y-30177133I0J-1500000D01*
G01*
X-35210815Y-36584916D02*
X-33495842Y-38299889D01*
X-26874521Y-28677133D02*
X-19724523Y-28677133D01*
X-12095335Y-35877809D02*
X-13956756Y-37739229D01*
X-4407297Y-49509998D02*
X681958Y-52651615D01*
X-4407297Y-49509997D02*
G75*
G02*
X-4861860Y-45614910I1313203J2127320D01*
G01*
X-28374521Y-36178570D02*
G75*
G02*
X-33495842Y-38299889I-3000000J1D01*
G01*
X-3610048Y-42948884D02*
G75*
G02*
X-3610048Y-44363098I-707107J-707107D01*
G01*
X-42281889Y-43655991D02*
X-42119999Y-43826800D01*
X681957Y-52651615D02*
G75*
G02*
X2324702Y-55876793I-1951957J-3025185D01*
G01*
X-43629878Y-55617031D02*
G75*
G03*
X-43629878Y-55617031I-1500000J0D01*
G01*
X214522Y-55667831D02*
G75*
G03*
X214522Y-55667831I-1500000J0D01*
G01*
M02*
