G04 #@! TF.GenerationSoftware,KiCad,Pcbnew,(6.0.0)*
G04 #@! TF.CreationDate,2022-01-08T17:27:50+01:00*
G04 #@! TF.ProjectId,MiniAB-CAN-Board,4d696e69-4142-42d4-9341-4e2d426f6172,1*
G04 #@! TF.SameCoordinates,Original*
G04 #@! TF.FileFunction,Legend,Top*
G04 #@! TF.FilePolarity,Positive*
%FSLAX46Y46*%
G04 Gerber Fmt 4.6, Leading zero omitted, Abs format (unit mm)*
G04 Created by KiCad (PCBNEW (6.0.0)) date 2022-01-08 17:27:50*
%MOMM*%
%LPD*%
G01*
G04 APERTURE LIST*
%ADD10C,0.100000*%
%ADD11C,0.080000*%
%ADD12C,0.150000*%
%ADD13C,0.120000*%
G04 APERTURE END LIST*
D10*
X207630000Y-85710000D02*
X219340000Y-85710000D01*
X209050000Y-83720000D02*
X219340000Y-83700000D01*
X209050000Y-83710000D02*
X207620000Y-84590000D01*
X203313809Y-77866190D02*
X203480476Y-78366190D01*
X203647142Y-77866190D01*
X203813809Y-78175714D02*
X204194761Y-78175714D01*
X204004285Y-78366190D02*
X204004285Y-77985238D01*
D11*
X208593333Y-81010952D02*
X208593333Y-80610952D01*
X208745714Y-80610952D01*
X208783809Y-80630000D01*
X208802857Y-80649047D01*
X208821904Y-80687142D01*
X208821904Y-80744285D01*
X208802857Y-80782380D01*
X208783809Y-80801428D01*
X208745714Y-80820476D01*
X208593333Y-80820476D01*
X208974285Y-80896666D02*
X209164761Y-80896666D01*
X208936190Y-81010952D02*
X209069523Y-80610952D01*
X209202857Y-81010952D01*
X209355238Y-81010952D02*
X209431428Y-81010952D01*
X209469523Y-80991904D01*
X209488571Y-80972857D01*
X209526666Y-80915714D01*
X209545714Y-80839523D01*
X209545714Y-80687142D01*
X209526666Y-80649047D01*
X209507619Y-80630000D01*
X209469523Y-80610952D01*
X209393333Y-80610952D01*
X209355238Y-80630000D01*
X209336190Y-80649047D01*
X209317142Y-80687142D01*
X209317142Y-80782380D01*
X209336190Y-80820476D01*
X209355238Y-80839523D01*
X209393333Y-80858571D01*
X209469523Y-80858571D01*
X209507619Y-80839523D01*
X209526666Y-80820476D01*
X209545714Y-80782380D01*
X218654285Y-81010952D02*
X218654285Y-80610952D01*
X218806666Y-80610952D01*
X218844761Y-80630000D01*
X218863809Y-80649047D01*
X218882857Y-80687142D01*
X218882857Y-80744285D01*
X218863809Y-80782380D01*
X218844761Y-80801428D01*
X218806666Y-80820476D01*
X218654285Y-80820476D01*
X219187619Y-80801428D02*
X219244761Y-80820476D01*
X219263809Y-80839523D01*
X219282857Y-80877619D01*
X219282857Y-80934761D01*
X219263809Y-80972857D01*
X219244761Y-80991904D01*
X219206666Y-81010952D01*
X219054285Y-81010952D01*
X219054285Y-80610952D01*
X219187619Y-80610952D01*
X219225714Y-80630000D01*
X219244761Y-80649047D01*
X219263809Y-80687142D01*
X219263809Y-80725238D01*
X219244761Y-80763333D01*
X219225714Y-80782380D01*
X219187619Y-80801428D01*
X219054285Y-80801428D01*
X219663809Y-81010952D02*
X219435238Y-81010952D01*
X219549523Y-81010952D02*
X219549523Y-80610952D01*
X219511428Y-80668095D01*
X219473333Y-80706190D01*
X219435238Y-80725238D01*
X220025714Y-80610952D02*
X219835238Y-80610952D01*
X219816190Y-80801428D01*
X219835238Y-80782380D01*
X219873333Y-80763333D01*
X219968571Y-80763333D01*
X220006666Y-80782380D01*
X220025714Y-80801428D01*
X220044761Y-80839523D01*
X220044761Y-80934761D01*
X220025714Y-80972857D01*
X220006666Y-80991904D01*
X219968571Y-81010952D01*
X219873333Y-81010952D01*
X219835238Y-80991904D01*
X219816190Y-80972857D01*
D10*
X194900952Y-78356190D02*
X194900952Y-77856190D01*
X195091428Y-77856190D01*
X195139047Y-77880000D01*
X195162857Y-77903809D01*
X195186666Y-77951428D01*
X195186666Y-78022857D01*
X195162857Y-78070476D01*
X195139047Y-78094285D01*
X195091428Y-78118095D01*
X194900952Y-78118095D01*
X195567619Y-78094285D02*
X195639047Y-78118095D01*
X195662857Y-78141904D01*
X195686666Y-78189523D01*
X195686666Y-78260952D01*
X195662857Y-78308571D01*
X195639047Y-78332380D01*
X195591428Y-78356190D01*
X195400952Y-78356190D01*
X195400952Y-77856190D01*
X195567619Y-77856190D01*
X195615238Y-77880000D01*
X195639047Y-77903809D01*
X195662857Y-77951428D01*
X195662857Y-77999047D01*
X195639047Y-78046666D01*
X195615238Y-78070476D01*
X195567619Y-78094285D01*
X195400952Y-78094285D01*
X196162857Y-78356190D02*
X195877142Y-78356190D01*
X196020000Y-78356190D02*
X196020000Y-77856190D01*
X195972380Y-77927619D01*
X195924761Y-77975238D01*
X195877142Y-77999047D01*
X227819047Y-81010000D02*
X227771428Y-80986190D01*
X227700000Y-80986190D01*
X227628571Y-81010000D01*
X227580952Y-81057619D01*
X227557142Y-81105238D01*
X227533333Y-81200476D01*
X227533333Y-81271904D01*
X227557142Y-81367142D01*
X227580952Y-81414761D01*
X227628571Y-81462380D01*
X227700000Y-81486190D01*
X227747619Y-81486190D01*
X227819047Y-81462380D01*
X227842857Y-81438571D01*
X227842857Y-81271904D01*
X227747619Y-81271904D01*
X228057142Y-81486190D02*
X228057142Y-80986190D01*
X228342857Y-81486190D01*
X228342857Y-80986190D01*
X228580952Y-81486190D02*
X228580952Y-80986190D01*
X228700000Y-80986190D01*
X228771428Y-81010000D01*
X228819047Y-81057619D01*
X228842857Y-81105238D01*
X228866666Y-81200476D01*
X228866666Y-81271904D01*
X228842857Y-81367142D01*
X228819047Y-81414761D01*
X228771428Y-81462380D01*
X228700000Y-81486190D01*
X228580952Y-81486190D01*
X201170952Y-78366190D02*
X201170952Y-77866190D01*
X201361428Y-77866190D01*
X201409047Y-77890000D01*
X201432857Y-77913809D01*
X201456666Y-77961428D01*
X201456666Y-78032857D01*
X201432857Y-78080476D01*
X201409047Y-78104285D01*
X201361428Y-78128095D01*
X201170952Y-78128095D01*
X201837619Y-78104285D02*
X201909047Y-78128095D01*
X201932857Y-78151904D01*
X201956666Y-78199523D01*
X201956666Y-78270952D01*
X201932857Y-78318571D01*
X201909047Y-78342380D01*
X201861428Y-78366190D01*
X201670952Y-78366190D01*
X201670952Y-77866190D01*
X201837619Y-77866190D01*
X201885238Y-77890000D01*
X201909047Y-77913809D01*
X201932857Y-77961428D01*
X201932857Y-78009047D01*
X201909047Y-78056666D01*
X201885238Y-78080476D01*
X201837619Y-78104285D01*
X201670952Y-78104285D01*
X202266190Y-77866190D02*
X202313809Y-77866190D01*
X202361428Y-77890000D01*
X202385238Y-77913809D01*
X202409047Y-77961428D01*
X202432857Y-78056666D01*
X202432857Y-78175714D01*
X202409047Y-78270952D01*
X202385238Y-78318571D01*
X202361428Y-78342380D01*
X202313809Y-78366190D01*
X202266190Y-78366190D01*
X202218571Y-78342380D01*
X202194761Y-78318571D01*
X202170952Y-78270952D01*
X202147142Y-78175714D01*
X202147142Y-78056666D01*
X202170952Y-77961428D01*
X202194761Y-77913809D01*
X202218571Y-77890000D01*
X202266190Y-77866190D01*
X225344761Y-83262380D02*
X225416190Y-83286190D01*
X225535238Y-83286190D01*
X225582857Y-83262380D01*
X225606666Y-83238571D01*
X225630476Y-83190952D01*
X225630476Y-83143333D01*
X225606666Y-83095714D01*
X225582857Y-83071904D01*
X225535238Y-83048095D01*
X225440000Y-83024285D01*
X225392380Y-83000476D01*
X225368571Y-82976666D01*
X225344761Y-82929047D01*
X225344761Y-82881428D01*
X225368571Y-82833809D01*
X225392380Y-82810000D01*
X225440000Y-82786190D01*
X225559047Y-82786190D01*
X225630476Y-82810000D01*
X226130476Y-83238571D02*
X226106666Y-83262380D01*
X226035238Y-83286190D01*
X225987619Y-83286190D01*
X225916190Y-83262380D01*
X225868571Y-83214761D01*
X225844761Y-83167142D01*
X225820952Y-83071904D01*
X225820952Y-83000476D01*
X225844761Y-82905238D01*
X225868571Y-82857619D01*
X225916190Y-82810000D01*
X225987619Y-82786190D01*
X226035238Y-82786190D01*
X226106666Y-82810000D01*
X226130476Y-82833809D01*
X226582857Y-83286190D02*
X226344761Y-83286190D01*
X226344761Y-82786190D01*
X197129047Y-77880000D02*
X197081428Y-77856190D01*
X197010000Y-77856190D01*
X196938571Y-77880000D01*
X196890952Y-77927619D01*
X196867142Y-77975238D01*
X196843333Y-78070476D01*
X196843333Y-78141904D01*
X196867142Y-78237142D01*
X196890952Y-78284761D01*
X196938571Y-78332380D01*
X197010000Y-78356190D01*
X197057619Y-78356190D01*
X197129047Y-78332380D01*
X197152857Y-78308571D01*
X197152857Y-78141904D01*
X197057619Y-78141904D01*
X197367142Y-78356190D02*
X197367142Y-77856190D01*
X197652857Y-78356190D01*
X197652857Y-77856190D01*
X197890952Y-78356190D02*
X197890952Y-77856190D01*
X198010000Y-77856190D01*
X198081428Y-77880000D01*
X198129047Y-77927619D01*
X198152857Y-77975238D01*
X198176666Y-78070476D01*
X198176666Y-78141904D01*
X198152857Y-78237142D01*
X198129047Y-78284761D01*
X198081428Y-78332380D01*
X198010000Y-78356190D01*
X197890952Y-78356190D01*
X225320952Y-78776190D02*
X225630476Y-78776190D01*
X225463809Y-78966666D01*
X225535238Y-78966666D01*
X225582857Y-78990476D01*
X225606666Y-79014285D01*
X225630476Y-79061904D01*
X225630476Y-79180952D01*
X225606666Y-79228571D01*
X225582857Y-79252380D01*
X225535238Y-79276190D01*
X225392380Y-79276190D01*
X225344761Y-79252380D01*
X225320952Y-79228571D01*
X225773333Y-78776190D02*
X225940000Y-79276190D01*
X226106666Y-78776190D01*
X226225714Y-78776190D02*
X226535238Y-78776190D01*
X226368571Y-78966666D01*
X226440000Y-78966666D01*
X226487619Y-78990476D01*
X226511428Y-79014285D01*
X226535238Y-79061904D01*
X226535238Y-79180952D01*
X226511428Y-79228571D01*
X226487619Y-79252380D01*
X226440000Y-79276190D01*
X226297142Y-79276190D01*
X226249523Y-79252380D01*
X226225714Y-79228571D01*
X229388571Y-81486190D02*
X229388571Y-80986190D01*
X229579047Y-80986190D01*
X229626666Y-81010000D01*
X229650476Y-81033809D01*
X229674285Y-81081428D01*
X229674285Y-81152857D01*
X229650476Y-81200476D01*
X229626666Y-81224285D01*
X229579047Y-81248095D01*
X229388571Y-81248095D01*
X229864761Y-81343333D02*
X230102857Y-81343333D01*
X229817142Y-81486190D02*
X229983809Y-80986190D01*
X230150476Y-81486190D01*
X230579047Y-81486190D02*
X230293333Y-81486190D01*
X230436190Y-81486190D02*
X230436190Y-80986190D01*
X230388571Y-81057619D01*
X230340952Y-81105238D01*
X230293333Y-81129047D01*
X230888571Y-80986190D02*
X230936190Y-80986190D01*
X230983809Y-81010000D01*
X231007619Y-81033809D01*
X231031428Y-81081428D01*
X231055238Y-81176666D01*
X231055238Y-81295714D01*
X231031428Y-81390952D01*
X231007619Y-81438571D01*
X230983809Y-81462380D01*
X230936190Y-81486190D01*
X230888571Y-81486190D01*
X230840952Y-81462380D01*
X230817142Y-81438571D01*
X230793333Y-81390952D01*
X230769523Y-81295714D01*
X230769523Y-81176666D01*
X230793333Y-81081428D01*
X230817142Y-81033809D01*
X230840952Y-81010000D01*
X230888571Y-80986190D01*
D11*
X213504285Y-81010952D02*
X213504285Y-80610952D01*
X213656666Y-80610952D01*
X213694761Y-80630000D01*
X213713809Y-80649047D01*
X213732857Y-80687142D01*
X213732857Y-80744285D01*
X213713809Y-80782380D01*
X213694761Y-80801428D01*
X213656666Y-80820476D01*
X213504285Y-80820476D01*
X214037619Y-80801428D02*
X214094761Y-80820476D01*
X214113809Y-80839523D01*
X214132857Y-80877619D01*
X214132857Y-80934761D01*
X214113809Y-80972857D01*
X214094761Y-80991904D01*
X214056666Y-81010952D01*
X213904285Y-81010952D01*
X213904285Y-80610952D01*
X214037619Y-80610952D01*
X214075714Y-80630000D01*
X214094761Y-80649047D01*
X214113809Y-80687142D01*
X214113809Y-80725238D01*
X214094761Y-80763333D01*
X214075714Y-80782380D01*
X214037619Y-80801428D01*
X213904285Y-80801428D01*
X214513809Y-81010952D02*
X214285238Y-81010952D01*
X214399523Y-81010952D02*
X214399523Y-80610952D01*
X214361428Y-80668095D01*
X214323333Y-80706190D01*
X214285238Y-80725238D01*
X214647142Y-80610952D02*
X214894761Y-80610952D01*
X214761428Y-80763333D01*
X214818571Y-80763333D01*
X214856666Y-80782380D01*
X214875714Y-80801428D01*
X214894761Y-80839523D01*
X214894761Y-80934761D01*
X214875714Y-80972857D01*
X214856666Y-80991904D01*
X214818571Y-81010952D01*
X214704285Y-81010952D01*
X214666190Y-80991904D01*
X214647142Y-80972857D01*
D10*
X206080952Y-85476190D02*
X206390476Y-85476190D01*
X206223809Y-85666666D01*
X206295238Y-85666666D01*
X206342857Y-85690476D01*
X206366666Y-85714285D01*
X206390476Y-85761904D01*
X206390476Y-85880952D01*
X206366666Y-85928571D01*
X206342857Y-85952380D01*
X206295238Y-85976190D01*
X206152380Y-85976190D01*
X206104761Y-85952380D01*
X206080952Y-85928571D01*
X206533333Y-85476190D02*
X206700000Y-85976190D01*
X206866666Y-85476190D01*
X206985714Y-85476190D02*
X207295238Y-85476190D01*
X207128571Y-85666666D01*
X207200000Y-85666666D01*
X207247619Y-85690476D01*
X207271428Y-85714285D01*
X207295238Y-85761904D01*
X207295238Y-85880952D01*
X207271428Y-85928571D01*
X207247619Y-85952380D01*
X207200000Y-85976190D01*
X207057142Y-85976190D01*
X207009523Y-85952380D01*
X206985714Y-85928571D01*
X206319047Y-84390000D02*
X206271428Y-84366190D01*
X206200000Y-84366190D01*
X206128571Y-84390000D01*
X206080952Y-84437619D01*
X206057142Y-84485238D01*
X206033333Y-84580476D01*
X206033333Y-84651904D01*
X206057142Y-84747142D01*
X206080952Y-84794761D01*
X206128571Y-84842380D01*
X206200000Y-84866190D01*
X206247619Y-84866190D01*
X206319047Y-84842380D01*
X206342857Y-84818571D01*
X206342857Y-84651904D01*
X206247619Y-84651904D01*
X206557142Y-84866190D02*
X206557142Y-84366190D01*
X206842857Y-84866190D01*
X206842857Y-84366190D01*
X207080952Y-84866190D02*
X207080952Y-84366190D01*
X207200000Y-84366190D01*
X207271428Y-84390000D01*
X207319047Y-84437619D01*
X207342857Y-84485238D01*
X207366666Y-84580476D01*
X207366666Y-84651904D01*
X207342857Y-84747142D01*
X207319047Y-84794761D01*
X207271428Y-84842380D01*
X207200000Y-84866190D01*
X207080952Y-84866190D01*
X225609047Y-76810000D02*
X225561428Y-76786190D01*
X225490000Y-76786190D01*
X225418571Y-76810000D01*
X225370952Y-76857619D01*
X225347142Y-76905238D01*
X225323333Y-77000476D01*
X225323333Y-77071904D01*
X225347142Y-77167142D01*
X225370952Y-77214761D01*
X225418571Y-77262380D01*
X225490000Y-77286190D01*
X225537619Y-77286190D01*
X225609047Y-77262380D01*
X225632857Y-77238571D01*
X225632857Y-77071904D01*
X225537619Y-77071904D01*
X225847142Y-77286190D02*
X225847142Y-76786190D01*
X226132857Y-77286190D01*
X226132857Y-76786190D01*
X226370952Y-77286190D02*
X226370952Y-76786190D01*
X226490000Y-76786190D01*
X226561428Y-76810000D01*
X226609047Y-76857619D01*
X226632857Y-76905238D01*
X226656666Y-77000476D01*
X226656666Y-77071904D01*
X226632857Y-77167142D01*
X226609047Y-77214761D01*
X226561428Y-77262380D01*
X226490000Y-77286190D01*
X226370952Y-77286190D01*
X225332857Y-81262380D02*
X225404285Y-81286190D01*
X225523333Y-81286190D01*
X225570952Y-81262380D01*
X225594761Y-81238571D01*
X225618571Y-81190952D01*
X225618571Y-81143333D01*
X225594761Y-81095714D01*
X225570952Y-81071904D01*
X225523333Y-81048095D01*
X225428095Y-81024285D01*
X225380476Y-81000476D01*
X225356666Y-80976666D01*
X225332857Y-80929047D01*
X225332857Y-80881428D01*
X225356666Y-80833809D01*
X225380476Y-80810000D01*
X225428095Y-80786190D01*
X225547142Y-80786190D01*
X225618571Y-80810000D01*
X225832857Y-81286190D02*
X225832857Y-80786190D01*
X225951904Y-80786190D01*
X226023333Y-80810000D01*
X226070952Y-80857619D01*
X226094761Y-80905238D01*
X226118571Y-81000476D01*
X226118571Y-81071904D01*
X226094761Y-81167142D01*
X226070952Y-81214761D01*
X226023333Y-81262380D01*
X225951904Y-81286190D01*
X225832857Y-81286190D01*
X226309047Y-81143333D02*
X226547142Y-81143333D01*
X226261428Y-81286190D02*
X226428095Y-80786190D01*
X226594761Y-81286190D01*
X232094761Y-80986190D02*
X231856666Y-80986190D01*
X231832857Y-81224285D01*
X231856666Y-81200476D01*
X231904285Y-81176666D01*
X232023333Y-81176666D01*
X232070952Y-81200476D01*
X232094761Y-81224285D01*
X232118571Y-81271904D01*
X232118571Y-81390952D01*
X232094761Y-81438571D01*
X232070952Y-81462380D01*
X232023333Y-81486190D01*
X231904285Y-81486190D01*
X231856666Y-81462380D01*
X231832857Y-81438571D01*
X232261428Y-80986190D02*
X232428095Y-81486190D01*
X232594761Y-80986190D01*
G04 #@! TO.C,D7*
X211732811Y-46449349D02*
X211485375Y-46306492D01*
X211785375Y-45786877D01*
X212063159Y-46277170D02*
X212236364Y-46377170D01*
X212153452Y-46692206D02*
X211906016Y-46549349D01*
X212206016Y-46029734D01*
X212453452Y-46172591D01*
X212376144Y-46820778D02*
X212676144Y-46301163D01*
X212799862Y-46372591D01*
X212859807Y-46440192D01*
X212880723Y-46518250D01*
X212876895Y-46582023D01*
X212844496Y-46695283D01*
X212801639Y-46769514D01*
X212719752Y-46854203D01*
X212666437Y-46889404D01*
X212588379Y-46910320D01*
X212499862Y-46892206D01*
X212376144Y-46820778D01*
X213294734Y-46658305D02*
X213344221Y-46686877D01*
X213379422Y-46740192D01*
X213389880Y-46779221D01*
X213386052Y-46842994D01*
X213353653Y-46956254D01*
X213282225Y-47079972D01*
X213200338Y-47164661D01*
X213147023Y-47199862D01*
X213107994Y-47210320D01*
X213044221Y-47206492D01*
X212994734Y-47177921D01*
X212959532Y-47124606D01*
X212949074Y-47085576D01*
X212952902Y-47021803D01*
X212985302Y-46908543D01*
X213056730Y-46784826D01*
X213138617Y-46700137D01*
X213191932Y-46664935D01*
X213230961Y-46654478D01*
X213294734Y-46658305D01*
G04 #@! TO.C,D6*
X210040952Y-44774020D02*
X210362619Y-44959734D01*
X210075128Y-45057683D01*
X210149359Y-45100540D01*
X210184560Y-45153855D01*
X210195018Y-45192884D01*
X210191190Y-45256657D01*
X210119761Y-45380375D01*
X210066446Y-45415576D01*
X210027417Y-45426034D01*
X209963644Y-45422206D01*
X209815183Y-45336492D01*
X209779981Y-45283177D01*
X209769523Y-45244148D01*
X210511080Y-45045448D02*
X210384285Y-45665064D01*
X210857490Y-45245448D01*
X210981208Y-45316877D02*
X211302875Y-45502591D01*
X211015384Y-45600540D01*
X211089615Y-45643397D01*
X211124816Y-45696712D01*
X211135274Y-45735741D01*
X211131446Y-45799514D01*
X211060018Y-45923232D01*
X211006703Y-45958434D01*
X210967673Y-45968891D01*
X210903900Y-45965064D01*
X210755439Y-45879349D01*
X210720238Y-45826034D01*
X210709780Y-45787005D01*
G04 #@! TO.C,D9*
X217402857Y-67631428D02*
X217402857Y-67031428D01*
X217545714Y-67031428D01*
X217631428Y-67060000D01*
X217688571Y-67117142D01*
X217717142Y-67174285D01*
X217745714Y-67288571D01*
X217745714Y-67374285D01*
X217717142Y-67488571D01*
X217688571Y-67545714D01*
X217631428Y-67602857D01*
X217545714Y-67631428D01*
X217402857Y-67631428D01*
X218002857Y-67631428D02*
X218002857Y-67031428D01*
X218260000Y-67460000D02*
X218545714Y-67460000D01*
X218202857Y-67631428D02*
X218402857Y-67031428D01*
X218602857Y-67631428D01*
X219117142Y-67060000D02*
X219060000Y-67031428D01*
X218974285Y-67031428D01*
X218888571Y-67060000D01*
X218831428Y-67117142D01*
X218802857Y-67174285D01*
X218774285Y-67288571D01*
X218774285Y-67374285D01*
X218802857Y-67488571D01*
X218831428Y-67545714D01*
X218888571Y-67602857D01*
X218974285Y-67631428D01*
X219031428Y-67631428D01*
X219117142Y-67602857D01*
X219145714Y-67574285D01*
X219145714Y-67374285D01*
X219031428Y-67374285D01*
G04 #@! TO.C,J2*
X194298660Y-75493698D02*
X194889545Y-75389510D01*
X194929236Y-75614608D01*
X194911021Y-75675845D01*
X194887845Y-75708943D01*
X194836532Y-75747003D01*
X194752120Y-75761888D01*
X194690884Y-75743673D01*
X194657785Y-75720497D01*
X194619725Y-75669184D01*
X194580034Y-75444085D01*
X194518660Y-76412309D02*
X194485562Y-76389133D01*
X194442540Y-76309682D01*
X194432617Y-76253407D01*
X194445871Y-76164034D01*
X194492223Y-76097836D01*
X194543536Y-76059776D01*
X194651124Y-76011793D01*
X194735536Y-75996909D01*
X194853047Y-76005201D01*
X194914283Y-76023416D01*
X194980480Y-76069768D01*
X195023502Y-76149218D01*
X195033425Y-76205493D01*
X195020171Y-76294867D01*
X194996995Y-76327965D01*
X194851279Y-76817854D02*
X194816549Y-76620893D01*
X194507038Y-76675468D02*
X195097923Y-76571279D01*
X195147536Y-76852653D01*
G04 #@! TO.C,D2*
X203180000Y-84091428D02*
X203180000Y-83491428D01*
X203180000Y-83777142D02*
X203522857Y-83777142D01*
X203522857Y-84091428D02*
X203522857Y-83491428D01*
X203808571Y-83777142D02*
X204008571Y-83777142D01*
X204094285Y-84091428D02*
X203808571Y-84091428D01*
X203808571Y-83491428D01*
X204094285Y-83491428D01*
X204551428Y-83777142D02*
X204351428Y-83777142D01*
X204351428Y-84091428D02*
X204351428Y-83491428D01*
X204637142Y-83491428D01*
G04 #@! TO.C,D4*
X216735696Y-45552078D02*
X216746154Y-45513049D01*
X216781355Y-45459734D01*
X216905073Y-45388305D01*
X216968846Y-45384478D01*
X217007875Y-45394935D01*
X217061190Y-45430137D01*
X217089761Y-45479624D01*
X217107875Y-45568141D01*
X216982381Y-46036492D01*
X217304047Y-45850778D01*
X217549432Y-45247225D02*
X217749432Y-45593635D01*
X217311428Y-45120705D02*
X217401996Y-45563287D01*
X217723662Y-45377573D01*
X217647380Y-44959734D02*
X218120585Y-45379349D01*
X217993791Y-44759734D01*
D12*
G04 #@! TO.C,J1*
X238440404Y-79822262D02*
X239143838Y-79946296D01*
X239276256Y-80017999D01*
X239353510Y-80128328D01*
X239375598Y-80277284D01*
X239359060Y-80371075D01*
X239598860Y-79011102D02*
X239499633Y-79573849D01*
X239549246Y-79292476D02*
X238564439Y-79118828D01*
X238688588Y-79237426D01*
X238765841Y-79347755D01*
X238796199Y-79449815D01*
D10*
X233383270Y-76980567D02*
X232792385Y-76876378D01*
X232832076Y-76651279D01*
X232870137Y-76599966D01*
X232903235Y-76576790D01*
X232964471Y-76558575D01*
X233048883Y-76573459D01*
X233100197Y-76611519D01*
X233123373Y-76644618D01*
X233141587Y-76705854D01*
X233101896Y-76930953D01*
X233490721Y-76042111D02*
X233513897Y-76075210D01*
X233527150Y-76164583D01*
X233517227Y-76220858D01*
X233474206Y-76300309D01*
X233408008Y-76346661D01*
X233346772Y-76364875D01*
X233229261Y-76373167D01*
X233144849Y-76358283D01*
X233037261Y-76310300D01*
X232985948Y-76272240D01*
X232939596Y-76206042D01*
X232926343Y-76116669D01*
X232936265Y-76060394D01*
X232979287Y-75980943D01*
X233012386Y-75957768D01*
X233316866Y-75547261D02*
X233282137Y-75744222D01*
X233591648Y-75798797D02*
X233000763Y-75694608D01*
X233050377Y-75413235D01*
G04 #@! TO.C,D1*
X217685714Y-79971428D02*
X217685714Y-79371428D01*
X217914285Y-79371428D01*
X217971428Y-79400000D01*
X218000000Y-79428571D01*
X218028571Y-79485714D01*
X218028571Y-79571428D01*
X218000000Y-79628571D01*
X217971428Y-79657142D01*
X217914285Y-79685714D01*
X217685714Y-79685714D01*
X218628571Y-79914285D02*
X218600000Y-79942857D01*
X218514285Y-79971428D01*
X218457142Y-79971428D01*
X218371428Y-79942857D01*
X218314285Y-79885714D01*
X218285714Y-79828571D01*
X218257142Y-79714285D01*
X218257142Y-79628571D01*
X218285714Y-79514285D01*
X218314285Y-79457142D01*
X218371428Y-79400000D01*
X218457142Y-79371428D01*
X218514285Y-79371428D01*
X218600000Y-79400000D01*
X218628571Y-79428571D01*
X219085714Y-79657142D02*
X218885714Y-79657142D01*
X218885714Y-79971428D02*
X218885714Y-79371428D01*
X219171428Y-79371428D01*
G04 #@! TO.C,D3*
X215519816Y-46883635D02*
X215219816Y-46364020D01*
X215362674Y-46611456D02*
X215659597Y-46440027D01*
X215816739Y-46712206D02*
X215516739Y-46192591D01*
X215863150Y-45992591D02*
X215912637Y-45964020D01*
X215976410Y-45960192D01*
X216015439Y-45970650D01*
X216068754Y-46005851D01*
X216150640Y-46090540D01*
X216222069Y-46214258D01*
X216254468Y-46327518D01*
X216258296Y-46391291D01*
X216247838Y-46430320D01*
X216212637Y-46483635D01*
X216163150Y-46512206D01*
X216099377Y-46516034D01*
X216060347Y-46505576D01*
X216007032Y-46470375D01*
X215925146Y-46385686D01*
X215853717Y-46261968D01*
X215821318Y-46148708D01*
X215817490Y-46084935D01*
X215827948Y-46045906D01*
X215863150Y-45992591D01*
G04 #@! TO.C,D5*
X229495714Y-71981428D02*
X229210000Y-71981428D01*
X229181428Y-72267142D01*
X229210000Y-72238571D01*
X229267142Y-72210000D01*
X229410000Y-72210000D01*
X229467142Y-72238571D01*
X229495714Y-72267142D01*
X229524285Y-72324285D01*
X229524285Y-72467142D01*
X229495714Y-72524285D01*
X229467142Y-72552857D01*
X229410000Y-72581428D01*
X229267142Y-72581428D01*
X229210000Y-72552857D01*
X229181428Y-72524285D01*
X229695714Y-71981428D02*
X229895714Y-72581428D01*
X230095714Y-71981428D01*
D13*
G04 #@! TO.C,C35*
X203602591Y-59421890D02*
X203755094Y-59269387D01*
X204111708Y-59931007D02*
X204264211Y-59778504D01*
G04 #@! TO.C,C41*
X199888338Y-60335177D02*
X200087149Y-60533988D01*
X199167089Y-61056426D02*
X199365900Y-61255237D01*
G04 #@! TO.C,R22*
X211060000Y-82086359D02*
X211060000Y-82393641D01*
X211820000Y-82086359D02*
X211820000Y-82393641D01*
G04 #@! TO.C,FB1*
X194132770Y-68471697D02*
X194468303Y-68807230D01*
X194871697Y-67732770D02*
X195207230Y-68068303D01*
G04 #@! TO.C,R32*
X214430000Y-59906359D02*
X214430000Y-60213641D01*
X215190000Y-59906359D02*
X215190000Y-60213641D01*
G04 #@! TO.C,C36*
X200962705Y-59259937D02*
X201161516Y-59458748D01*
X200241456Y-59981186D02*
X200440267Y-60179997D01*
G04 #@! TO.C,L2*
X220080000Y-64390000D02*
X220080000Y-63240000D01*
X220080000Y-64390000D02*
X225680000Y-64390000D01*
X225680000Y-58990000D02*
X225680000Y-60140000D01*
X220080000Y-58990000D02*
X225680000Y-58990000D01*
X220080000Y-58990000D02*
X220080000Y-60140000D01*
X225680000Y-64390000D02*
X225680000Y-63240000D01*
G04 #@! TO.C,C3*
X196302164Y-71896500D02*
X196517836Y-71896500D01*
X196302164Y-72616500D02*
X196517836Y-72616500D01*
G04 #@! TO.C,C21*
X217681252Y-56893544D02*
X217158748Y-56893544D01*
X217681252Y-55423544D02*
X217158748Y-55423544D01*
G04 #@! TO.C,C45*
X200104333Y-67898999D02*
X199905522Y-67700188D01*
X200825582Y-67177750D02*
X200626771Y-66978939D01*
G04 #@! TO.C,R21*
X211820000Y-84006359D02*
X211820000Y-84313641D01*
X211060000Y-84006359D02*
X211060000Y-84313641D01*
G04 #@! TO.C,R25*
X208153641Y-67090000D02*
X207846359Y-67090000D01*
X208153641Y-66330000D02*
X207846359Y-66330000D01*
G04 #@! TO.C,C42*
X216057836Y-64460000D02*
X215842164Y-64460000D01*
X216057836Y-63740000D02*
X215842164Y-63740000D01*
G04 #@! TO.C,R5*
X211133641Y-80410000D02*
X210826359Y-80410000D01*
X211133641Y-81170000D02*
X210826359Y-81170000D01*
G04 #@! TO.C,U4*
X225110000Y-72880000D02*
X224310000Y-72880000D01*
X225110000Y-72880000D02*
X226910000Y-72880000D01*
X225110000Y-69760000D02*
X224310000Y-69760000D01*
X225110000Y-69760000D02*
X225910000Y-69760000D01*
G04 #@! TO.C,R37*
X213420000Y-62123641D02*
X213420000Y-61816359D01*
X214180000Y-62123641D02*
X214180000Y-61816359D01*
G04 #@! TO.C,R20*
X210083641Y-47330000D02*
X209776359Y-47330000D01*
X210083641Y-48090000D02*
X209776359Y-48090000D01*
G04 #@! TO.C,D8*
X212560000Y-56117500D02*
X212560000Y-55467500D01*
X212560000Y-56117500D02*
X212560000Y-56767500D01*
X209440000Y-56117500D02*
X209440000Y-57792500D01*
X209440000Y-56117500D02*
X209440000Y-55467500D01*
G04 #@! TO.C,R17*
X208093641Y-45410000D02*
X207786359Y-45410000D01*
X208093641Y-46170000D02*
X207786359Y-46170000D01*
G04 #@! TO.C,C18*
X222180000Y-72217836D02*
X222180000Y-72002164D01*
X222900000Y-72217836D02*
X222900000Y-72002164D01*
G04 #@! TO.C,C6*
X206370000Y-68487836D02*
X206370000Y-68272164D01*
X207090000Y-68487836D02*
X207090000Y-68272164D01*
G04 #@! TO.C,R23*
X199620564Y-69007965D02*
X199403283Y-68790684D01*
X200157965Y-68470564D02*
X199940684Y-68253283D01*
G04 #@! TO.C,C1*
X199462500Y-69745000D02*
X195552500Y-69745000D01*
X195552500Y-69745000D02*
X195552500Y-71615000D01*
X195552500Y-71615000D02*
X199462500Y-71615000D01*
D10*
G04 #@! TO.C,D7*
X212943947Y-47815000D02*
G75*
G03*
X212943947Y-47815000I-50001J0D01*
G01*
D13*
G04 #@! TO.C,C2*
X201310000Y-72097836D02*
X201310000Y-71882164D01*
X202030000Y-72097836D02*
X202030000Y-71882164D01*
G04 #@! TO.C,R9*
X219150000Y-47403641D02*
X219150000Y-47096359D01*
X219910000Y-47403641D02*
X219910000Y-47096359D01*
G04 #@! TO.C,C24*
X217681252Y-57443545D02*
X217158748Y-57443545D01*
X217681252Y-58913545D02*
X217158748Y-58913545D01*
G04 #@! TO.C,R31*
X214430000Y-61826359D02*
X214430000Y-62133641D01*
X215190000Y-61826359D02*
X215190000Y-62133641D01*
D10*
G04 #@! TO.C,D6*
X211033969Y-46725000D02*
G75*
G03*
X211033969Y-46725000I-50001J0D01*
G01*
D13*
G04 #@! TO.C,C43*
X196951609Y-66263792D02*
X196582142Y-66633259D01*
X197991056Y-67303239D02*
X197621589Y-67672706D01*
G04 #@! TO.C,C25*
X207217028Y-58091409D02*
X207586495Y-57721942D01*
X206177581Y-57051962D02*
X206547048Y-56682495D01*
G04 #@! TO.C,U3*
X228930000Y-75210000D02*
X229730000Y-75210000D01*
X228930000Y-75210000D02*
X227130000Y-75210000D01*
X228930000Y-78330000D02*
X229730000Y-78330000D01*
X228930000Y-78330000D02*
X228130000Y-78330000D01*
G04 #@! TO.C,C33*
X209442164Y-58200000D02*
X209657836Y-58200000D01*
X209442164Y-58920000D02*
X209657836Y-58920000D01*
G04 #@! TO.C,C23*
X218922164Y-74260000D02*
X219137836Y-74260000D01*
X218922164Y-73540000D02*
X219137836Y-73540000D01*
G04 #@! TO.C,C49*
X225391252Y-66315000D02*
X224868748Y-66315000D01*
X225391252Y-64845000D02*
X224868748Y-64845000D01*
G04 #@! TO.C,U2*
X209200000Y-77110000D02*
X208750000Y-77110000D01*
X215970000Y-69890000D02*
X215970000Y-70340000D01*
X208750000Y-69890000D02*
X208750000Y-70340000D01*
X209200000Y-69890000D02*
X208750000Y-69890000D01*
X215520000Y-69890000D02*
X215970000Y-69890000D01*
X215970000Y-77110000D02*
X215970000Y-76660000D01*
X208750000Y-70340000D02*
X207460000Y-70340000D01*
X208750000Y-77110000D02*
X208750000Y-76660000D01*
X215520000Y-77110000D02*
X215970000Y-77110000D01*
G04 #@! TO.C,J8*
X198342741Y-58519950D02*
X197989188Y-58166397D01*
X199403401Y-56752183D02*
X199544823Y-56610762D01*
X197989188Y-58166397D02*
X198130609Y-58024975D01*
X192820237Y-57947193D02*
X192961659Y-58088615D01*
X196999238Y-59863453D02*
X196645685Y-59509899D01*
X195266827Y-62458535D02*
X202422747Y-55302614D01*
X193173791Y-57876483D02*
X193032369Y-57735061D01*
X200930752Y-53810619D02*
X200499417Y-54241954D01*
X199756955Y-57105736D02*
X199403401Y-56752183D01*
X193032369Y-57735061D02*
X192820237Y-57947193D01*
X193739476Y-57310797D02*
X194170811Y-57742132D01*
X201560077Y-55302614D02*
X199085203Y-52827740D01*
X193774831Y-60966539D02*
X194206167Y-60535204D01*
X191505019Y-59120991D02*
X192388902Y-60004874D01*
X191929283Y-59120991D02*
X195266827Y-62458535D01*
X197706345Y-54206599D02*
X197275010Y-53775263D01*
X199085203Y-52827740D02*
X197706345Y-54206599D01*
X198130609Y-58024975D02*
X198484163Y-58378529D01*
X193103080Y-57805772D02*
X192890948Y-58017904D01*
X196928528Y-59934163D02*
X196574974Y-59580610D01*
X199544823Y-56610762D02*
X199898376Y-56964315D01*
X199827666Y-57035026D02*
X199474112Y-56681472D01*
X192855593Y-60047301D02*
X193286928Y-59615965D01*
X196574974Y-59580610D02*
X196716396Y-59439189D01*
X195266827Y-61595864D02*
X201560077Y-55302614D01*
X199085203Y-51965070D02*
X191929283Y-59120991D01*
X200011513Y-52891380D02*
X199580178Y-53322715D01*
X192791953Y-59120991D02*
X195266827Y-61595864D01*
X194170811Y-57742132D02*
X192791953Y-59120991D01*
X192388902Y-58237107D02*
X191505019Y-59120991D01*
X202422747Y-55302614D02*
X199085203Y-51965070D01*
X198413452Y-58449239D02*
X198059899Y-58095686D01*
X196716396Y-59439189D02*
X197069949Y-59792742D01*
G04 #@! TO.C,R10*
X218223641Y-48090000D02*
X217916359Y-48090000D01*
X218223641Y-47330000D02*
X217916359Y-47330000D01*
G04 #@! TO.C,C11*
X208070000Y-68487836D02*
X208070000Y-68272164D01*
X207350000Y-68487836D02*
X207350000Y-68272164D01*
G04 #@! TO.C,R14*
X221750000Y-84006359D02*
X221750000Y-84313641D01*
X220990000Y-84006359D02*
X220990000Y-84313641D01*
G04 #@! TO.C,Q3*
X218945000Y-49330000D02*
X218650000Y-49330000D01*
X222190000Y-52170000D02*
X222190000Y-49330000D01*
X222190000Y-49330000D02*
X221895000Y-49330000D01*
X221895000Y-52170000D02*
X222190000Y-52170000D01*
X221895000Y-48600000D02*
X221895000Y-49330000D01*
X218650000Y-52170000D02*
X218945000Y-52170000D01*
X218650000Y-49330000D02*
X218650000Y-52170000D01*
G04 #@! TO.C,C9*
X209050000Y-68487836D02*
X209050000Y-68272164D01*
X208330000Y-68487836D02*
X208330000Y-68272164D01*
G04 #@! TO.C,R24*
X215280000Y-67206359D02*
X215280000Y-67513641D01*
X216040000Y-67206359D02*
X216040000Y-67513641D01*
G04 #@! TO.C,Q2*
X206017500Y-80980000D02*
X205367500Y-80980000D01*
X206017500Y-84100000D02*
X205367500Y-84100000D01*
X206017500Y-80980000D02*
X206667500Y-80980000D01*
X206017500Y-84100000D02*
X207692500Y-84100000D01*
D10*
G04 #@! TO.C,D9*
X216710000Y-68450000D02*
G75*
G03*
X216710000Y-68450000I-50000J0D01*
G01*
D13*
G04 #@! TO.C,C13*
X207062164Y-77520000D02*
X207277836Y-77520000D01*
X207062164Y-76800000D02*
X207277836Y-76800000D01*
G04 #@! TO.C,C22*
X225398387Y-74304502D02*
X224875883Y-74304502D01*
X225398387Y-75774502D02*
X224875883Y-75774502D01*
G04 #@! TO.C,R30*
X196057125Y-62590365D02*
X197080644Y-61566846D01*
X197973384Y-64506624D02*
X198996903Y-63483105D01*
G04 #@! TO.C,U5*
X201113007Y-63985841D02*
X200639839Y-64459009D01*
X203884497Y-67703667D02*
X204357665Y-68176835D01*
X200639839Y-64459009D02*
X201113007Y-64932177D01*
X204357665Y-60741183D02*
X203884497Y-61214351D01*
X204830833Y-61214351D02*
X204357665Y-60741183D01*
X208075491Y-64459009D02*
X207602323Y-63985841D01*
X207602323Y-64932177D02*
X208075491Y-64459009D01*
X204357665Y-68176835D02*
X204830833Y-67703667D01*
D10*
X206033650Y-67111507D02*
X206213255Y-67291112D01*
X206213255Y-67291112D02*
X206482663Y-67021705D01*
X206482663Y-67021705D02*
X206303058Y-66842100D01*
X206303058Y-66842100D02*
X206033650Y-67111507D01*
G36*
X206482663Y-67021705D02*
G01*
X206213255Y-67291112D01*
X206033650Y-67111507D01*
X206303058Y-66842100D01*
X206482663Y-67021705D01*
G37*
X206482663Y-67021705D02*
X206213255Y-67291112D01*
X206033650Y-67111507D01*
X206303058Y-66842100D01*
X206482663Y-67021705D01*
X205859701Y-61273351D02*
X206129108Y-61542759D01*
X206129108Y-61542759D02*
X205949503Y-61722364D01*
X205949503Y-61722364D02*
X205680095Y-61452956D01*
X205680095Y-61452956D02*
X205859701Y-61273351D01*
G36*
X206129108Y-61542759D02*
G01*
X205949503Y-61722364D01*
X205680095Y-61452956D01*
X205859701Y-61273351D01*
X206129108Y-61542759D01*
G37*
X206129108Y-61542759D02*
X205949503Y-61722364D01*
X205680095Y-61452956D01*
X205859701Y-61273351D01*
X206129108Y-61542759D01*
D13*
G04 #@! TO.C,R27*
X209207500Y-60327742D02*
X209207500Y-60802258D01*
X210252500Y-60327742D02*
X210252500Y-60802258D01*
G04 #@! TO.C,J2*
X194436848Y-81078580D02*
X193585972Y-76253022D01*
X190477758Y-78781166D02*
X189877026Y-78887092D01*
X193501641Y-78654145D02*
X193994045Y-78567321D01*
X190044725Y-80989917D02*
X190241687Y-80955188D01*
X190722585Y-76138505D02*
X190828510Y-76739237D01*
X190139144Y-76860791D02*
X190477758Y-78781166D01*
X194028774Y-78764282D02*
X193536371Y-78851106D01*
X189992631Y-80694475D02*
X190044725Y-80989917D01*
X190050674Y-79871899D02*
X190651407Y-79765974D01*
X190034805Y-81509534D02*
X190251865Y-82740544D01*
X189432486Y-76365984D02*
X190495213Y-82393007D01*
X190189592Y-80659746D02*
X189992631Y-80694475D01*
X191785311Y-82165528D02*
X191679386Y-81564795D01*
X193536371Y-78851106D02*
X193501641Y-78654145D01*
X195143506Y-81573388D02*
X194080779Y-75546364D01*
X192002835Y-75912762D02*
X192108760Y-76513495D01*
X190091112Y-80677110D02*
X190143206Y-80972553D01*
X190495213Y-82393007D02*
X195143506Y-81573388D01*
X194080779Y-75546364D02*
X189432486Y-76365984D01*
X193065561Y-81939785D02*
X192959636Y-81339053D01*
X194011410Y-78665801D02*
X193519006Y-78752626D01*
X193585972Y-76253022D02*
X190139144Y-76860791D01*
X190990021Y-81686349D02*
X194436848Y-81078580D01*
X190251865Y-82740544D02*
X191482875Y-82523484D01*
X190651407Y-79765974D02*
X190990021Y-81686349D01*
G04 #@! TO.C,R36*
X213910000Y-63736359D02*
X213910000Y-64043641D01*
X213150000Y-63736359D02*
X213150000Y-64043641D01*
G04 #@! TO.C,R15*
X221750000Y-82086359D02*
X221750000Y-82393641D01*
X220990000Y-82086359D02*
X220990000Y-82393641D01*
G04 #@! TO.C,R35*
X208490000Y-59183641D02*
X208490000Y-58876359D01*
X207730000Y-59183641D02*
X207730000Y-58876359D01*
G04 #@! TO.C,R12*
X213800000Y-79953641D02*
X213800000Y-79646359D01*
X213040000Y-79953641D02*
X213040000Y-79646359D01*
G04 #@! TO.C,R13*
X214153641Y-47450000D02*
X213846359Y-47450000D01*
X214153641Y-48210000D02*
X213846359Y-48210000D01*
G04 #@! TO.C,R7*
X203190000Y-81616359D02*
X203190000Y-81923641D01*
X203950000Y-81616359D02*
X203950000Y-81923641D01*
G04 #@! TO.C,R3*
X221670000Y-79553641D02*
X221670000Y-79246359D01*
X222430000Y-79553641D02*
X222430000Y-79246359D01*
G04 #@! TO.C,R4*
X213170000Y-66656359D02*
X213170000Y-66963641D01*
X213930000Y-66656359D02*
X213930000Y-66963641D01*
G04 #@! TO.C,R8*
X220193641Y-45410000D02*
X219886359Y-45410000D01*
X220193641Y-46170000D02*
X219886359Y-46170000D01*
G04 #@! TO.C,C32*
X212302164Y-58920000D02*
X212517836Y-58920000D01*
X212302164Y-58200000D02*
X212517836Y-58200000D01*
G04 #@! TO.C,Y1*
X205890000Y-76410000D02*
X205890000Y-70660000D01*
X202290000Y-76410000D02*
X205890000Y-76410000D01*
X202290000Y-70660000D02*
X202290000Y-76410000D01*
G04 #@! TO.C,C15*
X225487836Y-68740000D02*
X225272164Y-68740000D01*
X225487836Y-69460000D02*
X225272164Y-69460000D01*
G04 #@! TO.C,C14*
X212790000Y-79662164D02*
X212790000Y-79877836D01*
X212070000Y-79662164D02*
X212070000Y-79877836D01*
G04 #@! TO.C,C40*
X211012164Y-66350000D02*
X211227836Y-66350000D01*
X211012164Y-67070000D02*
X211227836Y-67070000D01*
G04 #@! TO.C,C17*
X218922164Y-75200000D02*
X219137836Y-75200000D01*
X218922164Y-74480000D02*
X219137836Y-74480000D01*
G04 #@! TO.C,C10*
X216372164Y-77410000D02*
X216587836Y-77410000D01*
X216372164Y-78130000D02*
X216587836Y-78130000D01*
G04 #@! TO.C,Q1*
X221380000Y-78410000D02*
X221380000Y-79060000D01*
X218260000Y-78410000D02*
X218260000Y-79060000D01*
X218260000Y-78410000D02*
X218260000Y-77760000D01*
X221380000Y-78410000D02*
X221380000Y-76735000D01*
G04 #@! TO.C,R29*
X214900000Y-63736359D02*
X214900000Y-64043641D01*
X214140000Y-63736359D02*
X214140000Y-64043641D01*
G04 #@! TO.C,R34*
X212940000Y-67333641D02*
X212940000Y-67026359D01*
X212180000Y-67333641D02*
X212180000Y-67026359D01*
G04 #@! TO.C,C8*
X216972164Y-70190000D02*
X217187836Y-70190000D01*
X216972164Y-69470000D02*
X217187836Y-69470000D01*
G04 #@! TO.C,C26*
X201709190Y-67448307D02*
X201861693Y-67600810D01*
X202218307Y-66939190D02*
X202370810Y-67091693D01*
G04 #@! TO.C,C47*
X208420000Y-65172164D02*
X208420000Y-65387836D01*
X209140000Y-65172164D02*
X209140000Y-65387836D01*
G04 #@! TO.C,R6*
X210826359Y-79400000D02*
X211133641Y-79400000D01*
X210826359Y-80160000D02*
X211133641Y-80160000D01*
G04 #@! TO.C,C38*
X205593573Y-58728925D02*
X205441070Y-58576422D01*
X205084456Y-59238042D02*
X204931953Y-59085539D01*
G04 #@! TO.C,FB2*
X207277742Y-78922500D02*
X207752258Y-78922500D01*
X207277742Y-77877500D02*
X207752258Y-77877500D01*
G04 #@! TO.C,C27*
X198627718Y-68251399D02*
X198780221Y-68098896D01*
X198118601Y-67742282D02*
X198271104Y-67589779D01*
G04 #@! TO.C,C51*
X225391252Y-68335000D02*
X224868748Y-68335000D01*
X225391252Y-66865000D02*
X224868748Y-66865000D01*
G04 #@! TO.C,R1*
X220850000Y-75196359D02*
X220850000Y-75503641D01*
X220090000Y-75196359D02*
X220090000Y-75503641D01*
G04 #@! TO.C,R18*
X216030000Y-84016359D02*
X216030000Y-84323641D01*
X216790000Y-84016359D02*
X216790000Y-84323641D01*
D10*
G04 #@! TO.C,D2*
X202620000Y-82862500D02*
G75*
G03*
X202620000Y-82862500I-50000J0D01*
G01*
D13*
G04 #@! TO.C,R2*
X221090000Y-75503641D02*
X221090000Y-75196359D01*
X221850000Y-75503641D02*
X221850000Y-75196359D01*
G04 #@! TO.C,C16*
X225487836Y-73180000D02*
X225272164Y-73180000D01*
X225487836Y-73900000D02*
X225272164Y-73900000D01*
G04 #@! TO.C,C19*
X218922164Y-75460000D02*
X219137836Y-75460000D01*
X218922164Y-76180000D02*
X219137836Y-76180000D01*
G04 #@! TO.C,C7*
X206880000Y-71062164D02*
X206880000Y-71277836D01*
X206160000Y-71062164D02*
X206160000Y-71277836D01*
D10*
G04 #@! TO.C,D4*
X217046055Y-46722500D02*
G75*
G03*
X217046055Y-46722500I-50001J0D01*
G01*
D13*
G04 #@! TO.C,C28*
X203700580Y-68640000D02*
X203419420Y-68640000D01*
X203700580Y-69660000D02*
X203419420Y-69660000D01*
G04 #@! TO.C,C5*
X201310000Y-74847836D02*
X201310000Y-74632164D01*
X202030000Y-74847836D02*
X202030000Y-74632164D01*
G04 #@! TO.C,C29*
X211340000Y-59117836D02*
X211340000Y-58902164D01*
X210620000Y-59117836D02*
X210620000Y-58902164D01*
G04 #@! TO.C,R33*
X209300000Y-67333641D02*
X209300000Y-67026359D01*
X210060000Y-67333641D02*
X210060000Y-67026359D01*
G04 #@! TO.C,U1*
X195373000Y-73333000D02*
X195373000Y-76587000D01*
X200627000Y-76587000D02*
X200627000Y-73333000D01*
D10*
X197790501Y-77245401D02*
X197409501Y-77245401D01*
X197409501Y-77245401D02*
X197409501Y-76991401D01*
X197409501Y-76991401D02*
X197790501Y-76991401D01*
X197790501Y-76991401D02*
X197790501Y-77245401D01*
G36*
X197790501Y-77245401D02*
G01*
X197409501Y-77245401D01*
X197409501Y-76991401D01*
X197790501Y-76991401D01*
X197790501Y-77245401D01*
G37*
X197790501Y-77245401D02*
X197409501Y-77245401D01*
X197409501Y-76991401D01*
X197790501Y-76991401D01*
X197790501Y-77245401D01*
D13*
G04 #@! TO.C,J1*
X236142685Y-82185843D02*
X236248611Y-81585110D01*
X233933952Y-78587635D02*
X234426356Y-78674459D01*
X238050971Y-78907406D02*
X237450238Y-78801481D01*
X238495510Y-76386298D02*
X233847218Y-75566679D01*
X238386851Y-78154290D02*
X238438945Y-77858847D01*
X232784491Y-81593702D02*
X237432783Y-82413322D01*
X233491149Y-81098895D02*
X236937976Y-81706664D01*
X238625987Y-77373960D02*
X238843047Y-76142950D01*
X233916587Y-78686116D02*
X234408991Y-78772940D01*
X237205412Y-76158819D02*
X237099487Y-76759552D01*
X237788852Y-76881106D02*
X234342025Y-76273337D01*
X235925162Y-75933076D02*
X235819237Y-76533809D01*
X234862435Y-81960100D02*
X234968361Y-81359367D01*
X234391626Y-78871421D02*
X233899222Y-78784597D01*
X236937976Y-81706664D02*
X237276590Y-79786288D01*
X238438945Y-77858847D02*
X238241984Y-77824118D01*
X237432783Y-82413322D02*
X238495510Y-76386298D01*
X238189889Y-78119560D02*
X238386851Y-78154290D01*
X237450238Y-78801481D02*
X237788852Y-76881106D01*
X238288370Y-78136925D02*
X238340465Y-77841482D01*
X238843047Y-76142950D02*
X237612037Y-75925890D01*
X233847218Y-75566679D02*
X232784491Y-81593702D01*
X234426356Y-78674459D02*
X234391626Y-78871421D01*
X237276590Y-79786288D02*
X237877323Y-79892214D01*
X234342025Y-76273337D02*
X233491149Y-81098895D01*
D10*
G04 #@! TO.C,D1*
X222100000Y-76327500D02*
G75*
G03*
X222100000Y-76327500I-50000J0D01*
G01*
D13*
G04 #@! TO.C,U6*
X217387224Y-60338544D02*
X216587224Y-60338544D01*
X217387224Y-60338544D02*
X218187224Y-60338544D01*
X217387224Y-63458544D02*
X216587224Y-63458544D01*
X217387224Y-63458544D02*
X219187224Y-63458544D01*
G04 #@! TO.C,R19*
X216030000Y-82096359D02*
X216030000Y-82403641D01*
X216790000Y-82096359D02*
X216790000Y-82403641D01*
D10*
G04 #@! TO.C,D3*
X215156033Y-47815000D02*
G75*
G03*
X215156033Y-47815000I-50001J0D01*
G01*
D13*
G04 #@! TO.C,C12*
X206880000Y-74527836D02*
X206880000Y-74312164D01*
X206160000Y-74527836D02*
X206160000Y-74312164D01*
G04 #@! TO.C,C46*
X199837723Y-64204992D02*
X199685220Y-64357495D01*
X199328606Y-63695875D02*
X199176103Y-63848378D01*
D10*
G04 #@! TO.C,D5*
X230750000Y-73480000D02*
G75*
G03*
X230750000Y-73480000I-50000J0D01*
G01*
D13*
G04 #@! TO.C,C37*
X206774361Y-61247137D02*
X206575550Y-61048326D01*
X207495610Y-60525888D02*
X207296799Y-60327077D01*
G04 #@! TO.C,R16*
X231212659Y-74460060D02*
X231429940Y-74677341D01*
X231750060Y-73922659D02*
X231967341Y-74139940D01*
G04 #@! TO.C,R26*
X212752500Y-60802258D02*
X212752500Y-60327742D01*
X211707500Y-60802258D02*
X211707500Y-60327742D01*
G04 #@! TO.C,C4*
X199357836Y-71896499D02*
X199142164Y-71896499D01*
X199357836Y-72616499D02*
X199142164Y-72616499D01*
G04 #@! TO.C,C30*
X217777837Y-60038545D02*
X217562165Y-60038545D01*
X217777837Y-59318545D02*
X217562165Y-59318545D01*
G04 #@! TO.C,U8*
X209440000Y-64140000D02*
X209440000Y-63340000D01*
X209440000Y-64140000D02*
X209440000Y-65940000D01*
X212560000Y-64140000D02*
X212560000Y-63340000D01*
X212560000Y-64140000D02*
X212560000Y-64940000D01*
G04 #@! TO.C,R28*
X202497082Y-56150408D02*
X201473563Y-57173927D01*
X204413341Y-58066667D02*
X203389822Y-59090186D01*
G04 #@! TO.C,C20*
X213440000Y-60177836D02*
X213440000Y-59962164D01*
X214160000Y-60177836D02*
X214160000Y-59962164D01*
G04 #@! TO.C,C34*
X198635642Y-65686856D02*
X198483139Y-65534353D01*
X199144759Y-65177739D02*
X198992256Y-65025236D01*
G04 #@! TO.C,R11*
X215033641Y-79720000D02*
X214726359Y-79720000D01*
X215033641Y-80480000D02*
X214726359Y-80480000D01*
G04 #@! TD*
M02*
