M48
; DRILL file {KiCad (6.0.0)} date Sat Jan  8 17:27:50 2022
; FORMAT={-:-/ absolute / metric / decimal}
; #@! TF.CreationDate,2022-01-08T17:27:50+01:00
; #@! TF.GenerationSoftware,Kicad,Pcbnew,(6.0.0)
; #@! TF.FileFunction,MixedPlating,1,4
FMAT,2
METRIC
; #@! TA.AperFunction,Plated,PTH,ViaDrill
T1C0.200
; #@! TA.AperFunction,Plated,PTH,ComponentDrill
T2C0.500
; #@! TA.AperFunction,Plated,PTH,ComponentDrill
T3C0.750
; #@! TA.AperFunction,Plated,PTH,ComponentDrill
T4C1.020
; #@! TA.AperFunction,Plated,PTH,ComponentDrill
T5C3.200
; #@! TA.AperFunction,NonPlated,NPTH,ComponentDrill
T6C3.000
%
G90
G05
T1
X191.07Y-76.11
X191.57Y-76.11
X192.05Y-76.11
X192.53Y-76.1
X193.01Y-76.1
X193.49Y-76.09
X194.69Y-66.75
X195.02Y-67.09
X195.71Y-67.85
X195.737Y-64.847
X196.071Y-68.211
X196.076Y-65.186
X196.424Y-68.564
X196.43Y-65.54
X196.466Y-62.74
X196.806Y-63.079
X197.145Y-63.419
X197.27Y-60.72
X197.485Y-63.758
X197.54Y-77.48
X197.59Y-60.39
X197.824Y-64.097
X198.05Y-77.48
X198.55Y-77.48
X198.61Y-79.58
X198.61Y-79.08
X198.61Y-80.09
X198.73Y-69.06
X199.43Y-69.061
X200.0Y-71.68
X200.19Y-57.78
X200.36Y-70.44
X200.36Y-70.95
X200.386Y-64.294
X200.423Y-65.927
X200.58Y-57.38
X200.74Y-64.647
X200.74Y-63.94
X200.777Y-65.574
X200.777Y-66.281
X200.807Y-62.062
X200.9Y-68.98
X201.03Y-71.19
X201.03Y-72.0
X201.03Y-72.8
X201.03Y-73.35
X201.03Y-73.91
X201.03Y-74.74
X201.03Y-75.53
X201.094Y-64.294
X201.105Y-83.483
X201.13Y-65.927
X201.161Y-61.708
X201.161Y-62.415
X201.41Y-70.81
X201.41Y-75.91
X201.451Y-83.815
X201.482Y-68.622
X201.514Y-62.062
X201.599Y-61.27
X201.66Y-73.63
X201.67Y-73.15
X201.765Y-70.455
X201.78Y-76.28
X201.791Y-84.155
X201.907Y-68.197
X201.953Y-60.916
X201.953Y-61.624
X202.12Y-70.1
X202.12Y-76.62
X202.137Y-84.487
X202.306Y-61.27
X202.476Y-84.826
X202.635Y-64.47
X202.646Y-56.56
X202.76Y-70.1
X202.77Y-76.62
X202.83Y-85.18
X202.981Y-64.802
X202.986Y-56.899
X202.995Y-64.109
X203.321Y-65.142
X203.325Y-57.238
X203.342Y-64.442
X203.349Y-63.756
X203.43Y-76.62
X203.44Y-70.1
X203.48Y-68.38
X203.665Y-57.578
X203.667Y-65.474
X203.681Y-64.781
X203.695Y-64.088
X203.709Y-63.395
X203.82Y-60.85
X204.004Y-57.917
X204.006Y-65.814
X204.025Y-55.233
X204.028Y-65.113
X204.035Y-64.428
X204.056Y-63.728
X204.07Y-63.035
X204.08Y-70.1
X204.08Y-76.62
X204.174Y-61.204
X204.174Y-60.496
X204.36Y-65.46
X204.36Y-66.167
X204.371Y-55.565
X204.381Y-64.76
X204.395Y-64.067
X204.417Y-63.367
X204.424Y-62.681
X204.527Y-60.85
X204.55Y-84.59
X204.711Y-55.905
X204.714Y-65.814
X204.721Y-65.099
X204.742Y-64.399
X204.75Y-76.62
X204.756Y-63.706
X204.76Y-70.1
X204.77Y-63.013
X205.02Y-68.17
X205.057Y-56.237
X205.06Y-84.59
X205.074Y-65.453
X205.081Y-64.739
X205.102Y-64.039
X205.11Y-63.353
X205.33Y-68.86
X205.355Y-60.809
X205.396Y-56.576
X205.43Y-70.1
X205.43Y-76.62
X205.435Y-64.385
X205.435Y-65.092
X205.456Y-63.685
X205.56Y-84.59
X205.64Y-69.49
X205.708Y-61.163
X205.708Y-60.456
X205.788Y-64.739
X205.79Y-67.96
X205.79Y-70.46
X205.79Y-76.26
X205.795Y-64.025
X205.97Y-68.86
X206.062Y-60.809
X206.09Y-67.26
X206.149Y-64.378
X206.47Y-49.11
X206.47Y-50.12
X206.47Y-49.62
X206.53Y-69.968
X206.6Y-66.7
X206.78Y-72.23
X207.488Y-67.26
X207.51Y-78.4
X208.06Y-64.8
X208.06Y-65.75
X208.19Y-63.9
X208.231Y-56.181
X208.346Y-55.606
X208.35Y-77.16
X208.51Y-67.26
X208.55Y-47.68
X208.584Y-56.534
X208.7Y-55.96
X208.75Y-61.94
X208.97Y-46.361
X209.104Y-62.294
X209.46Y-75.76
X210.12Y-70.48
X210.43Y-83.39
X210.43Y-84.09
X210.46Y-67.46
X210.8Y-47.07
X210.92Y-67.83
X210.99Y-60.45
X210.99Y-61.46
X210.99Y-60.96
X211.6Y-67.42
X211.84Y-72.23
X211.84Y-73.5
X211.84Y-74.77
X212.05Y-70.6
X212.16Y-82.75
X212.18Y-84.67
X212.25Y-81.355
X212.36Y-76.4
X212.64Y-65.95
X212.66Y-70.6
X212.67Y-81.86
X212.86Y-62.24
X212.86Y-62.74
X212.88Y-72.23
X212.88Y-73.5
X212.88Y-74.77
X212.92Y-88.21
X213.11Y-68.248
X213.2Y-80.88
X213.42Y-88.21
X213.47Y-70.6
X213.9Y-88.21
X214.01Y-48.95
X214.02Y-50.89
X214.02Y-50.41
X214.38Y-88.2
X214.61Y-70.59
X214.72Y-65.07
X214.86Y-88.2
X214.96Y-55.67
X214.96Y-56.68
X214.96Y-56.18
X214.97Y-57.62
X214.97Y-58.63
X214.97Y-58.13
X215.32Y-46.96
X215.34Y-88.19
X215.45Y-55.66
X215.45Y-56.67
X215.45Y-56.17
X215.46Y-57.63
X215.46Y-58.64
X215.46Y-58.14
X215.52Y-83.228
X215.52Y-84.15
X215.54Y-81.05
X215.72Y-65.29
X215.75Y-68.99
X216.0Y-78.5
X216.06Y-80.28
X216.22Y-65.29
X216.55Y-80.91
X216.68Y-78.55
X216.72Y-65.29
X217.12Y-63.849
X217.12Y-64.349
X217.21Y-65.29
X217.32Y-84.68
X217.39Y-60.95
X217.39Y-61.9
X217.39Y-62.85
X217.57Y-82.39
X217.63Y-63.849
X217.63Y-64.349
X217.72Y-65.29
X217.81Y-73.75
X217.81Y-74.75
X217.81Y-75.75
X217.94Y-71.33
X218.22Y-65.29
X218.45Y-71.33
X218.73Y-65.29
X218.95Y-71.33
X219.005Y-45.758
X219.09Y-61.629
X219.09Y-62.129
X219.24Y-65.29
X219.6Y-61.629
X219.6Y-62.129
X219.74Y-65.29
X219.84Y-78.0
X220.03Y-73.9
X220.25Y-65.29
X220.29Y-47.52
X220.29Y-46.51
X220.29Y-47.02
X220.29Y-48.03
X220.42Y-50.95
X220.46Y-64.0
X220.48Y-74.32
X220.61Y-83.15
X220.61Y-84.16
X220.61Y-83.66
X220.76Y-65.29
X220.76Y-78.61
X220.79Y-46.51
X220.79Y-47.02
X220.79Y-47.52
X220.79Y-48.03
X220.96Y-64.0
X221.0Y-79.82
X221.26Y-65.29
X221.27Y-48.03
X221.27Y-46.51
X221.27Y-47.02
X221.27Y-47.53
X221.47Y-64.01
X221.59Y-69.82
X221.59Y-70.47
X221.75Y-48.03
X221.75Y-46.51
X221.75Y-47.02
X221.75Y-47.53
X221.77Y-65.29
X221.97Y-59.43
X221.98Y-64.01
X222.1Y-84.67
X222.28Y-65.29
X222.32Y-82.17
X222.47Y-59.43
X222.48Y-64.01
X222.62Y-73.3
X222.62Y-73.77
X222.71Y-74.76
X222.71Y-75.23
X222.78Y-65.29
X222.8Y-84.34
X222.81Y-85.05
X222.98Y-59.46
X222.98Y-64.01
X223.09Y-73.3
X223.09Y-73.77
X223.16Y-69.09
X223.18Y-74.76
X223.18Y-75.23
X223.23Y-65.07
X223.23Y-66.08
X223.23Y-65.58
X223.27Y-67.09
X223.27Y-68.1
X223.27Y-67.6
X223.48Y-64.01
X223.48Y-71.08
X223.48Y-71.55
X223.49Y-59.46
X223.56Y-73.3
X223.56Y-73.77
X223.67Y-69.09
X223.95Y-71.08
X223.95Y-71.55
X223.99Y-59.46
X224.42Y-71.08
X224.42Y-71.55
X224.49Y-59.46
X224.94Y-85.38
X225.0Y-59.46
X225.06Y-70.37
X225.06Y-70.96
X225.06Y-71.69
X225.06Y-72.27
X225.294Y-85.026
X225.47Y-80.05
X225.633Y-84.687
X225.73Y-77.54
X225.96Y-56.4
X225.965Y-84.341
X226.091Y-77.911
X226.305Y-84.001
X226.444Y-78.264
X226.47Y-56.4
X226.54Y-73.54
X226.637Y-83.655
X226.97Y-56.4
X226.98Y-82.62
X227.48Y-56.43
X227.73Y-78.53
X227.99Y-56.43
X228.24Y-78.53
X228.285Y-65.97
X228.285Y-68.55
X228.285Y-65.49
X228.285Y-68.07
X228.49Y-56.43
X228.74Y-78.53
X228.99Y-56.43
X229.5Y-56.43
X230.5Y-60.14
X230.5Y-59.64
X230.5Y-60.65
X230.53Y-57.11
X230.53Y-58.62
X230.53Y-57.62
X230.53Y-58.12
X230.53Y-59.13
X232.22Y-67.79
X232.22Y-68.8
X232.22Y-68.3
X234.49Y-80.76
T2
X189.59Y-71.77
X190.293Y-70.073
X190.293Y-73.467
X191.99Y-69.37
X191.99Y-74.17
X193.687Y-70.073
X193.687Y-73.467
X194.39Y-71.77
X233.38Y-71.82
X234.083Y-70.123
X234.083Y-73.517
X235.78Y-69.42
X235.78Y-74.22
X237.477Y-70.123
X237.477Y-73.517
X238.18Y-71.82
T3
X191.573Y-78.08
X191.92Y-80.05
X194.666Y-58.944
X195.52Y-79.55
X196.08Y-57.53
X197.494Y-56.116
X197.52Y-79.55
X198.908Y-54.702
X201.78Y-79.55
X203.78Y-79.55
X209.05Y-81.73
X209.05Y-83.73
X209.05Y-85.73
X214.19Y-81.73
X214.19Y-83.73
X214.19Y-85.73
X219.33Y-81.73
X219.33Y-83.73
X219.33Y-85.73
X224.19Y-77.08
X224.19Y-79.08
X224.19Y-81.08
X224.19Y-83.08
X228.21Y-79.84
X230.21Y-79.84
X232.21Y-79.84
X236.008Y-80.07
X236.355Y-78.101
T4
X209.5Y-53.97
X212.5Y-53.97
X215.5Y-53.97
X218.5Y-53.97
X220.329Y-57.047
X223.227Y-57.824
T5
X191.99Y-71.77
X235.78Y-71.82
T6
X211.65Y-49.65
X216.35Y-49.65
X227.4Y-58.942
T2
X219.175Y-70.37G85X219.175Y-69.27
G05
X221.325Y-67.37G85X221.325Y-66.67
G05
X221.325Y-72.97G85X221.325Y-72.27
G05
T0
M30
