G04 #@! TF.GenerationSoftware,KiCad,Pcbnew,(6.0.0)*
G04 #@! TF.CreationDate,2022-01-08T17:27:50+01:00*
G04 #@! TF.ProjectId,MiniAB-CAN-Board,4d696e69-4142-42d4-9341-4e2d426f6172,1*
G04 #@! TF.SameCoordinates,Original*
G04 #@! TF.FileFunction,Profile,NP*
%FSLAX46Y46*%
G04 Gerber Fmt 4.6, Leading zero omitted, Abs format (unit mm)*
G04 Created by KiCad (PCBNEW (6.0.0)) date 2022-01-08 17:27:50*
%MOMM*%
%LPD*%
G01*
G04 APERTURE LIST*
G04 #@! TA.AperFunction,Profile*
%ADD10C,0.100000*%
G04 #@! TD*
G04 APERTURE END LIST*
D10*
X232749643Y-65120221D02*
X237930908Y-68748183D01*
X218953844Y-44570003D02*
G75*
G03*
X216453844Y-45239874I-10J-4999976D01*
G01*
X211846148Y-45239874D02*
X213399996Y-46136989D01*
X204959997Y-52884084D02*
X204959996Y-46070002D01*
X201545783Y-54298298D02*
G75*
G03*
X204959997Y-52884084I1414214J1414213D01*
G01*
X232563765Y-58187213D02*
X231572595Y-61886308D01*
X222959997Y-51758996D02*
G75*
G03*
X225183538Y-54656774I3000000J-1D01*
G01*
X199522559Y-52275074D02*
G75*
G03*
X198815452Y-52275074I-353553J-353556D01*
G01*
X231658533Y-81858401D02*
G75*
G03*
X227854740Y-83262733I-698538J-3961599D01*
G01*
X206459997Y-44570002D02*
X209346148Y-44570003D01*
X211846148Y-45239874D02*
G75*
G03*
X209346148Y-44570003I-2499997J-4330132D01*
G01*
X222959996Y-46070002D02*
X222959997Y-51758996D01*
X189892848Y-81712075D02*
G75*
G03*
X191340919Y-82726025I1231011J217062D01*
G01*
X214899996Y-46136990D02*
X216453844Y-45239874D01*
X189989084Y-68748183D02*
G75*
G03*
X188393929Y-71991719I2150901J-3071815D01*
G01*
X196261459Y-81858401D02*
X191340919Y-82726025D01*
X236579074Y-82726025D02*
G75*
G03*
X238027145Y-81712075I217061J1231010D01*
G01*
X225183538Y-54656774D02*
X231503105Y-56350096D01*
X232563765Y-58187213D02*
G75*
G03*
X231503105Y-56350096I-1448890J388228D01*
G01*
X239164085Y-75264163D02*
X238027145Y-81712075D01*
X189892848Y-81712075D02*
X188755907Y-75264163D01*
X193789100Y-66087382D02*
G75*
G03*
X194189691Y-61508606I-1720728J2457456D01*
G01*
X206459997Y-44570002D02*
G75*
G03*
X204959996Y-46070002I-2J-1499999D01*
G01*
X200065252Y-83262734D02*
G75*
G03*
X196261459Y-81858401I-3105257J-2557270D01*
G01*
X218953844Y-44570003D02*
X221459996Y-44570003D01*
X192239359Y-58851167D02*
G75*
G03*
X192239359Y-59558274I353549J-353554D01*
G01*
X222959996Y-46070002D02*
G75*
G03*
X221459996Y-44570003I-1500002J-3D01*
G01*
X194189691Y-61508606D02*
X192239359Y-59558274D01*
X213399996Y-46136989D02*
G75*
G03*
X214899996Y-46136990I750001J1299033D01*
G01*
X239164085Y-75264163D02*
G75*
G03*
X239526063Y-71991719I-25203868J4444142D01*
G01*
X199522559Y-52275074D02*
X201545783Y-54298298D01*
X200065252Y-83262734D02*
G75*
G03*
X227854740Y-83262733I13894744J11442736D01*
G01*
X188393929Y-71991719D02*
G75*
G03*
X188755907Y-75264163I25566323J1171750D01*
G01*
X236579074Y-82726025D02*
X231658533Y-81858401D01*
X231572595Y-61886308D02*
G75*
G03*
X232749643Y-65120221I2897780J-776456D01*
G01*
X239526062Y-71991719D02*
G75*
G03*
X237930908Y-68748183I-3746065J171716D01*
G01*
X192239359Y-58851167D02*
X198815452Y-52275074D01*
X189989084Y-68748183D02*
X193789100Y-66087382D01*
M02*
