G04 #@! TF.GenerationSoftware,KiCad,Pcbnew,(6.0.0)*
G04 #@! TF.CreationDate,2022-03-04T12:47:46+01:00*
G04 #@! TF.ProjectId,MiniAB-CAN-Board,4d696e69-4142-42d4-9341-4e2d426f6172,1*
G04 #@! TF.SameCoordinates,Original*
G04 #@! TF.FileFunction,Legend,Top*
G04 #@! TF.FilePolarity,Positive*
%FSLAX46Y46*%
G04 Gerber Fmt 4.6, Leading zero omitted, Abs format (unit mm)*
G04 Created by KiCad (PCBNEW (6.0.0)) date 2022-03-04 12:47:46*
%MOMM*%
%LPD*%
G01*
G04 APERTURE LIST*
%ADD10C,0.100000*%
%ADD11C,0.160000*%
%ADD12C,0.150000*%
%ADD13C,0.120000*%
%ADD14C,0.250000*%
G04 APERTURE END LIST*
D10*
X99270000Y-96790000D02*
X100340000Y-97860000D01*
X103000000Y-93930000D02*
X103000000Y-93800000D01*
X98930000Y-90040000D02*
X98680000Y-89790000D01*
X119630000Y-70170000D02*
X119150000Y-70170000D01*
X111360000Y-91670000D02*
X116700000Y-91670000D01*
X128100000Y-91070000D02*
X128370000Y-91070000D01*
X112670000Y-98380000D02*
X113200000Y-97850000D01*
X117640000Y-81210000D02*
X117800000Y-81050000D01*
X106220000Y-95550000D02*
X105870000Y-95900000D01*
X103000000Y-93800000D02*
X103180000Y-93620000D01*
X112650000Y-96570000D02*
X113220000Y-96000000D01*
X99270000Y-96480000D02*
X99270000Y-96790000D01*
X120380000Y-70680000D02*
X119630000Y-70170000D01*
X128850000Y-90590000D02*
X128850000Y-90310000D01*
X114630000Y-83870000D02*
X114500000Y-84000000D01*
X113500000Y-91670000D02*
X113500000Y-91820000D01*
X115420000Y-83690000D02*
X115240000Y-83870000D01*
X98930000Y-90370000D02*
X98930000Y-90040000D01*
X128340000Y-83790000D02*
X128340000Y-82770000D01*
X117640000Y-82560000D02*
X117640000Y-81210000D01*
X103645000Y-99860000D02*
X103270000Y-99485000D01*
X105870000Y-95900000D02*
X103420000Y-95900000D01*
X117640000Y-84440000D02*
X117640000Y-83860000D01*
X98680000Y-89790000D02*
X98680000Y-89630000D01*
X117480000Y-84600000D02*
X117640000Y-84440000D01*
X120930000Y-71940000D02*
X120930000Y-72590000D01*
X103270000Y-99485000D02*
X103270000Y-99070000D01*
X117640000Y-83860000D02*
X117790000Y-83710000D01*
X106220000Y-94250000D02*
X106220000Y-95550000D01*
X128340000Y-82770000D02*
X128120000Y-82770000D01*
X116700000Y-91670000D02*
X116700000Y-93550000D01*
X117470000Y-82730000D02*
X117640000Y-82560000D01*
X112600000Y-91670000D02*
X112600000Y-91830000D01*
X103645000Y-99860000D02*
X104535000Y-99860000D01*
X115240000Y-83870000D02*
X114630000Y-83870000D01*
X100340000Y-97860000D02*
X100580000Y-97860000D01*
X111690000Y-91660000D02*
X111690000Y-91830000D01*
X120380000Y-71390000D02*
X120930000Y-71940000D01*
X120380000Y-70750000D02*
X120380000Y-70680000D01*
X128370000Y-91070000D02*
X128850000Y-90590000D01*
X98583333Y-92866666D02*
X99283333Y-92866666D01*
X98950000Y-92866666D02*
X98950000Y-93266666D01*
X98583333Y-93266666D02*
X99283333Y-93266666D01*
X99283333Y-93733333D02*
X99283333Y-93800000D01*
X99250000Y-93866666D01*
X99216666Y-93900000D01*
X99150000Y-93933333D01*
X99016666Y-93966666D01*
X98850000Y-93966666D01*
X98716666Y-93933333D01*
X98650000Y-93900000D01*
X98616666Y-93866666D01*
X98583333Y-93800000D01*
X98583333Y-93733333D01*
X98616666Y-93666666D01*
X98650000Y-93633333D01*
X98716666Y-93600000D01*
X98850000Y-93566666D01*
X99016666Y-93566666D01*
X99150000Y-93600000D01*
X99216666Y-93633333D01*
X99250000Y-93666666D01*
X99283333Y-93733333D01*
X118595858Y-66297568D02*
X118955107Y-66539885D01*
X118612547Y-66630483D01*
X118695451Y-66686402D01*
X118732080Y-66751317D01*
X118741075Y-66797591D01*
X118731430Y-66871500D01*
X118638231Y-67009673D01*
X118573317Y-67046302D01*
X118527043Y-67055297D01*
X118453134Y-67045652D01*
X118287326Y-66933814D01*
X118250697Y-66868899D01*
X118241702Y-66822625D01*
X119120915Y-66651723D02*
X118922922Y-67362528D01*
X119507799Y-66912680D01*
X119645972Y-67005879D02*
X120005221Y-67248196D01*
X119662661Y-67338794D01*
X119745565Y-67394713D01*
X119782194Y-67459628D01*
X119791189Y-67505902D01*
X119781544Y-67579811D01*
X119688345Y-67717984D01*
X119623431Y-67754613D01*
X119577157Y-67763608D01*
X119503248Y-67753963D01*
X119337441Y-67642125D01*
X119300811Y-67577210D01*
X119291816Y-67530936D01*
D11*
X106088571Y-63376428D02*
X106088571Y-63955000D01*
X106050000Y-64070714D01*
X105972857Y-64147857D01*
X105857142Y-64186428D01*
X105780000Y-64186428D01*
X106860000Y-64186428D02*
X106474285Y-64186428D01*
X106474285Y-63376428D01*
X107592857Y-64109285D02*
X107554285Y-64147857D01*
X107438571Y-64186428D01*
X107361428Y-64186428D01*
X107245714Y-64147857D01*
X107168571Y-64070714D01*
X107130000Y-63993571D01*
X107091428Y-63839285D01*
X107091428Y-63723571D01*
X107130000Y-63569285D01*
X107168571Y-63492142D01*
X107245714Y-63415000D01*
X107361428Y-63376428D01*
X107438571Y-63376428D01*
X107554285Y-63415000D01*
X107592857Y-63453571D01*
X108171428Y-63376428D02*
X108171428Y-63955000D01*
X108132857Y-64070714D01*
X108055714Y-64147857D01*
X107940000Y-64186428D01*
X107862857Y-64186428D01*
X108942857Y-64186428D02*
X108557142Y-64186428D01*
X108557142Y-63376428D01*
X109675714Y-64109285D02*
X109637142Y-64147857D01*
X109521428Y-64186428D01*
X109444285Y-64186428D01*
X109328571Y-64147857D01*
X109251428Y-64070714D01*
X109212857Y-63993571D01*
X109174285Y-63839285D01*
X109174285Y-63723571D01*
X109212857Y-63569285D01*
X109251428Y-63492142D01*
X109328571Y-63415000D01*
X109444285Y-63376428D01*
X109521428Y-63376428D01*
X109637142Y-63415000D01*
X109675714Y-63453571D01*
X110254285Y-63376428D02*
X110254285Y-63955000D01*
X110215714Y-64070714D01*
X110138571Y-64147857D01*
X110022857Y-64186428D01*
X109945714Y-64186428D01*
X111025714Y-64186428D02*
X110640000Y-64186428D01*
X110640000Y-63376428D01*
X111758571Y-64109285D02*
X111720000Y-64147857D01*
X111604285Y-64186428D01*
X111527142Y-64186428D01*
X111411428Y-64147857D01*
X111334285Y-64070714D01*
X111295714Y-63993571D01*
X111257142Y-63839285D01*
X111257142Y-63723571D01*
X111295714Y-63569285D01*
X111334285Y-63492142D01*
X111411428Y-63415000D01*
X111527142Y-63376428D01*
X111604285Y-63376428D01*
X111720000Y-63415000D01*
X111758571Y-63453571D01*
X112337142Y-63376428D02*
X112337142Y-63955000D01*
X112298571Y-64070714D01*
X112221428Y-64147857D01*
X112105714Y-64186428D01*
X112028571Y-64186428D01*
X113108571Y-64186428D02*
X112722857Y-64186428D01*
X112722857Y-63376428D01*
X113841428Y-64109285D02*
X113802857Y-64147857D01*
X113687142Y-64186428D01*
X113610000Y-64186428D01*
X113494285Y-64147857D01*
X113417142Y-64070714D01*
X113378571Y-63993571D01*
X113340000Y-63839285D01*
X113340000Y-63723571D01*
X113378571Y-63569285D01*
X113417142Y-63492142D01*
X113494285Y-63415000D01*
X113610000Y-63376428D01*
X113687142Y-63376428D01*
X113802857Y-63415000D01*
X113841428Y-63453571D01*
D10*
X128416666Y-88166666D02*
X128416666Y-87466666D01*
X128683333Y-87466666D01*
X128750000Y-87500000D01*
X128783333Y-87533333D01*
X128816666Y-87600000D01*
X128816666Y-87700000D01*
X128783333Y-87766666D01*
X128750000Y-87800000D01*
X128683333Y-87833333D01*
X128416666Y-87833333D01*
X129516666Y-88100000D02*
X129483333Y-88133333D01*
X129383333Y-88166666D01*
X129316666Y-88166666D01*
X129216666Y-88133333D01*
X129150000Y-88066666D01*
X129116666Y-88000000D01*
X129083333Y-87866666D01*
X129083333Y-87766666D01*
X129116666Y-87633333D01*
X129150000Y-87566666D01*
X129216666Y-87500000D01*
X129316666Y-87466666D01*
X129383333Y-87466666D01*
X129483333Y-87500000D01*
X129516666Y-87533333D01*
X130050000Y-87800000D02*
X129816666Y-87800000D01*
X129816666Y-88166666D02*
X129816666Y-87466666D01*
X130150000Y-87466666D01*
X121003818Y-67907643D02*
X120727473Y-67721245D01*
X120513440Y-67978951D01*
X120559715Y-67969956D01*
X120633624Y-67979601D01*
X120771797Y-68072800D01*
X120808426Y-68137714D01*
X120817421Y-68183989D01*
X120807776Y-68257898D01*
X120714577Y-68396070D01*
X120649663Y-68432700D01*
X120603389Y-68441695D01*
X120529480Y-68432050D01*
X120391307Y-68338851D01*
X120354677Y-68273937D01*
X120345682Y-68227662D01*
X121197261Y-68038121D02*
X120999268Y-68748926D01*
X121584145Y-68299078D01*
X109516666Y-93966666D02*
X109183333Y-93966666D01*
X109183333Y-93266666D01*
X109750000Y-93600000D02*
X109983333Y-93600000D01*
X110083333Y-93966666D02*
X109750000Y-93966666D01*
X109750000Y-93266666D01*
X110083333Y-93266666D01*
X110383333Y-93966666D02*
X110383333Y-93266666D01*
X110550000Y-93266666D01*
X110650000Y-93300000D01*
X110716666Y-93366666D01*
X110750000Y-93433333D01*
X110783333Y-93566666D01*
X110783333Y-93666666D01*
X110750000Y-93800000D01*
X110716666Y-93866666D01*
X110650000Y-93933333D01*
X110550000Y-93966666D01*
X110383333Y-93966666D01*
X111216666Y-93266666D02*
X111283333Y-93266666D01*
X111350000Y-93300000D01*
X111383333Y-93333333D01*
X111416666Y-93400000D01*
X111450000Y-93533333D01*
X111450000Y-93700000D01*
X111416666Y-93833333D01*
X111383333Y-93900000D01*
X111350000Y-93933333D01*
X111283333Y-93966666D01*
X111216666Y-93966666D01*
X111150000Y-93933333D01*
X111116666Y-93900000D01*
X111083333Y-93833333D01*
X111050000Y-93700000D01*
X111050000Y-93533333D01*
X111083333Y-93400000D01*
X111116666Y-93333333D01*
X111150000Y-93300000D01*
X111216666Y-93266666D01*
X98066666Y-69583333D02*
X98100000Y-69550000D01*
X98166666Y-69516666D01*
X98333333Y-69516666D01*
X98400000Y-69550000D01*
X98433333Y-69583333D01*
X98466666Y-69650000D01*
X98466666Y-69716666D01*
X98433333Y-69816666D01*
X98033333Y-70216666D01*
X98466666Y-70216666D01*
X99066666Y-69750000D02*
X99066666Y-70216666D01*
X98900000Y-69483333D02*
X98733333Y-69983333D01*
X99166666Y-69983333D01*
X99333333Y-69516666D02*
X99566666Y-70216666D01*
X99800000Y-69516666D01*
X101954937Y-77609878D02*
X102222815Y-76963162D01*
X102376795Y-77026943D01*
X102456427Y-77096007D01*
X102492507Y-77183111D01*
X102497791Y-77257459D01*
X102477562Y-77393399D01*
X102439294Y-77485787D01*
X102357473Y-77596215D01*
X102301165Y-77645051D01*
X102214061Y-77681131D01*
X102108917Y-77673658D01*
X101954937Y-77609878D01*
X102601653Y-77877756D02*
X102869531Y-77231041D01*
X102955353Y-77807785D02*
X103263313Y-77935347D01*
X102817224Y-77967049D02*
X103300675Y-77409626D01*
X103248368Y-78145635D01*
X104057818Y-77759325D02*
X104008982Y-77703017D01*
X103916594Y-77664749D01*
X103811450Y-77657276D01*
X103724346Y-77693356D01*
X103668038Y-77742192D01*
X103586218Y-77852620D01*
X103547949Y-77945008D01*
X103527721Y-78080948D01*
X103533004Y-78155296D01*
X103569084Y-78242400D01*
X103648716Y-78311464D01*
X103710308Y-78336976D01*
X103815452Y-78344449D01*
X103859004Y-78326409D01*
X103948297Y-78110837D01*
X103825113Y-78059813D01*
G04 #@! TO.C,C35*
X91911930Y-75012704D02*
X91868378Y-75030744D01*
X91763234Y-75023271D01*
X91701642Y-74997759D01*
X91622010Y-74928695D01*
X91585930Y-74841591D01*
X91580646Y-74767243D01*
X91600875Y-74631302D01*
X91639143Y-74538915D01*
X91720964Y-74428487D01*
X91777272Y-74379651D01*
X91864376Y-74343571D01*
X91969520Y-74351043D01*
X92031112Y-74376556D01*
X92110744Y-74445620D01*
X92128784Y-74489172D01*
X92369868Y-74516873D02*
X92770216Y-74682702D01*
X92452595Y-74839777D01*
X92544983Y-74878046D01*
X92593819Y-74934354D01*
X92611859Y-74977906D01*
X92617142Y-75052254D01*
X92553362Y-75206234D01*
X92497054Y-75255070D01*
X92453501Y-75273110D01*
X92379153Y-75278394D01*
X92194377Y-75201857D01*
X92145542Y-75145549D01*
X92127502Y-75101997D01*
X93355339Y-74925069D02*
X93047380Y-74797507D01*
X92889022Y-75092711D01*
X92932575Y-75074671D01*
X93006923Y-75069388D01*
X93160903Y-75133168D01*
X93209738Y-75189476D01*
X93227778Y-75233028D01*
X93233062Y-75307377D01*
X93169281Y-75461356D01*
X93112973Y-75510192D01*
X93069421Y-75528232D01*
X92995073Y-75533516D01*
X92841093Y-75469735D01*
X92792257Y-75413427D01*
X92774217Y-75369875D01*
G04 #@! TO.C,C31*
X90721299Y-79877373D02*
X90677747Y-79895413D01*
X90572603Y-79887940D01*
X90511011Y-79862428D01*
X90431379Y-79793364D01*
X90395299Y-79706260D01*
X90390015Y-79631912D01*
X90410244Y-79495971D01*
X90448512Y-79403584D01*
X90530333Y-79293156D01*
X90586641Y-79244320D01*
X90673745Y-79208240D01*
X90778889Y-79215712D01*
X90840481Y-79241225D01*
X90920113Y-79310289D01*
X90938153Y-79353841D01*
X91179237Y-79381542D02*
X91579585Y-79547371D01*
X91261964Y-79704446D01*
X91354352Y-79742715D01*
X91403188Y-79799023D01*
X91421228Y-79842575D01*
X91426511Y-79916923D01*
X91362731Y-80070903D01*
X91306423Y-80119739D01*
X91262870Y-80137779D01*
X91188522Y-80143063D01*
X91003746Y-80066526D01*
X90954911Y-80010218D01*
X90936871Y-79966666D01*
X91927626Y-80449209D02*
X91558074Y-80296136D01*
X91742850Y-80372673D02*
X92010728Y-79725957D01*
X91910868Y-79792833D01*
X91823764Y-79828912D01*
X91749416Y-79834196D01*
G04 #@! TO.C,C41*
X89742174Y-74763397D02*
X89698622Y-74781437D01*
X89593478Y-74773964D01*
X89531886Y-74748452D01*
X89452254Y-74679388D01*
X89416174Y-74592284D01*
X89410890Y-74517936D01*
X89431119Y-74381995D01*
X89469387Y-74289608D01*
X89551208Y-74179180D01*
X89607516Y-74130344D01*
X89694620Y-74094264D01*
X89799764Y-74101736D01*
X89861356Y-74127249D01*
X89940988Y-74196313D01*
X89959028Y-74239865D01*
X90449575Y-74623455D02*
X90270989Y-75054599D01*
X90397644Y-74313307D02*
X90052322Y-74711466D01*
X90452670Y-74877295D01*
X90948501Y-75335233D02*
X90578949Y-75182160D01*
X90763725Y-75258697D02*
X91031603Y-74611981D01*
X90931743Y-74678857D01*
X90844639Y-74714936D01*
X90770291Y-74720220D01*
G04 #@! TO.C,R22*
X129070000Y-90066666D02*
X128836666Y-89733333D01*
X128670000Y-90066666D02*
X128670000Y-89366666D01*
X128936666Y-89366666D01*
X129003333Y-89400000D01*
X129036666Y-89433333D01*
X129070000Y-89500000D01*
X129070000Y-89600000D01*
X129036666Y-89666666D01*
X129003333Y-89700000D01*
X128936666Y-89733333D01*
X128670000Y-89733333D01*
X129336666Y-89433333D02*
X129370000Y-89400000D01*
X129436666Y-89366666D01*
X129603333Y-89366666D01*
X129670000Y-89400000D01*
X129703333Y-89433333D01*
X129736666Y-89500000D01*
X129736666Y-89566666D01*
X129703333Y-89666666D01*
X129303333Y-90066666D01*
X129736666Y-90066666D01*
X130003333Y-89433333D02*
X130036666Y-89400000D01*
X130103333Y-89366666D01*
X130270000Y-89366666D01*
X130336666Y-89400000D01*
X130370000Y-89433333D01*
X130403333Y-89500000D01*
X130403333Y-89566666D01*
X130370000Y-89666666D01*
X129970000Y-90066666D01*
X130403333Y-90066666D01*
G04 #@! TO.C,J12*
X116416666Y-79141666D02*
X116916666Y-79141666D01*
X117016666Y-79175000D01*
X117083333Y-79241666D01*
X117116666Y-79341666D01*
X117116666Y-79408333D01*
X117116666Y-78441666D02*
X117116666Y-78841666D01*
X117116666Y-78641666D02*
X116416666Y-78641666D01*
X116516666Y-78708333D01*
X116583333Y-78775000D01*
X116616666Y-78841666D01*
X116483333Y-78175000D02*
X116450000Y-78141666D01*
X116416666Y-78075000D01*
X116416666Y-77908333D01*
X116450000Y-77841666D01*
X116483333Y-77808333D01*
X116550000Y-77775000D01*
X116616666Y-77775000D01*
X116716666Y-77808333D01*
X117116666Y-78208333D01*
X117116666Y-77775000D01*
X117466666Y-76800000D02*
X117700000Y-76800000D01*
X117800000Y-77166666D02*
X117466666Y-77166666D01*
X117466666Y-76466666D01*
X117800000Y-76466666D01*
X118100000Y-76900000D02*
X118633333Y-76900000D01*
X118933333Y-77133333D02*
X119033333Y-77166666D01*
X119200000Y-77166666D01*
X119266666Y-77133333D01*
X119300000Y-77100000D01*
X119333333Y-77033333D01*
X119333333Y-76966666D01*
X119300000Y-76900000D01*
X119266666Y-76866666D01*
X119200000Y-76833333D01*
X119066666Y-76800000D01*
X119000000Y-76766666D01*
X118966666Y-76733333D01*
X118933333Y-76666666D01*
X118933333Y-76600000D01*
X118966666Y-76533333D01*
X119000000Y-76500000D01*
X119066666Y-76466666D01*
X119233333Y-76466666D01*
X119333333Y-76500000D01*
X119533333Y-76466666D02*
X119933333Y-76466666D01*
X119733333Y-77166666D02*
X119733333Y-76466666D01*
X120300000Y-76466666D02*
X120433333Y-76466666D01*
X120500000Y-76500000D01*
X120566666Y-76566666D01*
X120600000Y-76700000D01*
X120600000Y-76933333D01*
X120566666Y-77066666D01*
X120500000Y-77133333D01*
X120433333Y-77166666D01*
X120300000Y-77166666D01*
X120233333Y-77133333D01*
X120166666Y-77066666D01*
X120133333Y-76933333D01*
X120133333Y-76700000D01*
X120166666Y-76566666D01*
X120233333Y-76500000D01*
X120300000Y-76466666D01*
X120900000Y-77166666D02*
X120900000Y-76466666D01*
X121166666Y-76466666D01*
X121233333Y-76500000D01*
X121266666Y-76533333D01*
X121300000Y-76600000D01*
X121300000Y-76700000D01*
X121266666Y-76766666D01*
X121233333Y-76800000D01*
X121166666Y-76833333D01*
X120900000Y-76833333D01*
X121966666Y-77166666D02*
X121566666Y-77166666D01*
X121766666Y-77166666D02*
X121766666Y-76466666D01*
X121700000Y-76566666D01*
X121633333Y-76633333D01*
X121566666Y-76666666D01*
G04 #@! TO.C,C36*
X90507535Y-72915636D02*
X90463983Y-72933676D01*
X90358839Y-72926203D01*
X90297247Y-72900691D01*
X90217615Y-72831627D01*
X90181535Y-72744523D01*
X90176251Y-72670175D01*
X90196480Y-72534234D01*
X90234748Y-72441847D01*
X90316569Y-72331419D01*
X90372877Y-72282583D01*
X90459981Y-72246503D01*
X90565125Y-72253975D01*
X90626717Y-72279488D01*
X90706349Y-72348552D01*
X90724389Y-72392104D01*
X90965473Y-72419805D02*
X91365821Y-72585634D01*
X91048200Y-72742709D01*
X91140588Y-72780978D01*
X91189424Y-72837286D01*
X91207464Y-72880838D01*
X91212747Y-72955186D01*
X91148967Y-73109166D01*
X91092659Y-73158002D01*
X91049106Y-73176042D01*
X90974758Y-73181326D01*
X90789982Y-73104789D01*
X90741147Y-73048481D01*
X90723107Y-73004929D01*
X91920148Y-72815244D02*
X91796964Y-72764220D01*
X91722616Y-72769504D01*
X91679064Y-72787544D01*
X91579204Y-72854419D01*
X91497384Y-72964847D01*
X91395335Y-73211215D01*
X91400618Y-73285563D01*
X91418658Y-73329115D01*
X91467494Y-73385423D01*
X91590678Y-73436448D01*
X91665026Y-73431164D01*
X91708578Y-73413124D01*
X91764886Y-73364288D01*
X91828667Y-73210309D01*
X91823383Y-73135960D01*
X91805343Y-73092408D01*
X91756508Y-73036100D01*
X91633324Y-72985076D01*
X91558976Y-72990359D01*
X91515423Y-73008399D01*
X91459115Y-73057235D01*
G04 #@! TO.C,C3*
X110970000Y-80486667D02*
X111003333Y-80520001D01*
X111036666Y-80620001D01*
X111036666Y-80686667D01*
X111003333Y-80786667D01*
X110936666Y-80853334D01*
X110870000Y-80886667D01*
X110736666Y-80920001D01*
X110636666Y-80920001D01*
X110503333Y-80886667D01*
X110436666Y-80853334D01*
X110370000Y-80786667D01*
X110336666Y-80686667D01*
X110336666Y-80620001D01*
X110370000Y-80520001D01*
X110403333Y-80486667D01*
X110336666Y-80253334D02*
X110336666Y-79820001D01*
X110603333Y-80053334D01*
X110603333Y-79953334D01*
X110636666Y-79886667D01*
X110670000Y-79853334D01*
X110736666Y-79820001D01*
X110903333Y-79820001D01*
X110970000Y-79853334D01*
X111003333Y-79886667D01*
X111036666Y-79953334D01*
X111036666Y-80153334D01*
X111003333Y-80220001D01*
X110970000Y-80253334D01*
G04 #@! TO.C,C45*
X88976804Y-76611154D02*
X88933252Y-76629194D01*
X88828108Y-76621721D01*
X88766516Y-76596209D01*
X88686884Y-76527145D01*
X88650804Y-76440041D01*
X88645520Y-76365693D01*
X88665749Y-76229752D01*
X88704017Y-76137365D01*
X88785838Y-76026937D01*
X88842146Y-75978101D01*
X88929250Y-75942021D01*
X89034394Y-75949493D01*
X89095986Y-75975006D01*
X89175618Y-76044070D01*
X89193658Y-76087622D01*
X89684205Y-76471212D02*
X89505619Y-76902356D01*
X89632274Y-76161064D02*
X89286952Y-76559223D01*
X89687300Y-76725052D01*
X90420213Y-76523519D02*
X90112254Y-76395957D01*
X89953896Y-76691161D01*
X89997449Y-76673121D01*
X90071797Y-76667838D01*
X90225777Y-76731618D01*
X90274612Y-76787926D01*
X90292652Y-76831478D01*
X90297936Y-76905827D01*
X90234155Y-77059806D01*
X90177847Y-77108642D01*
X90134295Y-77126682D01*
X90059947Y-77131966D01*
X89905967Y-77068185D01*
X89857131Y-77011877D01*
X89839091Y-76968325D01*
G04 #@! TO.C,R21*
X128480000Y-89096666D02*
X128246666Y-88763333D01*
X128080000Y-89096666D02*
X128080000Y-88396666D01*
X128346666Y-88396666D01*
X128413333Y-88430000D01*
X128446666Y-88463333D01*
X128480000Y-88530000D01*
X128480000Y-88630000D01*
X128446666Y-88696666D01*
X128413333Y-88730000D01*
X128346666Y-88763333D01*
X128080000Y-88763333D01*
X128746666Y-88463333D02*
X128780000Y-88430000D01*
X128846666Y-88396666D01*
X129013333Y-88396666D01*
X129080000Y-88430000D01*
X129113333Y-88463333D01*
X129146666Y-88530000D01*
X129146666Y-88596666D01*
X129113333Y-88696666D01*
X128713333Y-89096666D01*
X129146666Y-89096666D01*
X129813333Y-89096666D02*
X129413333Y-89096666D01*
X129613333Y-89096666D02*
X129613333Y-88396666D01*
X129546666Y-88496666D01*
X129480000Y-88563333D01*
X129413333Y-88596666D01*
G04 #@! TO.C,R25*
X101986666Y-88500000D02*
X101653333Y-88733333D01*
X101986666Y-88900000D02*
X101286666Y-88900000D01*
X101286666Y-88633333D01*
X101320000Y-88566666D01*
X101353333Y-88533333D01*
X101420000Y-88500000D01*
X101520000Y-88500000D01*
X101586666Y-88533333D01*
X101620000Y-88566666D01*
X101653333Y-88633333D01*
X101653333Y-88900000D01*
X101353333Y-88233333D02*
X101320000Y-88200000D01*
X101286666Y-88133333D01*
X101286666Y-87966666D01*
X101320000Y-87900000D01*
X101353333Y-87866666D01*
X101420000Y-87833333D01*
X101486666Y-87833333D01*
X101586666Y-87866666D01*
X101986666Y-88266666D01*
X101986666Y-87833333D01*
X101286666Y-87200000D02*
X101286666Y-87533333D01*
X101620000Y-87566666D01*
X101586666Y-87533333D01*
X101553333Y-87466666D01*
X101553333Y-87300000D01*
X101586666Y-87233333D01*
X101620000Y-87200000D01*
X101686666Y-87166666D01*
X101853333Y-87166666D01*
X101920000Y-87200000D01*
X101953333Y-87233333D01*
X101986666Y-87300000D01*
X101986666Y-87466666D01*
X101953333Y-87533333D01*
X101920000Y-87566666D01*
G04 #@! TO.C,R29*
X106970000Y-99086666D02*
X106736666Y-98753333D01*
X106570000Y-99086666D02*
X106570000Y-98386666D01*
X106836666Y-98386666D01*
X106903333Y-98420000D01*
X106936666Y-98453333D01*
X106970000Y-98520000D01*
X106970000Y-98620000D01*
X106936666Y-98686666D01*
X106903333Y-98720000D01*
X106836666Y-98753333D01*
X106570000Y-98753333D01*
X107236666Y-98453333D02*
X107270000Y-98420000D01*
X107336666Y-98386666D01*
X107503333Y-98386666D01*
X107570000Y-98420000D01*
X107603333Y-98453333D01*
X107636666Y-98520000D01*
X107636666Y-98586666D01*
X107603333Y-98686666D01*
X107203333Y-99086666D01*
X107636666Y-99086666D01*
X107970000Y-99086666D02*
X108103333Y-99086666D01*
X108170000Y-99053333D01*
X108203333Y-99020000D01*
X108270000Y-98920000D01*
X108303333Y-98786666D01*
X108303333Y-98520000D01*
X108270000Y-98453333D01*
X108236666Y-98420000D01*
X108170000Y-98386666D01*
X108036666Y-98386666D01*
X107970000Y-98420000D01*
X107936666Y-98453333D01*
X107903333Y-98520000D01*
X107903333Y-98686666D01*
X107936666Y-98753333D01*
X107970000Y-98786666D01*
X108036666Y-98820000D01*
X108170000Y-98820000D01*
X108236666Y-98786666D01*
X108270000Y-98753333D01*
X108303333Y-98686666D01*
G04 #@! TO.C,R5*
X126276666Y-74956666D02*
X125943333Y-75190000D01*
X126276666Y-75356666D02*
X125576666Y-75356666D01*
X125576666Y-75090000D01*
X125610000Y-75023333D01*
X125643333Y-74990000D01*
X125710000Y-74956666D01*
X125810000Y-74956666D01*
X125876666Y-74990000D01*
X125910000Y-75023333D01*
X125943333Y-75090000D01*
X125943333Y-75356666D01*
X125576666Y-74323333D02*
X125576666Y-74656666D01*
X125910000Y-74690000D01*
X125876666Y-74656666D01*
X125843333Y-74590000D01*
X125843333Y-74423333D01*
X125876666Y-74356666D01*
X125910000Y-74323333D01*
X125976666Y-74290000D01*
X126143333Y-74290000D01*
X126210000Y-74323333D01*
X126243333Y-74356666D01*
X126276666Y-74423333D01*
X126276666Y-74590000D01*
X126243333Y-74656666D01*
X126210000Y-74690000D01*
G04 #@! TO.C,R20*
X101870000Y-96266666D02*
X101636666Y-95933333D01*
X101470000Y-96266666D02*
X101470000Y-95566666D01*
X101736666Y-95566666D01*
X101803333Y-95600000D01*
X101836666Y-95633333D01*
X101870000Y-95700000D01*
X101870000Y-95800000D01*
X101836666Y-95866666D01*
X101803333Y-95900000D01*
X101736666Y-95933333D01*
X101470000Y-95933333D01*
X102136666Y-95633333D02*
X102170000Y-95600000D01*
X102236666Y-95566666D01*
X102403333Y-95566666D01*
X102470000Y-95600000D01*
X102503333Y-95633333D01*
X102536666Y-95700000D01*
X102536666Y-95766666D01*
X102503333Y-95866666D01*
X102103333Y-96266666D01*
X102536666Y-96266666D01*
X102970000Y-95566666D02*
X103036666Y-95566666D01*
X103103333Y-95600000D01*
X103136666Y-95633333D01*
X103170000Y-95700000D01*
X103203333Y-95833333D01*
X103203333Y-96000000D01*
X103170000Y-96133333D01*
X103136666Y-96200000D01*
X103103333Y-96233333D01*
X103036666Y-96266666D01*
X102970000Y-96266666D01*
X102903333Y-96233333D01*
X102870000Y-96200000D01*
X102836666Y-96133333D01*
X102803333Y-96000000D01*
X102803333Y-95833333D01*
X102836666Y-95700000D01*
X102870000Y-95633333D01*
X102903333Y-95600000D01*
X102970000Y-95566666D01*
G04 #@! TO.C,R17*
X117160891Y-67790144D02*
X116754067Y-67797189D01*
X116937214Y-68121759D02*
X116356888Y-67730324D01*
X116506006Y-67509247D01*
X116570920Y-67472618D01*
X116617194Y-67463623D01*
X116691103Y-67473268D01*
X116774007Y-67529187D01*
X116810636Y-67594102D01*
X116819631Y-67640376D01*
X116809986Y-67714285D01*
X116660868Y-67935362D01*
X117533687Y-67237452D02*
X117310009Y-67569067D01*
X117421848Y-67403260D02*
X116841522Y-67011825D01*
X116887146Y-67123013D01*
X116905136Y-67215562D01*
X116895491Y-67289471D01*
X117083839Y-66652575D02*
X117344795Y-66265691D01*
X117757364Y-66905837D01*
G04 #@! TO.C,C18*
X114975000Y-79875000D02*
X115008333Y-79908333D01*
X115041666Y-80008333D01*
X115041666Y-80075000D01*
X115008333Y-80175000D01*
X114941666Y-80241666D01*
X114875000Y-80275000D01*
X114741666Y-80308333D01*
X114641666Y-80308333D01*
X114508333Y-80275000D01*
X114441666Y-80241666D01*
X114375000Y-80175000D01*
X114341666Y-80075000D01*
X114341666Y-80008333D01*
X114375000Y-79908333D01*
X114408333Y-79875000D01*
X115041666Y-79208333D02*
X115041666Y-79608333D01*
X115041666Y-79408333D02*
X114341666Y-79408333D01*
X114441666Y-79475000D01*
X114508333Y-79541666D01*
X114541666Y-79608333D01*
X114641666Y-78808333D02*
X114608333Y-78875000D01*
X114575000Y-78908333D01*
X114508333Y-78941666D01*
X114475000Y-78941666D01*
X114408333Y-78908333D01*
X114375000Y-78875000D01*
X114341666Y-78808333D01*
X114341666Y-78675000D01*
X114375000Y-78608333D01*
X114408333Y-78575000D01*
X114475000Y-78541666D01*
X114508333Y-78541666D01*
X114575000Y-78575000D01*
X114608333Y-78608333D01*
X114641666Y-78675000D01*
X114641666Y-78808333D01*
X114675000Y-78875000D01*
X114708333Y-78908333D01*
X114775000Y-78941666D01*
X114908333Y-78941666D01*
X114975000Y-78908333D01*
X115008333Y-78875000D01*
X115041666Y-78808333D01*
X115041666Y-78675000D01*
X115008333Y-78608333D01*
X114975000Y-78575000D01*
X114908333Y-78541666D01*
X114775000Y-78541666D01*
X114708333Y-78575000D01*
X114675000Y-78608333D01*
X114641666Y-78675000D01*
G04 #@! TO.C,C6*
X116490000Y-93116666D02*
X116523333Y-93150000D01*
X116556666Y-93250000D01*
X116556666Y-93316666D01*
X116523333Y-93416666D01*
X116456666Y-93483333D01*
X116390000Y-93516666D01*
X116256666Y-93550000D01*
X116156666Y-93550000D01*
X116023333Y-93516666D01*
X115956666Y-93483333D01*
X115890000Y-93416666D01*
X115856666Y-93316666D01*
X115856666Y-93250000D01*
X115890000Y-93150000D01*
X115923333Y-93116666D01*
X115856666Y-92516666D02*
X115856666Y-92650000D01*
X115890000Y-92716666D01*
X115923333Y-92750000D01*
X116023333Y-92816666D01*
X116156666Y-92850000D01*
X116423333Y-92850000D01*
X116490000Y-92816666D01*
X116523333Y-92783333D01*
X116556666Y-92716666D01*
X116556666Y-92583333D01*
X116523333Y-92516666D01*
X116490000Y-92483333D01*
X116423333Y-92450000D01*
X116256666Y-92450000D01*
X116190000Y-92483333D01*
X116156666Y-92516666D01*
X116123333Y-92583333D01*
X116123333Y-92716666D01*
X116156666Y-92783333D01*
X116190000Y-92816666D01*
X116256666Y-92850000D01*
G04 #@! TO.C,R23*
X98613072Y-83050354D02*
X98525061Y-82653101D01*
X98243520Y-82897280D02*
X98511398Y-82250565D01*
X98757766Y-82352614D01*
X98806602Y-82408922D01*
X98824642Y-82452474D01*
X98829926Y-82526822D01*
X98791657Y-82619210D01*
X98735349Y-82668046D01*
X98691797Y-82686086D01*
X98617449Y-82691370D01*
X98371081Y-82589321D01*
X99101806Y-82567279D02*
X99145358Y-82549239D01*
X99219706Y-82543955D01*
X99373686Y-82607736D01*
X99422522Y-82664044D01*
X99440562Y-82707596D01*
X99445845Y-82781944D01*
X99420333Y-82843536D01*
X99351269Y-82923168D01*
X98828644Y-83139647D01*
X99228991Y-83305476D01*
X99712442Y-82748053D02*
X100112789Y-82913883D01*
X99795169Y-83070958D01*
X99887557Y-83109226D01*
X99936392Y-83165534D01*
X99954432Y-83209086D01*
X99959716Y-83283435D01*
X99895935Y-83437414D01*
X99839627Y-83486250D01*
X99796075Y-83504290D01*
X99721727Y-83509574D01*
X99536951Y-83433037D01*
X99488115Y-83376729D01*
X99470075Y-83333177D01*
G04 #@! TO.C,U6*
X103181666Y-69576666D02*
X103181666Y-70143333D01*
X103215000Y-70210000D01*
X103248333Y-70243333D01*
X103315000Y-70276666D01*
X103448333Y-70276666D01*
X103515000Y-70243333D01*
X103548333Y-70210000D01*
X103581666Y-70143333D01*
X103581666Y-69576666D01*
X104215000Y-69576666D02*
X104081666Y-69576666D01*
X104015000Y-69610000D01*
X103981666Y-69643333D01*
X103915000Y-69743333D01*
X103881666Y-69876666D01*
X103881666Y-70143333D01*
X103915000Y-70210000D01*
X103948333Y-70243333D01*
X104015000Y-70276666D01*
X104148333Y-70276666D01*
X104215000Y-70243333D01*
X104248333Y-70210000D01*
X104281666Y-70143333D01*
X104281666Y-69976666D01*
X104248333Y-69910000D01*
X104215000Y-69876666D01*
X104148333Y-69843333D01*
X104015000Y-69843333D01*
X103948333Y-69876666D01*
X103915000Y-69910000D01*
X103881666Y-69976666D01*
G04 #@! TO.C,R4*
X109293333Y-101236666D02*
X109060000Y-100903333D01*
X108893333Y-101236666D02*
X108893333Y-100536666D01*
X109160000Y-100536666D01*
X109226666Y-100570000D01*
X109260000Y-100603333D01*
X109293333Y-100670000D01*
X109293333Y-100770000D01*
X109260000Y-100836666D01*
X109226666Y-100870000D01*
X109160000Y-100903333D01*
X108893333Y-100903333D01*
X109893333Y-100770000D02*
X109893333Y-101236666D01*
X109726666Y-100503333D02*
X109560000Y-101003333D01*
X109993333Y-101003333D01*
G04 #@! TO.C,C7*
X103113333Y-98890000D02*
X103080000Y-98923333D01*
X102980000Y-98956666D01*
X102913333Y-98956666D01*
X102813333Y-98923333D01*
X102746666Y-98856666D01*
X102713333Y-98790000D01*
X102680000Y-98656666D01*
X102680000Y-98556666D01*
X102713333Y-98423333D01*
X102746666Y-98356666D01*
X102813333Y-98290000D01*
X102913333Y-98256666D01*
X102980000Y-98256666D01*
X103080000Y-98290000D01*
X103113333Y-98323333D01*
X103346666Y-98256666D02*
X103813333Y-98256666D01*
X103513333Y-98956666D01*
G04 #@! TO.C,C1*
X112033333Y-83770000D02*
X112000000Y-83803333D01*
X111900000Y-83836666D01*
X111833333Y-83836666D01*
X111733333Y-83803333D01*
X111666666Y-83736666D01*
X111633333Y-83670000D01*
X111600000Y-83536666D01*
X111600000Y-83436666D01*
X111633333Y-83303333D01*
X111666666Y-83236666D01*
X111733333Y-83170000D01*
X111833333Y-83136666D01*
X111900000Y-83136666D01*
X112000000Y-83170000D01*
X112033333Y-83203333D01*
X112700000Y-83836666D02*
X112300000Y-83836666D01*
X112500000Y-83836666D02*
X112500000Y-83136666D01*
X112433333Y-83236666D01*
X112366666Y-83303333D01*
X112300000Y-83336666D01*
G04 #@! TO.C,C2*
X113933333Y-91520000D02*
X113900000Y-91553333D01*
X113800000Y-91586666D01*
X113733333Y-91586666D01*
X113633333Y-91553333D01*
X113566666Y-91486666D01*
X113533333Y-91420000D01*
X113500000Y-91286666D01*
X113500000Y-91186666D01*
X113533333Y-91053333D01*
X113566666Y-90986666D01*
X113633333Y-90920000D01*
X113733333Y-90886666D01*
X113800000Y-90886666D01*
X113900000Y-90920000D01*
X113933333Y-90953333D01*
X114200000Y-90953333D02*
X114233333Y-90920000D01*
X114300000Y-90886666D01*
X114466666Y-90886666D01*
X114533333Y-90920000D01*
X114566666Y-90953333D01*
X114600000Y-91020000D01*
X114600000Y-91086666D01*
X114566666Y-91186666D01*
X114166666Y-91586666D01*
X114600000Y-91586666D01*
G04 #@! TO.C,R9*
X103406666Y-94746666D02*
X103073333Y-94980000D01*
X103406666Y-95146666D02*
X102706666Y-95146666D01*
X102706666Y-94880000D01*
X102740000Y-94813333D01*
X102773333Y-94780000D01*
X102840000Y-94746666D01*
X102940000Y-94746666D01*
X103006666Y-94780000D01*
X103040000Y-94813333D01*
X103073333Y-94880000D01*
X103073333Y-95146666D01*
X103406666Y-94413333D02*
X103406666Y-94280000D01*
X103373333Y-94213333D01*
X103340000Y-94180000D01*
X103240000Y-94113333D01*
X103106666Y-94080000D01*
X102840000Y-94080000D01*
X102773333Y-94113333D01*
X102740000Y-94146666D01*
X102706666Y-94213333D01*
X102706666Y-94346666D01*
X102740000Y-94413333D01*
X102773333Y-94446666D01*
X102840000Y-94480000D01*
X103006666Y-94480000D01*
X103073333Y-94446666D01*
X103106666Y-94413333D01*
X103140000Y-94346666D01*
X103140000Y-94213333D01*
X103106666Y-94146666D01*
X103073333Y-94113333D01*
X103006666Y-94080000D01*
G04 #@! TO.C,C29*
X97888762Y-69311416D02*
X97906802Y-69354968D01*
X97899329Y-69460112D01*
X97873817Y-69521704D01*
X97804753Y-69601336D01*
X97717649Y-69637416D01*
X97643301Y-69642700D01*
X97507360Y-69622471D01*
X97414973Y-69584203D01*
X97304545Y-69502382D01*
X97255709Y-69446074D01*
X97219629Y-69358970D01*
X97227101Y-69253826D01*
X97252614Y-69192234D01*
X97321678Y-69112602D01*
X97365230Y-69094562D01*
X97467279Y-68848194D02*
X97449239Y-68804642D01*
X97443955Y-68730294D01*
X97507736Y-68576314D01*
X97564044Y-68527478D01*
X97607596Y-68509438D01*
X97681944Y-68504155D01*
X97743536Y-68529667D01*
X97823168Y-68598731D01*
X98039647Y-69121356D01*
X98205476Y-68721009D01*
X98333037Y-68413049D02*
X98384062Y-68289865D01*
X98378778Y-68215517D01*
X98360738Y-68171965D01*
X98293862Y-68072104D01*
X98183435Y-67990284D01*
X97937067Y-67888235D01*
X97862719Y-67893519D01*
X97819166Y-67911559D01*
X97762858Y-67960395D01*
X97711834Y-68083578D01*
X97717118Y-68157927D01*
X97735157Y-68201479D01*
X97783993Y-68257787D01*
X97937973Y-68321567D01*
X98012321Y-68316284D01*
X98055873Y-68298244D01*
X98112182Y-68249408D01*
X98163206Y-68126224D01*
X98157922Y-68051876D01*
X98139882Y-68008324D01*
X98091047Y-67952016D01*
G04 #@! TO.C,C5*
X113753333Y-86650000D02*
X113720000Y-86683333D01*
X113620000Y-86716666D01*
X113553333Y-86716666D01*
X113453333Y-86683333D01*
X113386666Y-86616666D01*
X113353333Y-86550000D01*
X113320000Y-86416666D01*
X113320000Y-86316666D01*
X113353333Y-86183333D01*
X113386666Y-86116666D01*
X113453333Y-86050000D01*
X113553333Y-86016666D01*
X113620000Y-86016666D01*
X113720000Y-86050000D01*
X113753333Y-86083333D01*
X114386666Y-86016666D02*
X114053333Y-86016666D01*
X114020000Y-86350000D01*
X114053333Y-86316666D01*
X114120000Y-86283333D01*
X114286666Y-86283333D01*
X114353333Y-86316666D01*
X114386666Y-86350000D01*
X114420000Y-86416666D01*
X114420000Y-86583333D01*
X114386666Y-86650000D01*
X114353333Y-86683333D01*
X114286666Y-86716666D01*
X114120000Y-86716666D01*
X114053333Y-86683333D01*
X114020000Y-86650000D01*
G04 #@! TO.C,C43*
X91899262Y-83666599D02*
X91855710Y-83684639D01*
X91750566Y-83677166D01*
X91688974Y-83651654D01*
X91609342Y-83582590D01*
X91573262Y-83495486D01*
X91567978Y-83421138D01*
X91588207Y-83285197D01*
X91626475Y-83192810D01*
X91708296Y-83082382D01*
X91764604Y-83033546D01*
X91851708Y-82997466D01*
X91956852Y-83004938D01*
X92018444Y-83030451D01*
X92098076Y-83099515D01*
X92116116Y-83143067D01*
X92606663Y-83526657D02*
X92428077Y-83957801D01*
X92554732Y-83216509D02*
X92209410Y-83614668D01*
X92609758Y-83780497D01*
X92973120Y-83425890D02*
X93373467Y-83591720D01*
X93055847Y-83748795D01*
X93148235Y-83787063D01*
X93197070Y-83843371D01*
X93215110Y-83886923D01*
X93220394Y-83961272D01*
X93156613Y-84115251D01*
X93100305Y-84164087D01*
X93056753Y-84182127D01*
X92982405Y-84187411D01*
X92797629Y-84110874D01*
X92748793Y-84054566D01*
X92730753Y-84011014D01*
G04 #@! TO.C,J3*
X116291666Y-76516666D02*
X116291666Y-77016666D01*
X116258333Y-77116666D01*
X116191666Y-77183333D01*
X116091666Y-77216666D01*
X116025000Y-77216666D01*
X116558333Y-76516666D02*
X116991666Y-76516666D01*
X116758333Y-76783333D01*
X116858333Y-76783333D01*
X116925000Y-76816666D01*
X116958333Y-76850000D01*
X116991666Y-76916666D01*
X116991666Y-77083333D01*
X116958333Y-77150000D01*
X116925000Y-77183333D01*
X116858333Y-77216666D01*
X116658333Y-77216666D01*
X116591666Y-77183333D01*
X116558333Y-77150000D01*
X117273333Y-70496666D02*
X117273333Y-69796666D01*
X117273333Y-70130000D02*
X117673333Y-70130000D01*
X117673333Y-70496666D02*
X117673333Y-69796666D01*
X118006666Y-70130000D02*
X118240000Y-70130000D01*
X118340000Y-70496666D02*
X118006666Y-70496666D01*
X118006666Y-69796666D01*
X118340000Y-69796666D01*
X118873333Y-70130000D02*
X118640000Y-70130000D01*
X118640000Y-70496666D02*
X118640000Y-69796666D01*
X118973333Y-69796666D01*
G04 #@! TO.C,U3*
X121136666Y-95526666D02*
X121136666Y-96093333D01*
X121170000Y-96160000D01*
X121203333Y-96193333D01*
X121270000Y-96226666D01*
X121403333Y-96226666D01*
X121470000Y-96193333D01*
X121503333Y-96160000D01*
X121536666Y-96093333D01*
X121536666Y-95526666D01*
X121803333Y-95526666D02*
X122236666Y-95526666D01*
X122003333Y-95793333D01*
X122103333Y-95793333D01*
X122170000Y-95826666D01*
X122203333Y-95860000D01*
X122236666Y-95926666D01*
X122236666Y-96093333D01*
X122203333Y-96160000D01*
X122170000Y-96193333D01*
X122103333Y-96226666D01*
X121903333Y-96226666D01*
X121836666Y-96193333D01*
X121803333Y-96160000D01*
G04 #@! TO.C,Q4*
X102683333Y-66733333D02*
X102616666Y-66700000D01*
X102550000Y-66633333D01*
X102450000Y-66533333D01*
X102383333Y-66500000D01*
X102316666Y-66500000D01*
X102350000Y-66666666D02*
X102283333Y-66633333D01*
X102216666Y-66566666D01*
X102183333Y-66433333D01*
X102183333Y-66200000D01*
X102216666Y-66066666D01*
X102283333Y-66000000D01*
X102350000Y-65966666D01*
X102483333Y-65966666D01*
X102550000Y-66000000D01*
X102616666Y-66066666D01*
X102650000Y-66200000D01*
X102650000Y-66433333D01*
X102616666Y-66566666D01*
X102550000Y-66633333D01*
X102483333Y-66666666D01*
X102350000Y-66666666D01*
X103250000Y-66200000D02*
X103250000Y-66666666D01*
X103083333Y-65933333D02*
X102916666Y-66433333D01*
X103350000Y-66433333D01*
G04 #@! TO.C,C23*
X128040000Y-95120000D02*
X128073333Y-95153333D01*
X128106666Y-95253333D01*
X128106666Y-95320000D01*
X128073333Y-95420000D01*
X128006666Y-95486666D01*
X127940000Y-95520000D01*
X127806666Y-95553333D01*
X127706666Y-95553333D01*
X127573333Y-95520000D01*
X127506666Y-95486666D01*
X127440000Y-95420000D01*
X127406666Y-95320000D01*
X127406666Y-95253333D01*
X127440000Y-95153333D01*
X127473333Y-95120000D01*
X127473333Y-94853333D02*
X127440000Y-94820000D01*
X127406666Y-94753333D01*
X127406666Y-94586666D01*
X127440000Y-94520000D01*
X127473333Y-94486666D01*
X127540000Y-94453333D01*
X127606666Y-94453333D01*
X127706666Y-94486666D01*
X128106666Y-94886666D01*
X128106666Y-94453333D01*
X127406666Y-94220000D02*
X127406666Y-93786666D01*
X127673333Y-94020000D01*
X127673333Y-93920000D01*
X127706666Y-93853333D01*
X127740000Y-93820000D01*
X127806666Y-93786666D01*
X127973333Y-93786666D01*
X128040000Y-93820000D01*
X128073333Y-93853333D01*
X128106666Y-93920000D01*
X128106666Y-94120000D01*
X128073333Y-94186666D01*
X128040000Y-94220000D01*
G04 #@! TO.C,U2*
X103226666Y-84186666D02*
X103226666Y-84753333D01*
X103260000Y-84820000D01*
X103293333Y-84853333D01*
X103360000Y-84886666D01*
X103493333Y-84886666D01*
X103560000Y-84853333D01*
X103593333Y-84820000D01*
X103626666Y-84753333D01*
X103626666Y-84186666D01*
X103926666Y-84253333D02*
X103960000Y-84220000D01*
X104026666Y-84186666D01*
X104193333Y-84186666D01*
X104260000Y-84220000D01*
X104293333Y-84253333D01*
X104326666Y-84320000D01*
X104326666Y-84386666D01*
X104293333Y-84486666D01*
X103893333Y-84886666D01*
X104326666Y-84886666D01*
G04 #@! TO.C,R10*
X97663333Y-93260000D02*
X97996666Y-93026666D01*
X97663333Y-92860000D02*
X98363333Y-92860000D01*
X98363333Y-93126666D01*
X98330000Y-93193333D01*
X98296666Y-93226666D01*
X98230000Y-93260000D01*
X98130000Y-93260000D01*
X98063333Y-93226666D01*
X98030000Y-93193333D01*
X97996666Y-93126666D01*
X97996666Y-92860000D01*
X97663333Y-93926666D02*
X97663333Y-93526666D01*
X97663333Y-93726666D02*
X98363333Y-93726666D01*
X98263333Y-93660000D01*
X98196666Y-93593333D01*
X98163333Y-93526666D01*
X98363333Y-94360000D02*
X98363333Y-94426666D01*
X98330000Y-94493333D01*
X98296666Y-94526666D01*
X98230000Y-94560000D01*
X98096666Y-94593333D01*
X97930000Y-94593333D01*
X97796666Y-94560000D01*
X97730000Y-94526666D01*
X97696666Y-94493333D01*
X97663333Y-94426666D01*
X97663333Y-94360000D01*
X97696666Y-94293333D01*
X97730000Y-94260000D01*
X97796666Y-94226666D01*
X97930000Y-94193333D01*
X98096666Y-94193333D01*
X98230000Y-94226666D01*
X98296666Y-94260000D01*
X98330000Y-94293333D01*
X98363333Y-94360000D01*
G04 #@! TO.C,C11*
X115590000Y-93120000D02*
X115623333Y-93153333D01*
X115656666Y-93253333D01*
X115656666Y-93320000D01*
X115623333Y-93420000D01*
X115556666Y-93486666D01*
X115490000Y-93520000D01*
X115356666Y-93553333D01*
X115256666Y-93553333D01*
X115123333Y-93520000D01*
X115056666Y-93486666D01*
X114990000Y-93420000D01*
X114956666Y-93320000D01*
X114956666Y-93253333D01*
X114990000Y-93153333D01*
X115023333Y-93120000D01*
X115656666Y-92453333D02*
X115656666Y-92853333D01*
X115656666Y-92653333D02*
X114956666Y-92653333D01*
X115056666Y-92720000D01*
X115123333Y-92786666D01*
X115156666Y-92853333D01*
X115656666Y-91786666D02*
X115656666Y-92186666D01*
X115656666Y-91986666D02*
X114956666Y-91986666D01*
X115056666Y-92053333D01*
X115123333Y-92120000D01*
X115156666Y-92186666D01*
G04 #@! TO.C,R14*
X116216666Y-80930000D02*
X115883333Y-81163333D01*
X116216666Y-81330000D02*
X115516666Y-81330000D01*
X115516666Y-81063333D01*
X115550000Y-80996666D01*
X115583333Y-80963333D01*
X115650000Y-80930000D01*
X115750000Y-80930000D01*
X115816666Y-80963333D01*
X115850000Y-80996666D01*
X115883333Y-81063333D01*
X115883333Y-81330000D01*
X116216666Y-80263333D02*
X116216666Y-80663333D01*
X116216666Y-80463333D02*
X115516666Y-80463333D01*
X115616666Y-80530000D01*
X115683333Y-80596666D01*
X115716666Y-80663333D01*
X115750000Y-79663333D02*
X116216666Y-79663333D01*
X115483333Y-79830000D02*
X115983333Y-79996666D01*
X115983333Y-79563333D01*
G04 #@! TO.C,C9*
X105000000Y-92506667D02*
X105033333Y-92540001D01*
X105066666Y-92640001D01*
X105066666Y-92706667D01*
X105033333Y-92806667D01*
X104966666Y-92873334D01*
X104900000Y-92906667D01*
X104766666Y-92940001D01*
X104666666Y-92940001D01*
X104533333Y-92906667D01*
X104466666Y-92873334D01*
X104400000Y-92806667D01*
X104366666Y-92706667D01*
X104366666Y-92640001D01*
X104400000Y-92540001D01*
X104433333Y-92506667D01*
X105066666Y-92173334D02*
X105066666Y-92040001D01*
X105033333Y-91973334D01*
X105000000Y-91940001D01*
X104900000Y-91873334D01*
X104766666Y-91840001D01*
X104500000Y-91840001D01*
X104433333Y-91873334D01*
X104400000Y-91906667D01*
X104366666Y-91973334D01*
X104366666Y-92106667D01*
X104400000Y-92173334D01*
X104433333Y-92206667D01*
X104500000Y-92240001D01*
X104666666Y-92240001D01*
X104733333Y-92206667D01*
X104766666Y-92173334D01*
X104800000Y-92106667D01*
X104800000Y-91973334D01*
X104766666Y-91906667D01*
X104733333Y-91873334D01*
X104666666Y-91840001D01*
G04 #@! TO.C,R24*
X101820841Y-80488142D02*
X101732830Y-80090889D01*
X101451289Y-80335068D02*
X101719167Y-79688353D01*
X101965535Y-79790402D01*
X102014371Y-79846710D01*
X102032411Y-79890262D01*
X102037695Y-79964610D01*
X101999426Y-80056998D01*
X101943118Y-80105834D01*
X101899566Y-80123874D01*
X101825218Y-80129158D01*
X101578850Y-80027109D01*
X102309575Y-80005067D02*
X102353127Y-79987027D01*
X102427475Y-79981743D01*
X102581455Y-80045524D01*
X102630291Y-80101832D01*
X102648331Y-80145384D01*
X102653614Y-80219732D01*
X102628102Y-80281324D01*
X102559038Y-80360956D01*
X102036413Y-80577435D01*
X102436760Y-80743264D01*
X103169674Y-80541730D02*
X102991088Y-80972874D01*
X103117743Y-80231582D02*
X102772421Y-80629741D01*
X103172769Y-80795571D01*
G04 #@! TO.C,J7*
X116456666Y-86473333D02*
X116956666Y-86473333D01*
X117056666Y-86506666D01*
X117123333Y-86573333D01*
X117156666Y-86673333D01*
X117156666Y-86740000D01*
X116456666Y-86206666D02*
X116456666Y-85740000D01*
X117156666Y-86040000D01*
X117366666Y-94716666D02*
X117366666Y-94016666D01*
X117766666Y-94716666D01*
X117766666Y-94016666D01*
X118100000Y-94350000D02*
X118333333Y-94350000D01*
X118433333Y-94716666D02*
X118100000Y-94716666D01*
X118100000Y-94016666D01*
X118433333Y-94016666D01*
X118866666Y-94016666D02*
X119000000Y-94016666D01*
X119066666Y-94050000D01*
X119133333Y-94116666D01*
X119166666Y-94250000D01*
X119166666Y-94483333D01*
X119133333Y-94616666D01*
X119066666Y-94683333D01*
X119000000Y-94716666D01*
X118866666Y-94716666D01*
X118800000Y-94683333D01*
X118733333Y-94616666D01*
X118700000Y-94483333D01*
X118700000Y-94250000D01*
X118733333Y-94116666D01*
X118800000Y-94050000D01*
X118866666Y-94016666D01*
X119466666Y-94716666D02*
X119466666Y-94016666D01*
X119733333Y-94016666D01*
X119800000Y-94050000D01*
X119833333Y-94083333D01*
X119866666Y-94150000D01*
X119866666Y-94250000D01*
X119833333Y-94316666D01*
X119800000Y-94350000D01*
X119733333Y-94383333D01*
X119466666Y-94383333D01*
X120166666Y-94716666D02*
X120166666Y-94016666D01*
X120433333Y-94016666D02*
X120900000Y-94716666D01*
X120900000Y-94016666D02*
X120433333Y-94716666D01*
X121166666Y-94350000D02*
X121400000Y-94350000D01*
X121500000Y-94716666D02*
X121166666Y-94716666D01*
X121166666Y-94016666D01*
X121500000Y-94016666D01*
X122133333Y-94716666D02*
X121800000Y-94716666D01*
X121800000Y-94016666D01*
G04 #@! TO.C,D9*
X103464346Y-79220597D02*
X103732224Y-78573881D01*
X103886204Y-78637661D01*
X103965836Y-78706726D01*
X104001916Y-78793830D01*
X104007199Y-78868178D01*
X103986971Y-79004118D01*
X103948702Y-79096506D01*
X103866882Y-79206934D01*
X103810574Y-79255770D01*
X103723470Y-79291850D01*
X103618326Y-79284377D01*
X103464346Y-79220597D01*
X104141857Y-79501231D02*
X104265041Y-79552256D01*
X104339389Y-79546972D01*
X104382941Y-79528932D01*
X104482802Y-79462056D01*
X104564622Y-79351628D01*
X104666671Y-79105261D01*
X104661387Y-79030912D01*
X104643347Y-78987360D01*
X104594512Y-78931052D01*
X104471328Y-78880028D01*
X104396980Y-78885311D01*
X104353428Y-78903351D01*
X104297119Y-78952187D01*
X104233339Y-79106167D01*
X104238622Y-79180515D01*
X104256662Y-79224067D01*
X104305498Y-79280375D01*
X104428682Y-79331400D01*
X104503030Y-79326116D01*
X104546582Y-79308076D01*
X104602891Y-79259240D01*
G04 #@! TO.C,SW1*
X98253333Y-96316666D02*
X98020000Y-95983333D01*
X97853333Y-96316666D02*
X97853333Y-95616666D01*
X98120000Y-95616666D01*
X98186666Y-95650000D01*
X98220000Y-95683333D01*
X98253333Y-95750000D01*
X98253333Y-95850000D01*
X98220000Y-95916666D01*
X98186666Y-95950000D01*
X98120000Y-95983333D01*
X97853333Y-95983333D01*
X98553333Y-95950000D02*
X98786666Y-95950000D01*
X98886666Y-96316666D02*
X98553333Y-96316666D01*
X98553333Y-95616666D01*
X98886666Y-95616666D01*
X99153333Y-96283333D02*
X99253333Y-96316666D01*
X99420000Y-96316666D01*
X99486666Y-96283333D01*
X99520000Y-96250000D01*
X99553333Y-96183333D01*
X99553333Y-96116666D01*
X99520000Y-96050000D01*
X99486666Y-96016666D01*
X99420000Y-95983333D01*
X99286666Y-95950000D01*
X99220000Y-95916666D01*
X99186666Y-95883333D01*
X99153333Y-95816666D01*
X99153333Y-95750000D01*
X99186666Y-95683333D01*
X99220000Y-95650000D01*
X99286666Y-95616666D01*
X99453333Y-95616666D01*
X99553333Y-95650000D01*
X99853333Y-95950000D02*
X100086666Y-95950000D01*
X100186666Y-96316666D02*
X99853333Y-96316666D01*
X99853333Y-95616666D01*
X100186666Y-95616666D01*
X100386666Y-95616666D02*
X100786666Y-95616666D01*
X100586666Y-96316666D02*
X100586666Y-95616666D01*
G04 #@! TO.C,C13*
X116150000Y-83230000D02*
X116183333Y-83263333D01*
X116216666Y-83363333D01*
X116216666Y-83430000D01*
X116183333Y-83530000D01*
X116116666Y-83596666D01*
X116050000Y-83630000D01*
X115916666Y-83663333D01*
X115816666Y-83663333D01*
X115683333Y-83630000D01*
X115616666Y-83596666D01*
X115550000Y-83530000D01*
X115516666Y-83430000D01*
X115516666Y-83363333D01*
X115550000Y-83263333D01*
X115583333Y-83230000D01*
X116216666Y-82563333D02*
X116216666Y-82963333D01*
X116216666Y-82763333D02*
X115516666Y-82763333D01*
X115616666Y-82830000D01*
X115683333Y-82896666D01*
X115716666Y-82963333D01*
X115516666Y-82330000D02*
X115516666Y-81896666D01*
X115783333Y-82130000D01*
X115783333Y-82030000D01*
X115816666Y-81963333D01*
X115850000Y-81930000D01*
X115916666Y-81896666D01*
X116083333Y-81896666D01*
X116150000Y-81930000D01*
X116183333Y-81963333D01*
X116216666Y-82030000D01*
X116216666Y-82230000D01*
X116183333Y-82296666D01*
X116150000Y-82330000D01*
G04 #@! TO.C,R30*
X90821468Y-77122682D02*
X90733457Y-76725429D01*
X90451916Y-76969608D02*
X90719794Y-76322893D01*
X90966162Y-76424942D01*
X91014998Y-76481250D01*
X91033038Y-76524802D01*
X91038322Y-76599150D01*
X91000053Y-76691538D01*
X90943745Y-76740374D01*
X90900193Y-76758414D01*
X90825845Y-76763698D01*
X90579477Y-76661649D01*
X91304918Y-76565259D02*
X91705266Y-76731088D01*
X91387645Y-76888163D01*
X91480033Y-76926432D01*
X91528869Y-76982740D01*
X91546909Y-77026292D01*
X91552192Y-77100640D01*
X91488412Y-77254620D01*
X91432104Y-77303456D01*
X91388551Y-77321496D01*
X91314203Y-77326780D01*
X91129427Y-77250243D01*
X91080592Y-77193935D01*
X91062552Y-77150383D01*
X92105614Y-76896918D02*
X92167205Y-76922430D01*
X92216041Y-76978738D01*
X92234081Y-77022290D01*
X92239365Y-77096639D01*
X92219136Y-77232579D01*
X92155356Y-77386559D01*
X92073535Y-77496986D01*
X92017227Y-77545822D01*
X91973675Y-77563862D01*
X91899327Y-77569146D01*
X91837735Y-77543634D01*
X91788899Y-77487325D01*
X91770859Y-77443773D01*
X91765576Y-77369425D01*
X91785804Y-77233485D01*
X91849585Y-77079505D01*
X91931405Y-76969077D01*
X91987713Y-76920242D01*
X92031265Y-76902202D01*
X92105614Y-76896918D01*
D12*
G04 #@! TO.C,U5*
X95186098Y-80310658D02*
X95406070Y-80401773D01*
X95226966Y-80585298D02*
X95406070Y-80401773D01*
X95409196Y-80145356D01*
X95527378Y-80606648D02*
X95406070Y-80401773D01*
X95636716Y-80342682D01*
X95186098Y-80310658D02*
X95406070Y-80401773D01*
X95226966Y-80585298D02*
X95406070Y-80401773D01*
X95409196Y-80145356D01*
X95527378Y-80606648D02*
X95406070Y-80401773D01*
X95636716Y-80342682D01*
D10*
G04 #@! TO.C,J9*
X111206666Y-96083333D02*
X110506666Y-96083333D01*
X110506666Y-95916666D01*
X110540000Y-95816666D01*
X110606666Y-95750000D01*
X110673333Y-95716666D01*
X110806666Y-95683333D01*
X110906666Y-95683333D01*
X111040000Y-95716666D01*
X111106666Y-95750000D01*
X111173333Y-95816666D01*
X111206666Y-95916666D01*
X111206666Y-96083333D01*
X110840000Y-95150000D02*
X110873333Y-95050000D01*
X110906666Y-95016666D01*
X110973333Y-94983333D01*
X111073333Y-94983333D01*
X111140000Y-95016666D01*
X111173333Y-95050000D01*
X111206666Y-95116666D01*
X111206666Y-95383333D01*
X110506666Y-95383333D01*
X110506666Y-95150000D01*
X110540000Y-95083333D01*
X110573333Y-95050000D01*
X110640000Y-95016666D01*
X110706666Y-95016666D01*
X110773333Y-95050000D01*
X110806666Y-95083333D01*
X110840000Y-95150000D01*
X110840000Y-95383333D01*
X110540000Y-94316666D02*
X110506666Y-94383333D01*
X110506666Y-94483333D01*
X110540000Y-94583333D01*
X110606666Y-94650000D01*
X110673333Y-94683333D01*
X110806666Y-94716666D01*
X110906666Y-94716666D01*
X111040000Y-94683333D01*
X111106666Y-94650000D01*
X111173333Y-94583333D01*
X111206666Y-94483333D01*
X111206666Y-94416666D01*
X111173333Y-94316666D01*
X111140000Y-94283333D01*
X110906666Y-94283333D01*
X110906666Y-94416666D01*
G04 #@! TO.C,R27*
X110686666Y-75810000D02*
X110353333Y-76043333D01*
X110686666Y-76210000D02*
X109986666Y-76210000D01*
X109986666Y-75943333D01*
X110020000Y-75876666D01*
X110053333Y-75843333D01*
X110120000Y-75810000D01*
X110220000Y-75810000D01*
X110286666Y-75843333D01*
X110320000Y-75876666D01*
X110353333Y-75943333D01*
X110353333Y-76210000D01*
X110053333Y-75543333D02*
X110020000Y-75510000D01*
X109986666Y-75443333D01*
X109986666Y-75276666D01*
X110020000Y-75210000D01*
X110053333Y-75176666D01*
X110120000Y-75143333D01*
X110186666Y-75143333D01*
X110286666Y-75176666D01*
X110686666Y-75576666D01*
X110686666Y-75143333D01*
X109986666Y-74910000D02*
X109986666Y-74443333D01*
X110686666Y-74743333D01*
G04 #@! TO.C,C30*
X114880000Y-69510000D02*
X114913333Y-69543333D01*
X114946666Y-69643333D01*
X114946666Y-69710000D01*
X114913333Y-69810000D01*
X114846666Y-69876666D01*
X114780000Y-69910000D01*
X114646666Y-69943333D01*
X114546666Y-69943333D01*
X114413333Y-69910000D01*
X114346666Y-69876666D01*
X114280000Y-69810000D01*
X114246666Y-69710000D01*
X114246666Y-69643333D01*
X114280000Y-69543333D01*
X114313333Y-69510000D01*
X114246666Y-69276666D02*
X114246666Y-68843333D01*
X114513333Y-69076666D01*
X114513333Y-68976666D01*
X114546666Y-68910000D01*
X114580000Y-68876666D01*
X114646666Y-68843333D01*
X114813333Y-68843333D01*
X114880000Y-68876666D01*
X114913333Y-68910000D01*
X114946666Y-68976666D01*
X114946666Y-69176666D01*
X114913333Y-69243333D01*
X114880000Y-69276666D01*
X114246666Y-68410000D02*
X114246666Y-68343333D01*
X114280000Y-68276666D01*
X114313333Y-68243333D01*
X114380000Y-68210000D01*
X114513333Y-68176666D01*
X114680000Y-68176666D01*
X114813333Y-68210000D01*
X114880000Y-68243333D01*
X114913333Y-68276666D01*
X114946666Y-68343333D01*
X114946666Y-68410000D01*
X114913333Y-68476666D01*
X114880000Y-68510000D01*
X114813333Y-68543333D01*
X114680000Y-68576666D01*
X114513333Y-68576666D01*
X114380000Y-68543333D01*
X114313333Y-68510000D01*
X114280000Y-68476666D01*
X114246666Y-68410000D01*
G04 #@! TO.C,R15*
X118886666Y-81420000D02*
X118553333Y-81653333D01*
X118886666Y-81820000D02*
X118186666Y-81820000D01*
X118186666Y-81553333D01*
X118220000Y-81486666D01*
X118253333Y-81453333D01*
X118320000Y-81420000D01*
X118420000Y-81420000D01*
X118486666Y-81453333D01*
X118520000Y-81486666D01*
X118553333Y-81553333D01*
X118553333Y-81820000D01*
X118886666Y-80753333D02*
X118886666Y-81153333D01*
X118886666Y-80953333D02*
X118186666Y-80953333D01*
X118286666Y-81020000D01*
X118353333Y-81086666D01*
X118386666Y-81153333D01*
X118186666Y-80120000D02*
X118186666Y-80453333D01*
X118520000Y-80486666D01*
X118486666Y-80453333D01*
X118453333Y-80386666D01*
X118453333Y-80220000D01*
X118486666Y-80153333D01*
X118520000Y-80120000D01*
X118586666Y-80086666D01*
X118753333Y-80086666D01*
X118820000Y-80120000D01*
X118853333Y-80153333D01*
X118886666Y-80220000D01*
X118886666Y-80386666D01*
X118853333Y-80453333D01*
X118820000Y-80486666D01*
G04 #@! TO.C,R12*
X114096666Y-98310000D02*
X113763333Y-98543333D01*
X114096666Y-98710000D02*
X113396666Y-98710000D01*
X113396666Y-98443333D01*
X113430000Y-98376666D01*
X113463333Y-98343333D01*
X113530000Y-98310000D01*
X113630000Y-98310000D01*
X113696666Y-98343333D01*
X113730000Y-98376666D01*
X113763333Y-98443333D01*
X113763333Y-98710000D01*
X114096666Y-97643333D02*
X114096666Y-98043333D01*
X114096666Y-97843333D02*
X113396666Y-97843333D01*
X113496666Y-97910000D01*
X113563333Y-97976666D01*
X113596666Y-98043333D01*
X113463333Y-97376666D02*
X113430000Y-97343333D01*
X113396666Y-97276666D01*
X113396666Y-97110000D01*
X113430000Y-97043333D01*
X113463333Y-97010000D01*
X113530000Y-96976666D01*
X113596666Y-96976666D01*
X113696666Y-97010000D01*
X114096666Y-97410000D01*
X114096666Y-96976666D01*
G04 #@! TO.C,R13*
X99796666Y-73190000D02*
X99463333Y-73423333D01*
X99796666Y-73590000D02*
X99096666Y-73590000D01*
X99096666Y-73323333D01*
X99130000Y-73256666D01*
X99163333Y-73223333D01*
X99230000Y-73190000D01*
X99330000Y-73190000D01*
X99396666Y-73223333D01*
X99430000Y-73256666D01*
X99463333Y-73323333D01*
X99463333Y-73590000D01*
X99796666Y-72523333D02*
X99796666Y-72923333D01*
X99796666Y-72723333D02*
X99096666Y-72723333D01*
X99196666Y-72790000D01*
X99263333Y-72856666D01*
X99296666Y-72923333D01*
X99096666Y-72290000D02*
X99096666Y-71856666D01*
X99363333Y-72090000D01*
X99363333Y-71990000D01*
X99396666Y-71923333D01*
X99430000Y-71890000D01*
X99496666Y-71856666D01*
X99663333Y-71856666D01*
X99730000Y-71890000D01*
X99763333Y-71923333D01*
X99796666Y-71990000D01*
X99796666Y-72190000D01*
X99763333Y-72256666D01*
X99730000Y-72290000D01*
G04 #@! TO.C,R7*
X116868333Y-71391666D02*
X116635000Y-71058333D01*
X116468333Y-71391666D02*
X116468333Y-70691666D01*
X116735000Y-70691666D01*
X116801666Y-70725000D01*
X116835000Y-70758333D01*
X116868333Y-70825000D01*
X116868333Y-70925000D01*
X116835000Y-70991666D01*
X116801666Y-71025000D01*
X116735000Y-71058333D01*
X116468333Y-71058333D01*
X117101666Y-70691666D02*
X117568333Y-70691666D01*
X117268333Y-71391666D01*
G04 #@! TO.C,R3*
X130883333Y-88166666D02*
X130650000Y-87833333D01*
X130483333Y-88166666D02*
X130483333Y-87466666D01*
X130750000Y-87466666D01*
X130816666Y-87500000D01*
X130850000Y-87533333D01*
X130883333Y-87600000D01*
X130883333Y-87700000D01*
X130850000Y-87766666D01*
X130816666Y-87800000D01*
X130750000Y-87833333D01*
X130483333Y-87833333D01*
X131116666Y-87466666D02*
X131550000Y-87466666D01*
X131316666Y-87733333D01*
X131416666Y-87733333D01*
X131483333Y-87766666D01*
X131516666Y-87800000D01*
X131550000Y-87866666D01*
X131550000Y-88033333D01*
X131516666Y-88100000D01*
X131483333Y-88133333D01*
X131416666Y-88166666D01*
X131216666Y-88166666D01*
X131150000Y-88133333D01*
X131116666Y-88100000D01*
G04 #@! TO.C,R8*
X100013333Y-95346666D02*
X99780000Y-95013333D01*
X99613333Y-95346666D02*
X99613333Y-94646666D01*
X99880000Y-94646666D01*
X99946666Y-94680000D01*
X99980000Y-94713333D01*
X100013333Y-94780000D01*
X100013333Y-94880000D01*
X99980000Y-94946666D01*
X99946666Y-94980000D01*
X99880000Y-95013333D01*
X99613333Y-95013333D01*
X100413333Y-94946666D02*
X100346666Y-94913333D01*
X100313333Y-94880000D01*
X100280000Y-94813333D01*
X100280000Y-94780000D01*
X100313333Y-94713333D01*
X100346666Y-94680000D01*
X100413333Y-94646666D01*
X100546666Y-94646666D01*
X100613333Y-94680000D01*
X100646666Y-94713333D01*
X100680000Y-94780000D01*
X100680000Y-94813333D01*
X100646666Y-94880000D01*
X100613333Y-94913333D01*
X100546666Y-94946666D01*
X100413333Y-94946666D01*
X100346666Y-94980000D01*
X100313333Y-95013333D01*
X100280000Y-95080000D01*
X100280000Y-95213333D01*
X100313333Y-95280000D01*
X100346666Y-95313333D01*
X100413333Y-95346666D01*
X100546666Y-95346666D01*
X100613333Y-95313333D01*
X100646666Y-95280000D01*
X100680000Y-95213333D01*
X100680000Y-95080000D01*
X100646666Y-95013333D01*
X100613333Y-94980000D01*
X100546666Y-94946666D01*
G04 #@! TO.C,C25*
X94038583Y-71598762D02*
X93995031Y-71616802D01*
X93889887Y-71609329D01*
X93828295Y-71583817D01*
X93748663Y-71514753D01*
X93712583Y-71427649D01*
X93707299Y-71353301D01*
X93727528Y-71217360D01*
X93765796Y-71124973D01*
X93847617Y-71014545D01*
X93903925Y-70965709D01*
X93991029Y-70929629D01*
X94096173Y-70937101D01*
X94157765Y-70962614D01*
X94237397Y-71031678D01*
X94255437Y-71075230D01*
X94501805Y-71177279D02*
X94545357Y-71159239D01*
X94619705Y-71153955D01*
X94773685Y-71217736D01*
X94822521Y-71274044D01*
X94840561Y-71317596D01*
X94845844Y-71391944D01*
X94820332Y-71453536D01*
X94751268Y-71533168D01*
X94228643Y-71749647D01*
X94628990Y-71915476D01*
X95481992Y-71511127D02*
X95174033Y-71383565D01*
X95015675Y-71678769D01*
X95059228Y-71660729D01*
X95133576Y-71655446D01*
X95287556Y-71719226D01*
X95336391Y-71775534D01*
X95354431Y-71819086D01*
X95359715Y-71893435D01*
X95295934Y-72047414D01*
X95239626Y-72096250D01*
X95196074Y-72114290D01*
X95121726Y-72119574D01*
X94967746Y-72055793D01*
X94918910Y-71999485D01*
X94900870Y-71955933D01*
G04 #@! TO.C,C22*
X103100000Y-75260000D02*
X103066666Y-75293333D01*
X102966666Y-75326666D01*
X102900000Y-75326666D01*
X102800000Y-75293333D01*
X102733333Y-75226666D01*
X102700000Y-75160000D01*
X102666666Y-75026666D01*
X102666666Y-74926666D01*
X102700000Y-74793333D01*
X102733333Y-74726666D01*
X102800000Y-74660000D01*
X102900000Y-74626666D01*
X102966666Y-74626666D01*
X103066666Y-74660000D01*
X103100000Y-74693333D01*
X103366666Y-74693333D02*
X103400000Y-74660000D01*
X103466666Y-74626666D01*
X103633333Y-74626666D01*
X103700000Y-74660000D01*
X103733333Y-74693333D01*
X103766666Y-74760000D01*
X103766666Y-74826666D01*
X103733333Y-74926666D01*
X103333333Y-75326666D01*
X103766666Y-75326666D01*
X104033333Y-74693333D02*
X104066666Y-74660000D01*
X104133333Y-74626666D01*
X104300000Y-74626666D01*
X104366666Y-74660000D01*
X104400000Y-74693333D01*
X104433333Y-74760000D01*
X104433333Y-74826666D01*
X104400000Y-74926666D01*
X104000000Y-75326666D01*
X104433333Y-75326666D01*
G04 #@! TO.C,C15*
X115860000Y-75940000D02*
X115893333Y-75973333D01*
X115926666Y-76073333D01*
X115926666Y-76140000D01*
X115893333Y-76240000D01*
X115826666Y-76306666D01*
X115760000Y-76340000D01*
X115626666Y-76373333D01*
X115526666Y-76373333D01*
X115393333Y-76340000D01*
X115326666Y-76306666D01*
X115260000Y-76240000D01*
X115226666Y-76140000D01*
X115226666Y-76073333D01*
X115260000Y-75973333D01*
X115293333Y-75940000D01*
X115926666Y-75273333D02*
X115926666Y-75673333D01*
X115926666Y-75473333D02*
X115226666Y-75473333D01*
X115326666Y-75540000D01*
X115393333Y-75606666D01*
X115426666Y-75673333D01*
X115226666Y-74640000D02*
X115226666Y-74973333D01*
X115560000Y-75006666D01*
X115526666Y-74973333D01*
X115493333Y-74906666D01*
X115493333Y-74740000D01*
X115526666Y-74673333D01*
X115560000Y-74640000D01*
X115626666Y-74606666D01*
X115793333Y-74606666D01*
X115860000Y-74640000D01*
X115893333Y-74673333D01*
X115926666Y-74740000D01*
X115926666Y-74906666D01*
X115893333Y-74973333D01*
X115860000Y-75006666D01*
G04 #@! TO.C,C14*
X110610000Y-101120000D02*
X110576666Y-101153333D01*
X110476666Y-101186666D01*
X110410000Y-101186666D01*
X110310000Y-101153333D01*
X110243333Y-101086666D01*
X110210000Y-101020000D01*
X110176666Y-100886666D01*
X110176666Y-100786666D01*
X110210000Y-100653333D01*
X110243333Y-100586666D01*
X110310000Y-100520000D01*
X110410000Y-100486666D01*
X110476666Y-100486666D01*
X110576666Y-100520000D01*
X110610000Y-100553333D01*
X111276666Y-101186666D02*
X110876666Y-101186666D01*
X111076666Y-101186666D02*
X111076666Y-100486666D01*
X111010000Y-100586666D01*
X110943333Y-100653333D01*
X110876666Y-100686666D01*
X111876666Y-100720000D02*
X111876666Y-101186666D01*
X111710000Y-100453333D02*
X111543333Y-100953333D01*
X111976666Y-100953333D01*
G04 #@! TO.C,C40*
X104900000Y-77500000D02*
X104933333Y-77533333D01*
X104966666Y-77633333D01*
X104966666Y-77700000D01*
X104933333Y-77800000D01*
X104866666Y-77866666D01*
X104800000Y-77900000D01*
X104666666Y-77933333D01*
X104566666Y-77933333D01*
X104433333Y-77900000D01*
X104366666Y-77866666D01*
X104300000Y-77800000D01*
X104266666Y-77700000D01*
X104266666Y-77633333D01*
X104300000Y-77533333D01*
X104333333Y-77500000D01*
X104500000Y-76900000D02*
X104966666Y-76900000D01*
X104233333Y-77066666D02*
X104733333Y-77233333D01*
X104733333Y-76800000D01*
X104266666Y-76400000D02*
X104266666Y-76333333D01*
X104300000Y-76266666D01*
X104333333Y-76233333D01*
X104400000Y-76200000D01*
X104533333Y-76166666D01*
X104700000Y-76166666D01*
X104833333Y-76200000D01*
X104900000Y-76233333D01*
X104933333Y-76266666D01*
X104966666Y-76333333D01*
X104966666Y-76400000D01*
X104933333Y-76466666D01*
X104900000Y-76500000D01*
X104833333Y-76533333D01*
X104700000Y-76566666D01*
X104533333Y-76566666D01*
X104400000Y-76533333D01*
X104333333Y-76500000D01*
X104300000Y-76466666D01*
X104266666Y-76400000D01*
G04 #@! TO.C,C17*
X118820000Y-84150000D02*
X118853333Y-84183333D01*
X118886666Y-84283333D01*
X118886666Y-84350000D01*
X118853333Y-84450000D01*
X118786666Y-84516666D01*
X118720000Y-84550000D01*
X118586666Y-84583333D01*
X118486666Y-84583333D01*
X118353333Y-84550000D01*
X118286666Y-84516666D01*
X118220000Y-84450000D01*
X118186666Y-84350000D01*
X118186666Y-84283333D01*
X118220000Y-84183333D01*
X118253333Y-84150000D01*
X118886666Y-83483333D02*
X118886666Y-83883333D01*
X118886666Y-83683333D02*
X118186666Y-83683333D01*
X118286666Y-83750000D01*
X118353333Y-83816666D01*
X118386666Y-83883333D01*
X118186666Y-83250000D02*
X118186666Y-82783333D01*
X118886666Y-83083333D01*
G04 #@! TO.C,C10*
X114710000Y-93120000D02*
X114743333Y-93153333D01*
X114776666Y-93253333D01*
X114776666Y-93320000D01*
X114743333Y-93420000D01*
X114676666Y-93486666D01*
X114610000Y-93520000D01*
X114476666Y-93553333D01*
X114376666Y-93553333D01*
X114243333Y-93520000D01*
X114176666Y-93486666D01*
X114110000Y-93420000D01*
X114076666Y-93320000D01*
X114076666Y-93253333D01*
X114110000Y-93153333D01*
X114143333Y-93120000D01*
X114776666Y-92453333D02*
X114776666Y-92853333D01*
X114776666Y-92653333D02*
X114076666Y-92653333D01*
X114176666Y-92720000D01*
X114243333Y-92786666D01*
X114276666Y-92853333D01*
X114076666Y-92020000D02*
X114076666Y-91953333D01*
X114110000Y-91886666D01*
X114143333Y-91853333D01*
X114210000Y-91820000D01*
X114343333Y-91786666D01*
X114510000Y-91786666D01*
X114643333Y-91820000D01*
X114710000Y-91853333D01*
X114743333Y-91886666D01*
X114776666Y-91953333D01*
X114776666Y-92020000D01*
X114743333Y-92086666D01*
X114710000Y-92120000D01*
X114643333Y-92153333D01*
X114510000Y-92186666D01*
X114343333Y-92186666D01*
X114210000Y-92153333D01*
X114143333Y-92120000D01*
X114110000Y-92086666D01*
X114076666Y-92020000D01*
G04 #@! TO.C,J6*
X95573326Y-91439935D02*
X95764668Y-91901875D01*
X95772140Y-92007019D01*
X95736061Y-92094124D01*
X95656429Y-92163188D01*
X95594837Y-92188700D01*
X96158450Y-91197569D02*
X96035266Y-91248594D01*
X95986430Y-91304902D01*
X95968390Y-91348454D01*
X95945067Y-91466354D01*
X95965295Y-91602294D01*
X96067344Y-91848662D01*
X96123652Y-91897498D01*
X96167204Y-91915538D01*
X96241552Y-91920822D01*
X96364736Y-91869797D01*
X96413572Y-91813489D01*
X96431612Y-91769937D01*
X96436896Y-91695589D01*
X96373115Y-91541609D01*
X96316807Y-91492773D01*
X96273255Y-91474733D01*
X96198907Y-91469449D01*
X96075723Y-91520474D01*
X96026887Y-91576782D01*
X96008847Y-91620334D01*
X96003564Y-91694682D01*
G04 #@! TO.C,C26*
X96198762Y-81841416D02*
X96216802Y-81884968D01*
X96209329Y-81990112D01*
X96183817Y-82051704D01*
X96114753Y-82131336D01*
X96027649Y-82167416D01*
X95953301Y-82172700D01*
X95817360Y-82152471D01*
X95724973Y-82114203D01*
X95614545Y-82032382D01*
X95565709Y-81976074D01*
X95529629Y-81888970D01*
X95537101Y-81783826D01*
X95562614Y-81722234D01*
X95631678Y-81642602D01*
X95675230Y-81624562D01*
X95777279Y-81378194D02*
X95759239Y-81334642D01*
X95753955Y-81260294D01*
X95817736Y-81106314D01*
X95874044Y-81057478D01*
X95917596Y-81039438D01*
X95991944Y-81034155D01*
X96053536Y-81059667D01*
X96133168Y-81128731D01*
X96349647Y-81651356D01*
X96515476Y-81251009D01*
X96098370Y-80428803D02*
X96047346Y-80551987D01*
X96052630Y-80626335D01*
X96070670Y-80669887D01*
X96137545Y-80769747D01*
X96247973Y-80851567D01*
X96494341Y-80953616D01*
X96568689Y-80948333D01*
X96612241Y-80930293D01*
X96668549Y-80881457D01*
X96719574Y-80758273D01*
X96714290Y-80683925D01*
X96696250Y-80640373D01*
X96647414Y-80584065D01*
X96493435Y-80520284D01*
X96419086Y-80525568D01*
X96375534Y-80543608D01*
X96319226Y-80592443D01*
X96268202Y-80715627D01*
X96273485Y-80789975D01*
X96291525Y-80833528D01*
X96340361Y-80889836D01*
G04 #@! TO.C,J4*
X111606666Y-94423333D02*
X112106666Y-94423333D01*
X112206666Y-94456666D01*
X112273333Y-94523333D01*
X112306666Y-94623333D01*
X112306666Y-94690000D01*
X111840000Y-93790000D02*
X112306666Y-93790000D01*
X111573333Y-93956666D02*
X112073333Y-94123333D01*
X112073333Y-93690000D01*
X112500000Y-99966666D02*
X112900000Y-99966666D01*
X112700000Y-100666666D02*
X112700000Y-99966666D01*
X113133333Y-100666666D02*
X113133333Y-99966666D01*
X113133333Y-100300000D02*
X113533333Y-100300000D01*
X113533333Y-100666666D02*
X113533333Y-99966666D01*
X114000000Y-99966666D02*
X114066666Y-99966666D01*
X114133333Y-100000000D01*
X114166666Y-100033333D01*
X114200000Y-100100000D01*
X114233333Y-100233333D01*
X114233333Y-100400000D01*
X114200000Y-100533333D01*
X114166666Y-100600000D01*
X114133333Y-100633333D01*
X114066666Y-100666666D01*
X114000000Y-100666666D01*
X113933333Y-100633333D01*
X113900000Y-100600000D01*
X113866666Y-100533333D01*
X113833333Y-100400000D01*
X113833333Y-100233333D01*
X113866666Y-100100000D01*
X113900000Y-100033333D01*
X113933333Y-100000000D01*
X114000000Y-99966666D01*
G04 #@! TO.C,C47*
X100238583Y-75478762D02*
X100195031Y-75496802D01*
X100089887Y-75489329D01*
X100028295Y-75463817D01*
X99948663Y-75394753D01*
X99912583Y-75307649D01*
X99907299Y-75233301D01*
X99927528Y-75097360D01*
X99965796Y-75004973D01*
X100047617Y-74894545D01*
X100103925Y-74845709D01*
X100191029Y-74809629D01*
X100296173Y-74817101D01*
X100357765Y-74842614D01*
X100437397Y-74911678D01*
X100455437Y-74955230D01*
X100945984Y-75338820D02*
X100767398Y-75769964D01*
X100894053Y-75028672D02*
X100548731Y-75426831D01*
X100949079Y-75592660D01*
X101312441Y-75238053D02*
X101743584Y-75416639D01*
X101198542Y-75948549D01*
G04 #@! TO.C,R6*
X124286666Y-74956666D02*
X123953333Y-75190000D01*
X124286666Y-75356666D02*
X123586666Y-75356666D01*
X123586666Y-75090000D01*
X123620000Y-75023333D01*
X123653333Y-74990000D01*
X123720000Y-74956666D01*
X123820000Y-74956666D01*
X123886666Y-74990000D01*
X123920000Y-75023333D01*
X123953333Y-75090000D01*
X123953333Y-75356666D01*
X123586666Y-74356666D02*
X123586666Y-74490000D01*
X123620000Y-74556666D01*
X123653333Y-74590000D01*
X123753333Y-74656666D01*
X123886666Y-74690000D01*
X124153333Y-74690000D01*
X124220000Y-74656666D01*
X124253333Y-74623333D01*
X124286666Y-74556666D01*
X124286666Y-74423333D01*
X124253333Y-74356666D01*
X124220000Y-74323333D01*
X124153333Y-74290000D01*
X123986666Y-74290000D01*
X123920000Y-74323333D01*
X123886666Y-74356666D01*
X123853333Y-74423333D01*
X123853333Y-74556666D01*
X123886666Y-74623333D01*
X123920000Y-74656666D01*
X123986666Y-74690000D01*
G04 #@! TO.C,C38*
X92433590Y-79150271D02*
X92390038Y-79168311D01*
X92284894Y-79160838D01*
X92223302Y-79135326D01*
X92143670Y-79066262D01*
X92107590Y-78979158D01*
X92102306Y-78904810D01*
X92122535Y-78768869D01*
X92160803Y-78676482D01*
X92242624Y-78566054D01*
X92298932Y-78517218D01*
X92386036Y-78481138D01*
X92491180Y-78488610D01*
X92552772Y-78514123D01*
X92632404Y-78583187D01*
X92650444Y-78626739D01*
X92891528Y-78654440D02*
X93291876Y-78820269D01*
X92974255Y-78977344D01*
X93066643Y-79015613D01*
X93115479Y-79071921D01*
X93133519Y-79115473D01*
X93138802Y-79189821D01*
X93075022Y-79343801D01*
X93018714Y-79392637D01*
X92975161Y-79410677D01*
X92900813Y-79415961D01*
X92716037Y-79339424D01*
X92667202Y-79283116D01*
X92649162Y-79239564D01*
X93546622Y-79250507D02*
X93497787Y-79194198D01*
X93479747Y-79150646D01*
X93474463Y-79076298D01*
X93487219Y-79045502D01*
X93543527Y-78996666D01*
X93587079Y-78978627D01*
X93661428Y-78973343D01*
X93784611Y-79024367D01*
X93833447Y-79080675D01*
X93851487Y-79124228D01*
X93856771Y-79198576D01*
X93844015Y-79229372D01*
X93787707Y-79278207D01*
X93744155Y-79296247D01*
X93669806Y-79301531D01*
X93546622Y-79250507D01*
X93472274Y-79255790D01*
X93428722Y-79273830D01*
X93372414Y-79322666D01*
X93321390Y-79445850D01*
X93326673Y-79520198D01*
X93344713Y-79563750D01*
X93393549Y-79620058D01*
X93516733Y-79671083D01*
X93591081Y-79665799D01*
X93634633Y-79647759D01*
X93690941Y-79598923D01*
X93741966Y-79475740D01*
X93736682Y-79401391D01*
X93718642Y-79357839D01*
X93669806Y-79301531D01*
G04 #@! TO.C,FB2*
X114850000Y-83283333D02*
X114850000Y-83516666D01*
X115216666Y-83516666D02*
X114516666Y-83516666D01*
X114516666Y-83183333D01*
X114850000Y-82683333D02*
X114883333Y-82583333D01*
X114916666Y-82550000D01*
X114983333Y-82516666D01*
X115083333Y-82516666D01*
X115150000Y-82550000D01*
X115183333Y-82583333D01*
X115216666Y-82650000D01*
X115216666Y-82916666D01*
X114516666Y-82916666D01*
X114516666Y-82683333D01*
X114550000Y-82616666D01*
X114583333Y-82583333D01*
X114650000Y-82550000D01*
X114716666Y-82550000D01*
X114783333Y-82583333D01*
X114816666Y-82616666D01*
X114850000Y-82683333D01*
X114850000Y-82916666D01*
X114583333Y-82250000D02*
X114550000Y-82216666D01*
X114516666Y-82150000D01*
X114516666Y-81983333D01*
X114550000Y-81916666D01*
X114583333Y-81883333D01*
X114650000Y-81850000D01*
X114716666Y-81850000D01*
X114816666Y-81883333D01*
X115216666Y-82283333D01*
X115216666Y-81850000D01*
G04 #@! TO.C,J14*
X127166666Y-87116666D02*
X127666666Y-87116666D01*
X127766666Y-87150000D01*
X127833333Y-87216666D01*
X127866666Y-87316666D01*
X127866666Y-87383333D01*
X127866666Y-86416666D02*
X127866666Y-86816666D01*
X127866666Y-86616666D02*
X127166666Y-86616666D01*
X127266666Y-86683333D01*
X127333333Y-86750000D01*
X127366666Y-86816666D01*
X127400000Y-85816666D02*
X127866666Y-85816666D01*
X127133333Y-85983333D02*
X127633333Y-86150000D01*
X127633333Y-85716666D01*
X123083333Y-94666666D02*
X123083333Y-93966666D01*
X123350000Y-93966666D01*
X123416666Y-94000000D01*
X123450000Y-94033333D01*
X123483333Y-94100000D01*
X123483333Y-94200000D01*
X123450000Y-94266666D01*
X123416666Y-94300000D01*
X123350000Y-94333333D01*
X123083333Y-94333333D01*
X124183333Y-94666666D02*
X123950000Y-94333333D01*
X123783333Y-94666666D02*
X123783333Y-93966666D01*
X124050000Y-93966666D01*
X124116666Y-94000000D01*
X124150000Y-94033333D01*
X124183333Y-94100000D01*
X124183333Y-94200000D01*
X124150000Y-94266666D01*
X124116666Y-94300000D01*
X124050000Y-94333333D01*
X123783333Y-94333333D01*
X124616666Y-93966666D02*
X124750000Y-93966666D01*
X124816666Y-94000000D01*
X124883333Y-94066666D01*
X124916666Y-94200000D01*
X124916666Y-94433333D01*
X124883333Y-94566666D01*
X124816666Y-94633333D01*
X124750000Y-94666666D01*
X124616666Y-94666666D01*
X124550000Y-94633333D01*
X124483333Y-94566666D01*
X124450000Y-94433333D01*
X124450000Y-94200000D01*
X124483333Y-94066666D01*
X124550000Y-94000000D01*
X124616666Y-93966666D01*
X125450000Y-94300000D02*
X125550000Y-94333333D01*
X125583333Y-94366666D01*
X125616666Y-94433333D01*
X125616666Y-94533333D01*
X125583333Y-94600000D01*
X125550000Y-94633333D01*
X125483333Y-94666666D01*
X125216666Y-94666666D01*
X125216666Y-93966666D01*
X125450000Y-93966666D01*
X125516666Y-94000000D01*
X125550000Y-94033333D01*
X125583333Y-94100000D01*
X125583333Y-94166666D01*
X125550000Y-94233333D01*
X125516666Y-94266666D01*
X125450000Y-94300000D01*
X125216666Y-94300000D01*
X125916666Y-94300000D02*
X126150000Y-94300000D01*
X126250000Y-94666666D02*
X125916666Y-94666666D01*
X125916666Y-93966666D01*
X126250000Y-93966666D01*
G04 #@! TO.C,C20*
X101410000Y-74550000D02*
X101376666Y-74583333D01*
X101276666Y-74616666D01*
X101210000Y-74616666D01*
X101110000Y-74583333D01*
X101043333Y-74516666D01*
X101010000Y-74450000D01*
X100976666Y-74316666D01*
X100976666Y-74216666D01*
X101010000Y-74083333D01*
X101043333Y-74016666D01*
X101110000Y-73950000D01*
X101210000Y-73916666D01*
X101276666Y-73916666D01*
X101376666Y-73950000D01*
X101410000Y-73983333D01*
X101676666Y-73983333D02*
X101710000Y-73950000D01*
X101776666Y-73916666D01*
X101943333Y-73916666D01*
X102010000Y-73950000D01*
X102043333Y-73983333D01*
X102076666Y-74050000D01*
X102076666Y-74116666D01*
X102043333Y-74216666D01*
X101643333Y-74616666D01*
X102076666Y-74616666D01*
X102510000Y-73916666D02*
X102576666Y-73916666D01*
X102643333Y-73950000D01*
X102676666Y-73983333D01*
X102710000Y-74050000D01*
X102743333Y-74183333D01*
X102743333Y-74350000D01*
X102710000Y-74483333D01*
X102676666Y-74550000D01*
X102643333Y-74583333D01*
X102576666Y-74616666D01*
X102510000Y-74616666D01*
X102443333Y-74583333D01*
X102410000Y-74550000D01*
X102376666Y-74483333D01*
X102343333Y-74350000D01*
X102343333Y-74183333D01*
X102376666Y-74050000D01*
X102410000Y-73983333D01*
X102443333Y-73950000D01*
X102510000Y-73916666D01*
G04 #@! TO.C,C27*
X100628583Y-82908762D02*
X100585031Y-82926802D01*
X100479887Y-82919329D01*
X100418295Y-82893817D01*
X100338663Y-82824753D01*
X100302583Y-82737649D01*
X100297299Y-82663301D01*
X100317528Y-82527360D01*
X100355796Y-82434973D01*
X100437617Y-82324545D01*
X100493925Y-82275709D01*
X100581029Y-82239629D01*
X100686173Y-82247101D01*
X100747765Y-82272614D01*
X100827397Y-82341678D01*
X100845437Y-82385230D01*
X101091805Y-82487279D02*
X101135357Y-82469239D01*
X101209705Y-82463955D01*
X101363685Y-82527736D01*
X101412521Y-82584044D01*
X101430561Y-82627596D01*
X101435844Y-82701944D01*
X101410332Y-82763536D01*
X101341268Y-82843168D01*
X100818643Y-83059647D01*
X101218990Y-83225476D01*
X101702441Y-82668053D02*
X102133584Y-82846639D01*
X101588542Y-83378549D01*
G04 #@! TO.C,R1*
X130123333Y-96516666D02*
X129890000Y-96183333D01*
X129723333Y-96516666D02*
X129723333Y-95816666D01*
X129990000Y-95816666D01*
X130056666Y-95850000D01*
X130090000Y-95883333D01*
X130123333Y-95950000D01*
X130123333Y-96050000D01*
X130090000Y-96116666D01*
X130056666Y-96150000D01*
X129990000Y-96183333D01*
X129723333Y-96183333D01*
X130790000Y-96516666D02*
X130390000Y-96516666D01*
X130590000Y-96516666D02*
X130590000Y-95816666D01*
X130523333Y-95916666D01*
X130456666Y-95983333D01*
X130390000Y-96016666D01*
G04 #@! TO.C,Q3*
X100433333Y-89943333D02*
X100366666Y-89910000D01*
X100300000Y-89843333D01*
X100200000Y-89743333D01*
X100133333Y-89710000D01*
X100066666Y-89710000D01*
X100100000Y-89876666D02*
X100033333Y-89843333D01*
X99966666Y-89776666D01*
X99933333Y-89643333D01*
X99933333Y-89410000D01*
X99966666Y-89276666D01*
X100033333Y-89210000D01*
X100100000Y-89176666D01*
X100233333Y-89176666D01*
X100300000Y-89210000D01*
X100366666Y-89276666D01*
X100400000Y-89410000D01*
X100400000Y-89643333D01*
X100366666Y-89776666D01*
X100300000Y-89843333D01*
X100233333Y-89876666D01*
X100100000Y-89876666D01*
X100633333Y-89176666D02*
X101066666Y-89176666D01*
X100833333Y-89443333D01*
X100933333Y-89443333D01*
X101000000Y-89476666D01*
X101033333Y-89510000D01*
X101066666Y-89576666D01*
X101066666Y-89743333D01*
X101033333Y-89810000D01*
X101000000Y-89843333D01*
X100933333Y-89876666D01*
X100733333Y-89876666D01*
X100666666Y-89843333D01*
X100633333Y-89810000D01*
G04 #@! TO.C,C28*
X101858762Y-82161416D02*
X101876802Y-82204968D01*
X101869329Y-82310112D01*
X101843817Y-82371704D01*
X101774753Y-82451336D01*
X101687649Y-82487416D01*
X101613301Y-82492700D01*
X101477360Y-82472471D01*
X101384973Y-82434203D01*
X101274545Y-82352382D01*
X101225709Y-82296074D01*
X101189629Y-82208970D01*
X101197101Y-82103826D01*
X101222614Y-82042234D01*
X101291678Y-81962602D01*
X101335230Y-81944562D01*
X101437279Y-81698194D02*
X101419239Y-81654642D01*
X101413955Y-81580294D01*
X101477736Y-81426314D01*
X101534044Y-81377478D01*
X101577596Y-81359438D01*
X101651944Y-81354155D01*
X101713536Y-81379667D01*
X101793168Y-81448731D01*
X102009647Y-81971356D01*
X102175476Y-81571009D01*
X101958998Y-81048384D02*
X101902689Y-81097219D01*
X101859137Y-81115259D01*
X101784789Y-81120543D01*
X101753993Y-81107787D01*
X101705157Y-81051479D01*
X101687118Y-81007927D01*
X101681834Y-80933578D01*
X101732858Y-80810395D01*
X101789166Y-80761559D01*
X101832719Y-80743519D01*
X101907067Y-80738235D01*
X101937863Y-80750991D01*
X101986698Y-80807299D01*
X102004738Y-80850851D01*
X102010022Y-80925200D01*
X101958998Y-81048384D01*
X101964281Y-81122732D01*
X101982321Y-81166284D01*
X102031157Y-81222592D01*
X102154341Y-81273616D01*
X102228689Y-81268333D01*
X102272241Y-81250293D01*
X102328549Y-81201457D01*
X102379574Y-81078273D01*
X102374290Y-81003925D01*
X102356250Y-80960373D01*
X102307414Y-80904065D01*
X102184231Y-80853040D01*
X102109882Y-80858324D01*
X102066330Y-80876364D01*
X102010022Y-80925200D01*
G04 #@! TO.C,L1*
X109483333Y-69966666D02*
X109150000Y-69966666D01*
X109150000Y-69266666D01*
X110083333Y-69966666D02*
X109683333Y-69966666D01*
X109883333Y-69966666D02*
X109883333Y-69266666D01*
X109816666Y-69366666D01*
X109750000Y-69433333D01*
X109683333Y-69466666D01*
G04 #@! TO.C,R18*
X128816666Y-80590000D02*
X128483333Y-80823333D01*
X128816666Y-80990000D02*
X128116666Y-80990000D01*
X128116666Y-80723333D01*
X128150000Y-80656666D01*
X128183333Y-80623333D01*
X128250000Y-80590000D01*
X128350000Y-80590000D01*
X128416666Y-80623333D01*
X128450000Y-80656666D01*
X128483333Y-80723333D01*
X128483333Y-80990000D01*
X128816666Y-79923333D02*
X128816666Y-80323333D01*
X128816666Y-80123333D02*
X128116666Y-80123333D01*
X128216666Y-80190000D01*
X128283333Y-80256666D01*
X128316666Y-80323333D01*
X128416666Y-79523333D02*
X128383333Y-79590000D01*
X128350000Y-79623333D01*
X128283333Y-79656666D01*
X128250000Y-79656666D01*
X128183333Y-79623333D01*
X128150000Y-79590000D01*
X128116666Y-79523333D01*
X128116666Y-79390000D01*
X128150000Y-79323333D01*
X128183333Y-79290000D01*
X128250000Y-79256666D01*
X128283333Y-79256666D01*
X128350000Y-79290000D01*
X128383333Y-79323333D01*
X128416666Y-79390000D01*
X128416666Y-79523333D01*
X128450000Y-79590000D01*
X128483333Y-79623333D01*
X128550000Y-79656666D01*
X128683333Y-79656666D01*
X128750000Y-79623333D01*
X128783333Y-79590000D01*
X128816666Y-79523333D01*
X128816666Y-79390000D01*
X128783333Y-79323333D01*
X128750000Y-79290000D01*
X128683333Y-79256666D01*
X128550000Y-79256666D01*
X128483333Y-79290000D01*
X128450000Y-79323333D01*
X128416666Y-79390000D01*
G04 #@! TO.C,D8*
X98493333Y-69036666D02*
X98493333Y-68336666D01*
X98660000Y-68336666D01*
X98760000Y-68370000D01*
X98826666Y-68436666D01*
X98860000Y-68503333D01*
X98893333Y-68636666D01*
X98893333Y-68736666D01*
X98860000Y-68870000D01*
X98826666Y-68936666D01*
X98760000Y-69003333D01*
X98660000Y-69036666D01*
X98493333Y-69036666D01*
X99293333Y-68636666D02*
X99226666Y-68603333D01*
X99193333Y-68570000D01*
X99160000Y-68503333D01*
X99160000Y-68470000D01*
X99193333Y-68403333D01*
X99226666Y-68370000D01*
X99293333Y-68336666D01*
X99426666Y-68336666D01*
X99493333Y-68370000D01*
X99526666Y-68403333D01*
X99560000Y-68470000D01*
X99560000Y-68503333D01*
X99526666Y-68570000D01*
X99493333Y-68603333D01*
X99426666Y-68636666D01*
X99293333Y-68636666D01*
X99226666Y-68670000D01*
X99193333Y-68703333D01*
X99160000Y-68770000D01*
X99160000Y-68903333D01*
X99193333Y-68970000D01*
X99226666Y-69003333D01*
X99293333Y-69036666D01*
X99426666Y-69036666D01*
X99493333Y-69003333D01*
X99526666Y-68970000D01*
X99560000Y-68903333D01*
X99560000Y-68770000D01*
X99526666Y-68703333D01*
X99493333Y-68670000D01*
X99426666Y-68636666D01*
G04 #@! TO.C,D2*
X120403333Y-73416666D02*
X120403333Y-72716666D01*
X120570000Y-72716666D01*
X120670000Y-72750000D01*
X120736666Y-72816666D01*
X120770000Y-72883333D01*
X120803333Y-73016666D01*
X120803333Y-73116666D01*
X120770000Y-73250000D01*
X120736666Y-73316666D01*
X120670000Y-73383333D01*
X120570000Y-73416666D01*
X120403333Y-73416666D01*
X121070000Y-72783333D02*
X121103333Y-72750000D01*
X121170000Y-72716666D01*
X121336666Y-72716666D01*
X121403333Y-72750000D01*
X121436666Y-72783333D01*
X121470000Y-72850000D01*
X121470000Y-72916666D01*
X121436666Y-73016666D01*
X121036666Y-73416666D01*
X121470000Y-73416666D01*
G04 #@! TO.C,R2*
X128703333Y-96516666D02*
X128470000Y-96183333D01*
X128303333Y-96516666D02*
X128303333Y-95816666D01*
X128570000Y-95816666D01*
X128636666Y-95850000D01*
X128670000Y-95883333D01*
X128703333Y-95950000D01*
X128703333Y-96050000D01*
X128670000Y-96116666D01*
X128636666Y-96150000D01*
X128570000Y-96183333D01*
X128303333Y-96183333D01*
X128970000Y-95883333D02*
X129003333Y-95850000D01*
X129070000Y-95816666D01*
X129236666Y-95816666D01*
X129303333Y-95850000D01*
X129336666Y-95883333D01*
X129370000Y-95950000D01*
X129370000Y-96016666D01*
X129336666Y-96116666D01*
X128936666Y-96516666D01*
X129370000Y-96516666D01*
G04 #@! TO.C,C24*
X113020000Y-69520000D02*
X113053333Y-69553333D01*
X113086666Y-69653333D01*
X113086666Y-69720000D01*
X113053333Y-69820000D01*
X112986666Y-69886666D01*
X112920000Y-69920000D01*
X112786666Y-69953333D01*
X112686666Y-69953333D01*
X112553333Y-69920000D01*
X112486666Y-69886666D01*
X112420000Y-69820000D01*
X112386666Y-69720000D01*
X112386666Y-69653333D01*
X112420000Y-69553333D01*
X112453333Y-69520000D01*
X112453333Y-69253333D02*
X112420000Y-69220000D01*
X112386666Y-69153333D01*
X112386666Y-68986666D01*
X112420000Y-68920000D01*
X112453333Y-68886666D01*
X112520000Y-68853333D01*
X112586666Y-68853333D01*
X112686666Y-68886666D01*
X113086666Y-69286666D01*
X113086666Y-68853333D01*
X112620000Y-68253333D02*
X113086666Y-68253333D01*
X112353333Y-68420000D02*
X112853333Y-68586666D01*
X112853333Y-68153333D01*
G04 #@! TO.C,U1*
X104026666Y-80853333D02*
X104593333Y-80853333D01*
X104660000Y-80820000D01*
X104693333Y-80786666D01*
X104726666Y-80720000D01*
X104726666Y-80586666D01*
X104693333Y-80520000D01*
X104660000Y-80486666D01*
X104593333Y-80453333D01*
X104026666Y-80453333D01*
X104726666Y-79753333D02*
X104726666Y-80153333D01*
X104726666Y-79953333D02*
X104026666Y-79953333D01*
X104126666Y-80020000D01*
X104193333Y-80086666D01*
X104226666Y-80153333D01*
G04 #@! TO.C,R31*
X98586666Y-67180000D02*
X98253333Y-67413333D01*
X98586666Y-67580000D02*
X97886666Y-67580000D01*
X97886666Y-67313333D01*
X97920000Y-67246666D01*
X97953333Y-67213333D01*
X98020000Y-67180000D01*
X98120000Y-67180000D01*
X98186666Y-67213333D01*
X98220000Y-67246666D01*
X98253333Y-67313333D01*
X98253333Y-67580000D01*
X97886666Y-66946666D02*
X97886666Y-66513333D01*
X98153333Y-66746666D01*
X98153333Y-66646666D01*
X98186666Y-66580000D01*
X98220000Y-66546666D01*
X98286666Y-66513333D01*
X98453333Y-66513333D01*
X98520000Y-66546666D01*
X98553333Y-66580000D01*
X98586666Y-66646666D01*
X98586666Y-66846666D01*
X98553333Y-66913333D01*
X98520000Y-66946666D01*
X98586666Y-65846666D02*
X98586666Y-66246666D01*
X98586666Y-66046666D02*
X97886666Y-66046666D01*
X97986666Y-66113333D01*
X98053333Y-66180000D01*
X98086666Y-66246666D01*
G04 #@! TO.C,C21*
X106740000Y-69940000D02*
X106706666Y-69973333D01*
X106606666Y-70006666D01*
X106540000Y-70006666D01*
X106440000Y-69973333D01*
X106373333Y-69906666D01*
X106340000Y-69840000D01*
X106306666Y-69706666D01*
X106306666Y-69606666D01*
X106340000Y-69473333D01*
X106373333Y-69406666D01*
X106440000Y-69340000D01*
X106540000Y-69306666D01*
X106606666Y-69306666D01*
X106706666Y-69340000D01*
X106740000Y-69373333D01*
X107006666Y-69373333D02*
X107040000Y-69340000D01*
X107106666Y-69306666D01*
X107273333Y-69306666D01*
X107340000Y-69340000D01*
X107373333Y-69373333D01*
X107406666Y-69440000D01*
X107406666Y-69506666D01*
X107373333Y-69606666D01*
X106973333Y-70006666D01*
X107406666Y-70006666D01*
X108073333Y-70006666D02*
X107673333Y-70006666D01*
X107873333Y-70006666D02*
X107873333Y-69306666D01*
X107806666Y-69406666D01*
X107740000Y-69473333D01*
X107673333Y-69506666D01*
G04 #@! TO.C,J13*
X127216666Y-78716666D02*
X127716666Y-78716666D01*
X127816666Y-78750000D01*
X127883333Y-78816666D01*
X127916666Y-78916666D01*
X127916666Y-78983333D01*
X127916666Y-78016666D02*
X127916666Y-78416666D01*
X127916666Y-78216666D02*
X127216666Y-78216666D01*
X127316666Y-78283333D01*
X127383333Y-78350000D01*
X127416666Y-78416666D01*
X127216666Y-77783333D02*
X127216666Y-77350000D01*
X127483333Y-77583333D01*
X127483333Y-77483333D01*
X127516666Y-77416666D01*
X127550000Y-77383333D01*
X127616666Y-77350000D01*
X127783333Y-77350000D01*
X127850000Y-77383333D01*
X127883333Y-77416666D01*
X127916666Y-77483333D01*
X127916666Y-77683333D01*
X127883333Y-77750000D01*
X127850000Y-77783333D01*
X122366666Y-76800000D02*
X122600000Y-76800000D01*
X122700000Y-77166666D02*
X122366666Y-77166666D01*
X122366666Y-76466666D01*
X122700000Y-76466666D01*
X123000000Y-76900000D02*
X123533333Y-76900000D01*
X123833333Y-77133333D02*
X123933333Y-77166666D01*
X124100000Y-77166666D01*
X124166666Y-77133333D01*
X124200000Y-77100000D01*
X124233333Y-77033333D01*
X124233333Y-76966666D01*
X124200000Y-76900000D01*
X124166666Y-76866666D01*
X124100000Y-76833333D01*
X123966666Y-76800000D01*
X123900000Y-76766666D01*
X123866666Y-76733333D01*
X123833333Y-76666666D01*
X123833333Y-76600000D01*
X123866666Y-76533333D01*
X123900000Y-76500000D01*
X123966666Y-76466666D01*
X124133333Y-76466666D01*
X124233333Y-76500000D01*
X124433333Y-76466666D02*
X124833333Y-76466666D01*
X124633333Y-77166666D02*
X124633333Y-76466666D01*
X125200000Y-76466666D02*
X125333333Y-76466666D01*
X125400000Y-76500000D01*
X125466666Y-76566666D01*
X125500000Y-76700000D01*
X125500000Y-76933333D01*
X125466666Y-77066666D01*
X125400000Y-77133333D01*
X125333333Y-77166666D01*
X125200000Y-77166666D01*
X125133333Y-77133333D01*
X125066666Y-77066666D01*
X125033333Y-76933333D01*
X125033333Y-76700000D01*
X125066666Y-76566666D01*
X125133333Y-76500000D01*
X125200000Y-76466666D01*
X125800000Y-77166666D02*
X125800000Y-76466666D01*
X126066666Y-76466666D01*
X126133333Y-76500000D01*
X126166666Y-76533333D01*
X126200000Y-76600000D01*
X126200000Y-76700000D01*
X126166666Y-76766666D01*
X126133333Y-76800000D01*
X126066666Y-76833333D01*
X125800000Y-76833333D01*
X126466666Y-76533333D02*
X126500000Y-76500000D01*
X126566666Y-76466666D01*
X126733333Y-76466666D01*
X126800000Y-76500000D01*
X126833333Y-76533333D01*
X126866666Y-76600000D01*
X126866666Y-76666666D01*
X126833333Y-76766666D01*
X126433333Y-77166666D01*
X126866666Y-77166666D01*
G04 #@! TO.C,R19*
X128766666Y-85300000D02*
X128433333Y-85533333D01*
X128766666Y-85700000D02*
X128066666Y-85700000D01*
X128066666Y-85433333D01*
X128100000Y-85366666D01*
X128133333Y-85333333D01*
X128200000Y-85300000D01*
X128300000Y-85300000D01*
X128366666Y-85333333D01*
X128400000Y-85366666D01*
X128433333Y-85433333D01*
X128433333Y-85700000D01*
X128766666Y-84633333D02*
X128766666Y-85033333D01*
X128766666Y-84833333D02*
X128066666Y-84833333D01*
X128166666Y-84900000D01*
X128233333Y-84966666D01*
X128266666Y-85033333D01*
X128766666Y-84300000D02*
X128766666Y-84166666D01*
X128733333Y-84100000D01*
X128700000Y-84066666D01*
X128600000Y-84000000D01*
X128466666Y-83966666D01*
X128200000Y-83966666D01*
X128133333Y-84000000D01*
X128100000Y-84033333D01*
X128066666Y-84100000D01*
X128066666Y-84233333D01*
X128100000Y-84300000D01*
X128133333Y-84333333D01*
X128200000Y-84366666D01*
X128366666Y-84366666D01*
X128433333Y-84333333D01*
X128466666Y-84300000D01*
X128500000Y-84233333D01*
X128500000Y-84100000D01*
X128466666Y-84033333D01*
X128433333Y-84000000D01*
X128366666Y-83966666D01*
G04 #@! TO.C,D3*
X98203333Y-89556666D02*
X98203333Y-88856666D01*
X98370000Y-88856666D01*
X98470000Y-88890000D01*
X98536666Y-88956666D01*
X98570000Y-89023333D01*
X98603333Y-89156666D01*
X98603333Y-89256666D01*
X98570000Y-89390000D01*
X98536666Y-89456666D01*
X98470000Y-89523333D01*
X98370000Y-89556666D01*
X98203333Y-89556666D01*
X98836666Y-88856666D02*
X99270000Y-88856666D01*
X99036666Y-89123333D01*
X99136666Y-89123333D01*
X99203333Y-89156666D01*
X99236666Y-89190000D01*
X99270000Y-89256666D01*
X99270000Y-89423333D01*
X99236666Y-89490000D01*
X99203333Y-89523333D01*
X99136666Y-89556666D01*
X98936666Y-89556666D01*
X98870000Y-89523333D01*
X98836666Y-89490000D01*
G04 #@! TO.C,C12*
X115980000Y-85440000D02*
X116013333Y-85473333D01*
X116046666Y-85573333D01*
X116046666Y-85640000D01*
X116013333Y-85740000D01*
X115946666Y-85806666D01*
X115880000Y-85840000D01*
X115746666Y-85873333D01*
X115646666Y-85873333D01*
X115513333Y-85840000D01*
X115446666Y-85806666D01*
X115380000Y-85740000D01*
X115346666Y-85640000D01*
X115346666Y-85573333D01*
X115380000Y-85473333D01*
X115413333Y-85440000D01*
X116046666Y-84773333D02*
X116046666Y-85173333D01*
X116046666Y-84973333D02*
X115346666Y-84973333D01*
X115446666Y-85040000D01*
X115513333Y-85106666D01*
X115546666Y-85173333D01*
X115413333Y-84506666D02*
X115380000Y-84473333D01*
X115346666Y-84406666D01*
X115346666Y-84240000D01*
X115380000Y-84173333D01*
X115413333Y-84140000D01*
X115480000Y-84106666D01*
X115546666Y-84106666D01*
X115646666Y-84140000D01*
X116046666Y-84540000D01*
X116046666Y-84106666D01*
G04 #@! TO.C,F1*
X105316666Y-68850000D02*
X105083333Y-68850000D01*
X105083333Y-69216666D02*
X105083333Y-68516666D01*
X105416666Y-68516666D01*
X106050000Y-69216666D02*
X105650000Y-69216666D01*
X105850000Y-69216666D02*
X105850000Y-68516666D01*
X105783333Y-68616666D01*
X105716666Y-68683333D01*
X105650000Y-68716666D01*
G04 #@! TO.C,C46*
X91567514Y-75844195D02*
X91523962Y-75862235D01*
X91418818Y-75854762D01*
X91357226Y-75829250D01*
X91277594Y-75760186D01*
X91241514Y-75673082D01*
X91236230Y-75598734D01*
X91256459Y-75462793D01*
X91294727Y-75370406D01*
X91376548Y-75259978D01*
X91432856Y-75211142D01*
X91519960Y-75175062D01*
X91625104Y-75182534D01*
X91686696Y-75208047D01*
X91766328Y-75277111D01*
X91784368Y-75320663D01*
X92274915Y-75704253D02*
X92096329Y-76135397D01*
X92222984Y-75394105D02*
X91877662Y-75792264D01*
X92278010Y-75958093D01*
X92980127Y-75743803D02*
X92856943Y-75692779D01*
X92782595Y-75698063D01*
X92739043Y-75716103D01*
X92639183Y-75782978D01*
X92557363Y-75893406D01*
X92455314Y-76139774D01*
X92460597Y-76214122D01*
X92478637Y-76257674D01*
X92527473Y-76313982D01*
X92650657Y-76365007D01*
X92725005Y-76359723D01*
X92768557Y-76341683D01*
X92824865Y-76292847D01*
X92888646Y-76138868D01*
X92883362Y-76064519D01*
X92865322Y-76020967D01*
X92816487Y-75964659D01*
X92693303Y-75913635D01*
X92618955Y-75918918D01*
X92575402Y-75936958D01*
X92519094Y-75985794D01*
G04 #@! TO.C,Q2*
X122853333Y-72773333D02*
X122786666Y-72740000D01*
X122720000Y-72673333D01*
X122620000Y-72573333D01*
X122553333Y-72540000D01*
X122486666Y-72540000D01*
X122520000Y-72706666D02*
X122453333Y-72673333D01*
X122386666Y-72606666D01*
X122353333Y-72473333D01*
X122353333Y-72240000D01*
X122386666Y-72106666D01*
X122453333Y-72040000D01*
X122520000Y-72006666D01*
X122653333Y-72006666D01*
X122720000Y-72040000D01*
X122786666Y-72106666D01*
X122820000Y-72240000D01*
X122820000Y-72473333D01*
X122786666Y-72606666D01*
X122720000Y-72673333D01*
X122653333Y-72706666D01*
X122520000Y-72706666D01*
X123086666Y-72073333D02*
X123120000Y-72040000D01*
X123186666Y-72006666D01*
X123353333Y-72006666D01*
X123420000Y-72040000D01*
X123453333Y-72073333D01*
X123486666Y-72140000D01*
X123486666Y-72206666D01*
X123453333Y-72306666D01*
X123053333Y-72706666D01*
X123486666Y-72706666D01*
G04 #@! TO.C,C37*
X91457681Y-71144415D02*
X91414129Y-71162455D01*
X91308985Y-71154982D01*
X91247393Y-71129470D01*
X91167761Y-71060406D01*
X91131681Y-70973302D01*
X91126397Y-70898954D01*
X91146626Y-70763013D01*
X91184894Y-70670626D01*
X91266715Y-70560198D01*
X91323023Y-70511362D01*
X91410127Y-70475282D01*
X91515271Y-70482754D01*
X91576863Y-70508267D01*
X91656495Y-70577331D01*
X91674535Y-70620883D01*
X91915619Y-70648584D02*
X92315967Y-70814413D01*
X91998346Y-70971488D01*
X92090734Y-71009757D01*
X92139570Y-71066065D01*
X92157610Y-71109617D01*
X92162893Y-71183965D01*
X92099113Y-71337945D01*
X92042805Y-71386781D01*
X91999252Y-71404821D01*
X91924904Y-71410105D01*
X91740128Y-71333568D01*
X91691293Y-71277260D01*
X91673253Y-71233708D01*
X92531539Y-70903706D02*
X92962682Y-71082292D01*
X92417640Y-71614202D01*
G04 #@! TO.C,Q1*
X131903333Y-92323333D02*
X131836666Y-92290000D01*
X131770000Y-92223333D01*
X131670000Y-92123333D01*
X131603333Y-92090000D01*
X131536666Y-92090000D01*
X131570000Y-92256666D02*
X131503333Y-92223333D01*
X131436666Y-92156666D01*
X131403333Y-92023333D01*
X131403333Y-91790000D01*
X131436666Y-91656666D01*
X131503333Y-91590000D01*
X131570000Y-91556666D01*
X131703333Y-91556666D01*
X131770000Y-91590000D01*
X131836666Y-91656666D01*
X131870000Y-91790000D01*
X131870000Y-92023333D01*
X131836666Y-92156666D01*
X131770000Y-92223333D01*
X131703333Y-92256666D01*
X131570000Y-92256666D01*
X132536666Y-92256666D02*
X132136666Y-92256666D01*
X132336666Y-92256666D02*
X132336666Y-91556666D01*
X132270000Y-91656666D01*
X132203333Y-91723333D01*
X132136666Y-91756666D01*
G04 #@! TO.C,R16*
X121450891Y-70260144D02*
X121044067Y-70267189D01*
X121227214Y-70591759D02*
X120646888Y-70200324D01*
X120796006Y-69979247D01*
X120860920Y-69942618D01*
X120907194Y-69933623D01*
X120981103Y-69943268D01*
X121064007Y-69999187D01*
X121100636Y-70064102D01*
X121109631Y-70110376D01*
X121099986Y-70184285D01*
X120950868Y-70405362D01*
X121823687Y-69707452D02*
X121600009Y-70039067D01*
X121711848Y-69873260D02*
X121131522Y-69481825D01*
X121177146Y-69593013D01*
X121195136Y-69685562D01*
X121185491Y-69759471D01*
X121578876Y-68818595D02*
X121504317Y-68929133D01*
X121494672Y-69003042D01*
X121503667Y-69049316D01*
X121549291Y-69160505D01*
X121641190Y-69262699D01*
X121862266Y-69411817D01*
X121936175Y-69421462D01*
X121982450Y-69412467D01*
X122047364Y-69375837D01*
X122121923Y-69265299D01*
X122131568Y-69191390D01*
X122122573Y-69145116D01*
X122085943Y-69080202D01*
X121947771Y-68987003D01*
X121873862Y-68977358D01*
X121827587Y-68986353D01*
X121762673Y-69022982D01*
X121688114Y-69133520D01*
X121678469Y-69207429D01*
X121687464Y-69253704D01*
X121724093Y-69318618D01*
G04 #@! TO.C,C4*
X103183333Y-82150000D02*
X103150000Y-82183333D01*
X103050000Y-82216666D01*
X102983333Y-82216666D01*
X102883333Y-82183333D01*
X102816666Y-82116666D01*
X102783333Y-82050000D01*
X102750000Y-81916666D01*
X102750000Y-81816666D01*
X102783333Y-81683333D01*
X102816666Y-81616666D01*
X102883333Y-81550000D01*
X102983333Y-81516666D01*
X103050000Y-81516666D01*
X103150000Y-81550000D01*
X103183333Y-81583333D01*
X103783333Y-81750000D02*
X103783333Y-82216666D01*
X103616666Y-81483333D02*
X103450000Y-81983333D01*
X103883333Y-81983333D01*
G04 #@! TO.C,U8*
X107316666Y-74641666D02*
X107316666Y-75208333D01*
X107350000Y-75275000D01*
X107383333Y-75308333D01*
X107450000Y-75341666D01*
X107583333Y-75341666D01*
X107650000Y-75308333D01*
X107683333Y-75275000D01*
X107716666Y-75208333D01*
X107716666Y-74641666D01*
X108150000Y-74941666D02*
X108083333Y-74908333D01*
X108050000Y-74875000D01*
X108016666Y-74808333D01*
X108016666Y-74775000D01*
X108050000Y-74708333D01*
X108083333Y-74675000D01*
X108150000Y-74641666D01*
X108283333Y-74641666D01*
X108350000Y-74675000D01*
X108383333Y-74708333D01*
X108416666Y-74775000D01*
X108416666Y-74808333D01*
X108383333Y-74875000D01*
X108350000Y-74908333D01*
X108283333Y-74941666D01*
X108150000Y-74941666D01*
X108083333Y-74975000D01*
X108050000Y-75008333D01*
X108016666Y-75075000D01*
X108016666Y-75208333D01*
X108050000Y-75275000D01*
X108083333Y-75308333D01*
X108150000Y-75341666D01*
X108283333Y-75341666D01*
X108350000Y-75308333D01*
X108383333Y-75275000D01*
X108416666Y-75208333D01*
X108416666Y-75075000D01*
X108383333Y-75008333D01*
X108350000Y-74975000D01*
X108283333Y-74941666D01*
G04 #@! TO.C,R28*
X92193366Y-73810627D02*
X92105355Y-73413374D01*
X91823814Y-73657553D02*
X92091692Y-73010838D01*
X92338060Y-73112887D01*
X92386896Y-73169195D01*
X92404936Y-73212747D01*
X92410220Y-73287095D01*
X92371951Y-73379483D01*
X92315643Y-73428319D01*
X92272091Y-73446359D01*
X92197743Y-73451643D01*
X91951375Y-73349594D01*
X92682100Y-73327552D02*
X92725652Y-73309512D01*
X92800000Y-73304228D01*
X92953980Y-73368009D01*
X93002816Y-73424317D01*
X93020856Y-73467869D01*
X93026139Y-73542217D01*
X93000627Y-73603809D01*
X92931563Y-73683441D01*
X92408938Y-73899920D01*
X92809285Y-74065749D01*
X93331910Y-73849271D02*
X93283075Y-73792962D01*
X93265035Y-73749410D01*
X93259751Y-73675062D01*
X93272507Y-73644266D01*
X93328815Y-73595430D01*
X93372367Y-73577391D01*
X93446716Y-73572107D01*
X93569899Y-73623131D01*
X93618735Y-73679439D01*
X93636775Y-73722992D01*
X93642059Y-73797340D01*
X93629303Y-73828136D01*
X93572995Y-73876971D01*
X93529443Y-73895011D01*
X93455094Y-73900295D01*
X93331910Y-73849271D01*
X93257562Y-73854554D01*
X93214010Y-73872594D01*
X93157702Y-73921430D01*
X93106678Y-74044614D01*
X93111961Y-74118962D01*
X93130001Y-74162514D01*
X93178837Y-74218822D01*
X93302021Y-74269847D01*
X93376369Y-74264563D01*
X93419921Y-74246523D01*
X93476229Y-74197687D01*
X93527254Y-74074504D01*
X93521970Y-74000155D01*
X93503930Y-73956603D01*
X93455094Y-73900295D01*
G04 #@! TO.C,SW2*
X110850000Y-98133333D02*
X110883333Y-98033333D01*
X110916666Y-98000000D01*
X110983333Y-97966666D01*
X111083333Y-97966666D01*
X111150000Y-98000000D01*
X111183333Y-98033333D01*
X111216666Y-98100000D01*
X111216666Y-98366666D01*
X110516666Y-98366666D01*
X110516666Y-98133333D01*
X110550000Y-98066666D01*
X110583333Y-98033333D01*
X110650000Y-98000000D01*
X110716666Y-98000000D01*
X110783333Y-98033333D01*
X110816666Y-98066666D01*
X110850000Y-98133333D01*
X110850000Y-98366666D01*
X110516666Y-97533333D02*
X110516666Y-97466666D01*
X110550000Y-97400000D01*
X110583333Y-97366666D01*
X110650000Y-97333333D01*
X110783333Y-97300000D01*
X110950000Y-97300000D01*
X111083333Y-97333333D01*
X111150000Y-97366666D01*
X111183333Y-97400000D01*
X111216666Y-97466666D01*
X111216666Y-97533333D01*
X111183333Y-97600000D01*
X111150000Y-97633333D01*
X111083333Y-97666666D01*
X110950000Y-97700000D01*
X110783333Y-97700000D01*
X110650000Y-97666666D01*
X110583333Y-97633333D01*
X110550000Y-97600000D01*
X110516666Y-97533333D01*
G04 #@! TO.C,C34*
X94847051Y-73414253D02*
X94803499Y-73432293D01*
X94698355Y-73424820D01*
X94636763Y-73399308D01*
X94557131Y-73330244D01*
X94521051Y-73243140D01*
X94515767Y-73168792D01*
X94535996Y-73032851D01*
X94574264Y-72940464D01*
X94656085Y-72830036D01*
X94712393Y-72781200D01*
X94799497Y-72745120D01*
X94904641Y-72752592D01*
X94966233Y-72778105D01*
X95045865Y-72847169D01*
X95063905Y-72890721D01*
X95304989Y-72918422D02*
X95705337Y-73084251D01*
X95387716Y-73241326D01*
X95480104Y-73279595D01*
X95528940Y-73335903D01*
X95546980Y-73379455D01*
X95552263Y-73453803D01*
X95488483Y-73607783D01*
X95432175Y-73656619D01*
X95388622Y-73674659D01*
X95314274Y-73679943D01*
X95129498Y-73603406D01*
X95080663Y-73547098D01*
X95062623Y-73503546D01*
X96170372Y-73529433D02*
X95991786Y-73960577D01*
X96118441Y-73219285D02*
X95773119Y-73617444D01*
X96173467Y-73783274D01*
G04 #@! TO.C,R11*
X114046666Y-96060000D02*
X113713333Y-96293333D01*
X114046666Y-96460000D02*
X113346666Y-96460000D01*
X113346666Y-96193333D01*
X113380000Y-96126666D01*
X113413333Y-96093333D01*
X113480000Y-96060000D01*
X113580000Y-96060000D01*
X113646666Y-96093333D01*
X113680000Y-96126666D01*
X113713333Y-96193333D01*
X113713333Y-96460000D01*
X114046666Y-95393333D02*
X114046666Y-95793333D01*
X114046666Y-95593333D02*
X113346666Y-95593333D01*
X113446666Y-95660000D01*
X113513333Y-95726666D01*
X113546666Y-95793333D01*
X114046666Y-94726666D02*
X114046666Y-95126666D01*
X114046666Y-94926666D02*
X113346666Y-94926666D01*
X113446666Y-94993333D01*
X113513333Y-95060000D01*
X113546666Y-95126666D01*
D13*
G04 #@! TO.C,Y1*
X116550002Y-90799998D02*
X116550002Y-86799998D01*
X113250002Y-90799998D02*
X116550002Y-90799998D01*
G04 #@! TO.C,C35*
X94369918Y-75370576D02*
X94170663Y-75288042D01*
X94094385Y-76035770D02*
X93895130Y-75953236D01*
G04 #@! TO.C,C31*
X94100502Y-80210928D02*
X93617771Y-80010975D01*
X93537957Y-81569031D02*
X93055226Y-81369078D01*
G04 #@! TO.C,C41*
X90144884Y-75969301D02*
X89945629Y-75886767D01*
X90420417Y-75304107D02*
X90221162Y-75221573D01*
G04 #@! TO.C,R22*
X127880000Y-91253641D02*
X127880000Y-90946359D01*
X127120000Y-91253641D02*
X127120000Y-90946359D01*
G04 #@! TO.C,J12*
X120750000Y-85460000D02*
X120750000Y-84850000D01*
X117950000Y-84850000D02*
X121450000Y-84850000D01*
X119450000Y-85460000D02*
X119450000Y-84850000D01*
X121450000Y-77950000D02*
X117950000Y-77950000D01*
X122060000Y-77340000D02*
X117340000Y-77340000D01*
X117950000Y-77950000D02*
X117950000Y-84850000D01*
X117340000Y-85460000D02*
X122060000Y-85460000D01*
X121450000Y-79900000D02*
X121450000Y-77950000D01*
X122060000Y-85460000D02*
X122060000Y-77340000D01*
X119450000Y-77340000D02*
X119450000Y-77950000D01*
X120750000Y-77340000D02*
X120750000Y-77950000D01*
X121450000Y-84850000D02*
X121450000Y-82900000D01*
X117340000Y-77340000D02*
X117340000Y-85460000D01*
X121450000Y-82900000D02*
X122060000Y-82900000D01*
X122060000Y-79900000D02*
X121450000Y-79900000D01*
G04 #@! TO.C,C36*
X90910242Y-74121540D02*
X90710987Y-74039006D01*
X91185775Y-73456346D02*
X90986520Y-73373812D01*
G04 #@! TO.C,C3*
X111060000Y-82027836D02*
X111060000Y-81812164D01*
X110340000Y-82027836D02*
X110340000Y-81812164D01*
G04 #@! TO.C,C45*
X89379512Y-77817061D02*
X89180257Y-77734527D01*
X89655045Y-77151867D02*
X89455790Y-77069333D01*
G04 #@! TO.C,R21*
X127880000Y-89393642D02*
X127880000Y-89086360D01*
X127120000Y-89393642D02*
X127120000Y-89086360D01*
G04 #@! TO.C,R25*
X102200000Y-87896359D02*
X102200000Y-88203641D01*
X102960000Y-87896359D02*
X102960000Y-88203641D01*
G04 #@! TO.C,R29*
X107271359Y-100420000D02*
X107578641Y-100420000D01*
X107271359Y-99660000D02*
X107578641Y-99660000D01*
G04 #@! TO.C,R5*
X125578641Y-76280000D02*
X125271359Y-76280000D01*
X125578641Y-75520000D02*
X125271359Y-75520000D01*
G04 #@! TO.C,U4*
X111039998Y-76499999D02*
X111039998Y-75699999D01*
X114159998Y-76499999D02*
X114159998Y-77299999D01*
X111039998Y-76499999D02*
X111039998Y-77299999D01*
X114159998Y-76499999D02*
X114159998Y-74699999D01*
G04 #@! TO.C,R20*
X106453641Y-93220000D02*
X106146359Y-93220000D01*
X106453641Y-93980000D02*
X106146359Y-93980000D01*
G04 #@! TO.C,R17*
X118054119Y-68189867D02*
X118225949Y-67935119D01*
X117424051Y-67764881D02*
X117595881Y-67510133D01*
G04 #@! TO.C,C18*
X114340000Y-77657836D02*
X114340000Y-77442164D01*
X115060000Y-77657836D02*
X115060000Y-77442164D01*
G04 #@! TO.C,C6*
X113850000Y-92562165D02*
X113850000Y-92777837D01*
X113130000Y-92562165D02*
X113130000Y-92777837D01*
G04 #@! TO.C,R23*
X97498702Y-81786278D02*
X97214811Y-81668686D01*
X97207863Y-82488426D02*
X96923972Y-82370834D01*
D12*
G04 #@! TO.C,U6*
X106635000Y-73582501D02*
X106635000Y-73857500D01*
X106360001Y-73857500D02*
X106635000Y-73857500D01*
X103535000Y-73582501D02*
X103535000Y-73857500D01*
X106635000Y-70757500D02*
X106635000Y-71032499D01*
X103535000Y-70757500D02*
X103535000Y-71032499D01*
X106360001Y-70757500D02*
X106635000Y-70757500D01*
X103535000Y-70757500D02*
X103809999Y-70757500D01*
X103535000Y-73857500D02*
X103809999Y-73857500D01*
D14*
X105960000Y-69882500D02*
G75*
G03*
X105960000Y-69882500I-125000J0D01*
G01*
D13*
G04 #@! TO.C,R4*
X109453641Y-99660000D02*
X109146359Y-99660000D01*
X109453641Y-100420000D02*
X109146359Y-100420000D01*
G04 #@! TO.C,C7*
X105682836Y-99680000D02*
X105467164Y-99680000D01*
X105682836Y-100400000D02*
X105467164Y-100400000D01*
G04 #@! TO.C,C1*
X111215000Y-79050000D02*
X111215000Y-82960000D01*
X113085000Y-82960000D02*
X113085000Y-79050000D01*
X111215000Y-82960000D02*
X113085000Y-82960000D01*
D10*
G04 #@! TO.C,D7*
X107110000Y-93600000D02*
G75*
G03*
X107110000Y-93600000I-50000J0D01*
G01*
D13*
G04 #@! TO.C,C2*
X115542164Y-90940000D02*
X115757836Y-90940000D01*
X115542164Y-91660000D02*
X115757836Y-91660000D01*
G04 #@! TO.C,R9*
X103996359Y-93980000D02*
X104303641Y-93980000D01*
X103996359Y-93220000D02*
X104303641Y-93220000D01*
G04 #@! TO.C,C29*
X97632673Y-71683519D02*
X97149942Y-71483566D01*
X98195218Y-70325416D02*
X97712487Y-70125463D01*
D10*
G04 #@! TO.C,D6*
X118053065Y-69284884D02*
G75*
G03*
X118053065Y-69284884I-50000J0D01*
G01*
D13*
G04 #@! TO.C,C5*
X115357837Y-86039999D02*
X115142165Y-86039999D01*
X115357837Y-86759999D02*
X115142165Y-86759999D01*
G04 #@! TO.C,C43*
X93449940Y-81781525D02*
X92967209Y-81581572D01*
X92887395Y-83139628D02*
X92404664Y-82939675D01*
G04 #@! TO.C,J3*
X116115000Y-76310000D02*
X122235000Y-76310000D01*
X121625000Y-75700000D02*
X121625000Y-72200000D01*
X116115000Y-75000000D02*
X116725000Y-75000000D01*
X119675000Y-75700000D02*
X121625000Y-75700000D01*
X116115000Y-73700000D02*
X116725000Y-73700000D01*
X122235000Y-75000000D02*
X121625000Y-75000000D01*
X116115000Y-71590000D02*
X116115000Y-76310000D01*
X119675000Y-76310000D02*
X119675000Y-75700000D01*
X121625000Y-72200000D02*
X116725000Y-72200000D01*
X116725000Y-72200000D02*
X116725000Y-75700000D01*
X122235000Y-76310000D02*
X122235000Y-71590000D01*
X122235000Y-73700000D02*
X121625000Y-73700000D01*
X116725000Y-75700000D02*
X118675000Y-75700000D01*
X122235000Y-71590000D02*
X116115000Y-71590000D01*
X118675000Y-75700000D02*
X118675000Y-76310000D01*
G04 #@! TO.C,U3*
X120980000Y-96990000D02*
X120980000Y-96190000D01*
X120980000Y-96990000D02*
X120980000Y-97790000D01*
X117860000Y-96990000D02*
X117860000Y-96190000D01*
X117860000Y-96990000D02*
X117860000Y-98790000D01*
G04 #@! TO.C,Q4*
X101600000Y-68900000D02*
X101600000Y-67400000D01*
X103900000Y-66950000D02*
X103900000Y-68900000D01*
X103900000Y-66950000D02*
X103800000Y-66950000D01*
G04 #@! TO.C,C23*
X127860000Y-92832164D02*
X127860000Y-93047836D01*
X127140000Y-92832164D02*
X127140000Y-93047836D01*
G04 #@! TO.C,U2*
X111810000Y-91210000D02*
X113100000Y-91210000D01*
X111810000Y-91660000D02*
X111810000Y-91210000D01*
X104590000Y-84440000D02*
X104590000Y-84890000D01*
X104590000Y-91660000D02*
X104590000Y-91210000D01*
X105040000Y-91660000D02*
X104590000Y-91660000D01*
X105040000Y-84440000D02*
X104590000Y-84440000D01*
X111360000Y-84440000D02*
X111810000Y-84440000D01*
X111360000Y-91660000D02*
X111810000Y-91660000D01*
X111810000Y-84440000D02*
X111810000Y-84890000D01*
G04 #@! TO.C,R10*
X98370000Y-91326359D02*
X98370000Y-91633641D01*
X97610000Y-91326359D02*
X97610000Y-91633641D01*
G04 #@! TO.C,C11*
X112230000Y-92562164D02*
X112230000Y-92777836D01*
X112950000Y-92562164D02*
X112950000Y-92777836D01*
G04 #@! TO.C,R14*
X116420000Y-81053641D02*
X116420000Y-80746359D01*
X117180000Y-81053641D02*
X117180000Y-80746359D01*
G04 #@! TO.C,C9*
X104160000Y-92042164D02*
X104160000Y-92257836D01*
X103440000Y-92042164D02*
X103440000Y-92257836D01*
G04 #@! TO.C,R24*
X102314061Y-79767920D02*
X102030170Y-79650328D01*
X102604900Y-79065772D02*
X102321009Y-78948180D01*
G04 #@! TO.C,J7*
X117340000Y-93760000D02*
X122060000Y-93760000D01*
X120750000Y-93760000D02*
X120750000Y-93150000D01*
X121450000Y-86250000D02*
X117950000Y-86250000D01*
X119450000Y-93760000D02*
X119450000Y-93150000D01*
X122060000Y-93760000D02*
X122060000Y-85640000D01*
X121450000Y-88200000D02*
X121450000Y-86250000D01*
X117950000Y-93150000D02*
X121450000Y-93150000D01*
X119450000Y-85640000D02*
X119450000Y-86250000D01*
X117340000Y-85640000D02*
X117340000Y-93760000D01*
X121450000Y-93150000D02*
X121450000Y-91200000D01*
X117950000Y-86250000D02*
X117950000Y-93150000D01*
X121450000Y-91200000D02*
X122060000Y-91200000D01*
X122060000Y-85640000D02*
X117340000Y-85640000D01*
X122060000Y-88200000D02*
X121450000Y-88200000D01*
X120750000Y-85640000D02*
X120750000Y-86250000D01*
D10*
G04 #@! TO.C,D9*
X101710506Y-78090921D02*
G75*
G03*
X101710506Y-78090921I-50000J0D01*
G01*
D13*
G04 #@! TO.C,SW1*
X104750000Y-96490000D02*
X104750000Y-96790000D01*
X101450000Y-96490000D02*
X104750000Y-96490000D01*
X101450000Y-98990000D02*
X101450000Y-99290000D01*
X101450000Y-96790000D02*
X101450000Y-96490000D01*
X104750000Y-99290000D02*
X104750000Y-98990000D01*
X101450000Y-99290000D02*
X104750000Y-99290000D01*
G04 #@! TO.C,C13*
X114192164Y-84910000D02*
X114407836Y-84910000D01*
X114192164Y-84190000D02*
X114407836Y-84190000D01*
G04 #@! TO.C,R30*
X93215313Y-78458808D02*
X93634872Y-78632595D01*
X93777858Y-77100705D02*
X94197417Y-77274492D01*
G04 #@! TO.C,U5*
X102060727Y-76587453D02*
X101442504Y-76331376D01*
X100048654Y-81445026D02*
X100304731Y-80826803D01*
X95447157Y-78814730D02*
X95191081Y-79432953D01*
X97821377Y-74831456D02*
X97203154Y-74575380D01*
X95191081Y-79432953D02*
X95809304Y-79689030D01*
X99430431Y-81188950D02*
X100048654Y-81445026D01*
X97203154Y-74575380D02*
X96947077Y-75193603D01*
X101804651Y-77205676D02*
X102060727Y-76587453D01*
D10*
X98794505Y-74492235D02*
X99146503Y-74638037D01*
X99146503Y-74638037D02*
X99049302Y-74872702D01*
X99049302Y-74872702D02*
X98697304Y-74726900D01*
X98697304Y-74726900D02*
X98794505Y-74492235D01*
G36*
X99146503Y-74638037D02*
G01*
X99049302Y-74872702D01*
X98697304Y-74726900D01*
X98794505Y-74492235D01*
X99146503Y-74638037D01*
G37*
X99146503Y-74638037D02*
X99049302Y-74872702D01*
X98697304Y-74726900D01*
X98794505Y-74492235D01*
X99146503Y-74638037D01*
X101189380Y-79819420D02*
X101424045Y-79916622D01*
X101424045Y-79916622D02*
X101569847Y-79564624D01*
X101569847Y-79564624D02*
X101335182Y-79467422D01*
X101335182Y-79467422D02*
X101189380Y-79819420D01*
G36*
X101569847Y-79564624D02*
G01*
X101424045Y-79916622D01*
X101189380Y-79819420D01*
X101335182Y-79467422D01*
X101569847Y-79564624D01*
G37*
X101569847Y-79564624D02*
X101424045Y-79916622D01*
X101189380Y-79819420D01*
X101335182Y-79467422D01*
X101569847Y-79564624D01*
D13*
G04 #@! TO.C,J9*
X109400000Y-94090000D02*
X110160000Y-94090000D01*
X108640000Y-95763471D02*
X108640000Y-96310000D01*
X108640000Y-94090000D02*
X103625000Y-94090000D01*
X108640000Y-96310000D02*
X103625000Y-96310000D01*
X103625000Y-95507530D02*
X103625000Y-96310000D01*
X108640000Y-94090000D02*
X108640000Y-94636529D01*
X110160000Y-94090000D02*
X110160000Y-95200000D01*
X103625000Y-94090000D02*
X103625000Y-94892470D01*
G04 #@! TO.C,R27*
X110749999Y-77203642D02*
X110749999Y-76896360D01*
X109989999Y-77203642D02*
X109989999Y-76896360D01*
G04 #@! TO.C,C30*
X115610000Y-73011252D02*
X115610000Y-71588748D01*
X113790000Y-73011252D02*
X113790000Y-71588748D01*
G04 #@! TO.C,R15*
X116420000Y-82596359D02*
X116420000Y-82903641D01*
X117180000Y-82596359D02*
X117180000Y-82903641D01*
G04 #@! TO.C,R12*
X111680000Y-98276359D02*
X111680000Y-98583641D01*
X112440000Y-98276359D02*
X112440000Y-98583641D01*
G04 #@! TO.C,R13*
X100690000Y-72596359D02*
X100690000Y-72903641D01*
X99930000Y-72596359D02*
X99930000Y-72903641D01*
G04 #@! TO.C,R7*
X118381359Y-70695000D02*
X118688641Y-70695000D01*
X118381359Y-71455000D02*
X118688641Y-71455000D01*
G04 #@! TO.C,R3*
X131371141Y-87280000D02*
X131063859Y-87280000D01*
X131371141Y-86520000D02*
X131063859Y-86520000D01*
G04 #@! TO.C,R8*
X101596359Y-95230000D02*
X101903641Y-95230000D01*
X101596359Y-94470000D02*
X101903641Y-94470000D01*
G04 #@! TO.C,C25*
X96962973Y-73300308D02*
X96480242Y-73100355D01*
X97525518Y-71942205D02*
X97042787Y-71742252D01*
G04 #@! TO.C,C22*
X105447836Y-75370000D02*
X105232164Y-75370000D01*
X105447836Y-74650000D02*
X105232164Y-74650000D01*
G04 #@! TO.C,C15*
X114339999Y-75342165D02*
X114339999Y-75557837D01*
X115059999Y-75342165D02*
X115059999Y-75557837D01*
G04 #@! TO.C,J11*
X104665000Y-57455000D02*
X105665000Y-56455000D01*
X115035000Y-66585000D02*
X104665000Y-66585000D01*
X115035000Y-57455000D02*
X115035000Y-66585000D01*
X114035000Y-56455000D02*
X115035000Y-57455000D01*
X104665000Y-66585000D02*
X104665000Y-57455000D01*
X105665000Y-56455000D02*
X114035000Y-56455000D01*
G04 #@! TO.C,C14*
X111247836Y-99650000D02*
X111032164Y-99650000D01*
X111247836Y-100370000D02*
X111032164Y-100370000D01*
G04 #@! TO.C,C40*
X105069999Y-76942164D02*
X105069999Y-77157836D01*
X105789999Y-76942164D02*
X105789999Y-77157836D01*
G04 #@! TO.C,C17*
X117160000Y-84492164D02*
X117160000Y-84707836D01*
X116440000Y-84492164D02*
X116440000Y-84707836D01*
G04 #@! TO.C,C10*
X112060001Y-92572163D02*
X112060001Y-92787835D01*
X111340001Y-92572163D02*
X111340001Y-92787835D01*
G04 #@! TO.C,J6*
X96931079Y-82649552D02*
X99751456Y-89458544D01*
X91316436Y-92952444D02*
X90009873Y-92411248D01*
X87954863Y-87450015D02*
X88496059Y-86143452D01*
X88496059Y-86143452D02*
X96931079Y-82649552D01*
X90009873Y-92411248D02*
X87954863Y-87450015D01*
X99751456Y-89458544D02*
X91316436Y-92952444D01*
G04 #@! TO.C,C8*
X104247837Y-83860000D02*
X104032165Y-83860000D01*
X104247837Y-83140000D02*
X104032165Y-83140000D01*
G04 #@! TO.C,C26*
X97593892Y-80873202D02*
X97793147Y-80955736D01*
X97318359Y-81538396D02*
X97517614Y-81620930D01*
G04 #@! TO.C,J4*
X114600000Y-93690000D02*
X114600000Y-94300000D01*
X112490000Y-93690000D02*
X112490000Y-99810000D01*
X116600000Y-99200000D02*
X116600000Y-97250000D01*
X116600000Y-96250000D02*
X116600000Y-94300000D01*
X117210000Y-96250000D02*
X116600000Y-96250000D01*
X115900000Y-93690000D02*
X115900000Y-94300000D01*
X113100000Y-99200000D02*
X116600000Y-99200000D01*
X112490000Y-99810000D02*
X117210000Y-99810000D01*
X113100000Y-94300000D02*
X113100000Y-99200000D01*
X117210000Y-93690000D02*
X112490000Y-93690000D01*
X117210000Y-99810000D02*
X117210000Y-93690000D01*
X116600000Y-94300000D02*
X113100000Y-94300000D01*
X115900000Y-99810000D02*
X115900000Y-99200000D01*
X116600000Y-97250000D02*
X117210000Y-97250000D01*
X114600000Y-99810000D02*
X114600000Y-99200000D01*
G04 #@! TO.C,C47*
X102463139Y-75726136D02*
X102662394Y-75808670D01*
X102187606Y-76391330D02*
X102386861Y-76473864D01*
G04 #@! TO.C,R6*
X123628641Y-76280000D02*
X123321359Y-76280000D01*
X123628641Y-75520000D02*
X123321359Y-75520000D01*
G04 #@! TO.C,C38*
X94656868Y-80165373D02*
X94457613Y-80082839D01*
X94932401Y-79500179D02*
X94733146Y-79417645D01*
G04 #@! TO.C,FB2*
X113277500Y-82937258D02*
X113277500Y-82462742D01*
X114322500Y-82937258D02*
X114322500Y-82462742D01*
G04 #@! TO.C,J14*
X124350000Y-85640000D02*
X124350000Y-86250000D01*
X126350000Y-86250000D02*
X122850000Y-86250000D01*
X122240000Y-85640000D02*
X122240000Y-93760000D01*
X126350000Y-93150000D02*
X126350000Y-91200000D01*
X125650000Y-85640000D02*
X125650000Y-86250000D01*
X125650000Y-93760000D02*
X125650000Y-93150000D01*
X126960000Y-88200000D02*
X126350000Y-88200000D01*
X122850000Y-93150000D02*
X126350000Y-93150000D01*
X122240000Y-93760000D02*
X126960000Y-93760000D01*
X126960000Y-85640000D02*
X122240000Y-85640000D01*
X126960000Y-93760000D02*
X126960000Y-85640000D01*
X126350000Y-91200000D02*
X126960000Y-91200000D01*
X122850000Y-86250000D02*
X122850000Y-93150000D01*
X126350000Y-88200000D02*
X126350000Y-86250000D01*
X124350000Y-93760000D02*
X124350000Y-93150000D01*
G04 #@! TO.C,C20*
X102770000Y-70888748D02*
X102770000Y-72311252D01*
X100950000Y-70888748D02*
X100950000Y-72311252D01*
G04 #@! TO.C,C27*
X99256875Y-81562031D02*
X99456130Y-81644565D01*
X98981342Y-82227225D02*
X99180597Y-82309759D01*
G04 #@! TO.C,R1*
X129280000Y-94933641D02*
X129280000Y-94626359D01*
X130040000Y-94933641D02*
X130040000Y-94626359D01*
G04 #@! TO.C,Q3*
X103070000Y-93320000D02*
X103070000Y-90480000D01*
X99825000Y-90480000D02*
X99530000Y-90480000D01*
X99530000Y-90480000D02*
X99530000Y-93320000D01*
X102775000Y-93320000D02*
X103070000Y-93320000D01*
X99530000Y-93320000D02*
X99825000Y-93320000D01*
X103070000Y-90480000D02*
X102775000Y-90480000D01*
X99825000Y-94050000D02*
X99825000Y-93320000D01*
G04 #@! TO.C,C28*
X101235656Y-81535063D02*
X101318190Y-81335808D01*
X100570462Y-81259530D02*
X100652996Y-81060275D01*
G04 #@! TO.C,L1*
X111389000Y-74454000D02*
X107081000Y-74454000D01*
X107081000Y-70146000D02*
X111389000Y-70146000D01*
G04 #@! TO.C,R18*
X127170000Y-81073640D02*
X127170000Y-80766358D01*
X127930000Y-81073640D02*
X127930000Y-80766358D01*
G04 #@! TO.C,D8*
X99700000Y-69400000D02*
X101400000Y-69400000D01*
X99700000Y-69400000D02*
X99700000Y-66850000D01*
X101400000Y-69400000D02*
X101400000Y-66850000D01*
D10*
G04 #@! TO.C,D2*
X121525001Y-71075000D02*
G75*
G03*
X121525001Y-71075000I-50000J0D01*
G01*
D13*
G04 #@! TO.C,R2*
X128330000Y-94626359D02*
X128330000Y-94933641D01*
X129090000Y-94626359D02*
X129090000Y-94933641D01*
G04 #@! TO.C,C19*
X127910000Y-84512164D02*
X127910000Y-84727836D01*
X127190000Y-84512164D02*
X127190000Y-84727836D01*
D10*
G04 #@! TO.C,D4*
X100350000Y-71520000D02*
G75*
G03*
X100350000Y-71520000I-50000J0D01*
G01*
D13*
G04 #@! TO.C,C24*
X113560000Y-73011252D02*
X113560000Y-71588748D01*
X111740000Y-73011252D02*
X111740000Y-71588748D01*
G04 #@! TO.C,U1*
X110177000Y-82380200D02*
X110177000Y-79126200D01*
X104923000Y-79126200D02*
X104923000Y-82380200D01*
D10*
G04 #@! TO.C,D1*
X128310000Y-86900000D02*
G75*
G03*
X128310000Y-86900000I-50000J0D01*
G01*
D13*
G04 #@! TO.C,R31*
X98770000Y-67503641D02*
X98770000Y-67196359D01*
X99530000Y-67503641D02*
X99530000Y-67196359D01*
G04 #@! TO.C,C21*
X105192164Y-70210000D02*
X105407836Y-70210000D01*
X105192164Y-69490000D02*
X105407836Y-69490000D01*
G04 #@! TO.C,J13*
X122850000Y-77950000D02*
X122850000Y-84850000D01*
X126960000Y-79900000D02*
X126350000Y-79900000D01*
X126350000Y-82900000D02*
X126960000Y-82900000D01*
X126350000Y-77950000D02*
X122850000Y-77950000D01*
X122240000Y-77340000D02*
X122240000Y-85460000D01*
X124350000Y-77340000D02*
X124350000Y-77950000D01*
X125650000Y-85460000D02*
X125650000Y-84850000D01*
X126350000Y-84850000D02*
X126350000Y-82900000D01*
X122850000Y-84850000D02*
X126350000Y-84850000D01*
X126960000Y-77340000D02*
X122240000Y-77340000D01*
X125650000Y-77340000D02*
X125650000Y-77950000D01*
X126960000Y-85460000D02*
X126960000Y-77340000D01*
X122240000Y-85460000D02*
X126960000Y-85460000D01*
X126350000Y-79900000D02*
X126350000Y-77950000D01*
X124350000Y-85460000D02*
X124350000Y-84850000D01*
G04 #@! TO.C,R19*
X127930000Y-82616359D02*
X127930000Y-82923641D01*
X127170000Y-82616359D02*
X127170000Y-82923641D01*
D10*
G04 #@! TO.C,D3*
X98980000Y-92570000D02*
G75*
G03*
X98980000Y-92570000I-50000J0D01*
G01*
D13*
G04 #@! TO.C,C12*
X114192164Y-85810000D02*
X114407836Y-85810000D01*
X114192164Y-85090000D02*
X114407836Y-85090000D01*
G04 #@! TO.C,F1*
X105291422Y-66890000D02*
X105808578Y-66890000D01*
X105291422Y-68310000D02*
X105808578Y-68310000D01*
G04 #@! TO.C,C46*
X93749969Y-76867261D02*
X93550714Y-76784727D01*
X94025502Y-76202067D02*
X93826247Y-76119533D01*
D10*
G04 #@! TO.C,D5*
X120246934Y-68140114D02*
G75*
G03*
X120246934Y-68140114I-50000J0D01*
G01*
D13*
G04 #@! TO.C,Q2*
X122365000Y-73600000D02*
X122365000Y-75275000D01*
X125485000Y-73600000D02*
X125485000Y-74250000D01*
X125485000Y-73600000D02*
X125485000Y-72950000D01*
X122365000Y-73600000D02*
X122365000Y-72950000D01*
G04 #@! TO.C,C37*
X91675614Y-72273782D02*
X91476359Y-72191248D01*
X91951147Y-71608588D02*
X91751892Y-71526054D01*
G04 #@! TO.C,Q1*
X128100000Y-91930000D02*
X128100000Y-93605000D01*
X128100000Y-91930000D02*
X128100000Y-91280000D01*
X131220000Y-91930000D02*
X131220000Y-91280000D01*
X131220000Y-91930000D02*
X131220000Y-92580000D01*
G04 #@! TO.C,R16*
X119974051Y-69489881D02*
X120145881Y-69235133D01*
X120604119Y-69914867D02*
X120775949Y-69660119D01*
G04 #@! TO.C,C4*
X104760000Y-82007836D02*
X104760000Y-81792164D01*
X104040000Y-82007836D02*
X104040000Y-81792164D01*
G04 #@! TO.C,U8*
X107850000Y-75490000D02*
X106050000Y-75490000D01*
X107850000Y-78610000D02*
X107050000Y-78610000D01*
X107850000Y-78610000D02*
X108650000Y-78610000D01*
X107850000Y-75490000D02*
X108650000Y-75490000D01*
G04 #@! TO.C,R28*
X94554703Y-75225231D02*
X94974262Y-75399018D01*
X95117248Y-73867128D02*
X95536807Y-74040915D01*
G04 #@! TO.C,SW2*
X109450000Y-96490000D02*
X109450000Y-96790000D01*
X109450000Y-99290000D02*
X109450000Y-98990000D01*
X106150000Y-96790000D02*
X106150000Y-96490000D01*
X106150000Y-96490000D02*
X109450000Y-96490000D01*
X106150000Y-98990000D02*
X106150000Y-99290000D01*
X106150000Y-99290000D02*
X109450000Y-99290000D01*
G04 #@! TO.C,C34*
X97113964Y-74364066D02*
X96914709Y-74281532D01*
X97389497Y-73698872D02*
X97190242Y-73616338D01*
G04 #@! TO.C,R11*
X111680000Y-96426359D02*
X111680000Y-96733641D01*
X112440000Y-96426359D02*
X112440000Y-96733641D01*
G04 #@! TD*
M02*
