G04 #@! TF.GenerationSoftware,KiCad,Pcbnew,(6.0.0)*
G04 #@! TF.CreationDate,2022-03-04T12:47:46+01:00*
G04 #@! TF.ProjectId,MiniAB-CAN-Board,4d696e69-4142-42d4-9341-4e2d426f6172,1*
G04 #@! TF.SameCoordinates,Original*
G04 #@! TF.FileFunction,Paste,Top*
G04 #@! TF.FilePolarity,Positive*
%FSLAX46Y46*%
G04 Gerber Fmt 4.6, Leading zero omitted, Abs format (unit mm)*
G04 Created by KiCad (PCBNEW (6.0.0)) date 2022-03-04 12:47:46*
%MOMM*%
%LPD*%
G01*
G04 APERTURE LIST*
G04 Aperture macros list*
%AMRoundRect*
0 Rectangle with rounded corners*
0 $1 Rounding radius*
0 $2 $3 $4 $5 $6 $7 $8 $9 X,Y pos of 4 corners*
0 Add a 4 corners polygon primitive as box body*
4,1,4,$2,$3,$4,$5,$6,$7,$8,$9,$2,$3,0*
0 Add four circle primitives for the rounded corners*
1,1,$1+$1,$2,$3*
1,1,$1+$1,$4,$5*
1,1,$1+$1,$6,$7*
1,1,$1+$1,$8,$9*
0 Add four rect primitives between the rounded corners*
20,1,$1+$1,$2,$3,$4,$5,0*
20,1,$1+$1,$4,$5,$6,$7,0*
20,1,$1+$1,$6,$7,$8,$9,0*
20,1,$1+$1,$8,$9,$2,$3,0*%
%AMRotRect*
0 Rectangle, with rotation*
0 The origin of the aperture is its center*
0 $1 length*
0 $2 width*
0 $3 Rotation angle, in degrees counterclockwise*
0 Add horizontal line*
21,1,$1,$2,0,0,$3*%
%AMFreePoly0*
4,1,44,0.261769,0.149538,0.273465,0.148153,0.285017,0.145855,0.296353,0.142658,0.307403,0.138582,0.318099,0.133651,0.328375,0.127896,0.338168,0.121353,0.347417,0.114061,0.356066,0.106066,0.364061,0.097417,0.371353,0.088168,0.377896,0.078375,0.383651,0.068099,0.388582,0.057403,0.392658,0.046353,0.395855,0.035017,0.398153,0.023465,0.399538,0.011769,0.400000,0.000000,
0.399538,-0.011769,0.398153,-0.023465,0.395855,-0.035017,0.392658,-0.046353,0.388582,-0.057403,0.383651,-0.068099,0.377896,-0.078375,0.371353,-0.088168,0.364061,-0.097417,0.356066,-0.106066,0.347417,-0.114061,0.338168,-0.121353,0.328375,-0.127896,0.318099,-0.133651,0.307403,-0.138582,0.296353,-0.142658,0.285017,-0.145855,0.273465,-0.148153,0.261769,-0.149538,0.250000,-0.150000,
-0.400000,-0.150000,-0.400000,0.150000,0.250000,0.150000,0.261769,0.149538,0.261769,0.149538,$1*%
%AMFreePoly1*
4,1,44,0.011769,0.399538,0.023465,0.398153,0.035017,0.395855,0.046353,0.392658,0.057403,0.388582,0.068099,0.383651,0.078375,0.377896,0.088168,0.371353,0.097417,0.364061,0.106066,0.356066,0.114061,0.347417,0.121353,0.338168,0.127896,0.328375,0.133651,0.318099,0.138582,0.307403,0.142658,0.296353,0.145855,0.285017,0.148153,0.273465,0.149538,0.261769,0.150000,0.250000,
0.150000,-0.400000,-0.150000,-0.400000,-0.150000,0.250000,-0.149538,0.261769,-0.148153,0.273465,-0.145855,0.285017,-0.142658,0.296353,-0.138582,0.307403,-0.133651,0.318099,-0.127896,0.328375,-0.121353,0.338168,-0.114061,0.347417,-0.106066,0.356066,-0.097417,0.364061,-0.088168,0.371353,-0.078375,0.377896,-0.068099,0.383651,-0.057403,0.388582,-0.046353,0.392658,-0.035017,0.395855,
-0.023465,0.398153,-0.011769,0.399538,0.000000,0.400000,0.011769,0.399538,0.011769,0.399538,$1*%
%AMFreePoly2*
4,1,44,0.400000,-0.150000,-0.250000,-0.150000,-0.261769,-0.149538,-0.273465,-0.148153,-0.285017,-0.145855,-0.296353,-0.142658,-0.307403,-0.138582,-0.318099,-0.133651,-0.328375,-0.127896,-0.338168,-0.121353,-0.347417,-0.114061,-0.356066,-0.106066,-0.364061,-0.097417,-0.371353,-0.088168,-0.377896,-0.078375,-0.383651,-0.068099,-0.388582,-0.057403,-0.392658,-0.046353,-0.395855,-0.035017,-0.398153,-0.023465,
-0.399538,-0.011769,-0.400000,0.000000,-0.399538,0.011769,-0.398153,0.023465,-0.395855,0.035017,-0.392658,0.046353,-0.388582,0.057403,-0.383651,0.068099,-0.377896,0.078375,-0.371353,0.088168,-0.364061,0.097417,-0.356066,0.106066,-0.347417,0.114061,-0.338168,0.121353,-0.328375,0.127896,-0.318099,0.133651,-0.307403,0.138582,-0.296353,0.142658,-0.285017,0.145855,-0.273465,0.148153,
-0.261769,0.149538,-0.250000,0.150000,0.400000,0.150000,0.400000,-0.150000,0.400000,-0.150000,$1*%
%AMFreePoly3*
4,1,44,0.150000,-0.250000,0.149538,-0.261769,0.148153,-0.273465,0.145855,-0.285017,0.142658,-0.296353,0.138582,-0.307403,0.133651,-0.318099,0.127896,-0.328375,0.121353,-0.338168,0.114061,-0.347417,0.106066,-0.356066,0.097417,-0.364061,0.088168,-0.371353,0.078375,-0.377896,0.068099,-0.383651,0.057403,-0.388582,0.046353,-0.392658,0.035017,-0.395855,0.023465,-0.398153,0.011769,-0.399538,
0.000000,-0.400000,-0.011769,-0.399538,-0.023465,-0.398153,-0.035017,-0.395855,-0.046353,-0.392658,-0.057403,-0.388582,-0.068099,-0.383651,-0.078375,-0.377896,-0.088168,-0.371353,-0.097417,-0.364061,-0.106066,-0.356066,-0.114061,-0.347417,-0.121353,-0.338168,-0.127896,-0.328375,-0.133651,-0.318099,-0.138582,-0.307403,-0.142658,-0.296353,-0.145855,-0.285017,-0.148153,-0.273465,-0.149538,-0.261769,
-0.150000,-0.250000,-0.150000,0.400000,0.150000,0.400000,0.150000,-0.250000,0.150000,-0.250000,$1*%
G04 Aperture macros list end*
%ADD10C,0.100000*%
%ADD11R,1.200000X1.400000*%
%ADD12RoundRect,0.140000X0.194399X0.103484X-0.064287X0.210635X-0.194399X-0.103484X0.064287X-0.210635X0*%
%ADD13RoundRect,0.250000X0.412745X0.343172X-0.049195X0.534514X-0.412745X-0.343172X0.049195X-0.534514X0*%
%ADD14RoundRect,0.135000X0.185000X-0.135000X0.185000X0.135000X-0.185000X0.135000X-0.185000X-0.135000X0*%
%ADD15RoundRect,0.140000X0.170000X-0.140000X0.170000X0.140000X-0.170000X0.140000X-0.170000X-0.140000X0*%
%ADD16RoundRect,0.135000X-0.185000X0.135000X-0.185000X-0.135000X0.185000X-0.135000X0.185000X0.135000X0*%
%ADD17RoundRect,0.135000X-0.135000X-0.185000X0.135000X-0.185000X0.135000X0.185000X-0.135000X0.185000X0*%
%ADD18RoundRect,0.135000X0.135000X0.185000X-0.135000X0.185000X-0.135000X-0.185000X0.135000X-0.185000X0*%
%ADD19RoundRect,0.150000X-0.150000X0.512500X-0.150000X-0.512500X0.150000X-0.512500X0.150000X0.512500X0*%
%ADD20RoundRect,0.135000X0.077881X-0.215371X0.228863X0.008469X-0.077881X0.215371X-0.228863X-0.008469X0*%
%ADD21RoundRect,0.140000X-0.170000X0.140000X-0.170000X-0.140000X0.170000X-0.140000X0.170000X0.140000X0*%
%ADD22RoundRect,0.135000X0.195520X0.119255X-0.053927X0.222580X-0.195520X-0.119255X0.053927X-0.222580X0*%
%ADD23FreePoly0,270.000000*%
%ADD24FreePoly1,270.000000*%
%ADD25FreePoly2,270.000000*%
%ADD26FreePoly3,270.000000*%
%ADD27R,1.700000X1.700000*%
%ADD28RoundRect,0.140000X0.140000X0.170000X-0.140000X0.170000X-0.140000X-0.170000X0.140000X-0.170000X0*%
%ADD29RoundRect,0.250000X0.425000X-0.450000X0.425000X0.450000X-0.425000X0.450000X-0.425000X-0.450000X0*%
%ADD30RoundRect,0.147500X-0.147500X-0.172500X0.147500X-0.172500X0.147500X0.172500X-0.147500X0.172500X0*%
%ADD31RoundRect,0.140000X-0.140000X-0.170000X0.140000X-0.170000X0.140000X0.170000X-0.140000X0.170000X0*%
%ADD32RoundRect,0.147500X0.060528X-0.218744X0.225490X0.025822X-0.060528X0.218744X-0.225490X-0.025822X0*%
%ADD33RoundRect,0.150000X0.150000X-0.512500X0.150000X0.512500X-0.150000X0.512500X-0.150000X-0.512500X0*%
%ADD34R,0.800000X0.600000*%
%ADD35R,0.300000X0.350000*%
%ADD36R,0.235000X0.870000*%
%ADD37RoundRect,0.075000X0.662500X0.075000X-0.662500X0.075000X-0.662500X-0.075000X0.662500X-0.075000X0*%
%ADD38RoundRect,0.075000X0.075000X0.662500X-0.075000X0.662500X-0.075000X-0.662500X0.075000X-0.662500X0*%
%ADD39RoundRect,0.147500X-0.202285X-0.102923X0.070259X-0.215815X0.202285X0.102923X-0.070259X0.215815X0*%
%ADD40R,0.900000X1.700000*%
%ADD41RoundRect,0.250000X-0.414726X-0.315291X0.070311X-0.516200X0.414726X0.315291X-0.070311X0.516200X0*%
%ADD42RotRect,0.254000X0.762000X157.500000*%
%ADD43RotRect,0.254000X0.762000X67.500000*%
%ADD44RoundRect,0.250000X0.650000X-0.325000X0.650000X0.325000X-0.650000X0.325000X-0.650000X-0.325000X0*%
%ADD45RoundRect,0.140000X-0.194399X-0.103484X0.064287X-0.210635X0.194399X0.103484X-0.064287X0.210635X0*%
%ADD46RoundRect,0.200000X0.275000X-0.200000X0.275000X0.200000X-0.275000X0.200000X-0.275000X-0.200000X0*%
%ADD47RoundRect,0.250000X-0.650000X0.325000X-0.650000X-0.325000X0.650000X-0.325000X0.650000X0.325000X0*%
%ADD48R,0.635000X0.510000*%
%ADD49R,0.300000X0.830000*%
%ADD50R,0.300000X0.750000*%
%ADD51RoundRect,0.140000X0.103484X-0.194399X0.210635X0.064287X-0.103484X0.194399X-0.210635X-0.064287X0*%
%ADD52R,0.980000X3.400000*%
%ADD53R,0.450000X0.600000*%
%ADD54RoundRect,0.147500X0.147500X0.172500X-0.147500X0.172500X-0.147500X-0.172500X0.147500X-0.172500X0*%
%ADD55RoundRect,0.147500X0.172500X-0.147500X0.172500X0.147500X-0.172500X0.147500X-0.172500X-0.147500X0*%
%ADD56R,0.449200X1.117800*%
%ADD57R,0.813000X0.500000*%
%ADD58RoundRect,0.243750X-0.243750X-0.456250X0.243750X-0.456250X0.243750X0.456250X-0.243750X0.456250X0*%
%ADD59RoundRect,0.147500X-0.060528X0.218744X-0.225490X-0.025822X0.060528X-0.218744X0.225490X0.025822X0*%
%ADD60RoundRect,0.150000X0.150000X-0.587500X0.150000X0.587500X-0.150000X0.587500X-0.150000X-0.587500X0*%
%ADD61RoundRect,0.125000X-0.537500X-0.125000X0.537500X-0.125000X0.537500X0.125000X-0.537500X0.125000X0*%
G04 APERTURE END LIST*
D10*
G04 #@! TO.C,U5*
X96267558Y-78987062D02*
X97256109Y-79396533D01*
X97256109Y-79396533D02*
X97665580Y-78407982D01*
X97665580Y-78407982D02*
X96677029Y-77998511D01*
X96677029Y-77998511D02*
X96267558Y-78987062D01*
G36*
X97665580Y-78407982D02*
G01*
X97256109Y-79396533D01*
X96267558Y-78987062D01*
X96677029Y-77998511D01*
X97665580Y-78407982D01*
G37*
X97665580Y-78407982D02*
X97256109Y-79396533D01*
X96267558Y-78987062D01*
X96677029Y-77998511D01*
X97665580Y-78407982D01*
X97926893Y-78299743D02*
X98915444Y-78709214D01*
X98915444Y-78709214D02*
X99324915Y-77720663D01*
X99324915Y-77720663D02*
X98336364Y-77311192D01*
X98336364Y-77311192D02*
X97926893Y-78299743D01*
G36*
X99324915Y-77720663D02*
G01*
X98915444Y-78709214D01*
X97926893Y-78299743D01*
X98336364Y-77311192D01*
X99324915Y-77720663D01*
G37*
X99324915Y-77720663D02*
X98915444Y-78709214D01*
X97926893Y-78299743D01*
X98336364Y-77311192D01*
X99324915Y-77720663D01*
X99100220Y-78785751D02*
X100088771Y-79195222D01*
X100088771Y-79195222D02*
X100498242Y-78206671D01*
X100498242Y-78206671D02*
X99509691Y-77797200D01*
X99509691Y-77797200D02*
X99100220Y-78785751D01*
G36*
X100498242Y-78206671D02*
G01*
X100088771Y-79195222D01*
X99100220Y-78785751D01*
X99509691Y-77797200D01*
X100498242Y-78206671D01*
G37*
X100498242Y-78206671D02*
X100088771Y-79195222D01*
X99100220Y-78785751D01*
X99509691Y-77797200D01*
X100498242Y-78206671D01*
X99586228Y-77612424D02*
X100574779Y-78021895D01*
X100574779Y-78021895D02*
X100984250Y-77033344D01*
X100984250Y-77033344D02*
X99995699Y-76623873D01*
X99995699Y-76623873D02*
X99586228Y-77612424D01*
G36*
X100984250Y-77033344D02*
G01*
X100574779Y-78021895D01*
X99586228Y-77612424D01*
X99995699Y-76623873D01*
X100984250Y-77033344D01*
G37*
X100984250Y-77033344D02*
X100574779Y-78021895D01*
X99586228Y-77612424D01*
X99995699Y-76623873D01*
X100984250Y-77033344D01*
X96753566Y-77813735D02*
X97742117Y-78223206D01*
X97742117Y-78223206D02*
X98151588Y-77234655D01*
X98151588Y-77234655D02*
X97163037Y-76825184D01*
X97163037Y-76825184D02*
X96753566Y-77813735D01*
G36*
X98151588Y-77234655D02*
G01*
X97742117Y-78223206D01*
X96753566Y-77813735D01*
X97163037Y-76825184D01*
X98151588Y-77234655D01*
G37*
X98151588Y-77234655D02*
X97742117Y-78223206D01*
X96753566Y-77813735D01*
X97163037Y-76825184D01*
X98151588Y-77234655D01*
X98614212Y-79959078D02*
X99602763Y-80368549D01*
X99602763Y-80368549D02*
X100012234Y-79379998D01*
X100012234Y-79379998D02*
X99023683Y-78970527D01*
X99023683Y-78970527D02*
X98614212Y-79959078D01*
G36*
X100012234Y-79379998D02*
G01*
X99602763Y-80368549D01*
X98614212Y-79959078D01*
X99023683Y-78970527D01*
X100012234Y-79379998D01*
G37*
X100012234Y-79379998D02*
X99602763Y-80368549D01*
X98614212Y-79959078D01*
X99023683Y-78970527D01*
X100012234Y-79379998D01*
X97239574Y-76640408D02*
X98228125Y-77049879D01*
X98228125Y-77049879D02*
X98637596Y-76061328D01*
X98637596Y-76061328D02*
X97649045Y-75651857D01*
X97649045Y-75651857D02*
X97239574Y-76640408D01*
G36*
X98637596Y-76061328D02*
G01*
X98228125Y-77049879D01*
X97239574Y-76640408D01*
X97649045Y-75651857D01*
X98637596Y-76061328D01*
G37*
X98637596Y-76061328D02*
X98228125Y-77049879D01*
X97239574Y-76640408D01*
X97649045Y-75651857D01*
X98637596Y-76061328D01*
X97440885Y-79473070D02*
X98429436Y-79882541D01*
X98429436Y-79882541D02*
X98838907Y-78893990D01*
X98838907Y-78893990D02*
X97850356Y-78484519D01*
X97850356Y-78484519D02*
X97440885Y-79473070D01*
G36*
X98838907Y-78893990D02*
G01*
X98429436Y-79882541D01*
X97440885Y-79473070D01*
X97850356Y-78484519D01*
X98838907Y-78893990D01*
G37*
X98838907Y-78893990D02*
X98429436Y-79882541D01*
X97440885Y-79473070D01*
X97850356Y-78484519D01*
X98838907Y-78893990D01*
X98412901Y-77126416D02*
X99401452Y-77535887D01*
X99401452Y-77535887D02*
X99810923Y-76547336D01*
X99810923Y-76547336D02*
X98822372Y-76137865D01*
X98822372Y-76137865D02*
X98412901Y-77126416D01*
G36*
X99810923Y-76547336D02*
G01*
X99401452Y-77535887D01*
X98412901Y-77126416D01*
X98822372Y-76137865D01*
X99810923Y-76547336D01*
G37*
X99810923Y-76547336D02*
X99401452Y-77535887D01*
X98412901Y-77126416D01*
X98822372Y-76137865D01*
X99810923Y-76547336D01*
G04 #@! TD*
D11*
G04 #@! TO.C,Y1*
X115750002Y-89899998D03*
X115750002Y-87699998D03*
X114050002Y-87699998D03*
X114050002Y-89899998D03*
G04 #@! TD*
D12*
G04 #@! TO.C,C35*
X94575986Y-75845594D03*
X93689062Y-75478218D03*
G04 #@! TD*
D13*
G04 #@! TO.C,C31*
X94455550Y-81153552D03*
X92700178Y-80426454D03*
G04 #@! TD*
D12*
G04 #@! TO.C,C41*
X90626485Y-75779125D03*
X89739561Y-75411749D03*
G04 #@! TD*
D14*
G04 #@! TO.C,R22*
X127500000Y-91610000D03*
X127500000Y-90590000D03*
G04 #@! TD*
D12*
G04 #@! TO.C,C36*
X91391843Y-73931364D03*
X90504919Y-73563988D03*
G04 #@! TD*
D15*
G04 #@! TO.C,C3*
X110700000Y-82400000D03*
X110700000Y-81440000D03*
G04 #@! TD*
D12*
G04 #@! TO.C,C45*
X89861113Y-77626885D03*
X88974189Y-77259509D03*
G04 #@! TD*
D14*
G04 #@! TO.C,R21*
X127500000Y-89750001D03*
X127500000Y-88730001D03*
G04 #@! TD*
D16*
G04 #@! TO.C,R25*
X102580000Y-87540000D03*
X102580000Y-88560000D03*
G04 #@! TD*
D17*
G04 #@! TO.C,R29*
X106915000Y-100040000D03*
X107935000Y-100040000D03*
G04 #@! TD*
D18*
G04 #@! TO.C,R5*
X125935000Y-75900000D03*
X124915000Y-75900000D03*
G04 #@! TD*
D19*
G04 #@! TO.C,U4*
X113549998Y-75362499D03*
X112599998Y-75362499D03*
X111649998Y-75362499D03*
X111649998Y-77637499D03*
X113549998Y-77637499D03*
G04 #@! TD*
D18*
G04 #@! TO.C,R20*
X106810000Y-93600000D03*
X105790000Y-93600000D03*
G04 #@! TD*
D20*
G04 #@! TO.C,R17*
X117539812Y-68272809D03*
X118110188Y-67427191D03*
G04 #@! TD*
D15*
G04 #@! TO.C,C18*
X114700000Y-78030000D03*
X114700000Y-77070000D03*
G04 #@! TD*
D21*
G04 #@! TO.C,C6*
X113490000Y-92190001D03*
X113490000Y-93150001D03*
G04 #@! TD*
D22*
G04 #@! TO.C,R23*
X97682516Y-82273725D03*
X96740158Y-81883387D03*
G04 #@! TD*
D23*
G04 #@! TO.C,U6*
X105835000Y-70857500D03*
X105335000Y-70857500D03*
X104835000Y-70857500D03*
X104335000Y-70857500D03*
D24*
X103635000Y-71557500D03*
X103635000Y-72057500D03*
X103635000Y-72557500D03*
X103635000Y-73057500D03*
D25*
X104335000Y-73757500D03*
X104835000Y-73757500D03*
X105335000Y-73757500D03*
X105835000Y-73757500D03*
D26*
X106535000Y-73057500D03*
X106535000Y-72557500D03*
X106535000Y-72057500D03*
X106535000Y-71557500D03*
D27*
X105085000Y-72307500D03*
G04 #@! TD*
D18*
G04 #@! TO.C,R4*
X109810000Y-100040000D03*
X108790000Y-100040000D03*
G04 #@! TD*
D28*
G04 #@! TO.C,C7*
X106055000Y-100040000D03*
X105095000Y-100040000D03*
G04 #@! TD*
D29*
G04 #@! TO.C,C1*
X112150000Y-82000000D03*
X112150000Y-79300000D03*
G04 #@! TD*
D30*
G04 #@! TO.C,D7*
X107665000Y-93600000D03*
X108635000Y-93600000D03*
G04 #@! TD*
D31*
G04 #@! TO.C,C2*
X115170000Y-91300000D03*
X116130000Y-91300000D03*
G04 #@! TD*
D17*
G04 #@! TO.C,R9*
X103640000Y-93600000D03*
X104660000Y-93600000D03*
G04 #@! TD*
D13*
G04 #@! TO.C,C29*
X98550266Y-71268040D03*
X96794894Y-70540942D03*
G04 #@! TD*
D32*
G04 #@! TO.C,D6*
X118341376Y-68783316D03*
X118883794Y-67979150D03*
G04 #@! TD*
D28*
G04 #@! TO.C,C5*
X115730001Y-86399999D03*
X114770001Y-86399999D03*
G04 #@! TD*
D13*
G04 #@! TO.C,C43*
X93804988Y-82724149D03*
X92049616Y-81997051D03*
G04 #@! TD*
D33*
G04 #@! TO.C,U3*
X118470000Y-98127500D03*
X119420000Y-98127500D03*
X120370000Y-98127500D03*
X120370000Y-95852500D03*
X118470000Y-95852500D03*
G04 #@! TD*
D34*
G04 #@! TO.C,Q4*
X103075000Y-67800000D03*
X103075000Y-68500000D03*
D35*
X102100000Y-67225000D03*
X102100000Y-69075000D03*
D36*
X102100000Y-68190000D03*
G04 #@! TD*
D21*
G04 #@! TO.C,C23*
X127500000Y-92460000D03*
X127500000Y-93420000D03*
G04 #@! TD*
D37*
G04 #@! TO.C,U2*
X112362500Y-90800000D03*
X112362500Y-90300000D03*
X112362500Y-89800000D03*
X112362500Y-89300000D03*
X112362500Y-88800000D03*
X112362500Y-88300000D03*
X112362500Y-87800000D03*
X112362500Y-87300000D03*
X112362500Y-86800000D03*
X112362500Y-86300000D03*
X112362500Y-85800000D03*
X112362500Y-85300000D03*
D38*
X110950000Y-83887500D03*
X110450000Y-83887500D03*
X109950000Y-83887500D03*
X109450000Y-83887500D03*
X108950000Y-83887500D03*
X108450000Y-83887500D03*
X107950000Y-83887500D03*
X107450000Y-83887500D03*
X106950000Y-83887500D03*
X106450000Y-83887500D03*
X105950000Y-83887500D03*
X105450000Y-83887500D03*
D37*
X104037500Y-85300000D03*
X104037500Y-85800000D03*
X104037500Y-86300000D03*
X104037500Y-86800000D03*
X104037500Y-87300000D03*
X104037500Y-87800000D03*
X104037500Y-88300000D03*
X104037500Y-88800000D03*
X104037500Y-89300000D03*
X104037500Y-89800000D03*
X104037500Y-90300000D03*
X104037500Y-90800000D03*
D38*
X105450000Y-92212500D03*
X105950000Y-92212500D03*
X106450000Y-92212500D03*
X106950000Y-92212500D03*
X107450000Y-92212500D03*
X107950000Y-92212500D03*
X108450000Y-92212500D03*
X108950000Y-92212500D03*
X109450000Y-92212500D03*
X109950000Y-92212500D03*
X110450000Y-92212500D03*
X110950000Y-92212500D03*
G04 #@! TD*
D16*
G04 #@! TO.C,R10*
X97990000Y-90970000D03*
X97990000Y-91990000D03*
G04 #@! TD*
D21*
G04 #@! TO.C,C11*
X112590000Y-92190000D03*
X112590000Y-93150000D03*
G04 #@! TD*
D14*
G04 #@! TO.C,R14*
X116800000Y-81410000D03*
X116800000Y-80390000D03*
G04 #@! TD*
D21*
G04 #@! TO.C,C9*
X103800000Y-91670000D03*
X103800000Y-92630000D03*
G04 #@! TD*
D22*
G04 #@! TO.C,R24*
X102788714Y-79553219D03*
X101846356Y-79162881D03*
G04 #@! TD*
D39*
G04 #@! TO.C,D9*
X102219453Y-78322445D03*
X103115617Y-78693647D03*
G04 #@! TD*
D40*
G04 #@! TO.C,SW1*
X101400000Y-97890000D03*
X104800000Y-97890000D03*
G04 #@! TD*
D31*
G04 #@! TO.C,C13*
X113820000Y-84550000D03*
X114780000Y-84550000D03*
G04 #@! TD*
D41*
G04 #@! TO.C,R30*
X92863325Y-77517451D03*
X94549405Y-78215849D03*
G04 #@! TD*
D42*
G04 #@! TO.C,U5*
X96311809Y-79677232D03*
X96773748Y-79868574D03*
X97235690Y-80059916D03*
X97697629Y-80251258D03*
X98159568Y-80442599D03*
X98621509Y-80633941D03*
X99083448Y-80825283D03*
D43*
X100292933Y-80324298D03*
X100484275Y-79862359D03*
X100675617Y-79400417D03*
X100866959Y-78938478D03*
X101058300Y-78476539D03*
X101249642Y-78014598D03*
X101440984Y-77552659D03*
D42*
X100939999Y-76343174D03*
X100478060Y-76151832D03*
X100016118Y-75960490D03*
X99554179Y-75769148D03*
X99092240Y-75577807D03*
X98630299Y-75386465D03*
X98168360Y-75195123D03*
D43*
X96958875Y-75696108D03*
X96767533Y-76158047D03*
X96576191Y-76619989D03*
X96384849Y-77081928D03*
X96193508Y-77543867D03*
X96002166Y-78005808D03*
X95810824Y-78467747D03*
G04 #@! TD*
D14*
G04 #@! TO.C,R27*
X110369999Y-77560001D03*
X110369999Y-76540001D03*
G04 #@! TD*
D44*
G04 #@! TO.C,C30*
X114700000Y-73775000D03*
X114700000Y-70825000D03*
G04 #@! TD*
D16*
G04 #@! TO.C,R15*
X116800000Y-82240000D03*
X116800000Y-83260000D03*
G04 #@! TD*
G04 #@! TO.C,R12*
X112060000Y-97920000D03*
X112060000Y-98940000D03*
G04 #@! TD*
G04 #@! TO.C,R13*
X100310000Y-72240000D03*
X100310000Y-73260000D03*
G04 #@! TD*
D17*
G04 #@! TO.C,R7*
X118025000Y-71075000D03*
X119045000Y-71075000D03*
G04 #@! TD*
D18*
G04 #@! TO.C,R3*
X131727500Y-86900000D03*
X130707500Y-86900000D03*
G04 #@! TD*
D17*
G04 #@! TO.C,R8*
X101240000Y-94850000D03*
X102260000Y-94850000D03*
G04 #@! TD*
D13*
G04 #@! TO.C,C25*
X97880566Y-72884829D03*
X96125194Y-72157731D03*
G04 #@! TD*
D28*
G04 #@! TO.C,C22*
X105820000Y-75010000D03*
X104860000Y-75010000D03*
G04 #@! TD*
D21*
G04 #@! TO.C,C15*
X114699999Y-74970001D03*
X114699999Y-75930001D03*
G04 #@! TD*
D28*
G04 #@! TO.C,C14*
X111620000Y-100010000D03*
X110660000Y-100010000D03*
G04 #@! TD*
D21*
G04 #@! TO.C,C40*
X105429999Y-76570000D03*
X105429999Y-77530000D03*
G04 #@! TD*
G04 #@! TO.C,C17*
X116800000Y-84120000D03*
X116800000Y-85080000D03*
G04 #@! TD*
G04 #@! TO.C,C10*
X111700001Y-92199999D03*
X111700001Y-93159999D03*
G04 #@! TD*
D28*
G04 #@! TO.C,C8*
X104620001Y-83500000D03*
X103660001Y-83500000D03*
G04 #@! TD*
D45*
G04 #@! TO.C,C26*
X97112291Y-81063378D03*
X97999215Y-81430754D03*
G04 #@! TD*
G04 #@! TO.C,C47*
X101981538Y-75916312D03*
X102868462Y-76283688D03*
G04 #@! TD*
D18*
G04 #@! TO.C,R6*
X123985000Y-75900000D03*
X122965000Y-75900000D03*
G04 #@! TD*
D12*
G04 #@! TO.C,C38*
X95138469Y-79975197D03*
X94251545Y-79607821D03*
G04 #@! TD*
D46*
G04 #@! TO.C,FB2*
X113800000Y-83525000D03*
X113800000Y-81875000D03*
G04 #@! TD*
D47*
G04 #@! TO.C,C20*
X101860000Y-70125000D03*
X101860000Y-73075000D03*
G04 #@! TD*
D45*
G04 #@! TO.C,C27*
X98775274Y-81752207D03*
X99662198Y-82119583D03*
G04 #@! TD*
D14*
G04 #@! TO.C,R1*
X129660000Y-95290000D03*
X129660000Y-94270000D03*
G04 #@! TD*
D48*
G04 #@! TO.C,Q3*
X100674000Y-91455000D03*
D49*
X100975000Y-93635000D03*
D48*
X101926000Y-91455000D03*
D49*
X100325000Y-93635000D03*
D50*
X100975000Y-90525000D03*
D49*
X101625000Y-93635000D03*
D48*
X101926000Y-92315000D03*
D50*
X101625000Y-90525000D03*
X100325000Y-90525000D03*
X102275000Y-90525000D03*
D49*
X102275000Y-93635000D03*
D48*
X100674000Y-92315000D03*
G04 #@! TD*
D51*
G04 #@! TO.C,C28*
X100760638Y-81741131D03*
X101128014Y-80854207D03*
G04 #@! TD*
D52*
G04 #@! TO.C,L1*
X108050000Y-72300000D03*
X110420000Y-72300000D03*
G04 #@! TD*
D14*
G04 #@! TO.C,R18*
X127550000Y-81429999D03*
X127550000Y-80409999D03*
G04 #@! TD*
D53*
G04 #@! TO.C,D8*
X100550000Y-68950000D03*
X100550000Y-66850000D03*
G04 #@! TD*
D54*
G04 #@! TO.C,D2*
X120870001Y-71075000D03*
X119900001Y-71075000D03*
G04 #@! TD*
D16*
G04 #@! TO.C,R2*
X128710000Y-94270000D03*
X128710000Y-95290000D03*
G04 #@! TD*
D21*
G04 #@! TO.C,C19*
X127550000Y-84140000D03*
X127550000Y-85100000D03*
G04 #@! TD*
D55*
G04 #@! TO.C,D4*
X100300000Y-70915000D03*
X100300000Y-69945000D03*
G04 #@! TD*
D44*
G04 #@! TO.C,C24*
X112650000Y-73775000D03*
X112650000Y-70825000D03*
G04 #@! TD*
D56*
G04 #@! TO.C,U1*
X105549999Y-82124101D03*
X106350000Y-82124101D03*
X107150001Y-82124101D03*
X107949999Y-82124101D03*
X108750000Y-82124101D03*
X109549999Y-82124101D03*
D57*
X109268498Y-80753200D03*
D56*
X109550001Y-79382299D03*
X108750000Y-79382299D03*
X107949999Y-79382299D03*
X107150001Y-79382299D03*
X106350000Y-79382299D03*
X105550001Y-79382299D03*
D57*
X105831502Y-80753200D03*
G04 #@! TD*
D30*
G04 #@! TO.C,D1*
X128865000Y-86900000D03*
X129835000Y-86900000D03*
G04 #@! TD*
D14*
G04 #@! TO.C,R31*
X99150000Y-67860000D03*
X99150000Y-66840000D03*
G04 #@! TD*
D31*
G04 #@! TO.C,C21*
X104820000Y-69850000D03*
X105780000Y-69850000D03*
G04 #@! TD*
D16*
G04 #@! TO.C,R19*
X127550000Y-82260000D03*
X127550000Y-83280000D03*
G04 #@! TD*
D55*
G04 #@! TO.C,D3*
X98930000Y-91965000D03*
X98930000Y-90995000D03*
G04 #@! TD*
D31*
G04 #@! TO.C,C12*
X113820000Y-85450000D03*
X114780000Y-85450000D03*
G04 #@! TD*
D58*
G04 #@! TO.C,F1*
X104612500Y-67600000D03*
X106487500Y-67600000D03*
G04 #@! TD*
D12*
G04 #@! TO.C,C46*
X94231570Y-76677085D03*
X93344646Y-76309709D03*
G04 #@! TD*
D59*
G04 #@! TO.C,D5*
X119858623Y-68641682D03*
X119316205Y-69445848D03*
G04 #@! TD*
D60*
G04 #@! TO.C,Q2*
X122975000Y-74537500D03*
X124875000Y-74537500D03*
X123925000Y-72662500D03*
G04 #@! TD*
D12*
G04 #@! TO.C,C37*
X92157215Y-72083606D03*
X91270291Y-71716230D03*
G04 #@! TD*
D60*
G04 #@! TO.C,Q1*
X128710000Y-92867500D03*
X130610000Y-92867500D03*
X129660000Y-90992500D03*
G04 #@! TD*
D20*
G04 #@! TO.C,R16*
X120089812Y-69997809D03*
X120660188Y-69152191D03*
G04 #@! TD*
D15*
G04 #@! TO.C,C4*
X104400000Y-82380000D03*
X104400000Y-81420000D03*
G04 #@! TD*
D61*
G04 #@! TO.C,U8*
X106712500Y-76075000D03*
X106712500Y-76725000D03*
X106712500Y-77375000D03*
X106712500Y-78025000D03*
X108987500Y-78025000D03*
X108987500Y-77375000D03*
X108987500Y-76725000D03*
X108987500Y-76075000D03*
G04 #@! TD*
D41*
G04 #@! TO.C,R28*
X94202715Y-74283874D03*
X95888795Y-74982272D03*
G04 #@! TD*
D40*
G04 #@! TO.C,SW2*
X106100000Y-97890000D03*
X109500000Y-97890000D03*
G04 #@! TD*
D12*
G04 #@! TO.C,C34*
X97595565Y-74173890D03*
X96708641Y-73806514D03*
G04 #@! TD*
D16*
G04 #@! TO.C,R11*
X112060000Y-96070000D03*
X112060000Y-97090000D03*
G04 #@! TD*
M02*
