G04 #@! TF.GenerationSoftware,KiCad,Pcbnew,(6.0.0)*
G04 #@! TF.CreationDate,2022-03-04T12:47:46+01:00*
G04 #@! TF.ProjectId,MiniAB-CAN-Board,4d696e69-4142-42d4-9341-4e2d426f6172,1*
G04 #@! TF.SameCoordinates,Original*
G04 #@! TF.FileFunction,Soldermask,Bot*
G04 #@! TF.FilePolarity,Negative*
%FSLAX46Y46*%
G04 Gerber Fmt 4.6, Leading zero omitted, Abs format (unit mm)*
G04 Created by KiCad (PCBNEW (6.0.0)) date 2022-03-04 12:47:46*
%MOMM*%
%LPD*%
G01*
G04 APERTURE LIST*
G04 Aperture macros list*
%AMRoundRect*
0 Rectangle with rounded corners*
0 $1 Rounding radius*
0 $2 $3 $4 $5 $6 $7 $8 $9 X,Y pos of 4 corners*
0 Add a 4 corners polygon primitive as box body*
4,1,4,$2,$3,$4,$5,$6,$7,$8,$9,$2,$3,0*
0 Add four circle primitives for the rounded corners*
1,1,$1+$1,$2,$3*
1,1,$1+$1,$4,$5*
1,1,$1+$1,$6,$7*
1,1,$1+$1,$8,$9*
0 Add four rect primitives between the rounded corners*
20,1,$1+$1,$2,$3,$4,$5,0*
20,1,$1+$1,$4,$5,$6,$7,0*
20,1,$1+$1,$6,$7,$8,$9,0*
20,1,$1+$1,$8,$9,$2,$3,0*%
%AMHorizOval*
0 Thick line with rounded ends*
0 $1 width*
0 $2 $3 position (X,Y) of the first rounded end (center of the circle)*
0 $4 $5 position (X,Y) of the second rounded end (center of the circle)*
0 Add line between two ends*
20,1,$1,$2,$3,$4,$5,0*
0 Add two circle primitives to create the rounded ends*
1,1,$1,$2,$3*
1,1,$1,$4,$5*%
%AMRotRect*
0 Rectangle, with rotation*
0 The origin of the aperture is its center*
0 $1 length*
0 $2 width*
0 $3 Rotation angle, in degrees counterclockwise*
0 Add horizontal line*
21,1,$1,$2,0,0,$3*%
%AMFreePoly0*
4,1,22,0.550000,-0.750000,0.000000,-0.750000,0.000000,-0.745033,-0.079941,-0.743568,-0.215256,-0.701293,-0.333266,-0.622738,-0.424486,-0.514219,-0.481581,-0.384460,-0.499164,-0.250000,-0.500000,-0.250000,-0.500000,0.250000,-0.499164,0.250000,-0.499963,0.256109,-0.478152,0.396186,-0.417904,0.524511,-0.324060,0.630769,-0.204165,0.706417,-0.067858,0.745374,0.000000,0.744959,0.000000,0.750000,
0.550000,0.750000,0.550000,-0.750000,0.550000,-0.750000,$1*%
%AMFreePoly1*
4,1,20,0.000000,0.744959,0.073905,0.744508,0.209726,0.703889,0.328688,0.626782,0.421226,0.519385,0.479903,0.390333,0.500000,0.250000,0.500000,-0.250000,0.499851,-0.262216,0.476331,-0.402017,0.414519,-0.529596,0.319384,-0.634700,0.198574,-0.708877,0.061801,-0.746166,0.000000,-0.745033,0.000000,-0.750000,-0.550000,-0.750000,-0.550000,0.750000,0.000000,0.750000,0.000000,0.744959,
0.000000,0.744959,$1*%
G04 Aperture macros list end*
%ADD10C,0.800000*%
%ADD11C,6.400000*%
%ADD12RoundRect,0.250000X-0.625000X0.350000X-0.625000X-0.350000X0.625000X-0.350000X0.625000X0.350000X0*%
%ADD13O,1.750000X1.200000*%
%ADD14RoundRect,0.250000X0.350000X0.625000X-0.350000X0.625000X-0.350000X-0.625000X0.350000X-0.625000X0*%
%ADD15O,1.200000X1.750000*%
%ADD16R,1.000000X1.000000*%
%ADD17O,1.000000X1.000000*%
%ADD18C,3.000000*%
%ADD19RoundRect,0.250001X-0.499999X-0.499999X0.499999X-0.499999X0.499999X0.499999X-0.499999X0.499999X0*%
%ADD20C,1.500000*%
%ADD21RoundRect,0.250001X0.653280X-0.270598X0.270598X0.653280X-0.653280X0.270598X-0.270598X-0.653280X0*%
%ADD22FreePoly0,180.000000*%
%ADD23R,1.000000X1.500000*%
%ADD24FreePoly1,180.000000*%
%ADD25C,1.000000*%
%ADD26RoundRect,0.250000X-0.443486X0.562535X-0.711364X-0.084181X0.443486X-0.562535X0.711364X0.084181X0*%
%ADD27HorizOval,1.200000X-0.254067X0.105238X0.254067X-0.105238X0*%
%ADD28RoundRect,0.135000X0.185000X-0.135000X0.185000X0.135000X-0.185000X0.135000X-0.185000X-0.135000X0*%
%ADD29RoundRect,0.250000X-0.711364X0.084181X-0.443486X-0.562535X0.711364X-0.084181X0.443486X0.562535X0*%
%ADD30HorizOval,1.200000X-0.254067X-0.105238X0.254067X0.105238X0*%
%ADD31FreePoly0,0.000000*%
%ADD32FreePoly1,0.000000*%
%ADD33RotRect,0.400000X1.350000X326.000000*%
%ADD34RotRect,1.200000X1.550000X326.000000*%
%ADD35RotRect,1.500000X1.550000X326.000000*%
%ADD36HorizOval,0.890000X-0.184534X-0.273582X0.184534X0.273582X0*%
%ADD37HorizOval,0.950000X0.124356X-0.083879X-0.124356X0.083879X0*%
%ADD38RoundRect,0.250000X0.443486X-0.562535X0.711364X0.084181X-0.443486X0.562535X-0.711364X-0.084181X0*%
%ADD39RoundRect,0.150000X0.150000X-0.512500X0.150000X0.512500X-0.150000X0.512500X-0.150000X-0.512500X0*%
G04 APERTURE END LIST*
D10*
G04 #@! TO.C,H4*
X127747679Y-98159769D03*
X125347679Y-100559769D03*
X122947679Y-98159769D03*
X127044735Y-96462713D03*
X127044735Y-99856825D03*
X123650623Y-99856825D03*
X123650623Y-96462713D03*
X125347679Y-95759769D03*
D11*
X125347679Y-98159769D03*
G04 #@! TD*
D12*
G04 #@! TO.C,J12*
X120250000Y-79400000D03*
D13*
X120250000Y-81400000D03*
X120250000Y-83400000D03*
G04 #@! TD*
D10*
G04 #@! TO.C,H3*
X92651061Y-68857263D03*
X94348117Y-69560207D03*
X96045173Y-65463151D03*
X96748117Y-67160207D03*
X94348117Y-64760207D03*
D11*
X94348117Y-67160207D03*
D10*
X91948117Y-67160207D03*
X96045173Y-68857263D03*
X92651061Y-65463151D03*
G04 #@! TD*
D14*
G04 #@! TO.C,J3*
X120175000Y-74500000D03*
D15*
X118175000Y-74500000D03*
G04 #@! TD*
D12*
G04 #@! TO.C,J7*
X120250000Y-87700000D03*
D13*
X120250000Y-89700000D03*
X120250000Y-91700000D03*
G04 #@! TD*
D16*
G04 #@! TO.C,J9*
X109400000Y-95200000D03*
D17*
X108130000Y-95200000D03*
X106860000Y-95200000D03*
X105590000Y-95200000D03*
X104320000Y-95200000D03*
G04 #@! TD*
D18*
G04 #@! TO.C,J11*
X109850000Y-61165000D03*
D19*
X108350000Y-65485000D03*
D20*
X111350000Y-65485000D03*
X108350000Y-68485000D03*
X111350000Y-68485000D03*
G04 #@! TD*
D18*
G04 #@! TO.C,J6*
X93333840Y-88128192D03*
D21*
X97325000Y-86475000D03*
D20*
X100096639Y-85326950D03*
G04 #@! TD*
D10*
G04 #@! TO.C,H2*
X90327898Y-82659988D03*
X89624954Y-80962932D03*
D11*
X87927898Y-82659988D03*
D10*
X85527898Y-82659988D03*
X87927898Y-85059988D03*
X87927898Y-80259988D03*
X89624954Y-84357044D03*
X86230842Y-80962932D03*
X86230842Y-84357044D03*
G04 #@! TD*
D12*
G04 #@! TO.C,J4*
X115400000Y-95750000D03*
D13*
X115400000Y-97750000D03*
G04 #@! TD*
D10*
G04 #@! TO.C,H1*
X131767898Y-80259988D03*
D11*
X131767898Y-82659988D03*
D10*
X130070842Y-80962932D03*
X133464954Y-80962932D03*
X130070842Y-84357044D03*
X129367898Y-82659988D03*
X133464954Y-84357044D03*
X131767898Y-85059988D03*
X134167898Y-82659988D03*
G04 #@! TD*
D12*
G04 #@! TO.C,J14*
X125150000Y-87700000D03*
D13*
X125150000Y-89700000D03*
X125150000Y-91700000D03*
G04 #@! TD*
D12*
G04 #@! TO.C,J13*
X125150000Y-79400000D03*
D13*
X125150000Y-81400000D03*
X125150000Y-83400000D03*
G04 #@! TD*
D22*
G04 #@! TO.C,JP1*
X98800000Y-91800000D03*
D23*
X97500000Y-91800000D03*
D24*
X96200000Y-91800000D03*
G04 #@! TD*
D25*
G04 #@! TO.C,TP7*
X106000000Y-88750000D03*
G04 #@! TD*
G04 #@! TO.C,TP5*
X101000000Y-88750000D03*
G04 #@! TD*
D26*
G04 #@! TO.C,J8*
X89918754Y-71169177D03*
D27*
X89153387Y-73016936D03*
X88388020Y-74864695D03*
X87622653Y-76712454D03*
G04 #@! TD*
D25*
G04 #@! TO.C,TP2*
X123975000Y-76725000D03*
G04 #@! TD*
D28*
G04 #@! TO.C,R35*
X107600000Y-93510000D03*
X107600000Y-92490000D03*
G04 #@! TD*
D25*
G04 #@! TO.C,TP3*
X121475000Y-76725000D03*
G04 #@! TD*
G04 #@! TO.C,TP4*
X126475000Y-76725000D03*
G04 #@! TD*
D29*
G04 #@! TO.C,J2*
X87459183Y-88786597D03*
D30*
X88224550Y-90634356D03*
G04 #@! TD*
D28*
G04 #@! TO.C,R26*
X115445000Y-79960000D03*
X115445000Y-78940000D03*
G04 #@! TD*
G04 #@! TO.C,R33*
X112600000Y-79960000D03*
X112600000Y-78940000D03*
G04 #@! TD*
G04 #@! TO.C,R34*
X108600000Y-93510000D03*
X108600000Y-92490000D03*
G04 #@! TD*
D31*
G04 #@! TO.C,JP2*
X116875000Y-76725000D03*
D23*
X118175000Y-76725000D03*
D32*
X119475000Y-76725000D03*
G04 #@! TD*
D25*
G04 #@! TO.C,TP6*
X108460000Y-88750000D03*
G04 #@! TD*
D33*
G04 #@! TO.C,J10*
X116689381Y-70183702D03*
X117228256Y-70547177D03*
X117767130Y-70910653D03*
X118306004Y-71274128D03*
X118844879Y-71637603D03*
D34*
X116872742Y-67050592D03*
D35*
X118447913Y-68113058D03*
D36*
X116375319Y-66715076D03*
D35*
X120105988Y-69231444D03*
D37*
X119839724Y-72308635D03*
D36*
X122178582Y-70629426D03*
D34*
X121681160Y-70293911D03*
D37*
X115694536Y-69512670D03*
G04 #@! TD*
D38*
G04 #@! TO.C,J1*
X131490000Y-90620000D03*
D27*
X132255367Y-88772241D03*
G04 #@! TD*
D39*
G04 #@! TO.C,U7*
X114495000Y-77612500D03*
X113545000Y-77612500D03*
X112595000Y-77612500D03*
X112595000Y-75337500D03*
X113545000Y-75337500D03*
X114495000Y-75337500D03*
G04 #@! TD*
D28*
G04 #@! TO.C,R32*
X114500000Y-79960000D03*
X114500000Y-78940000D03*
G04 #@! TD*
D25*
G04 #@! TO.C,TP1*
X103500000Y-88750000D03*
G04 #@! TD*
M02*
