G04 #@! TF.GenerationSoftware,KiCad,Pcbnew,(6.0.0)*
G04 #@! TF.CreationDate,2022-03-04T12:47:46+01:00*
G04 #@! TF.ProjectId,MiniAB-CAN-Board,4d696e69-4142-42d4-9341-4e2d426f6172,1*
G04 #@! TF.SameCoordinates,Original*
G04 #@! TF.FileFunction,Legend,Bot*
G04 #@! TF.FilePolarity,Positive*
%FSLAX46Y46*%
G04 Gerber Fmt 4.6, Leading zero omitted, Abs format (unit mm)*
G04 Created by KiCad (PCBNEW (6.0.0)) date 2022-03-04 12:47:46*
%MOMM*%
%LPD*%
G01*
G04 APERTURE LIST*
%ADD10C,0.100000*%
%ADD11C,0.200000*%
%ADD12C,0.120000*%
G04 APERTURE END LIST*
D10*
X122175000Y-76725000D02*
X122940000Y-75960000D01*
X125160000Y-76080000D02*
X125160000Y-75700000D01*
X122940000Y-75960000D02*
X122940000Y-75700000D01*
X123960000Y-76025000D02*
X123960000Y-75700000D01*
X125780000Y-76700000D02*
X125160000Y-76080000D01*
X98143333Y-84523333D02*
X98110000Y-84490000D01*
X98043333Y-84456666D01*
X97876666Y-84456666D01*
X97810000Y-84490000D01*
X97776666Y-84523333D01*
X97743333Y-84590000D01*
X97743333Y-84656666D01*
X97776666Y-84756666D01*
X98176666Y-85156666D01*
X97743333Y-85156666D01*
X97143333Y-84690000D02*
X97143333Y-85156666D01*
X97310000Y-84423333D02*
X97476666Y-84923333D01*
X97043333Y-84923333D01*
X96876666Y-84456666D02*
X96643333Y-85156666D01*
X96410000Y-84456666D01*
X122373333Y-91316666D02*
X122706666Y-91316666D01*
X122740000Y-91650000D01*
X122706666Y-91616666D01*
X122640000Y-91583333D01*
X122473333Y-91583333D01*
X122406666Y-91616666D01*
X122373333Y-91650000D01*
X122340000Y-91716666D01*
X122340000Y-91883333D01*
X122373333Y-91950000D01*
X122406666Y-91983333D01*
X122473333Y-92016666D01*
X122640000Y-92016666D01*
X122706666Y-91983333D01*
X122740000Y-91950000D01*
X122140000Y-91316666D02*
X121906666Y-92016666D01*
X121673333Y-91316666D01*
X114006666Y-96066666D02*
X114006666Y-95366666D01*
X113740000Y-95366666D01*
X113673333Y-95400000D01*
X113640000Y-95433333D01*
X113606666Y-95500000D01*
X113606666Y-95600000D01*
X113640000Y-95666666D01*
X113673333Y-95700000D01*
X113740000Y-95733333D01*
X114006666Y-95733333D01*
X113340000Y-95866666D02*
X113006666Y-95866666D01*
X113406666Y-96066666D02*
X113173333Y-95366666D01*
X112940000Y-96066666D01*
X112573333Y-95366666D02*
X112506666Y-95366666D01*
X112440000Y-95400000D01*
X112406666Y-95433333D01*
X112373333Y-95500000D01*
X112340000Y-95633333D01*
X112340000Y-95800000D01*
X112373333Y-95933333D01*
X112406666Y-96000000D01*
X112440000Y-96033333D01*
X112506666Y-96066666D01*
X112573333Y-96066666D01*
X112640000Y-96033333D01*
X112673333Y-96000000D01*
X112706666Y-95933333D01*
X112740000Y-95800000D01*
X112740000Y-95633333D01*
X112706666Y-95500000D01*
X112673333Y-95433333D01*
X112640000Y-95400000D01*
X112573333Y-95366666D01*
X128186666Y-87296666D02*
X127753333Y-87296666D01*
X127986666Y-87563333D01*
X127886666Y-87563333D01*
X127820000Y-87596666D01*
X127786666Y-87630000D01*
X127753333Y-87696666D01*
X127753333Y-87863333D01*
X127786666Y-87930000D01*
X127820000Y-87963333D01*
X127886666Y-87996666D01*
X128086666Y-87996666D01*
X128153333Y-87963333D01*
X128186666Y-87930000D01*
X127553333Y-87296666D02*
X127320000Y-87996666D01*
X127086666Y-87296666D01*
X126920000Y-87296666D02*
X126486666Y-87296666D01*
X126720000Y-87563333D01*
X126620000Y-87563333D01*
X126553333Y-87596666D01*
X126520000Y-87630000D01*
X126486666Y-87696666D01*
X126486666Y-87863333D01*
X126520000Y-87930000D01*
X126553333Y-87963333D01*
X126620000Y-87996666D01*
X126820000Y-87996666D01*
X126886666Y-87963333D01*
X126920000Y-87930000D01*
X109073333Y-70300000D02*
X109106666Y-70333333D01*
X109206666Y-70366666D01*
X109273333Y-70366666D01*
X109373333Y-70333333D01*
X109440000Y-70266666D01*
X109473333Y-70200000D01*
X109506666Y-70066666D01*
X109506666Y-69966666D01*
X109473333Y-69833333D01*
X109440000Y-69766666D01*
X109373333Y-69700000D01*
X109273333Y-69666666D01*
X109206666Y-69666666D01*
X109106666Y-69700000D01*
X109073333Y-69733333D01*
X108806666Y-70166666D02*
X108473333Y-70166666D01*
X108873333Y-70366666D02*
X108640000Y-69666666D01*
X108406666Y-70366666D01*
X108173333Y-70366666D02*
X108173333Y-69666666D01*
X107773333Y-70366666D01*
X107773333Y-69666666D01*
X107106666Y-70366666D02*
X107440000Y-70366666D01*
X107440000Y-69666666D01*
X128136666Y-78986666D02*
X127703333Y-78986666D01*
X127936666Y-79253333D01*
X127836666Y-79253333D01*
X127770000Y-79286666D01*
X127736666Y-79320000D01*
X127703333Y-79386666D01*
X127703333Y-79553333D01*
X127736666Y-79620000D01*
X127770000Y-79653333D01*
X127836666Y-79686666D01*
X128036666Y-79686666D01*
X128103333Y-79653333D01*
X128136666Y-79620000D01*
X127503333Y-78986666D02*
X127270000Y-79686666D01*
X127036666Y-78986666D01*
X126870000Y-78986666D02*
X126436666Y-78986666D01*
X126670000Y-79253333D01*
X126570000Y-79253333D01*
X126503333Y-79286666D01*
X126470000Y-79320000D01*
X126436666Y-79386666D01*
X126436666Y-79553333D01*
X126470000Y-79620000D01*
X126503333Y-79653333D01*
X126570000Y-79686666D01*
X126770000Y-79686666D01*
X126836666Y-79653333D01*
X126870000Y-79620000D01*
X122893333Y-81040000D02*
X122960000Y-81006666D01*
X123060000Y-81006666D01*
X123160000Y-81040000D01*
X123226666Y-81106666D01*
X123260000Y-81173333D01*
X123293333Y-81306666D01*
X123293333Y-81406666D01*
X123260000Y-81540000D01*
X123226666Y-81606666D01*
X123160000Y-81673333D01*
X123060000Y-81706666D01*
X122993333Y-81706666D01*
X122893333Y-81673333D01*
X122860000Y-81640000D01*
X122860000Y-81406666D01*
X122993333Y-81406666D01*
X122560000Y-81706666D02*
X122560000Y-81006666D01*
X122160000Y-81706666D01*
X122160000Y-81006666D01*
X121826666Y-81706666D02*
X121826666Y-81006666D01*
X121660000Y-81006666D01*
X121560000Y-81040000D01*
X121493333Y-81106666D01*
X121460000Y-81173333D01*
X121426666Y-81306666D01*
X121426666Y-81406666D01*
X121460000Y-81540000D01*
X121493333Y-81606666D01*
X121560000Y-81673333D01*
X121660000Y-81706666D01*
X121826666Y-81706666D01*
X109740000Y-97533333D02*
X109773333Y-97600000D01*
X109773333Y-97700000D01*
X109740000Y-97800000D01*
X109673333Y-97866666D01*
X109606666Y-97900000D01*
X109473333Y-97933333D01*
X109373333Y-97933333D01*
X109240000Y-97900000D01*
X109173333Y-97866666D01*
X109106666Y-97800000D01*
X109073333Y-97700000D01*
X109073333Y-97633333D01*
X109106666Y-97533333D01*
X109140000Y-97500000D01*
X109373333Y-97500000D01*
X109373333Y-97633333D01*
X109073333Y-97200000D02*
X109773333Y-97200000D01*
X109073333Y-96800000D01*
X109773333Y-96800000D01*
X109073333Y-96466666D02*
X109773333Y-96466666D01*
X109773333Y-96300000D01*
X109740000Y-96200000D01*
X109673333Y-96133333D01*
X109606666Y-96100000D01*
X109473333Y-96066666D01*
X109373333Y-96066666D01*
X109240000Y-96100000D01*
X109173333Y-96133333D01*
X109106666Y-96200000D01*
X109073333Y-96300000D01*
X109073333Y-96466666D01*
X121063333Y-75306666D02*
X121763333Y-75306666D01*
X121763333Y-75040000D01*
X121730000Y-74973333D01*
X121696666Y-74940000D01*
X121630000Y-74906666D01*
X121530000Y-74906666D01*
X121463333Y-74940000D01*
X121430000Y-74973333D01*
X121396666Y-75040000D01*
X121396666Y-75306666D01*
X121263333Y-74640000D02*
X121263333Y-74306666D01*
X121063333Y-74706666D02*
X121763333Y-74473333D01*
X121063333Y-74240000D01*
X121763333Y-73673333D02*
X121763333Y-74006666D01*
X121430000Y-74040000D01*
X121463333Y-74006666D01*
X121496666Y-73940000D01*
X121496666Y-73773333D01*
X121463333Y-73706666D01*
X121430000Y-73673333D01*
X121363333Y-73640000D01*
X121196666Y-73640000D01*
X121130000Y-73673333D01*
X121096666Y-73706666D01*
X121063333Y-73773333D01*
X121063333Y-73940000D01*
X121096666Y-74006666D01*
X121130000Y-74040000D01*
X113793333Y-97410000D02*
X113860000Y-97376666D01*
X113960000Y-97376666D01*
X114060000Y-97410000D01*
X114126666Y-97476666D01*
X114160000Y-97543333D01*
X114193333Y-97676666D01*
X114193333Y-97776666D01*
X114160000Y-97910000D01*
X114126666Y-97976666D01*
X114060000Y-98043333D01*
X113960000Y-98076666D01*
X113893333Y-98076666D01*
X113793333Y-98043333D01*
X113760000Y-98010000D01*
X113760000Y-97776666D01*
X113893333Y-97776666D01*
X113460000Y-98076666D02*
X113460000Y-97376666D01*
X113060000Y-98076666D01*
X113060000Y-97376666D01*
X112726666Y-98076666D02*
X112726666Y-97376666D01*
X112560000Y-97376666D01*
X112460000Y-97410000D01*
X112393333Y-97476666D01*
X112360000Y-97543333D01*
X112326666Y-97676666D01*
X112326666Y-97776666D01*
X112360000Y-97910000D01*
X112393333Y-97976666D01*
X112460000Y-98043333D01*
X112560000Y-98076666D01*
X112726666Y-98076666D01*
X127843333Y-89350000D02*
X127910000Y-89316666D01*
X128010000Y-89316666D01*
X128110000Y-89350000D01*
X128176666Y-89416666D01*
X128210000Y-89483333D01*
X128243333Y-89616666D01*
X128243333Y-89716666D01*
X128210000Y-89850000D01*
X128176666Y-89916666D01*
X128110000Y-89983333D01*
X128010000Y-90016666D01*
X127943333Y-90016666D01*
X127843333Y-89983333D01*
X127810000Y-89950000D01*
X127810000Y-89716666D01*
X127943333Y-89716666D01*
X127510000Y-90016666D02*
X127510000Y-89316666D01*
X127110000Y-90016666D01*
X127110000Y-89316666D01*
X126776666Y-90016666D02*
X126776666Y-89316666D01*
X126610000Y-89316666D01*
X126510000Y-89350000D01*
X126443333Y-89416666D01*
X126410000Y-89483333D01*
X126376666Y-89616666D01*
X126376666Y-89716666D01*
X126410000Y-89850000D01*
X126443333Y-89916666D01*
X126510000Y-89983333D01*
X126610000Y-90016666D01*
X126776666Y-90016666D01*
X105296666Y-99083333D02*
X105263333Y-98983333D01*
X105263333Y-98816666D01*
X105296666Y-98750000D01*
X105330000Y-98716666D01*
X105396666Y-98683333D01*
X105463333Y-98683333D01*
X105530000Y-98716666D01*
X105563333Y-98750000D01*
X105596666Y-98816666D01*
X105630000Y-98950000D01*
X105663333Y-99016666D01*
X105696666Y-99050000D01*
X105763333Y-99083333D01*
X105830000Y-99083333D01*
X105896666Y-99050000D01*
X105930000Y-99016666D01*
X105963333Y-98950000D01*
X105963333Y-98783333D01*
X105930000Y-98683333D01*
X105963333Y-98450000D02*
X105263333Y-98283333D01*
X105763333Y-98150000D01*
X105263333Y-98016666D01*
X105963333Y-97850000D01*
X105330000Y-97183333D02*
X105296666Y-97216666D01*
X105263333Y-97316666D01*
X105263333Y-97383333D01*
X105296666Y-97483333D01*
X105363333Y-97550000D01*
X105430000Y-97583333D01*
X105563333Y-97616666D01*
X105663333Y-97616666D01*
X105796666Y-97583333D01*
X105863333Y-97550000D01*
X105930000Y-97483333D01*
X105963333Y-97383333D01*
X105963333Y-97316666D01*
X105930000Y-97216666D01*
X105896666Y-97183333D01*
X105263333Y-96550000D02*
X105263333Y-96883333D01*
X105963333Y-96883333D01*
X105263333Y-96316666D02*
X105963333Y-96316666D01*
X105263333Y-95916666D02*
X105663333Y-96216666D01*
X105963333Y-95916666D02*
X105563333Y-96316666D01*
X109163333Y-63623333D02*
X109130000Y-63590000D01*
X109063333Y-63556666D01*
X108896666Y-63556666D01*
X108830000Y-63590000D01*
X108796666Y-63623333D01*
X108763333Y-63690000D01*
X108763333Y-63756666D01*
X108796666Y-63856666D01*
X109196666Y-64256666D01*
X108763333Y-64256666D01*
X108163333Y-63790000D02*
X108163333Y-64256666D01*
X108330000Y-63523333D02*
X108496666Y-64023333D01*
X108063333Y-64023333D01*
X107896666Y-63556666D02*
X107663333Y-64256666D01*
X107430000Y-63556666D01*
X123246666Y-90036666D02*
X123246666Y-89336666D01*
X122980000Y-89336666D01*
X122913333Y-89370000D01*
X122880000Y-89403333D01*
X122846666Y-89470000D01*
X122846666Y-89570000D01*
X122880000Y-89636666D01*
X122913333Y-89670000D01*
X122980000Y-89703333D01*
X123246666Y-89703333D01*
X122313333Y-89670000D02*
X122213333Y-89703333D01*
X122180000Y-89736666D01*
X122146666Y-89803333D01*
X122146666Y-89903333D01*
X122180000Y-89970000D01*
X122213333Y-90003333D01*
X122280000Y-90036666D01*
X122546666Y-90036666D01*
X122546666Y-89336666D01*
X122313333Y-89336666D01*
X122246666Y-89370000D01*
X122213333Y-89403333D01*
X122180000Y-89470000D01*
X122180000Y-89536666D01*
X122213333Y-89603333D01*
X122246666Y-89636666D01*
X122313333Y-89670000D01*
X122546666Y-89670000D01*
X121513333Y-89336666D02*
X121846666Y-89336666D01*
X121880000Y-89670000D01*
X121846666Y-89636666D01*
X121780000Y-89603333D01*
X121613333Y-89603333D01*
X121546666Y-89636666D01*
X121513333Y-89670000D01*
X121480000Y-89736666D01*
X121480000Y-89903333D01*
X121513333Y-89970000D01*
X121546666Y-90003333D01*
X121613333Y-90036666D01*
X121780000Y-90036666D01*
X121846666Y-90003333D01*
X121880000Y-89970000D01*
X127796666Y-91406666D02*
X127796666Y-90706666D01*
X127530000Y-90706666D01*
X127463333Y-90740000D01*
X127430000Y-90773333D01*
X127396666Y-90840000D01*
X127396666Y-90940000D01*
X127430000Y-91006666D01*
X127463333Y-91040000D01*
X127530000Y-91073333D01*
X127796666Y-91073333D01*
X127130000Y-91206666D02*
X126796666Y-91206666D01*
X127196666Y-91406666D02*
X126963333Y-90706666D01*
X126730000Y-91406666D01*
X126196666Y-90706666D02*
X126330000Y-90706666D01*
X126396666Y-90740000D01*
X126430000Y-90773333D01*
X126496666Y-90873333D01*
X126530000Y-91006666D01*
X126530000Y-91273333D01*
X126496666Y-91340000D01*
X126463333Y-91373333D01*
X126396666Y-91406666D01*
X126263333Y-91406666D01*
X126196666Y-91373333D01*
X126163333Y-91340000D01*
X126130000Y-91273333D01*
X126130000Y-91106666D01*
X126163333Y-91040000D01*
X126196666Y-91006666D01*
X126263333Y-90973333D01*
X126396666Y-90973333D01*
X126463333Y-91006666D01*
X126496666Y-91040000D01*
X126530000Y-91106666D01*
D11*
X120700000Y-86233333D02*
X120700000Y-84833333D01*
X120233333Y-85833333D01*
X119766666Y-84833333D01*
X119766666Y-86233333D01*
X119100000Y-86233333D02*
X119100000Y-85300000D01*
X119100000Y-84833333D02*
X119166666Y-84900000D01*
X119100000Y-84966666D01*
X119033333Y-84900000D01*
X119100000Y-84833333D01*
X119100000Y-84966666D01*
X118433333Y-85300000D02*
X118433333Y-86233333D01*
X118433333Y-85433333D02*
X118366666Y-85366666D01*
X118233333Y-85300000D01*
X118033333Y-85300000D01*
X117900000Y-85366666D01*
X117833333Y-85500000D01*
X117833333Y-86233333D01*
X117166666Y-86233333D02*
X117166666Y-85300000D01*
X117166666Y-84833333D02*
X117233333Y-84900000D01*
X117166666Y-84966666D01*
X117100000Y-84900000D01*
X117166666Y-84833333D01*
X117166666Y-84966666D01*
X116566666Y-85833333D02*
X115900000Y-85833333D01*
X116700000Y-86233333D02*
X116233333Y-84833333D01*
X115766666Y-86233333D01*
X114833333Y-85500000D02*
X114633333Y-85566666D01*
X114566666Y-85633333D01*
X114500000Y-85766666D01*
X114500000Y-85966666D01*
X114566666Y-86100000D01*
X114633333Y-86166666D01*
X114766666Y-86233333D01*
X115300000Y-86233333D01*
X115300000Y-84833333D01*
X114833333Y-84833333D01*
X114700000Y-84900000D01*
X114633333Y-84966666D01*
X114566666Y-85100000D01*
X114566666Y-85233333D01*
X114633333Y-85366666D01*
X114700000Y-85433333D01*
X114833333Y-85500000D01*
X115300000Y-85500000D01*
X112033333Y-86100000D02*
X112100000Y-86166666D01*
X112300000Y-86233333D01*
X112433333Y-86233333D01*
X112633333Y-86166666D01*
X112766666Y-86033333D01*
X112833333Y-85900000D01*
X112900000Y-85633333D01*
X112900000Y-85433333D01*
X112833333Y-85166666D01*
X112766666Y-85033333D01*
X112633333Y-84900000D01*
X112433333Y-84833333D01*
X112300000Y-84833333D01*
X112100000Y-84900000D01*
X112033333Y-84966666D01*
X111500000Y-85833333D02*
X110833333Y-85833333D01*
X111633333Y-86233333D02*
X111166666Y-84833333D01*
X110700000Y-86233333D01*
X110233333Y-86233333D02*
X110233333Y-84833333D01*
X109433333Y-86233333D01*
X109433333Y-84833333D01*
X107233333Y-85500000D02*
X107033333Y-85566666D01*
X106966666Y-85633333D01*
X106900000Y-85766666D01*
X106900000Y-85966666D01*
X106966666Y-86100000D01*
X107033333Y-86166666D01*
X107166666Y-86233333D01*
X107700000Y-86233333D01*
X107700000Y-84833333D01*
X107233333Y-84833333D01*
X107100000Y-84900000D01*
X107033333Y-84966666D01*
X106966666Y-85100000D01*
X106966666Y-85233333D01*
X107033333Y-85366666D01*
X107100000Y-85433333D01*
X107233333Y-85500000D01*
X107700000Y-85500000D01*
X106100000Y-86233333D02*
X106233333Y-86166666D01*
X106300000Y-86100000D01*
X106366666Y-85966666D01*
X106366666Y-85566666D01*
X106300000Y-85433333D01*
X106233333Y-85366666D01*
X106100000Y-85300000D01*
X105900000Y-85300000D01*
X105766666Y-85366666D01*
X105700000Y-85433333D01*
X105633333Y-85566666D01*
X105633333Y-85966666D01*
X105700000Y-86100000D01*
X105766666Y-86166666D01*
X105900000Y-86233333D01*
X106100000Y-86233333D01*
X104433333Y-86233333D02*
X104433333Y-85500000D01*
X104500000Y-85366666D01*
X104633333Y-85300000D01*
X104900000Y-85300000D01*
X105033333Y-85366666D01*
X104433333Y-86166666D02*
X104566666Y-86233333D01*
X104900000Y-86233333D01*
X105033333Y-86166666D01*
X105100000Y-86033333D01*
X105100000Y-85900000D01*
X105033333Y-85766666D01*
X104900000Y-85700000D01*
X104566666Y-85700000D01*
X104433333Y-85633333D01*
X103766666Y-86233333D02*
X103766666Y-85300000D01*
X103766666Y-85566666D02*
X103700000Y-85433333D01*
X103633333Y-85366666D01*
X103500000Y-85300000D01*
X103366666Y-85300000D01*
X102300000Y-86233333D02*
X102300000Y-84833333D01*
X102300000Y-86166666D02*
X102433333Y-86233333D01*
X102700000Y-86233333D01*
X102833333Y-86166666D01*
X102900000Y-86100000D01*
X102966666Y-85966666D01*
X102966666Y-85566666D01*
X102900000Y-85433333D01*
X102833333Y-85366666D01*
X102700000Y-85300000D01*
X102433333Y-85300000D01*
X102300000Y-85366666D01*
D10*
X106576666Y-98983333D02*
X106543333Y-98883333D01*
X106543333Y-98716666D01*
X106576666Y-98650000D01*
X106610000Y-98616666D01*
X106676666Y-98583333D01*
X106743333Y-98583333D01*
X106810000Y-98616666D01*
X106843333Y-98650000D01*
X106876666Y-98716666D01*
X106910000Y-98850000D01*
X106943333Y-98916666D01*
X106976666Y-98950000D01*
X107043333Y-98983333D01*
X107110000Y-98983333D01*
X107176666Y-98950000D01*
X107210000Y-98916666D01*
X107243333Y-98850000D01*
X107243333Y-98683333D01*
X107210000Y-98583333D01*
X107243333Y-98350000D02*
X106543333Y-98183333D01*
X107043333Y-98050000D01*
X106543333Y-97916666D01*
X107243333Y-97750000D01*
X106543333Y-97483333D02*
X107243333Y-97483333D01*
X107243333Y-97316666D01*
X107210000Y-97216666D01*
X107143333Y-97150000D01*
X107076666Y-97116666D01*
X106943333Y-97083333D01*
X106843333Y-97083333D01*
X106710000Y-97116666D01*
X106643333Y-97150000D01*
X106576666Y-97216666D01*
X106543333Y-97316666D01*
X106543333Y-97483333D01*
X106543333Y-96783333D02*
X107243333Y-96783333D01*
X107243333Y-96316666D02*
X107243333Y-96183333D01*
X107210000Y-96116666D01*
X107143333Y-96050000D01*
X107010000Y-96016666D01*
X106776666Y-96016666D01*
X106643333Y-96050000D01*
X106576666Y-96116666D01*
X106543333Y-96183333D01*
X106543333Y-96316666D01*
X106576666Y-96383333D01*
X106643333Y-96450000D01*
X106776666Y-96483333D01*
X107010000Y-96483333D01*
X107143333Y-96450000D01*
X107210000Y-96383333D01*
X107243333Y-96316666D01*
X123236666Y-78986666D02*
X122803333Y-78986666D01*
X123036666Y-79253333D01*
X122936666Y-79253333D01*
X122870000Y-79286666D01*
X122836666Y-79320000D01*
X122803333Y-79386666D01*
X122803333Y-79553333D01*
X122836666Y-79620000D01*
X122870000Y-79653333D01*
X122936666Y-79686666D01*
X123136666Y-79686666D01*
X123203333Y-79653333D01*
X123236666Y-79620000D01*
X122603333Y-78986666D02*
X122370000Y-79686666D01*
X122136666Y-78986666D01*
X121970000Y-78986666D02*
X121536666Y-78986666D01*
X121770000Y-79253333D01*
X121670000Y-79253333D01*
X121603333Y-79286666D01*
X121570000Y-79320000D01*
X121536666Y-79386666D01*
X121536666Y-79553333D01*
X121570000Y-79620000D01*
X121603333Y-79653333D01*
X121670000Y-79686666D01*
X121870000Y-79686666D01*
X121936666Y-79653333D01*
X121970000Y-79620000D01*
X123186666Y-83706666D02*
X123186666Y-83006666D01*
X122920000Y-83006666D01*
X122853333Y-83040000D01*
X122820000Y-83073333D01*
X122786666Y-83140000D01*
X122786666Y-83240000D01*
X122820000Y-83306666D01*
X122853333Y-83340000D01*
X122920000Y-83373333D01*
X123186666Y-83373333D01*
X122520000Y-83506666D02*
X122186666Y-83506666D01*
X122586666Y-83706666D02*
X122353333Y-83006666D01*
X122120000Y-83706666D01*
X121953333Y-83006666D02*
X121520000Y-83006666D01*
X121753333Y-83273333D01*
X121653333Y-83273333D01*
X121586666Y-83306666D01*
X121553333Y-83340000D01*
X121520000Y-83406666D01*
X121520000Y-83573333D01*
X121553333Y-83640000D01*
X121586666Y-83673333D01*
X121653333Y-83706666D01*
X121853333Y-83706666D01*
X121920000Y-83673333D01*
X121953333Y-83640000D01*
X128066666Y-83706666D02*
X128066666Y-83006666D01*
X127800000Y-83006666D01*
X127733333Y-83040000D01*
X127700000Y-83073333D01*
X127666666Y-83140000D01*
X127666666Y-83240000D01*
X127700000Y-83306666D01*
X127733333Y-83340000D01*
X127800000Y-83373333D01*
X128066666Y-83373333D01*
X127400000Y-83506666D02*
X127066666Y-83506666D01*
X127466666Y-83706666D02*
X127233333Y-83006666D01*
X127000000Y-83706666D01*
X126466666Y-83240000D02*
X126466666Y-83706666D01*
X126633333Y-82973333D02*
X126800000Y-83473333D01*
X126366666Y-83473333D01*
X112156666Y-70300000D02*
X112190000Y-70333333D01*
X112290000Y-70366666D01*
X112356666Y-70366666D01*
X112456666Y-70333333D01*
X112523333Y-70266666D01*
X112556666Y-70200000D01*
X112590000Y-70066666D01*
X112590000Y-69966666D01*
X112556666Y-69833333D01*
X112523333Y-69766666D01*
X112456666Y-69700000D01*
X112356666Y-69666666D01*
X112290000Y-69666666D01*
X112190000Y-69700000D01*
X112156666Y-69733333D01*
X111890000Y-70166666D02*
X111556666Y-70166666D01*
X111956666Y-70366666D02*
X111723333Y-69666666D01*
X111490000Y-70366666D01*
X111256666Y-70366666D02*
X111256666Y-69666666D01*
X110856666Y-70366666D01*
X110856666Y-69666666D01*
X110523333Y-70366666D02*
X110523333Y-69666666D01*
X110523333Y-70000000D02*
X110123333Y-70000000D01*
X110123333Y-70366666D02*
X110123333Y-69666666D01*
X111883333Y-63600000D02*
X111950000Y-63566666D01*
X112050000Y-63566666D01*
X112150000Y-63600000D01*
X112216666Y-63666666D01*
X112250000Y-63733333D01*
X112283333Y-63866666D01*
X112283333Y-63966666D01*
X112250000Y-64100000D01*
X112216666Y-64166666D01*
X112150000Y-64233333D01*
X112050000Y-64266666D01*
X111983333Y-64266666D01*
X111883333Y-64233333D01*
X111850000Y-64200000D01*
X111850000Y-63966666D01*
X111983333Y-63966666D01*
X111550000Y-64266666D02*
X111550000Y-63566666D01*
X111150000Y-64266666D01*
X111150000Y-63566666D01*
X110816666Y-64266666D02*
X110816666Y-63566666D01*
X110650000Y-63566666D01*
X110550000Y-63600000D01*
X110483333Y-63666666D01*
X110450000Y-63733333D01*
X110416666Y-63866666D01*
X110416666Y-63966666D01*
X110450000Y-64100000D01*
X110483333Y-64166666D01*
X110550000Y-64233333D01*
X110650000Y-64266666D01*
X110816666Y-64266666D01*
X104366666Y-86716666D02*
X104133333Y-87416666D01*
X103900000Y-86716666D01*
X103533333Y-86716666D02*
X103466666Y-86716666D01*
X103400000Y-86750000D01*
X103366666Y-86783333D01*
X103333333Y-86850000D01*
X103300000Y-86983333D01*
X103300000Y-87150000D01*
X103333333Y-87283333D01*
X103366666Y-87350000D01*
X103400000Y-87383333D01*
X103466666Y-87416666D01*
X103533333Y-87416666D01*
X103600000Y-87383333D01*
X103633333Y-87350000D01*
X103666666Y-87283333D01*
X103700000Y-87150000D01*
X103700000Y-86983333D01*
X103666666Y-86850000D01*
X103633333Y-86783333D01*
X103600000Y-86750000D01*
X103533333Y-86716666D01*
X103000000Y-87350000D02*
X102966666Y-87383333D01*
X103000000Y-87416666D01*
X103033333Y-87383333D01*
X103000000Y-87350000D01*
X103000000Y-87416666D01*
X102333333Y-86716666D02*
X102666666Y-86716666D01*
X102700000Y-87050000D01*
X102666666Y-87016666D01*
X102600000Y-86983333D01*
X102433333Y-86983333D01*
X102366666Y-87016666D01*
X102333333Y-87050000D01*
X102300000Y-87116666D01*
X102300000Y-87283333D01*
X102333333Y-87350000D01*
X102366666Y-87383333D01*
X102433333Y-87416666D01*
X102600000Y-87416666D01*
X102666666Y-87383333D01*
X102700000Y-87350000D01*
X127793333Y-81040000D02*
X127860000Y-81006666D01*
X127960000Y-81006666D01*
X128060000Y-81040000D01*
X128126666Y-81106666D01*
X128160000Y-81173333D01*
X128193333Y-81306666D01*
X128193333Y-81406666D01*
X128160000Y-81540000D01*
X128126666Y-81606666D01*
X128060000Y-81673333D01*
X127960000Y-81706666D01*
X127893333Y-81706666D01*
X127793333Y-81673333D01*
X127760000Y-81640000D01*
X127760000Y-81406666D01*
X127893333Y-81406666D01*
X127460000Y-81706666D02*
X127460000Y-81006666D01*
X127060000Y-81706666D01*
X127060000Y-81006666D01*
X126726666Y-81706666D02*
X126726666Y-81006666D01*
X126560000Y-81006666D01*
X126460000Y-81040000D01*
X126393333Y-81106666D01*
X126360000Y-81173333D01*
X126326666Y-81306666D01*
X126326666Y-81406666D01*
X126360000Y-81540000D01*
X126393333Y-81606666D01*
X126460000Y-81673333D01*
X126560000Y-81706666D01*
X126726666Y-81706666D01*
X122923333Y-87340000D02*
X122990000Y-87306666D01*
X123090000Y-87306666D01*
X123190000Y-87340000D01*
X123256666Y-87406666D01*
X123290000Y-87473333D01*
X123323333Y-87606666D01*
X123323333Y-87706666D01*
X123290000Y-87840000D01*
X123256666Y-87906666D01*
X123190000Y-87973333D01*
X123090000Y-88006666D01*
X123023333Y-88006666D01*
X122923333Y-87973333D01*
X122890000Y-87940000D01*
X122890000Y-87706666D01*
X123023333Y-87706666D01*
X122590000Y-88006666D02*
X122590000Y-87306666D01*
X122190000Y-88006666D01*
X122190000Y-87306666D01*
X121856666Y-88006666D02*
X121856666Y-87306666D01*
X121690000Y-87306666D01*
X121590000Y-87340000D01*
X121523333Y-87406666D01*
X121490000Y-87473333D01*
X121456666Y-87606666D01*
X121456666Y-87706666D01*
X121490000Y-87840000D01*
X121523333Y-87906666D01*
X121590000Y-87973333D01*
X121690000Y-88006666D01*
X121856666Y-88006666D01*
X108513333Y-97866666D02*
X108513333Y-97433333D01*
X108246666Y-97666666D01*
X108246666Y-97566666D01*
X108213333Y-97500000D01*
X108180000Y-97466666D01*
X108113333Y-97433333D01*
X107946666Y-97433333D01*
X107880000Y-97466666D01*
X107846666Y-97500000D01*
X107813333Y-97566666D01*
X107813333Y-97766666D01*
X107846666Y-97833333D01*
X107880000Y-97866666D01*
X108513333Y-97233333D02*
X107813333Y-97000000D01*
X108513333Y-96766666D01*
X108513333Y-96600000D02*
X108513333Y-96166666D01*
X108246666Y-96400000D01*
X108246666Y-96300000D01*
X108213333Y-96233333D01*
X108180000Y-96200000D01*
X108113333Y-96166666D01*
X107946666Y-96166666D01*
X107880000Y-96200000D01*
X107846666Y-96233333D01*
X107813333Y-96300000D01*
X107813333Y-96500000D01*
X107846666Y-96566666D01*
X107880000Y-96600000D01*
X103933333Y-98516666D02*
X104266666Y-98750000D01*
X103933333Y-98916666D02*
X104633333Y-98916666D01*
X104633333Y-98650000D01*
X104600000Y-98583333D01*
X104566666Y-98550000D01*
X104500000Y-98516666D01*
X104400000Y-98516666D01*
X104333333Y-98550000D01*
X104300000Y-98583333D01*
X104266666Y-98650000D01*
X104266666Y-98916666D01*
X104300000Y-98216666D02*
X104300000Y-97983333D01*
X103933333Y-97883333D02*
X103933333Y-98216666D01*
X104633333Y-98216666D01*
X104633333Y-97883333D01*
X103966666Y-97616666D02*
X103933333Y-97516666D01*
X103933333Y-97350000D01*
X103966666Y-97283333D01*
X104000000Y-97250000D01*
X104066666Y-97216666D01*
X104133333Y-97216666D01*
X104200000Y-97250000D01*
X104233333Y-97283333D01*
X104266666Y-97350000D01*
X104300000Y-97483333D01*
X104333333Y-97550000D01*
X104366666Y-97583333D01*
X104433333Y-97616666D01*
X104500000Y-97616666D01*
X104566666Y-97583333D01*
X104600000Y-97550000D01*
X104633333Y-97483333D01*
X104633333Y-97316666D01*
X104600000Y-97216666D01*
X104300000Y-96916666D02*
X104300000Y-96683333D01*
X103933333Y-96583333D02*
X103933333Y-96916666D01*
X104633333Y-96916666D01*
X104633333Y-96583333D01*
X104633333Y-96383333D02*
X104633333Y-95983333D01*
X103933333Y-96183333D02*
X104633333Y-96183333D01*
X117253333Y-75046666D02*
X116553333Y-74813333D01*
X117253333Y-74580000D01*
X116820000Y-74346666D02*
X116820000Y-73813333D01*
X116553333Y-74080000D02*
X117086666Y-74080000D01*
X101230000Y-84286666D02*
X101230000Y-83586666D01*
X100963333Y-83586666D01*
X100896666Y-83620000D01*
X100863333Y-83653333D01*
X100830000Y-83720000D01*
X100830000Y-83820000D01*
X100863333Y-83886666D01*
X100896666Y-83920000D01*
X100963333Y-83953333D01*
X101230000Y-83953333D01*
X100563333Y-84086666D02*
X100230000Y-84086666D01*
X100630000Y-84286666D02*
X100396666Y-83586666D01*
X100163333Y-84286666D01*
X99563333Y-84286666D02*
X99963333Y-84286666D01*
X99763333Y-84286666D02*
X99763333Y-83586666D01*
X99830000Y-83686666D01*
X99896666Y-83753333D01*
X99963333Y-83786666D01*
X98930000Y-83586666D02*
X99263333Y-83586666D01*
X99296666Y-83920000D01*
X99263333Y-83886666D01*
X99196666Y-83853333D01*
X99030000Y-83853333D01*
X98963333Y-83886666D01*
X98930000Y-83920000D01*
X98896666Y-83986666D01*
X98896666Y-84153333D01*
X98930000Y-84220000D01*
X98963333Y-84253333D01*
X99030000Y-84286666D01*
X99196666Y-84286666D01*
X99263333Y-84253333D01*
X99296666Y-84220000D01*
G04 #@! TO.C,JP1*
X98333333Y-90616666D02*
X98333333Y-89916666D01*
X98066666Y-89916666D01*
X98000000Y-89950000D01*
X97966666Y-89983333D01*
X97933333Y-90050000D01*
X97933333Y-90150000D01*
X97966666Y-90216666D01*
X98000000Y-90250000D01*
X98066666Y-90283333D01*
X98333333Y-90283333D01*
X97233333Y-90550000D02*
X97266666Y-90583333D01*
X97366666Y-90616666D01*
X97433333Y-90616666D01*
X97533333Y-90583333D01*
X97600000Y-90516666D01*
X97633333Y-90450000D01*
X97666666Y-90316666D01*
X97666666Y-90216666D01*
X97633333Y-90083333D01*
X97600000Y-90016666D01*
X97533333Y-89950000D01*
X97433333Y-89916666D01*
X97366666Y-89916666D01*
X97266666Y-89950000D01*
X97233333Y-89983333D01*
X96700000Y-90250000D02*
X96933333Y-90250000D01*
X96933333Y-90616666D02*
X96933333Y-89916666D01*
X96600000Y-89916666D01*
X96914285Y-93178571D02*
X96885714Y-93150000D01*
X96828571Y-93121428D01*
X96685714Y-93121428D01*
X96628571Y-93150000D01*
X96600000Y-93178571D01*
X96571428Y-93235714D01*
X96571428Y-93292857D01*
X96600000Y-93378571D01*
X96942857Y-93721428D01*
X96571428Y-93721428D01*
X96057142Y-93321428D02*
X96057142Y-93721428D01*
X96200000Y-93092857D02*
X96342857Y-93521428D01*
X95971428Y-93521428D01*
X95828571Y-93121428D02*
X95628571Y-93721428D01*
X95428571Y-93121428D01*
X98914285Y-93121428D02*
X99200000Y-93121428D01*
X99228571Y-93407142D01*
X99200000Y-93378571D01*
X99142857Y-93350000D01*
X99000000Y-93350000D01*
X98942857Y-93378571D01*
X98914285Y-93407142D01*
X98885714Y-93464285D01*
X98885714Y-93607142D01*
X98914285Y-93664285D01*
X98942857Y-93692857D01*
X99000000Y-93721428D01*
X99142857Y-93721428D01*
X99200000Y-93692857D01*
X99228571Y-93664285D01*
X98714285Y-93121428D02*
X98514285Y-93721428D01*
X98314285Y-93121428D01*
G04 #@! TO.C,TP7*
X106833333Y-90583333D02*
X106733333Y-90616666D01*
X106566666Y-90616666D01*
X106500000Y-90583333D01*
X106466666Y-90550000D01*
X106433333Y-90483333D01*
X106433333Y-90416666D01*
X106466666Y-90350000D01*
X106500000Y-90316666D01*
X106566666Y-90283333D01*
X106700000Y-90250000D01*
X106766666Y-90216666D01*
X106800000Y-90183333D01*
X106833333Y-90116666D01*
X106833333Y-90050000D01*
X106800000Y-89983333D01*
X106766666Y-89950000D01*
X106700000Y-89916666D01*
X106533333Y-89916666D01*
X106433333Y-89950000D01*
X105733333Y-90550000D02*
X105766666Y-90583333D01*
X105866666Y-90616666D01*
X105933333Y-90616666D01*
X106033333Y-90583333D01*
X106100000Y-90516666D01*
X106133333Y-90450000D01*
X106166666Y-90316666D01*
X106166666Y-90216666D01*
X106133333Y-90083333D01*
X106100000Y-90016666D01*
X106033333Y-89950000D01*
X105933333Y-89916666D01*
X105866666Y-89916666D01*
X105766666Y-89950000D01*
X105733333Y-89983333D01*
X105100000Y-90616666D02*
X105433333Y-90616666D01*
X105433333Y-89916666D01*
G04 #@! TO.C,TP5*
X101866666Y-89916666D02*
X101433333Y-89916666D01*
X101666666Y-90183333D01*
X101566666Y-90183333D01*
X101500000Y-90216666D01*
X101466666Y-90250000D01*
X101433333Y-90316666D01*
X101433333Y-90483333D01*
X101466666Y-90550000D01*
X101500000Y-90583333D01*
X101566666Y-90616666D01*
X101766666Y-90616666D01*
X101833333Y-90583333D01*
X101866666Y-90550000D01*
X101233333Y-89916666D02*
X101000000Y-90616666D01*
X100766666Y-89916666D01*
X100600000Y-89916666D02*
X100166666Y-89916666D01*
X100400000Y-90183333D01*
X100300000Y-90183333D01*
X100233333Y-90216666D01*
X100200000Y-90250000D01*
X100166666Y-90316666D01*
X100166666Y-90483333D01*
X100200000Y-90550000D01*
X100233333Y-90583333D01*
X100300000Y-90616666D01*
X100500000Y-90616666D01*
X100566666Y-90583333D01*
X100600000Y-90550000D01*
G04 #@! TO.C,J8*
X86472267Y-78665139D02*
X86280925Y-79127079D01*
X86273453Y-79232223D01*
X86309532Y-79319328D01*
X86389164Y-79388392D01*
X86450756Y-79413904D01*
X85957114Y-78776474D02*
X86031462Y-78771190D01*
X86075014Y-78753150D01*
X86131322Y-78704314D01*
X86144078Y-78673518D01*
X86138795Y-78599170D01*
X86120755Y-78555618D01*
X86071919Y-78499310D01*
X85948735Y-78448286D01*
X85874387Y-78453569D01*
X85830835Y-78471609D01*
X85774527Y-78520445D01*
X85761770Y-78551241D01*
X85767054Y-78625589D01*
X85785094Y-78669141D01*
X85833930Y-78725449D01*
X85957114Y-78776474D01*
X86005950Y-78832782D01*
X86023990Y-78876334D01*
X86029273Y-78950682D01*
X85978249Y-79073866D01*
X85921941Y-79122702D01*
X85878389Y-79140742D01*
X85804041Y-79146026D01*
X85680857Y-79095001D01*
X85632021Y-79038693D01*
X85613981Y-78995141D01*
X85608697Y-78920793D01*
X85659722Y-78797609D01*
X85716030Y-78748773D01*
X85759582Y-78730733D01*
X85833930Y-78725449D01*
X93550757Y-73593634D02*
X93543284Y-73698779D01*
X93479504Y-73852758D01*
X93423196Y-73901594D01*
X93379644Y-73919634D01*
X93305295Y-73924918D01*
X93243703Y-73899406D01*
X93194868Y-73843098D01*
X93176828Y-73799545D01*
X93171544Y-73725197D01*
X93191772Y-73589257D01*
X93186489Y-73514909D01*
X93168449Y-73471357D01*
X93119613Y-73415049D01*
X93058021Y-73389537D01*
X92983673Y-73394820D01*
X92940121Y-73412860D01*
X92883813Y-73461696D01*
X92820032Y-73615676D01*
X92812560Y-73720820D01*
X92705227Y-73892840D02*
X92552154Y-74262392D01*
X93275406Y-74345494D02*
X92628690Y-74077616D01*
X92770821Y-74605525D02*
X92681528Y-74821097D01*
X92982015Y-75053802D02*
X93109576Y-74745842D01*
X92462861Y-74477964D01*
X92335300Y-74785923D01*
X92867210Y-75330966D02*
X92220495Y-75063087D01*
X92118446Y-75309455D01*
X92123729Y-75383803D01*
X92141769Y-75427355D01*
X92190605Y-75483664D01*
X92282993Y-75521932D01*
X92357341Y-75516648D01*
X92400893Y-75498608D01*
X92457202Y-75449772D01*
X92559250Y-75203405D01*
X92599332Y-75977681D02*
X91952616Y-75709803D01*
X91850567Y-75956171D01*
X91855851Y-76030519D01*
X91873891Y-76074071D01*
X91922727Y-76130379D01*
X92015115Y-76168648D01*
X92089463Y-76163364D01*
X92133015Y-76145324D01*
X92189323Y-76096488D01*
X92291372Y-75850120D01*
X91992698Y-76484080D02*
X91903405Y-76699652D01*
X92203892Y-76932357D02*
X92331454Y-76624397D01*
X91684738Y-76356519D01*
X91557177Y-76664479D01*
X91936014Y-77579073D02*
X91717347Y-77235940D01*
X92089087Y-77209521D02*
X91442372Y-76941642D01*
X91340323Y-77188010D01*
X91345607Y-77262358D01*
X91363646Y-77305910D01*
X91412482Y-77362219D01*
X91504870Y-77400487D01*
X91579218Y-77395203D01*
X91622770Y-77377163D01*
X91679079Y-77328328D01*
X91781128Y-77081960D01*
G04 #@! TO.C,TP2*
X124363333Y-75596666D02*
X124363333Y-75163333D01*
X124096666Y-75396666D01*
X124096666Y-75296666D01*
X124063333Y-75230000D01*
X124030000Y-75196666D01*
X123963333Y-75163333D01*
X123796666Y-75163333D01*
X123730000Y-75196666D01*
X123696666Y-75230000D01*
X123663333Y-75296666D01*
X123663333Y-75496666D01*
X123696666Y-75563333D01*
X123730000Y-75596666D01*
X124363333Y-74963333D02*
X123663333Y-74730000D01*
X124363333Y-74496666D01*
X124363333Y-74330000D02*
X124363333Y-73896666D01*
X124096666Y-74130000D01*
X124096666Y-74030000D01*
X124063333Y-73963333D01*
X124030000Y-73930000D01*
X123963333Y-73896666D01*
X123796666Y-73896666D01*
X123730000Y-73930000D01*
X123696666Y-73963333D01*
X123663333Y-74030000D01*
X123663333Y-74230000D01*
X123696666Y-74296666D01*
X123730000Y-74330000D01*
G04 #@! TO.C,R35*
X106916666Y-92550000D02*
X106583333Y-92316666D01*
X106916666Y-92150000D02*
X106216666Y-92150000D01*
X106216666Y-92416666D01*
X106250000Y-92483333D01*
X106283333Y-92516666D01*
X106350000Y-92550000D01*
X106450000Y-92550000D01*
X106516666Y-92516666D01*
X106550000Y-92483333D01*
X106583333Y-92416666D01*
X106583333Y-92150000D01*
X106216666Y-92783333D02*
X106216666Y-93216666D01*
X106483333Y-92983333D01*
X106483333Y-93083333D01*
X106516666Y-93150000D01*
X106550000Y-93183333D01*
X106616666Y-93216666D01*
X106783333Y-93216666D01*
X106850000Y-93183333D01*
X106883333Y-93150000D01*
X106916666Y-93083333D01*
X106916666Y-92883333D01*
X106883333Y-92816666D01*
X106850000Y-92783333D01*
X106216666Y-93850000D02*
X106216666Y-93516666D01*
X106550000Y-93483333D01*
X106516666Y-93516666D01*
X106483333Y-93583333D01*
X106483333Y-93750000D01*
X106516666Y-93816666D01*
X106550000Y-93850000D01*
X106616666Y-93883333D01*
X106783333Y-93883333D01*
X106850000Y-93850000D01*
X106883333Y-93816666D01*
X106916666Y-93750000D01*
X106916666Y-93583333D01*
X106883333Y-93516666D01*
X106850000Y-93483333D01*
G04 #@! TO.C,TP3*
X123216666Y-75563333D02*
X123250000Y-75530000D01*
X123283333Y-75463333D01*
X123283333Y-75296666D01*
X123250000Y-75230000D01*
X123216666Y-75196666D01*
X123150000Y-75163333D01*
X123083333Y-75163333D01*
X122983333Y-75196666D01*
X122583333Y-75596666D01*
X122583333Y-75163333D01*
X123050000Y-74563333D02*
X122583333Y-74563333D01*
X123316666Y-74730000D02*
X122816666Y-74896666D01*
X122816666Y-74463333D01*
X123283333Y-74296666D02*
X122583333Y-74063333D01*
X123283333Y-73830000D01*
G04 #@! TO.C,TP4*
X125500000Y-75153333D02*
X125533333Y-75220000D01*
X125533333Y-75320000D01*
X125500000Y-75420000D01*
X125433333Y-75486666D01*
X125366666Y-75520000D01*
X125233333Y-75553333D01*
X125133333Y-75553333D01*
X125000000Y-75520000D01*
X124933333Y-75486666D01*
X124866666Y-75420000D01*
X124833333Y-75320000D01*
X124833333Y-75253333D01*
X124866666Y-75153333D01*
X124900000Y-75120000D01*
X125133333Y-75120000D01*
X125133333Y-75253333D01*
X124833333Y-74820000D02*
X125533333Y-74820000D01*
X124833333Y-74420000D01*
X125533333Y-74420000D01*
X124833333Y-74086666D02*
X125533333Y-74086666D01*
X125533333Y-73920000D01*
X125500000Y-73820000D01*
X125433333Y-73753333D01*
X125366666Y-73720000D01*
X125233333Y-73686666D01*
X125133333Y-73686666D01*
X125000000Y-73720000D01*
X124933333Y-73753333D01*
X124866666Y-73820000D01*
X124833333Y-73920000D01*
X124833333Y-74086666D01*
G04 #@! TO.C,J2*
X89048876Y-92706553D02*
X89240218Y-93168493D01*
X89309282Y-93248124D01*
X89396386Y-93284204D01*
X89501530Y-93276732D01*
X89563122Y-93251220D01*
X88797224Y-92882950D02*
X88753672Y-92864910D01*
X88679324Y-92859626D01*
X88525344Y-92923407D01*
X88476508Y-92979715D01*
X88458469Y-93023267D01*
X88453185Y-93097615D01*
X88478697Y-93159207D01*
X88547761Y-93238839D01*
X89070387Y-93455317D01*
X88670039Y-93621147D01*
X92061082Y-92243658D02*
X91793204Y-91596943D01*
X91546836Y-91698992D01*
X91498000Y-91755300D01*
X91479960Y-91798852D01*
X91474676Y-91873200D01*
X91512945Y-91965588D01*
X91569253Y-92014424D01*
X91612805Y-92032464D01*
X91687153Y-92037748D01*
X91933521Y-91935699D01*
X91019302Y-92603018D02*
X91062855Y-92621058D01*
X91167999Y-92613586D01*
X91229591Y-92588074D01*
X91309222Y-92519009D01*
X91345302Y-92431905D01*
X91350586Y-92357557D01*
X91330357Y-92221617D01*
X91292089Y-92129229D01*
X91210269Y-92018801D01*
X91153960Y-91969965D01*
X91066856Y-91933886D01*
X90961712Y-91941358D01*
X90900120Y-91966870D01*
X90820488Y-92035934D01*
X90802449Y-92079487D01*
X90411762Y-92529952D02*
X90627334Y-92440659D01*
X90767651Y-92779415D02*
X90499772Y-92132700D01*
X90191813Y-92260261D01*
G04 #@! TO.C,R26*
X115123333Y-81880000D02*
X115456666Y-82113333D01*
X115123333Y-82280000D02*
X115823333Y-82280000D01*
X115823333Y-82013333D01*
X115790000Y-81946666D01*
X115756666Y-81913333D01*
X115690000Y-81880000D01*
X115590000Y-81880000D01*
X115523333Y-81913333D01*
X115490000Y-81946666D01*
X115456666Y-82013333D01*
X115456666Y-82280000D01*
X115756666Y-81613333D02*
X115790000Y-81580000D01*
X115823333Y-81513333D01*
X115823333Y-81346666D01*
X115790000Y-81280000D01*
X115756666Y-81246666D01*
X115690000Y-81213333D01*
X115623333Y-81213333D01*
X115523333Y-81246666D01*
X115123333Y-81646666D01*
X115123333Y-81213333D01*
X115823333Y-80613333D02*
X115823333Y-80746666D01*
X115790000Y-80813333D01*
X115756666Y-80846666D01*
X115656666Y-80913333D01*
X115523333Y-80946666D01*
X115256666Y-80946666D01*
X115190000Y-80913333D01*
X115156666Y-80880000D01*
X115123333Y-80813333D01*
X115123333Y-80680000D01*
X115156666Y-80613333D01*
X115190000Y-80580000D01*
X115256666Y-80546666D01*
X115423333Y-80546666D01*
X115490000Y-80580000D01*
X115523333Y-80613333D01*
X115556666Y-80680000D01*
X115556666Y-80813333D01*
X115523333Y-80880000D01*
X115490000Y-80913333D01*
X115423333Y-80946666D01*
G04 #@! TO.C,R33*
X112283333Y-81880000D02*
X112616666Y-82113333D01*
X112283333Y-82280000D02*
X112983333Y-82280000D01*
X112983333Y-82013333D01*
X112950000Y-81946666D01*
X112916666Y-81913333D01*
X112850000Y-81880000D01*
X112750000Y-81880000D01*
X112683333Y-81913333D01*
X112650000Y-81946666D01*
X112616666Y-82013333D01*
X112616666Y-82280000D01*
X112983333Y-81646666D02*
X112983333Y-81213333D01*
X112716666Y-81446666D01*
X112716666Y-81346666D01*
X112683333Y-81280000D01*
X112650000Y-81246666D01*
X112583333Y-81213333D01*
X112416666Y-81213333D01*
X112350000Y-81246666D01*
X112316666Y-81280000D01*
X112283333Y-81346666D01*
X112283333Y-81546666D01*
X112316666Y-81613333D01*
X112350000Y-81646666D01*
X112983333Y-80980000D02*
X112983333Y-80546666D01*
X112716666Y-80780000D01*
X112716666Y-80680000D01*
X112683333Y-80613333D01*
X112650000Y-80580000D01*
X112583333Y-80546666D01*
X112416666Y-80546666D01*
X112350000Y-80580000D01*
X112316666Y-80613333D01*
X112283333Y-80680000D01*
X112283333Y-80880000D01*
X112316666Y-80946666D01*
X112350000Y-80980000D01*
G04 #@! TO.C,R34*
X110086666Y-92550000D02*
X109753333Y-92316666D01*
X110086666Y-92150000D02*
X109386666Y-92150000D01*
X109386666Y-92416666D01*
X109420000Y-92483333D01*
X109453333Y-92516666D01*
X109520000Y-92550000D01*
X109620000Y-92550000D01*
X109686666Y-92516666D01*
X109720000Y-92483333D01*
X109753333Y-92416666D01*
X109753333Y-92150000D01*
X109386666Y-92783333D02*
X109386666Y-93216666D01*
X109653333Y-92983333D01*
X109653333Y-93083333D01*
X109686666Y-93150000D01*
X109720000Y-93183333D01*
X109786666Y-93216666D01*
X109953333Y-93216666D01*
X110020000Y-93183333D01*
X110053333Y-93150000D01*
X110086666Y-93083333D01*
X110086666Y-92883333D01*
X110053333Y-92816666D01*
X110020000Y-92783333D01*
X109620000Y-93816666D02*
X110086666Y-93816666D01*
X109353333Y-93650000D02*
X109853333Y-93483333D01*
X109853333Y-93916666D01*
G04 #@! TO.C,JP2*
X118986666Y-79456666D02*
X118986666Y-78756666D01*
X118986666Y-79090000D02*
X118586666Y-79090000D01*
X118586666Y-79456666D02*
X118586666Y-78756666D01*
X118253333Y-79090000D02*
X118020000Y-79090000D01*
X117920000Y-79456666D02*
X118253333Y-79456666D01*
X118253333Y-78756666D01*
X117920000Y-78756666D01*
X117386666Y-79090000D02*
X117620000Y-79090000D01*
X117620000Y-79456666D02*
X117620000Y-78756666D01*
X117286666Y-78756666D01*
X116994285Y-77941428D02*
X117280000Y-77941428D01*
X117308571Y-78227142D01*
X117280000Y-78198571D01*
X117222857Y-78170000D01*
X117080000Y-78170000D01*
X117022857Y-78198571D01*
X116994285Y-78227142D01*
X116965714Y-78284285D01*
X116965714Y-78427142D01*
X116994285Y-78484285D01*
X117022857Y-78512857D01*
X117080000Y-78541428D01*
X117222857Y-78541428D01*
X117280000Y-78512857D01*
X117308571Y-78484285D01*
X116794285Y-77941428D02*
X116594285Y-78541428D01*
X116394285Y-77941428D01*
X120154285Y-78028571D02*
X120125714Y-78000000D01*
X120068571Y-77971428D01*
X119925714Y-77971428D01*
X119868571Y-78000000D01*
X119840000Y-78028571D01*
X119811428Y-78085714D01*
X119811428Y-78142857D01*
X119840000Y-78228571D01*
X120182857Y-78571428D01*
X119811428Y-78571428D01*
X119297142Y-78171428D02*
X119297142Y-78571428D01*
X119440000Y-77942857D02*
X119582857Y-78371428D01*
X119211428Y-78371428D01*
X119068571Y-77971428D02*
X118868571Y-78571428D01*
X118668571Y-77971428D01*
G04 #@! TO.C,TP6*
X109310000Y-90583333D02*
X109210000Y-90616666D01*
X109043333Y-90616666D01*
X108976666Y-90583333D01*
X108943333Y-90550000D01*
X108910000Y-90483333D01*
X108910000Y-90416666D01*
X108943333Y-90350000D01*
X108976666Y-90316666D01*
X109043333Y-90283333D01*
X109176666Y-90250000D01*
X109243333Y-90216666D01*
X109276666Y-90183333D01*
X109310000Y-90116666D01*
X109310000Y-90050000D01*
X109276666Y-89983333D01*
X109243333Y-89950000D01*
X109176666Y-89916666D01*
X109010000Y-89916666D01*
X108910000Y-89950000D01*
X108610000Y-90616666D02*
X108610000Y-89916666D01*
X108443333Y-89916666D01*
X108343333Y-89950000D01*
X108276666Y-90016666D01*
X108243333Y-90083333D01*
X108210000Y-90216666D01*
X108210000Y-90316666D01*
X108243333Y-90450000D01*
X108276666Y-90516666D01*
X108343333Y-90583333D01*
X108443333Y-90616666D01*
X108610000Y-90616666D01*
X107943333Y-90416666D02*
X107610000Y-90416666D01*
X108010000Y-90616666D02*
X107776666Y-89916666D01*
X107543333Y-90616666D01*
G04 #@! TO.C,J10*
X115159990Y-65421625D02*
X115155626Y-65921606D01*
X115188086Y-66021893D01*
X115254168Y-66089139D01*
X115353874Y-66123343D01*
X115420538Y-66123925D01*
X114453908Y-66115490D02*
X114853893Y-66118980D01*
X114653900Y-66117235D02*
X114660009Y-65417262D01*
X114725800Y-65517839D01*
X114791883Y-65585085D01*
X114858256Y-65618999D01*
X114026700Y-65411735D02*
X113960035Y-65411153D01*
X113893080Y-65443903D01*
X113859457Y-65476944D01*
X113825544Y-65543318D01*
X113791048Y-65676355D01*
X113789594Y-65843015D01*
X113821762Y-65976635D01*
X113854512Y-66043590D01*
X113887554Y-66077212D01*
X113953927Y-66111126D01*
X114020591Y-66111708D01*
X114087546Y-66078958D01*
X114121169Y-66045917D01*
X114155083Y-65979543D01*
X114189578Y-65846506D01*
X114191033Y-65679846D01*
X114158864Y-65546227D01*
X114126114Y-65479272D01*
X114093073Y-65445649D01*
X114026700Y-65411735D01*
G04 #@! TO.C,J1*
X131373349Y-93079223D02*
X131182007Y-93541163D01*
X131174535Y-93646307D01*
X131210614Y-93733412D01*
X131290246Y-93802476D01*
X131351838Y-93827988D01*
X130458755Y-93458061D02*
X130828306Y-93611134D01*
X130643531Y-93534597D02*
X130911409Y-92887882D01*
X130934733Y-93005782D01*
X130970812Y-93092886D01*
X131019648Y-93149194D01*
X129257712Y-92960572D02*
X129525590Y-92313857D01*
X129279223Y-92211808D01*
X129204874Y-92217091D01*
X129161322Y-92235131D01*
X129105014Y-92283967D01*
X129066746Y-92376355D01*
X129072030Y-92450703D01*
X129090069Y-92494255D01*
X129138905Y-92550563D01*
X129385273Y-92652612D01*
X128266957Y-92478028D02*
X128284997Y-92521581D01*
X128364628Y-92590645D01*
X128426220Y-92616157D01*
X128531365Y-92623629D01*
X128618469Y-92587550D01*
X128674777Y-92538714D01*
X128756597Y-92428286D01*
X128794866Y-92335898D01*
X128815094Y-92199958D01*
X128809810Y-92125610D01*
X128773731Y-92038506D01*
X128694099Y-91969441D01*
X128632507Y-91943929D01*
X128527363Y-91936457D01*
X128483811Y-91954497D01*
X127889026Y-91996767D02*
X128104598Y-92086060D01*
X127964281Y-92424815D02*
X128232159Y-91778100D01*
X127924199Y-91650539D01*
G04 #@! TO.C,U7*
X115023333Y-73606666D02*
X115023333Y-74173333D01*
X114990000Y-74240000D01*
X114956666Y-74273333D01*
X114890000Y-74306666D01*
X114756666Y-74306666D01*
X114690000Y-74273333D01*
X114656666Y-74240000D01*
X114623333Y-74173333D01*
X114623333Y-73606666D01*
X114356666Y-73606666D02*
X113890000Y-73606666D01*
X114190000Y-74306666D01*
G04 #@! TO.C,R32*
X114173333Y-81880000D02*
X114506666Y-82113333D01*
X114173333Y-82280000D02*
X114873333Y-82280000D01*
X114873333Y-82013333D01*
X114840000Y-81946666D01*
X114806666Y-81913333D01*
X114740000Y-81880000D01*
X114640000Y-81880000D01*
X114573333Y-81913333D01*
X114540000Y-81946666D01*
X114506666Y-82013333D01*
X114506666Y-82280000D01*
X114873333Y-81646666D02*
X114873333Y-81213333D01*
X114606666Y-81446666D01*
X114606666Y-81346666D01*
X114573333Y-81280000D01*
X114540000Y-81246666D01*
X114473333Y-81213333D01*
X114306666Y-81213333D01*
X114240000Y-81246666D01*
X114206666Y-81280000D01*
X114173333Y-81346666D01*
X114173333Y-81546666D01*
X114206666Y-81613333D01*
X114240000Y-81646666D01*
X114806666Y-80946666D02*
X114840000Y-80913333D01*
X114873333Y-80846666D01*
X114873333Y-80680000D01*
X114840000Y-80613333D01*
X114806666Y-80580000D01*
X114740000Y-80546666D01*
X114673333Y-80546666D01*
X114573333Y-80580000D01*
X114173333Y-80980000D01*
X114173333Y-80546666D01*
G04 #@! TO.C,TP1*
X104033333Y-89950000D02*
X104100000Y-89916666D01*
X104200000Y-89916666D01*
X104300000Y-89950000D01*
X104366666Y-90016666D01*
X104400000Y-90083333D01*
X104433333Y-90216666D01*
X104433333Y-90316666D01*
X104400000Y-90450000D01*
X104366666Y-90516666D01*
X104300000Y-90583333D01*
X104200000Y-90616666D01*
X104133333Y-90616666D01*
X104033333Y-90583333D01*
X104000000Y-90550000D01*
X104000000Y-90316666D01*
X104133333Y-90316666D01*
X103700000Y-90616666D02*
X103700000Y-89916666D01*
X103300000Y-90616666D01*
X103300000Y-89916666D01*
X102966666Y-90616666D02*
X102966666Y-89916666D01*
X102800000Y-89916666D01*
X102700000Y-89950000D01*
X102633333Y-90016666D01*
X102600000Y-90083333D01*
X102566666Y-90216666D01*
X102566666Y-90316666D01*
X102600000Y-90450000D01*
X102633333Y-90516666D01*
X102700000Y-90583333D01*
X102800000Y-90616666D01*
X102966666Y-90616666D01*
D12*
G04 #@! TO.C,JP1*
X96100000Y-92800000D02*
X98900000Y-92800000D01*
X95450000Y-91500000D02*
X95450000Y-92100000D01*
X98900000Y-90800000D02*
X96100000Y-90800000D01*
X99550000Y-92100000D02*
X99550000Y-91500000D01*
X95450000Y-92100000D02*
G75*
G03*
X96150000Y-92800000I699999J-1D01*
G01*
X99550000Y-91500000D02*
G75*
G03*
X98850000Y-90800000I-699999J1D01*
G01*
X96150000Y-90800000D02*
G75*
G03*
X95450000Y-91500000I-1J-699999D01*
G01*
X98850000Y-92800000D02*
G75*
G03*
X99550000Y-92100000I1J699999D01*
G01*
G04 #@! TO.C,TP7*
X106700000Y-88750000D02*
G75*
G03*
X106700000Y-88750000I-700000J0D01*
G01*
G04 #@! TO.C,TP5*
X101700000Y-88750000D02*
G75*
G03*
X101700000Y-88750000I-700000J0D01*
G01*
G04 #@! TO.C,J8*
X91699262Y-72880840D02*
X91237322Y-72689499D01*
X90168528Y-76576359D02*
X89706588Y-76385017D01*
X93395571Y-70379594D02*
X89522815Y-79729255D01*
X90895627Y-74820987D02*
X90433687Y-74629646D01*
X85162104Y-77922989D02*
X89034860Y-68573328D01*
X86705340Y-75791294D02*
X86141773Y-75557857D01*
X88055190Y-70938460D02*
X88618757Y-71171897D01*
X89364990Y-69370332D02*
X92598568Y-70709724D01*
X88268949Y-70161088D02*
X88383754Y-69883924D01*
X86372386Y-78424304D02*
X86605823Y-77860738D01*
X90933895Y-74728600D02*
X90471955Y-74537258D01*
X92598568Y-70709724D02*
X89192685Y-78932251D01*
X89706588Y-76385017D02*
X89630052Y-76569793D01*
X90245142Y-69074643D02*
X90011705Y-69638210D01*
X88394147Y-69336209D02*
X88872501Y-68181359D01*
X91160785Y-72874275D02*
X91622725Y-73065616D01*
X88361337Y-70199356D02*
X88176561Y-70122819D01*
X91660993Y-72973228D02*
X91199054Y-72781887D01*
X85959107Y-77592859D02*
X86705340Y-75791294D01*
X89034860Y-68573328D02*
X93395571Y-70379594D01*
X89630052Y-76569793D02*
X90091991Y-76761135D01*
X89192685Y-78932251D02*
X85959107Y-77592859D01*
X91237322Y-72689499D02*
X91160785Y-72874275D01*
X88872501Y-68181359D02*
X90027351Y-68659714D01*
X88291366Y-69845656D02*
X88476142Y-69922192D01*
X87573429Y-78921793D02*
X87806866Y-78358226D01*
X88618757Y-71171897D02*
X89364990Y-69370332D01*
X90130260Y-76668747D02*
X89668320Y-76477405D01*
X90395419Y-74722034D02*
X90857358Y-74913375D01*
X89522815Y-79729255D02*
X85162104Y-77922989D01*
X88176561Y-70122819D02*
X88291366Y-69845656D01*
X90471955Y-74537258D02*
X90395419Y-74722034D01*
X91446185Y-69572132D02*
X91212749Y-70135698D01*
G04 #@! TO.C,TP2*
X124675000Y-76725000D02*
G75*
G03*
X124675000Y-76725000I-700000J0D01*
G01*
G04 #@! TO.C,R35*
X107980000Y-93153641D02*
X107980000Y-92846359D01*
X107220000Y-93153641D02*
X107220000Y-92846359D01*
G04 #@! TO.C,TP3*
X122175000Y-76725000D02*
G75*
G03*
X122175000Y-76725000I-700000J0D01*
G01*
G04 #@! TO.C,TP4*
X127175000Y-76725000D02*
G75*
G03*
X127175000Y-76725000I-700000J0D01*
G01*
G04 #@! TO.C,J2*
X87409959Y-86577258D02*
X87643396Y-87140825D01*
X89029215Y-86566800D02*
X90904364Y-91093809D01*
X86208915Y-87074747D02*
X86442352Y-87638313D01*
X88550938Y-92728890D02*
X88317501Y-92165323D01*
X86924553Y-90631636D02*
X86360986Y-90865073D01*
X84998633Y-87576062D02*
X89359345Y-85769796D01*
X90904364Y-91093809D02*
X87670785Y-92433202D01*
X86541869Y-89707757D02*
X85795637Y-87906192D01*
X85795637Y-87906192D02*
X89029215Y-86566800D01*
X85978303Y-89941194D02*
X86541869Y-89707757D01*
X91701367Y-91423939D02*
X87340656Y-93230205D01*
X87670785Y-92433202D02*
X86924553Y-90631636D01*
X89359345Y-85769796D02*
X91701367Y-91423939D01*
X89751981Y-92231401D02*
X89518544Y-91667835D01*
X87340656Y-93230205D02*
X84998633Y-87576062D01*
G04 #@! TO.C,R26*
X115065000Y-79603641D02*
X115065000Y-79296359D01*
X115825000Y-79603641D02*
X115825000Y-79296359D01*
G04 #@! TO.C,R33*
X112220000Y-79603641D02*
X112220000Y-79296359D01*
X112980000Y-79603641D02*
X112980000Y-79296359D01*
G04 #@! TO.C,R34*
X108980000Y-93153641D02*
X108980000Y-92846359D01*
X108220000Y-93153641D02*
X108220000Y-92846359D01*
G04 #@! TO.C,JP2*
X116125000Y-76425000D02*
X116125000Y-77025000D01*
X119575000Y-75725000D02*
X116775000Y-75725000D01*
X116775000Y-77725000D02*
X119575000Y-77725000D01*
X120225000Y-77025000D02*
X120225000Y-76425000D01*
X120225000Y-76425000D02*
G75*
G03*
X119525000Y-75725000I-699999J1D01*
G01*
X116825000Y-75725000D02*
G75*
G03*
X116125000Y-76425000I-1J-699999D01*
G01*
X119525000Y-77725000D02*
G75*
G03*
X120225000Y-77025000I1J699999D01*
G01*
X116125000Y-77025000D02*
G75*
G03*
X116825000Y-77725000I699999J-1D01*
G01*
G04 #@! TO.C,TP6*
X109160000Y-88750000D02*
G75*
G03*
X109160000Y-88750000I-700000J0D01*
G01*
G04 #@! TO.C,J10*
X122947733Y-69954069D02*
X123171410Y-69622454D01*
X115611760Y-67382143D02*
X114504559Y-69023637D01*
X121846123Y-71587273D02*
X120738921Y-73228768D01*
X116155449Y-70957405D02*
X115782382Y-70705768D01*
X116034019Y-70332702D02*
X115782382Y-70705768D01*
X120738921Y-73228768D02*
X120390725Y-72993907D01*
X116937048Y-65417324D02*
X116713370Y-65748939D01*
X114504559Y-69023637D02*
X114852754Y-69258498D01*
G04 #@! TO.C,J1*
X134715917Y-87561706D02*
X132373894Y-93215849D01*
X133353564Y-90850717D02*
X132789997Y-90617280D01*
X132304591Y-86562902D02*
X132071154Y-87126469D01*
X128013183Y-91409583D02*
X130355205Y-85755440D01*
X130355205Y-85755440D02*
X134715917Y-87561706D01*
X129962569Y-92217045D02*
X130196005Y-91653479D01*
X128810186Y-91079453D02*
X130685335Y-86552444D01*
X132789997Y-90617280D02*
X132043764Y-92418845D01*
X132043764Y-92418845D02*
X128810186Y-91079453D01*
X132373894Y-93215849D02*
X128013183Y-91409583D01*
X133172681Y-89693401D02*
X133736247Y-89926838D01*
X133918913Y-87891836D02*
X133172681Y-89693401D01*
X130685335Y-86552444D02*
X133918913Y-87891836D01*
X131163612Y-92714534D02*
X131397049Y-92150967D01*
X133505635Y-87060391D02*
X133272198Y-87623957D01*
G04 #@! TO.C,U7*
X111985000Y-76475000D02*
X111985000Y-75675000D01*
X111985000Y-76475000D02*
X111985000Y-77275000D01*
X115105000Y-76475000D02*
X115105000Y-75675000D01*
X115105000Y-76475000D02*
X115105000Y-78275000D01*
G04 #@! TO.C,R32*
X114120000Y-79603641D02*
X114120000Y-79296359D01*
X114880000Y-79603641D02*
X114880000Y-79296359D01*
G04 #@! TO.C,TP1*
X104200000Y-88750000D02*
G75*
G03*
X104200000Y-88750000I-700000J0D01*
G01*
G04 #@! TD*
M02*
