M48
; DRILL file {KiCad (6.0.0)} date Fri Mar  4 12:47:46 2022
; FORMAT={-:-/ absolute / metric / decimal}
; #@! TF.CreationDate,2022-03-04T12:47:46+01:00
; #@! TF.GenerationSoftware,Kicad,Pcbnew,(6.0.0)
; #@! TF.FileFunction,MixedPlating,1,4
FMAT,2
METRIC
; #@! TA.AperFunction,Plated,PTH,ViaDrill
T1C0.200
; #@! TA.AperFunction,Plated,PTH,ComponentDrill
T2C0.500
; #@! TA.AperFunction,Plated,PTH,ComponentDrill
T3C0.550
; #@! TA.AperFunction,Plated,PTH,ComponentDrill
T4C0.650
; #@! TA.AperFunction,Plated,PTH,ComponentDrill
T5C0.750
; #@! TA.AperFunction,Plated,PTH,ComponentDrill
T6C1.020
; #@! TA.AperFunction,Plated,PTH,ComponentDrill
T7C3.200
; #@! TA.AperFunction,NonPlated,NPTH,ComponentDrill
T8C3.000
%
G90
G05
T1
X84.875Y-85.0
X84.925Y-80.35
X85.125Y-86.525
X85.15Y-78.6
X85.425Y-87.875
X85.525Y-76.75
X85.775Y-89.375
X86.0Y-75.025
X86.275Y-90.925
X86.65Y-73.275
X87.4Y-71.6
X87.4Y-92.74
X88.35Y-69.975
X89.35Y-68.35
X89.9Y-93.5
X90.375Y-66.95
X92.025Y-93.5
X93.72Y-84.23
X93.72Y-85.23
X93.725Y-93.55
X94.831Y-76.98
X95.214Y-76.056
X95.478Y-77.248
X95.655Y-81.001
X95.861Y-76.324
X95.923Y-80.354
X96.696Y-78.792
X97.27Y-77.406
X97.676Y-78.386
X97.844Y-76.02
X97.85Y-65.275
X98.082Y-79.366
X98.225Y-82.198
X98.25Y-77.0
X98.372Y-74.441
X98.61Y-69.25
X98.61Y-70.05
X98.64Y-73.795
X98.975Y-97.275
X99.062Y-78.96
X99.23Y-76.594
X99.34Y-69.25
X99.34Y-70.05
X99.468Y-79.94
X99.6Y-93.625
X99.6Y-94.425
X99.636Y-77.574
X99.77Y-66.01
X100.04Y-82.56
X100.042Y-78.554
X100.123Y-75.184
X100.4Y-94.425
X100.425Y-98.25
X100.575Y-68.0
X100.616Y-77.168
X101.198Y-75.65
X101.279Y-72.196
X102.075Y-71.55
X102.2Y-85.8
X102.358Y-72.2
X102.38Y-83.01
X102.42Y-66.14
X102.7Y-99.425
X102.86Y-70.96
X102.948Y-86.3
X103.1Y-91.67
X103.1Y-92.6
X103.42Y-84.69
X103.45Y-77.9
X103.45Y-82.38
X103.527Y-75.928
X103.95Y-65.4
X104.115Y-97.585
X104.15Y-76.4
X104.25Y-100.025
X104.4Y-80.65
X104.5Y-71.75
X104.577Y-72.818
X104.6Y-84.26
X104.925Y-64.075
X104.96Y-76.051
X105.0Y-60.425
X105.0Y-62.325
X105.06Y-86.8
X105.34Y-74.485
X105.45Y-80.152
X105.593Y-71.802
X105.593Y-72.818
X105.6Y-90.797
X105.684Y-78.096
X105.7Y-85.025
X105.73Y-85.8
X105.925Y-59.025
X105.95Y-81.25
X106.472Y-100.616
X106.59Y-86.3
X106.8Y-89.8
X106.95Y-80.75
X106.98Y-97.265
X107.44Y-84.98
X107.65Y-58.9
X107.8Y-97.89
X107.825Y-76.075
X107.825Y-76.725
X107.85Y-78.025
X107.9Y-80.75
X107.95Y-86.8
X107.95Y-91.12
X108.125Y-100.875
X108.45Y-90.77
X108.508Y-80.754
X108.64Y-87.79
X108.96Y-84.977
X108.998Y-86.625
X109.425Y-58.875
X109.45Y-90.775
X109.825Y-67.825
X109.95Y-91.125
X110.231Y-88.82
X110.34Y-97.4
X110.35Y-94.475
X110.443Y-90.775
X110.7Y-80.61
X110.7Y-100.8
X110.85Y-97.9
X110.93Y-88.82
X110.94Y-76.54
X110.94Y-77.56
X110.95Y-91.123
X110.95Y-93.32
X110.975Y-78.4
X110.975Y-79.175
X111.14Y-98.94
X111.228Y-85.55
X111.3Y-58.875
X111.4Y-84.85
X111.4Y-86.3
X111.85Y-80.925
X112.0Y-91.4
X112.14Y-84.04
X112.475Y-80.925
X112.575Y-100.725
X112.615Y-76.448
X112.9Y-95.261
X113.1Y-91.4
X113.225Y-58.875
X113.72Y-78.75
X114.19Y-92.32
X114.38Y-81.42
X114.425Y-59.6
X114.45Y-100.35
X114.675Y-61.225
X114.675Y-62.925
X114.85Y-64.35
X115.33Y-80.73
X115.47Y-78.02
X115.525Y-77.075
X115.69Y-74.76
X115.69Y-75.34
X115.95Y-65.575
X116.07Y-78.02
X116.129Y-81.575
X116.175Y-70.95
X116.3Y-99.51
X116.95Y-93.17
X117.29Y-75.56
X117.375Y-72.575
X117.75Y-95.75
X117.75Y-99.075
X118.41Y-66.76
X119.425Y-99.15
X119.97Y-67.62
X120.825Y-99.7
X121.35Y-95.85
X121.91Y-69.19
X122.225Y-100.275
X122.71Y-94.71
X123.375Y-70.5
X124.625Y-72.125
X125.525Y-73.425
X126.35Y-94.132
X126.51Y-75.33
X127.425Y-77.225
X128.8Y-78.075
X128.95Y-98.825
X129.875Y-97.65
X130.5Y-78.75
X130.875Y-96.225
X131.675Y-94.925
X132.325Y-93.675
X133.0Y-92.075
X133.65Y-90.425
X134.075Y-88.875
X134.5Y-87.0
X134.75Y-85.425
T2
X85.528Y-82.66
X86.231Y-80.963
X86.231Y-84.357
X87.928Y-80.26
X87.928Y-85.06
X89.625Y-80.963
X89.625Y-84.357
X90.328Y-82.66
X91.948Y-67.16
X92.651Y-65.463
X92.651Y-68.857
X94.348Y-64.76
X94.348Y-69.56
X96.045Y-65.463
X96.045Y-68.857
X96.748Y-67.16
X122.948Y-98.16
X123.651Y-96.463
X123.651Y-99.857
X125.348Y-95.76
X125.348Y-100.56
X127.045Y-96.463
X127.045Y-99.857
X127.748Y-98.16
X129.368Y-82.66
X130.071Y-80.963
X130.071Y-84.357
X131.768Y-80.26
X131.768Y-85.06
X133.465Y-80.963
X133.465Y-84.357
X134.168Y-82.66
T4
X104.32Y-95.2
X105.59Y-95.2
X106.86Y-95.2
X108.13Y-95.2
X109.4Y-95.2
T5
X87.459Y-88.787
X87.623Y-76.712
X88.225Y-90.634
X88.388Y-74.865
X89.153Y-73.017
X89.919Y-71.169
X115.4Y-95.75
X115.4Y-97.75
X118.175Y-74.5
X120.175Y-74.5
X120.25Y-79.4
X120.25Y-81.4
X120.25Y-83.4
X120.25Y-87.7
X120.25Y-89.7
X120.25Y-91.7
X125.15Y-79.4
X125.15Y-81.4
X125.15Y-83.4
X125.15Y-87.7
X125.15Y-89.7
X125.15Y-91.7
X131.49Y-90.62
X132.255Y-88.772
T6
X97.325Y-86.475
X100.097Y-85.327
X108.35Y-65.485
X108.35Y-68.485
X111.35Y-65.485
X111.35Y-68.485
T7
X87.928Y-82.66
X94.348Y-67.16
X125.348Y-98.16
X131.768Y-82.66
T8
X93.334Y-88.128
X109.85Y-61.165
T2
X116.557Y-66.446G85X116.194Y-66.985
G05
X122.36Y-70.36G85X121.997Y-70.899
G05
T3
X115.57Y-69.429G85X115.819Y-69.597
G05
X119.715Y-72.225G85X119.964Y-72.393
G05
T0
M30
