G04 #@! TF.GenerationSoftware,KiCad,Pcbnew,(6.0.0)*
G04 #@! TF.CreationDate,2022-02-27T12:15:01+01:00*
G04 #@! TF.ProjectId,MiniAB-CAN-Board,4d696e69-4142-42d4-9341-4e2d426f6172,1*
G04 #@! TF.SameCoordinates,Original*
G04 #@! TF.FileFunction,Profile,NP*
%FSLAX46Y46*%
G04 Gerber Fmt 4.6, Leading zero omitted, Abs format (unit mm)*
G04 Created by KiCad (PCBNEW (6.0.0)) date 2022-02-27 12:15:01*
%MOMM*%
%LPD*%
G01*
G04 APERTURE LIST*
G04 #@! TA.AperFunction,Profile*
%ADD10C,0.100000*%
G04 #@! TD*
G04 APERTURE END LIST*
D10*
X95664697Y-94782823D02*
G75*
G03*
X117719860Y-99576209I14183201J12122836D01*
G01*
X127375790Y-76264732D02*
G75*
G03*
X128489270Y-77426972I1878849J685522D01*
G01*
X115172898Y-63344107D02*
G75*
G03*
X116463735Y-65214157I1999998J-1D01*
G01*
X128489270Y-77426972D02*
X133137905Y-79352499D01*
X115172898Y-60419988D02*
G75*
G03*
X113172898Y-58419988I-1999999J1D01*
G01*
X127879121Y-100691211D02*
G75*
G03*
X135347898Y-82659988I-18031227J18031225D01*
G01*
X103232061Y-65214157D02*
G75*
G03*
X104522898Y-63344107I-709161J1870049D01*
G01*
X106522898Y-58419988D02*
X113172898Y-58419988D01*
X123977672Y-101467257D02*
G75*
G03*
X127879121Y-100691211I1370007J3307487D01*
G01*
X94214972Y-94083538D02*
X89367651Y-93912325D01*
X123977672Y-101467257D02*
X119329037Y-99541730D01*
X104522898Y-63344107D02*
X104522898Y-60419988D01*
X91816675Y-64628765D02*
G75*
G03*
X85885736Y-91381502I18031225J-18031224D01*
G01*
X95664697Y-94782823D02*
G75*
G03*
X94214972Y-94083538I-1520321J-1299465D01*
G01*
X106522898Y-58419988D02*
G75*
G03*
X104522898Y-60419988I-1J-1999999D01*
G01*
X135347898Y-82659988D02*
G75*
G03*
X133137905Y-79352499I-3580003J-2D01*
G01*
X101975936Y-65743767D02*
X103232061Y-65214157D01*
X85885736Y-91381502D02*
G75*
G03*
X89367651Y-93912325I3617818J1316780D01*
G01*
X127375790Y-76264732D02*
G75*
G03*
X116463735Y-65214157I-17527895J-6395258D01*
G01*
X95718124Y-63852719D02*
G75*
G03*
X91816675Y-64628765I-1370007J-3307487D01*
G01*
X95718124Y-63852719D02*
X100366759Y-65778246D01*
X100366759Y-65778246D02*
G75*
G03*
X101975936Y-65743767I765367J1847759D01*
G01*
X115172898Y-60419988D02*
X115172898Y-63344107D01*
X119329037Y-99541730D02*
G75*
G03*
X117719860Y-99576209I-765367J-1847759D01*
G01*
M02*
