G04 #@! TF.GenerationSoftware,KiCad,Pcbnew,(6.0.0)*
G04 #@! TF.CreationDate,2022-02-27T12:15:00+01:00*
G04 #@! TF.ProjectId,MiniAB-CAN-Board,4d696e69-4142-42d4-9341-4e2d426f6172,1*
G04 #@! TF.SameCoordinates,Original*
G04 #@! TF.FileFunction,Soldermask,Top*
G04 #@! TF.FilePolarity,Negative*
%FSLAX46Y46*%
G04 Gerber Fmt 4.6, Leading zero omitted, Abs format (unit mm)*
G04 Created by KiCad (PCBNEW (6.0.0)) date 2022-02-27 12:15:00*
%MOMM*%
%LPD*%
G01*
G04 APERTURE LIST*
G04 Aperture macros list*
%AMRoundRect*
0 Rectangle with rounded corners*
0 $1 Rounding radius*
0 $2 $3 $4 $5 $6 $7 $8 $9 X,Y pos of 4 corners*
0 Add a 4 corners polygon primitive as box body*
4,1,4,$2,$3,$4,$5,$6,$7,$8,$9,$2,$3,0*
0 Add four circle primitives for the rounded corners*
1,1,$1+$1,$2,$3*
1,1,$1+$1,$4,$5*
1,1,$1+$1,$6,$7*
1,1,$1+$1,$8,$9*
0 Add four rect primitives between the rounded corners*
20,1,$1+$1,$2,$3,$4,$5,0*
20,1,$1+$1,$4,$5,$6,$7,0*
20,1,$1+$1,$6,$7,$8,$9,0*
20,1,$1+$1,$8,$9,$2,$3,0*%
%AMHorizOval*
0 Thick line with rounded ends*
0 $1 width*
0 $2 $3 position (X,Y) of the first rounded end (center of the circle)*
0 $4 $5 position (X,Y) of the second rounded end (center of the circle)*
0 Add line between two ends*
20,1,$1,$2,$3,$4,$5,0*
0 Add two circle primitives to create the rounded ends*
1,1,$1,$2,$3*
1,1,$1,$4,$5*%
%AMRotRect*
0 Rectangle, with rotation*
0 The origin of the aperture is its center*
0 $1 length*
0 $2 width*
0 $3 Rotation angle, in degrees counterclockwise*
0 Add horizontal line*
21,1,$1,$2,0,0,$3*%
%AMFreePoly0*
4,1,44,0.261769,0.149538,0.273465,0.148153,0.285017,0.145855,0.296353,0.142658,0.307403,0.138582,0.318099,0.133651,0.328375,0.127896,0.338168,0.121353,0.347417,0.114061,0.356066,0.106066,0.364061,0.097417,0.371353,0.088168,0.377896,0.078375,0.383651,0.068099,0.388582,0.057403,0.392658,0.046353,0.395855,0.035017,0.398153,0.023465,0.399538,0.011769,0.400000,0.000000,
0.399538,-0.011769,0.398153,-0.023465,0.395855,-0.035017,0.392658,-0.046353,0.388582,-0.057403,0.383651,-0.068099,0.377896,-0.078375,0.371353,-0.088168,0.364061,-0.097417,0.356066,-0.106066,0.347417,-0.114061,0.338168,-0.121353,0.328375,-0.127896,0.318099,-0.133651,0.307403,-0.138582,0.296353,-0.142658,0.285017,-0.145855,0.273465,-0.148153,0.261769,-0.149538,0.250000,-0.150000,
-0.400000,-0.150000,-0.400000,0.150000,0.250000,0.150000,0.261769,0.149538,0.261769,0.149538,$1*%
%AMFreePoly1*
4,1,44,0.011769,0.399538,0.023465,0.398153,0.035017,0.395855,0.046353,0.392658,0.057403,0.388582,0.068099,0.383651,0.078375,0.377896,0.088168,0.371353,0.097417,0.364061,0.106066,0.356066,0.114061,0.347417,0.121353,0.338168,0.127896,0.328375,0.133651,0.318099,0.138582,0.307403,0.142658,0.296353,0.145855,0.285017,0.148153,0.273465,0.149538,0.261769,0.150000,0.250000,
0.150000,-0.400000,-0.150000,-0.400000,-0.150000,0.250000,-0.149538,0.261769,-0.148153,0.273465,-0.145855,0.285017,-0.142658,0.296353,-0.138582,0.307403,-0.133651,0.318099,-0.127896,0.328375,-0.121353,0.338168,-0.114061,0.347417,-0.106066,0.356066,-0.097417,0.364061,-0.088168,0.371353,-0.078375,0.377896,-0.068099,0.383651,-0.057403,0.388582,-0.046353,0.392658,-0.035017,0.395855,
-0.023465,0.398153,-0.011769,0.399538,0.000000,0.400000,0.011769,0.399538,0.011769,0.399538,$1*%
%AMFreePoly2*
4,1,44,0.400000,-0.150000,-0.250000,-0.150000,-0.261769,-0.149538,-0.273465,-0.148153,-0.285017,-0.145855,-0.296353,-0.142658,-0.307403,-0.138582,-0.318099,-0.133651,-0.328375,-0.127896,-0.338168,-0.121353,-0.347417,-0.114061,-0.356066,-0.106066,-0.364061,-0.097417,-0.371353,-0.088168,-0.377896,-0.078375,-0.383651,-0.068099,-0.388582,-0.057403,-0.392658,-0.046353,-0.395855,-0.035017,-0.398153,-0.023465,
-0.399538,-0.011769,-0.400000,0.000000,-0.399538,0.011769,-0.398153,0.023465,-0.395855,0.035017,-0.392658,0.046353,-0.388582,0.057403,-0.383651,0.068099,-0.377896,0.078375,-0.371353,0.088168,-0.364061,0.097417,-0.356066,0.106066,-0.347417,0.114061,-0.338168,0.121353,-0.328375,0.127896,-0.318099,0.133651,-0.307403,0.138582,-0.296353,0.142658,-0.285017,0.145855,-0.273465,0.148153,
-0.261769,0.149538,-0.250000,0.150000,0.400000,0.150000,0.400000,-0.150000,0.400000,-0.150000,$1*%
%AMFreePoly3*
4,1,44,0.150000,-0.250000,0.149538,-0.261769,0.148153,-0.273465,0.145855,-0.285017,0.142658,-0.296353,0.138582,-0.307403,0.133651,-0.318099,0.127896,-0.328375,0.121353,-0.338168,0.114061,-0.347417,0.106066,-0.356066,0.097417,-0.364061,0.088168,-0.371353,0.078375,-0.377896,0.068099,-0.383651,0.057403,-0.388582,0.046353,-0.392658,0.035017,-0.395855,0.023465,-0.398153,0.011769,-0.399538,
0.000000,-0.400000,-0.011769,-0.399538,-0.023465,-0.398153,-0.035017,-0.395855,-0.046353,-0.392658,-0.057403,-0.388582,-0.068099,-0.383651,-0.078375,-0.377896,-0.088168,-0.371353,-0.097417,-0.364061,-0.106066,-0.356066,-0.114061,-0.347417,-0.121353,-0.338168,-0.127896,-0.328375,-0.133651,-0.318099,-0.138582,-0.307403,-0.142658,-0.296353,-0.145855,-0.285017,-0.148153,-0.273465,-0.149538,-0.261769,
-0.150000,-0.250000,-0.150000,0.400000,0.150000,0.400000,0.150000,-0.250000,0.150000,-0.250000,$1*%
%AMFreePoly4*
4,1,13,1.100000,0.175000,0.750000,0.175000,0.750000,-0.175000,1.100000,-0.175000,1.100000,-0.475000,-1.100000,-0.475000,-1.100000,-0.175000,-0.750000,-0.175000,-0.750000,0.175000,-1.100000,0.175000,-1.100000,0.475000,1.100000,0.475000,1.100000,0.175000,1.100000,0.175000,$1*%
%AMFreePoly5*
4,1,43,1.580355,1.210355,1.595000,1.175000,1.595000,0.775000,1.580355,0.739645,1.545000,0.725000,0.975000,0.725000,0.975000,0.575000,1.545000,0.575000,1.580355,0.560355,1.595000,0.525000,1.595000,0.125000,1.580355,0.089645,1.545000,0.075000,0.975000,0.075000,0.975000,-0.075000,1.545000,-0.075000,1.580355,-0.089645,1.595000,-0.125000,1.595000,-0.525000,1.580355,-0.560355,
1.545000,-0.575000,0.975000,-0.575000,0.975000,-0.725000,1.545000,-0.725000,1.580355,-0.739645,1.595000,-0.775000,1.595000,-1.175000,1.580355,-1.210355,1.545000,-1.225000,0.925000,-1.225000,0.889645,-1.210355,0.875000,-1.175000,-0.925000,-1.175000,-0.960355,-1.160355,-0.975000,-1.125000,-0.975000,1.125000,-0.960355,1.160355,-0.925000,1.175000,0.875000,1.175000,0.889645,1.210355,
0.925000,1.225000,1.545000,1.225000,1.580355,1.210355,1.580355,1.210355,$1*%
G04 Aperture macros list end*
%ADD10R,1.200000X1.400000*%
%ADD11RoundRect,0.140000X0.194399X0.103484X-0.064287X0.210635X-0.194399X-0.103484X0.064287X-0.210635X0*%
%ADD12RoundRect,0.250000X0.412745X0.343172X-0.049195X0.534514X-0.412745X-0.343172X0.049195X-0.534514X0*%
%ADD13RoundRect,0.135000X0.185000X-0.135000X0.185000X0.135000X-0.185000X0.135000X-0.185000X-0.135000X0*%
%ADD14C,0.800000*%
%ADD15C,6.400000*%
%ADD16RoundRect,0.250000X-0.625000X0.350000X-0.625000X-0.350000X0.625000X-0.350000X0.625000X0.350000X0*%
%ADD17O,1.750000X1.200000*%
%ADD18RoundRect,0.140000X0.170000X-0.140000X0.170000X0.140000X-0.170000X0.140000X-0.170000X-0.140000X0*%
%ADD19RoundRect,0.135000X-0.185000X0.135000X-0.185000X-0.135000X0.185000X-0.135000X0.185000X0.135000X0*%
%ADD20RoundRect,0.135000X-0.135000X-0.185000X0.135000X-0.185000X0.135000X0.185000X-0.135000X0.185000X0*%
%ADD21RoundRect,0.135000X0.135000X0.185000X-0.135000X0.185000X-0.135000X-0.185000X0.135000X-0.185000X0*%
%ADD22RoundRect,0.150000X-0.150000X0.512500X-0.150000X-0.512500X0.150000X-0.512500X0.150000X0.512500X0*%
%ADD23RoundRect,0.135000X0.077881X-0.215371X0.228863X0.008469X-0.077881X0.215371X-0.228863X-0.008469X0*%
%ADD24RoundRect,0.140000X-0.170000X0.140000X-0.170000X-0.140000X0.170000X-0.140000X0.170000X0.140000X0*%
%ADD25RoundRect,0.135000X0.195520X0.119255X-0.053927X0.222580X-0.195520X-0.119255X0.053927X-0.222580X0*%
%ADD26FreePoly0,270.000000*%
%ADD27FreePoly1,270.000000*%
%ADD28FreePoly2,270.000000*%
%ADD29FreePoly3,270.000000*%
%ADD30R,1.700000X1.700000*%
%ADD31RoundRect,0.140000X0.140000X0.170000X-0.140000X0.170000X-0.140000X-0.170000X0.140000X-0.170000X0*%
%ADD32RoundRect,0.250000X0.425000X-0.450000X0.425000X0.450000X-0.425000X0.450000X-0.425000X-0.450000X0*%
%ADD33RoundRect,0.147500X-0.147500X-0.172500X0.147500X-0.172500X0.147500X0.172500X-0.147500X0.172500X0*%
%ADD34RoundRect,0.140000X-0.140000X-0.170000X0.140000X-0.170000X0.140000X0.170000X-0.140000X0.170000X0*%
%ADD35RoundRect,0.147500X0.060528X-0.218744X0.225490X0.025822X-0.060528X0.218744X-0.225490X-0.025822X0*%
%ADD36RoundRect,0.250000X0.350000X0.625000X-0.350000X0.625000X-0.350000X-0.625000X0.350000X-0.625000X0*%
%ADD37O,1.200000X1.750000*%
%ADD38RoundRect,0.150000X0.150000X-0.512500X0.150000X0.512500X-0.150000X0.512500X-0.150000X-0.512500X0*%
%ADD39FreePoly4,270.000000*%
%ADD40R,0.300000X0.350000*%
%ADD41R,0.235000X0.870000*%
%ADD42RoundRect,0.075000X0.662500X0.075000X-0.662500X0.075000X-0.662500X-0.075000X0.662500X-0.075000X0*%
%ADD43RoundRect,0.075000X0.075000X0.662500X-0.075000X0.662500X-0.075000X-0.662500X0.075000X-0.662500X0*%
%ADD44RoundRect,0.147500X-0.202285X-0.102923X0.070259X-0.215815X0.202285X0.102923X-0.070259X0.215815X0*%
%ADD45R,0.900000X1.700000*%
%ADD46RoundRect,0.250000X-0.414726X-0.315291X0.070311X-0.516200X0.414726X0.315291X-0.070311X0.516200X0*%
%ADD47RotRect,0.254000X0.762000X157.500000*%
%ADD48RotRect,0.254000X0.762000X67.500000*%
%ADD49RotRect,3.810000X3.810000X67.500000*%
%ADD50R,1.000000X1.000000*%
%ADD51O,1.000000X1.000000*%
%ADD52RoundRect,0.250000X0.650000X-0.325000X0.650000X0.325000X-0.650000X0.325000X-0.650000X-0.325000X0*%
%ADD53C,3.000000*%
%ADD54RoundRect,0.250001X-0.499999X-0.499999X0.499999X-0.499999X0.499999X0.499999X-0.499999X0.499999X0*%
%ADD55C,1.500000*%
%ADD56RoundRect,0.250001X0.653280X-0.270598X0.270598X0.653280X-0.653280X0.270598X-0.270598X-0.653280X0*%
%ADD57RoundRect,0.140000X-0.194399X-0.103484X0.064287X-0.210635X0.194399X0.103484X-0.064287X0.210635X0*%
%ADD58RoundRect,0.200000X0.275000X-0.200000X0.275000X0.200000X-0.275000X0.200000X-0.275000X-0.200000X0*%
%ADD59RoundRect,0.250000X-0.650000X0.325000X-0.650000X-0.325000X0.650000X-0.325000X0.650000X0.325000X0*%
%ADD60RoundRect,0.050000X0.200000X-0.415000X0.200000X0.415000X-0.200000X0.415000X-0.200000X-0.415000X0*%
%ADD61FreePoly5,90.000000*%
%ADD62RoundRect,0.140000X0.103484X-0.194399X0.210635X0.064287X-0.103484X0.194399X-0.210635X-0.064287X0*%
%ADD63R,0.980000X3.400000*%
%ADD64R,0.450000X0.600000*%
%ADD65RoundRect,0.147500X0.147500X0.172500X-0.147500X0.172500X-0.147500X-0.172500X0.147500X-0.172500X0*%
%ADD66RoundRect,0.147500X0.172500X-0.147500X0.172500X0.147500X-0.172500X0.147500X-0.172500X-0.147500X0*%
%ADD67R,0.449200X1.117800*%
%ADD68R,0.813000X0.500000*%
%ADD69RoundRect,0.243750X-0.243750X-0.456250X0.243750X-0.456250X0.243750X0.456250X-0.243750X0.456250X0*%
%ADD70RoundRect,0.147500X-0.060528X0.218744X-0.225490X-0.025822X0.060528X-0.218744X0.225490X0.025822X0*%
%ADD71RoundRect,0.150000X0.150000X-0.587500X0.150000X0.587500X-0.150000X0.587500X-0.150000X-0.587500X0*%
%ADD72RoundRect,0.125000X-0.537500X-0.125000X0.537500X-0.125000X0.537500X0.125000X-0.537500X0.125000X0*%
%ADD73RoundRect,0.250000X-0.443486X0.562535X-0.711364X-0.084181X0.443486X-0.562535X0.711364X0.084181X0*%
%ADD74HorizOval,1.200000X-0.254067X0.105238X0.254067X-0.105238X0*%
%ADD75RoundRect,0.250000X-0.711364X0.084181X-0.443486X-0.562535X0.711364X-0.084181X0.443486X0.562535X0*%
%ADD76HorizOval,1.200000X-0.254067X-0.105238X0.254067X0.105238X0*%
%ADD77HorizOval,0.890000X-0.184534X-0.273582X0.184534X0.273582X0*%
%ADD78HorizOval,0.950000X0.124356X-0.083879X-0.124356X0.083879X0*%
%ADD79RoundRect,0.250000X0.443486X-0.562535X0.711364X0.084181X-0.443486X0.562535X-0.711364X-0.084181X0*%
G04 APERTURE END LIST*
D10*
X115750002Y-89899998D03*
X115750002Y-87699998D03*
X114050002Y-87699998D03*
X114050002Y-89899998D03*
D11*
X94575986Y-75845594D03*
X93689062Y-75478218D03*
D12*
X94455550Y-81153552D03*
X92700178Y-80426454D03*
D11*
X90626485Y-75779125D03*
X89739561Y-75411749D03*
D13*
X127500000Y-91610000D03*
X127500000Y-90590000D03*
D14*
X127747679Y-98159769D03*
X125347679Y-100559769D03*
X122947679Y-98159769D03*
X127044735Y-96462713D03*
X127044735Y-99856825D03*
X123650623Y-99856825D03*
X123650623Y-96462713D03*
X125347679Y-95759769D03*
D15*
X125347679Y-98159769D03*
D16*
X120250000Y-79400000D03*
D17*
X120250000Y-81400000D03*
X120250000Y-83400000D03*
D11*
X91391843Y-73931364D03*
X90504919Y-73563988D03*
D18*
X110700000Y-82400000D03*
X110700000Y-81440000D03*
D11*
X89861113Y-77626885D03*
X88974189Y-77259509D03*
D13*
X127500000Y-89750001D03*
X127500000Y-88730001D03*
D19*
X102580000Y-87540000D03*
X102580000Y-88560000D03*
D20*
X106915000Y-100040000D03*
X107935000Y-100040000D03*
D21*
X125935000Y-75900000D03*
X124915000Y-75900000D03*
D22*
X113549998Y-75362499D03*
X112599998Y-75362499D03*
X111649998Y-75362499D03*
X111649998Y-77637499D03*
X113549998Y-77637499D03*
D21*
X106810000Y-93600000D03*
X105790000Y-93600000D03*
D23*
X117539812Y-68272809D03*
X118110188Y-67427191D03*
D18*
X114700000Y-78030000D03*
X114700000Y-77070000D03*
D24*
X113490000Y-92190001D03*
X113490000Y-93150001D03*
D25*
X97682516Y-82273725D03*
X96740158Y-81883387D03*
D26*
X105835000Y-70857500D03*
X105335000Y-70857500D03*
X104835000Y-70857500D03*
X104335000Y-70857500D03*
D27*
X103635000Y-71557500D03*
X103635000Y-72057500D03*
X103635000Y-72557500D03*
X103635000Y-73057500D03*
D28*
X104335000Y-73757500D03*
X104835000Y-73757500D03*
X105335000Y-73757500D03*
X105835000Y-73757500D03*
D29*
X106535000Y-73057500D03*
X106535000Y-72557500D03*
X106535000Y-72057500D03*
X106535000Y-71557500D03*
D30*
X105085000Y-72307500D03*
D21*
X109810000Y-100040000D03*
X108790000Y-100040000D03*
D31*
X106055000Y-100040000D03*
X105095000Y-100040000D03*
D32*
X112150000Y-82000000D03*
X112150000Y-79300000D03*
D33*
X107665000Y-93600000D03*
X108635000Y-93600000D03*
D34*
X115170000Y-91300000D03*
X116130000Y-91300000D03*
D20*
X103640000Y-93600000D03*
X104660000Y-93600000D03*
D12*
X98550266Y-71268040D03*
X96794894Y-70540942D03*
D35*
X118341376Y-68783316D03*
X118883794Y-67979150D03*
D14*
X92651061Y-68857263D03*
X94348117Y-69560207D03*
X96045173Y-65463151D03*
X96748117Y-67160207D03*
X94348117Y-64760207D03*
D15*
X94348117Y-67160207D03*
D14*
X91948117Y-67160207D03*
X96045173Y-68857263D03*
X92651061Y-65463151D03*
D31*
X115730001Y-86399999D03*
X114770001Y-86399999D03*
D12*
X93804988Y-82724149D03*
X92049616Y-81997051D03*
D36*
X120175000Y-74500000D03*
D37*
X118175000Y-74500000D03*
D38*
X118470000Y-98127500D03*
X119420000Y-98127500D03*
X120370000Y-98127500D03*
X120370000Y-95852500D03*
X118470000Y-95852500D03*
D39*
X103075000Y-68150000D03*
D40*
X102100000Y-67225000D03*
X102100000Y-69075000D03*
D41*
X102100000Y-68190000D03*
D24*
X127500000Y-92460000D03*
X127500000Y-93420000D03*
D42*
X112362500Y-90800000D03*
X112362500Y-90300000D03*
X112362500Y-89800000D03*
X112362500Y-89300000D03*
X112362500Y-88800000D03*
X112362500Y-88300000D03*
X112362500Y-87800000D03*
X112362500Y-87300000D03*
X112362500Y-86800000D03*
X112362500Y-86300000D03*
X112362500Y-85800000D03*
X112362500Y-85300000D03*
D43*
X110950000Y-83887500D03*
X110450000Y-83887500D03*
X109950000Y-83887500D03*
X109450000Y-83887500D03*
X108950000Y-83887500D03*
X108450000Y-83887500D03*
X107950000Y-83887500D03*
X107450000Y-83887500D03*
X106950000Y-83887500D03*
X106450000Y-83887500D03*
X105950000Y-83887500D03*
X105450000Y-83887500D03*
D42*
X104037500Y-85300000D03*
X104037500Y-85800000D03*
X104037500Y-86300000D03*
X104037500Y-86800000D03*
X104037500Y-87300000D03*
X104037500Y-87800000D03*
X104037500Y-88300000D03*
X104037500Y-88800000D03*
X104037500Y-89300000D03*
X104037500Y-89800000D03*
X104037500Y-90300000D03*
X104037500Y-90800000D03*
D43*
X105450000Y-92212500D03*
X105950000Y-92212500D03*
X106450000Y-92212500D03*
X106950000Y-92212500D03*
X107450000Y-92212500D03*
X107950000Y-92212500D03*
X108450000Y-92212500D03*
X108950000Y-92212500D03*
X109450000Y-92212500D03*
X109950000Y-92212500D03*
X110450000Y-92212500D03*
X110950000Y-92212500D03*
D19*
X97990000Y-90970000D03*
X97990000Y-91990000D03*
D24*
X112590000Y-92190000D03*
X112590000Y-93150000D03*
D13*
X116800000Y-81410000D03*
X116800000Y-80390000D03*
D24*
X103800000Y-91670000D03*
X103800000Y-92630000D03*
D25*
X102788714Y-79553219D03*
X101846356Y-79162881D03*
D16*
X120250000Y-87700000D03*
D17*
X120250000Y-89700000D03*
X120250000Y-91700000D03*
D44*
X102219453Y-78322445D03*
X103115617Y-78693647D03*
D45*
X101400000Y-97890000D03*
X104800000Y-97890000D03*
D34*
X113820000Y-84550000D03*
X114780000Y-84550000D03*
D46*
X92863325Y-77517451D03*
X94549405Y-78215849D03*
D47*
X96311809Y-79677232D03*
X96773748Y-79868574D03*
X97235690Y-80059916D03*
X97697629Y-80251258D03*
X98159568Y-80442599D03*
X98621509Y-80633941D03*
X99083448Y-80825283D03*
D48*
X100292933Y-80324298D03*
X100484275Y-79862359D03*
X100675617Y-79400417D03*
X100866959Y-78938478D03*
X101058300Y-78476539D03*
X101249642Y-78014598D03*
X101440984Y-77552659D03*
D47*
X100939999Y-76343174D03*
X100478060Y-76151832D03*
X100016118Y-75960490D03*
X99554179Y-75769148D03*
X99092240Y-75577807D03*
X98630299Y-75386465D03*
X98168360Y-75195123D03*
D48*
X96958875Y-75696108D03*
X96767533Y-76158047D03*
X96576191Y-76619989D03*
X96384849Y-77081928D03*
X96193508Y-77543867D03*
X96002166Y-78005808D03*
X95810824Y-78467747D03*
D49*
X98625904Y-78010203D03*
D50*
X109400000Y-95200000D03*
D51*
X108130000Y-95200000D03*
X106860000Y-95200000D03*
X105590000Y-95200000D03*
X104320000Y-95200000D03*
D13*
X110369999Y-77560001D03*
X110369999Y-76540001D03*
D52*
X114700000Y-73775000D03*
X114700000Y-70825000D03*
D19*
X116800000Y-82240000D03*
X116800000Y-83260000D03*
X112060000Y-97920000D03*
X112060000Y-98940000D03*
X100310000Y-72240000D03*
X100310000Y-73260000D03*
D20*
X118025000Y-71075000D03*
X119045000Y-71075000D03*
D21*
X131727500Y-86900000D03*
X130707500Y-86900000D03*
D20*
X101240000Y-94850000D03*
X102260000Y-94850000D03*
D12*
X97880566Y-72884829D03*
X96125194Y-72157731D03*
D31*
X105820000Y-75010000D03*
X104860000Y-75010000D03*
D24*
X114699999Y-74970001D03*
X114699999Y-75930001D03*
D53*
X109850000Y-61165000D03*
D54*
X108350000Y-65485000D03*
D55*
X111350000Y-65485000D03*
X108350000Y-68485000D03*
X111350000Y-68485000D03*
D31*
X111620000Y-100010000D03*
X110660000Y-100010000D03*
D24*
X105429999Y-76570000D03*
X105429999Y-77530000D03*
X116800000Y-84120000D03*
X116800000Y-85080000D03*
X111700001Y-92199999D03*
X111700001Y-93159999D03*
D53*
X93333840Y-88128192D03*
D56*
X97325000Y-86475000D03*
D55*
X100096639Y-85326950D03*
D31*
X104620001Y-83500000D03*
X103660001Y-83500000D03*
D14*
X90327898Y-82659988D03*
X89624954Y-80962932D03*
D15*
X87927898Y-82659988D03*
D14*
X85527898Y-82659988D03*
X87927898Y-85059988D03*
X87927898Y-80259988D03*
X89624954Y-84357044D03*
X86230842Y-80962932D03*
X86230842Y-84357044D03*
D57*
X97112291Y-81063378D03*
X97999215Y-81430754D03*
D16*
X115400000Y-95750000D03*
D17*
X115400000Y-97750000D03*
D14*
X131767898Y-80259988D03*
D15*
X131767898Y-82659988D03*
D14*
X130070842Y-80962932D03*
X133464954Y-80962932D03*
X130070842Y-84357044D03*
X129367898Y-82659988D03*
X133464954Y-84357044D03*
X131767898Y-85059988D03*
X134167898Y-82659988D03*
D57*
X101981538Y-75916312D03*
X102868462Y-76283688D03*
D21*
X123985000Y-75900000D03*
X122965000Y-75900000D03*
D11*
X95138469Y-79975197D03*
X94251545Y-79607821D03*
D58*
X113800000Y-83525000D03*
X113800000Y-81875000D03*
D16*
X125150000Y-87700000D03*
D17*
X125150000Y-89700000D03*
X125150000Y-91700000D03*
D59*
X101860000Y-70125000D03*
X101860000Y-73075000D03*
D57*
X98775274Y-81752207D03*
X99662198Y-82119583D03*
D13*
X129660000Y-95290000D03*
X129660000Y-94270000D03*
D60*
X100325000Y-93635000D03*
X101625000Y-93635000D03*
X100975000Y-93635000D03*
X102275000Y-93635000D03*
D61*
X101300000Y-91695000D03*
D62*
X100760638Y-81741131D03*
X101128014Y-80854207D03*
D63*
X108050000Y-72300000D03*
X110420000Y-72300000D03*
D13*
X127550000Y-81429999D03*
X127550000Y-80409999D03*
D64*
X100550000Y-68950000D03*
X100550000Y-66850000D03*
D65*
X120870001Y-71075000D03*
X119900001Y-71075000D03*
D19*
X128710000Y-94270000D03*
X128710000Y-95290000D03*
D24*
X127550000Y-84140000D03*
X127550000Y-85100000D03*
D66*
X100300000Y-70915000D03*
X100300000Y-69945000D03*
D52*
X112650000Y-73775000D03*
X112650000Y-70825000D03*
D67*
X105549999Y-82124101D03*
X106350000Y-82124101D03*
X107150001Y-82124101D03*
X107949999Y-82124101D03*
X108750000Y-82124101D03*
X109549999Y-82124101D03*
D68*
X109268498Y-80753200D03*
D67*
X109550001Y-79382299D03*
X108750000Y-79382299D03*
X107949999Y-79382299D03*
X107150001Y-79382299D03*
X106350000Y-79382299D03*
X105550001Y-79382299D03*
D68*
X105831502Y-80753200D03*
D33*
X128865000Y-86900000D03*
X129835000Y-86900000D03*
D13*
X99150000Y-67860000D03*
X99150000Y-66840000D03*
D34*
X104820000Y-69850000D03*
X105780000Y-69850000D03*
D16*
X125150000Y-79400000D03*
D17*
X125150000Y-81400000D03*
X125150000Y-83400000D03*
D19*
X127550000Y-82260000D03*
X127550000Y-83280000D03*
D66*
X98930000Y-91965000D03*
X98930000Y-90995000D03*
D34*
X113820000Y-85450000D03*
X114780000Y-85450000D03*
D69*
X104612500Y-67600000D03*
X106487500Y-67600000D03*
D11*
X94231570Y-76677085D03*
X93344646Y-76309709D03*
D70*
X119858623Y-68641682D03*
X119316205Y-69445848D03*
D71*
X122975000Y-74537500D03*
X124875000Y-74537500D03*
X123925000Y-72662500D03*
D11*
X92157215Y-72083606D03*
X91270291Y-71716230D03*
D71*
X128710000Y-92867500D03*
X130610000Y-92867500D03*
X129660000Y-90992500D03*
D23*
X120089812Y-69997809D03*
X120660188Y-69152191D03*
D18*
X104400000Y-82380000D03*
X104400000Y-81420000D03*
D72*
X106712500Y-76075000D03*
X106712500Y-76725000D03*
X106712500Y-77375000D03*
X106712500Y-78025000D03*
X108987500Y-78025000D03*
X108987500Y-77375000D03*
X108987500Y-76725000D03*
X108987500Y-76075000D03*
D46*
X94202715Y-74283874D03*
X95888795Y-74982272D03*
D45*
X106100000Y-97890000D03*
X109500000Y-97890000D03*
D11*
X97595565Y-74173890D03*
X96708641Y-73806514D03*
D19*
X112060000Y-96070000D03*
X112060000Y-97090000D03*
D73*
X89918754Y-71169177D03*
D74*
X89153387Y-73016936D03*
X88388020Y-74864695D03*
X87622653Y-76712454D03*
D75*
X87459183Y-88786597D03*
D76*
X88224550Y-90634356D03*
D77*
X116375319Y-66715076D03*
D78*
X119839724Y-72308635D03*
D77*
X122178582Y-70629426D03*
D78*
X115694536Y-69512670D03*
D79*
X131490000Y-90620000D03*
D74*
X132255367Y-88772241D03*
M02*
