%TF.GenerationSoftware,KiCad,Pcbnew,(5.1.10)-1*%
%TF.CreationDate,2021-12-06T16:33:20+01:00*%
%TF.ProjectId,MiniAB-CAN-Board,4d696e69-4142-42d4-9341-4e2d426f6172,rev?*%
%TF.SameCoordinates,Original*%
%TF.FileFunction,Legend,Top*%
%TF.FilePolarity,Positive*%
%FSLAX46Y46*%
G04 Gerber Fmt 4.6, Leading zero omitted, Abs format (unit mm)*
G04 Created by KiCad (PCBNEW (5.1.10)-1) date 2021-12-06 16:33:20*
%MOMM*%
%LPD*%
G01*
G04 APERTURE LIST*
%ADD10C,0.120000*%
%ADD11C,0.100000*%
%ADD12C,0.200000*%
%ADD13C,0.150000*%
G04 APERTURE END LIST*
D10*
X-24206037Y-45148081D02*
X-30582019Y-51524063D01*
X-29234981Y-40119137D02*
X-24206037Y-45148081D01*
X-35610963Y-46495119D02*
X-29234981Y-40119137D01*
X-30582019Y-51524063D02*
X-35610963Y-46495119D01*
D11*
G36*
X-23139400Y-52806600D02*
G01*
X-25374600Y-56134000D01*
X-26822400Y-56108600D01*
X-24688800Y-52908200D01*
X-24612600Y-52781200D01*
X-23139400Y-52806600D01*
G37*
X-23139400Y-52806600D02*
X-25374600Y-56134000D01*
X-26822400Y-56108600D01*
X-24688800Y-52908200D01*
X-24612600Y-52781200D01*
X-23139400Y-52806600D01*
G36*
X-21615400Y-59486800D02*
G01*
X-23063200Y-59486800D01*
X-20920864Y-56136390D01*
X-19405600Y-56134000D01*
X-21615400Y-59486800D01*
G37*
X-21615400Y-59486800D02*
X-23063200Y-59486800D01*
X-20920864Y-56136390D01*
X-19405600Y-56134000D01*
X-21615400Y-59486800D01*
G36*
X-24511000Y-59486800D02*
G01*
X-26060400Y-59486800D01*
X-21684324Y-52790080D01*
X-20167600Y-52781200D01*
X-24511000Y-59486800D01*
G37*
X-24511000Y-59486800D02*
X-26060400Y-59486800D01*
X-21684324Y-52790080D01*
X-20167600Y-52781200D01*
X-24511000Y-59486800D01*
D12*
X-21557204Y-59482700D02*
X-21557204Y-59482700D01*
X-25273404Y-56136390D02*
X-25273404Y-56136390D01*
X-25273404Y-56136390D02*
X-23084054Y-52790080D01*
X-26826404Y-56136390D02*
X-25273404Y-56136390D01*
X-24637074Y-52790080D02*
X-26826404Y-56136390D01*
X-23084054Y-52790080D02*
X-24637074Y-52790080D01*
X-23110204Y-59482700D02*
X-21557204Y-59482700D01*
X-23095184Y-49984810D02*
X-17767864Y-53060600D01*
X-20131304Y-52790080D02*
X-21684324Y-52790080D01*
X-23095184Y-49984810D02*
X-23095184Y-49984810D01*
X-23095184Y-62287975D02*
X-28422600Y-59212180D01*
X-17767864Y-59212180D02*
X-23095184Y-62287975D01*
X-28422600Y-59212180D02*
X-28422600Y-53060600D01*
X-20920864Y-56136390D02*
X-23110204Y-59482700D01*
X-19367864Y-56136390D02*
X-20920864Y-56136390D01*
X-17767864Y-53060600D02*
X-17767864Y-59212180D01*
X-21557204Y-59482700D02*
X-19367864Y-56136390D01*
X-24509944Y-59482700D02*
X-24509944Y-59482700D01*
X-26062954Y-59482700D02*
X-24509944Y-59482700D01*
X-21684324Y-52790080D02*
X-26062954Y-59482700D01*
X-24509944Y-59482700D02*
X-20131304Y-52790080D01*
X-28422600Y-53060600D02*
X-23095184Y-49984810D01*
D13*
X-14655276Y-53452780D02*
X-14321942Y-54452780D01*
X-13988609Y-53452780D01*
X-13274323Y-54405161D02*
X-13369561Y-54452780D01*
X-13560038Y-54452780D01*
X-13655276Y-54405161D01*
X-13702895Y-54309923D01*
X-13702895Y-53928971D01*
X-13655276Y-53833733D01*
X-13560038Y-53786114D01*
X-13369561Y-53786114D01*
X-13274323Y-53833733D01*
X-13226704Y-53928971D01*
X-13226704Y-54024209D01*
X-13702895Y-54119447D01*
X-12798133Y-54452780D02*
X-12798133Y-53786114D01*
X-12798133Y-53976590D02*
X-12750514Y-53881352D01*
X-12702895Y-53833733D01*
X-12607657Y-53786114D01*
X-12512419Y-53786114D01*
X-12226704Y-54405161D02*
X-12131466Y-54452780D01*
X-11940990Y-54452780D01*
X-11845752Y-54405161D01*
X-11798133Y-54309923D01*
X-11798133Y-54262304D01*
X-11845752Y-54167066D01*
X-11940990Y-54119447D01*
X-12083847Y-54119447D01*
X-12179085Y-54071828D01*
X-12226704Y-53976590D01*
X-12226704Y-53928971D01*
X-12179085Y-53833733D01*
X-12083847Y-53786114D01*
X-11940990Y-53786114D01*
X-11845752Y-53833733D01*
X-11369561Y-54452780D02*
X-11369561Y-53786114D01*
X-11369561Y-53452780D02*
X-11417180Y-53500400D01*
X-11369561Y-53548019D01*
X-11321942Y-53500400D01*
X-11369561Y-53452780D01*
X-11369561Y-53548019D01*
X-10750514Y-54452780D02*
X-10845752Y-54405161D01*
X-10893371Y-54357542D01*
X-10940990Y-54262304D01*
X-10940990Y-53976590D01*
X-10893371Y-53881352D01*
X-10845752Y-53833733D01*
X-10750514Y-53786114D01*
X-10607657Y-53786114D01*
X-10512419Y-53833733D01*
X-10464800Y-53881352D01*
X-10417180Y-53976590D01*
X-10417180Y-54262304D01*
X-10464800Y-54357542D01*
X-10512419Y-54405161D01*
X-10607657Y-54452780D01*
X-10750514Y-54452780D01*
X-9988609Y-53786114D02*
X-9988609Y-54452780D01*
X-9988609Y-53881352D02*
X-9940990Y-53833733D01*
X-9845752Y-53786114D01*
X-9702895Y-53786114D01*
X-9607657Y-53833733D01*
X-9560038Y-53928971D01*
X-9560038Y-54452780D01*
X-8131466Y-53452780D02*
X-8036228Y-53452780D01*
X-7940990Y-53500400D01*
X-7893371Y-53548019D01*
X-7845752Y-53643257D01*
X-7798133Y-53833733D01*
X-7798133Y-54071828D01*
X-7845752Y-54262304D01*
X-7893371Y-54357542D01*
X-7940990Y-54405161D01*
X-8036228Y-54452780D01*
X-8131466Y-54452780D01*
X-8226704Y-54405161D01*
X-8274323Y-54357542D01*
X-8321942Y-54262304D01*
X-8369561Y-54071828D01*
X-8369561Y-53833733D01*
X-8321942Y-53643257D01*
X-8274323Y-53548019D01*
X-8226704Y-53500400D01*
X-8131466Y-53452780D01*
X-7369561Y-54357542D02*
X-7321942Y-54405161D01*
X-7369561Y-54452780D01*
X-7417180Y-54405161D01*
X-7369561Y-54357542D01*
X-7369561Y-54452780D01*
X-6369561Y-54452780D02*
X-6940990Y-54452780D01*
X-6655276Y-54452780D02*
X-6655276Y-53452780D01*
X-6750514Y-53595638D01*
X-6845752Y-53690876D01*
X-6940990Y-53738495D01*
X-31594276Y-63708019D02*
X-31546657Y-63660400D01*
X-31451419Y-63612780D01*
X-31213323Y-63612780D01*
X-31118085Y-63660400D01*
X-31070466Y-63708019D01*
X-31022847Y-63803257D01*
X-31022847Y-63898495D01*
X-31070466Y-64041352D01*
X-31641895Y-64612780D01*
X-31022847Y-64612780D01*
X-30165704Y-63946114D02*
X-30165704Y-64612780D01*
X-30403800Y-63565161D02*
X-30641895Y-64279447D01*
X-30022847Y-64279447D01*
X-29784752Y-63612780D02*
X-29451419Y-64612780D01*
X-29118085Y-63612780D01*
X-33388276Y-63612780D02*
X-33864466Y-63612780D01*
X-33912085Y-64088971D01*
X-33864466Y-64041352D01*
X-33769228Y-63993733D01*
X-33531133Y-63993733D01*
X-33435895Y-64041352D01*
X-33388276Y-64088971D01*
X-33340657Y-64184209D01*
X-33340657Y-64422304D01*
X-33388276Y-64517542D01*
X-33435895Y-64565161D01*
X-33531133Y-64612780D01*
X-33769228Y-64612780D01*
X-33864466Y-64565161D01*
X-33912085Y-64517542D01*
X-33054942Y-63612780D02*
X-32721609Y-64612780D01*
X-32388276Y-63612780D01*
X-13601676Y-63612780D02*
X-14077866Y-63612780D01*
X-14125485Y-64088971D01*
X-14077866Y-64041352D01*
X-13982628Y-63993733D01*
X-13744533Y-63993733D01*
X-13649295Y-64041352D01*
X-13601676Y-64088971D01*
X-13554057Y-64184209D01*
X-13554057Y-64422304D01*
X-13601676Y-64517542D01*
X-13649295Y-64565161D01*
X-13744533Y-64612780D01*
X-13982628Y-64612780D01*
X-14077866Y-64565161D01*
X-14125485Y-64517542D01*
X-13268342Y-63612780D02*
X-12935009Y-64612780D01*
X-12601676Y-63612780D01*
X-17471876Y-63708019D02*
X-17424257Y-63660400D01*
X-17329019Y-63612780D01*
X-17090923Y-63612780D01*
X-16995685Y-63660400D01*
X-16948066Y-63708019D01*
X-16900447Y-63803257D01*
X-16900447Y-63898495D01*
X-16948066Y-64041352D01*
X-17519495Y-64612780D01*
X-16900447Y-64612780D01*
X-16043304Y-63946114D02*
X-16043304Y-64612780D01*
X-16281400Y-63565161D02*
X-16519495Y-64279447D01*
X-15900447Y-64279447D01*
X-15662352Y-63612780D02*
X-15329019Y-64612780D01*
X-14995685Y-63612780D01*
D10*
%TO.C,J6*%
X-23096400Y-73077800D02*
X-23096400Y-65707800D01*
X-13966400Y-73077800D02*
X-23096400Y-73077800D01*
X-12966400Y-72077800D02*
X-13966400Y-73077800D01*
X-12966400Y-66707800D02*
X-12966400Y-72077800D01*
X-13966400Y-65707800D02*
X-12966400Y-66707800D01*
X-23096400Y-65707800D02*
X-13966400Y-65707800D01*
%TO.C,TH1*%
X-31307300Y-54880742D02*
X-31307300Y-55355258D01*
X-30262300Y-54880742D02*
X-30262300Y-55355258D01*
%TO.C,JP4*%
X-33952400Y-60620400D02*
X-29852400Y-60620400D01*
X-29852400Y-60620400D02*
X-29852400Y-62620400D01*
X-29852400Y-62620400D02*
X-33952400Y-62620400D01*
X-33952400Y-62620400D02*
X-33952400Y-60620400D01*
X-33202400Y-62820400D02*
X-33502400Y-63120400D01*
X-33502400Y-63120400D02*
X-32902400Y-63120400D01*
X-33202400Y-62820400D02*
X-32902400Y-63120400D01*
%TO.C,JP3*%
X-16832800Y-60620400D02*
X-12732800Y-60620400D01*
X-12732800Y-60620400D02*
X-12732800Y-62620400D01*
X-12732800Y-62620400D02*
X-16832800Y-62620400D01*
X-16832800Y-62620400D02*
X-16832800Y-60620400D01*
X-16082800Y-62820400D02*
X-16382800Y-63120400D01*
X-16382800Y-63120400D02*
X-15782800Y-63120400D01*
X-16082800Y-62820400D02*
X-15782800Y-63120400D01*
%TO.C,JP2*%
X-21354000Y-44313600D02*
X-17254000Y-44313600D01*
X-17254000Y-44313600D02*
X-17254000Y-46313600D01*
X-17254000Y-46313600D02*
X-21354000Y-46313600D01*
X-21354000Y-46313600D02*
X-21354000Y-44313600D01*
X-20604000Y-46513600D02*
X-20904000Y-46813600D01*
X-20904000Y-46813600D02*
X-20304000Y-46813600D01*
X-20604000Y-46513600D02*
X-20304000Y-46813600D01*
%TO.C,JP1*%
X-21354000Y-42383200D02*
X-17254000Y-42383200D01*
X-17254000Y-42383200D02*
X-17254000Y-44383200D01*
X-17254000Y-44383200D02*
X-21354000Y-44383200D01*
X-21354000Y-44383200D02*
X-21354000Y-42383200D01*
X-20604000Y-44583200D02*
X-20904000Y-44883200D01*
X-20904000Y-44883200D02*
X-20304000Y-44883200D01*
X-20604000Y-44583200D02*
X-20304000Y-44883200D01*
%TO.C,J10*%
X-12168400Y-66012400D02*
X-10918400Y-66012400D01*
X-12168400Y-64762400D02*
X-12168400Y-66012400D01*
X-7758400Y-62652400D02*
X-8258400Y-62652400D01*
X-8258400Y-62552400D02*
X-7758400Y-62552400D01*
X-8258400Y-62752400D02*
X-8258400Y-62552400D01*
X-7758400Y-62752400D02*
X-8258400Y-62752400D01*
X-9258400Y-59592400D02*
X-9258400Y-60202400D01*
X-10558400Y-59592400D02*
X-10558400Y-60202400D01*
X-9258400Y-65712400D02*
X-9258400Y-65102400D01*
X-10558400Y-65712400D02*
X-10558400Y-65102400D01*
X-11258400Y-62152400D02*
X-11868400Y-62152400D01*
X-11258400Y-60202400D02*
X-11258400Y-62152400D01*
X-7758400Y-60202400D02*
X-11258400Y-60202400D01*
X-7758400Y-65102400D02*
X-7758400Y-60202400D01*
X-11258400Y-65102400D02*
X-7758400Y-65102400D01*
X-11258400Y-63152400D02*
X-11258400Y-65102400D01*
X-11868400Y-63152400D02*
X-11258400Y-63152400D01*
X-11968400Y-63952400D02*
X-11968400Y-64252400D01*
X-12068400Y-64252400D02*
X-11868400Y-64252400D01*
X-12068400Y-63952400D02*
X-12068400Y-64252400D01*
X-11868400Y-63952400D02*
X-12068400Y-63952400D01*
X-11868400Y-59592400D02*
X-11868400Y-65712400D01*
X-7148400Y-59592400D02*
X-11868400Y-59592400D01*
X-7148400Y-65712400D02*
X-7148400Y-59592400D01*
X-11868400Y-65712400D02*
X-7148400Y-65712400D01*
%TO.C,J7*%
X-7291600Y-66012400D02*
X-6041600Y-66012400D01*
X-7291600Y-64762400D02*
X-7291600Y-66012400D01*
X-2881600Y-62652400D02*
X-3381600Y-62652400D01*
X-3381600Y-62552400D02*
X-2881600Y-62552400D01*
X-3381600Y-62752400D02*
X-3381600Y-62552400D01*
X-2881600Y-62752400D02*
X-3381600Y-62752400D01*
X-4381600Y-59592400D02*
X-4381600Y-60202400D01*
X-5681600Y-59592400D02*
X-5681600Y-60202400D01*
X-4381600Y-65712400D02*
X-4381600Y-65102400D01*
X-5681600Y-65712400D02*
X-5681600Y-65102400D01*
X-6381600Y-62152400D02*
X-6991600Y-62152400D01*
X-6381600Y-60202400D02*
X-6381600Y-62152400D01*
X-2881600Y-60202400D02*
X-6381600Y-60202400D01*
X-2881600Y-65102400D02*
X-2881600Y-60202400D01*
X-6381600Y-65102400D02*
X-2881600Y-65102400D01*
X-6381600Y-63152400D02*
X-6381600Y-65102400D01*
X-6991600Y-63152400D02*
X-6381600Y-63152400D01*
X-7091600Y-63952400D02*
X-7091600Y-64252400D01*
X-7191600Y-64252400D02*
X-6991600Y-64252400D01*
X-7191600Y-63952400D02*
X-7191600Y-64252400D01*
X-6991600Y-63952400D02*
X-7191600Y-63952400D01*
X-6991600Y-59592400D02*
X-6991600Y-65712400D01*
X-2271600Y-59592400D02*
X-6991600Y-59592400D01*
X-2271600Y-65712400D02*
X-2271600Y-59592400D01*
X-6991600Y-65712400D02*
X-2271600Y-65712400D01*
%TO.C,J5*%
X-39241200Y-59311200D02*
X-40491200Y-59311200D01*
X-39241200Y-60561200D02*
X-39241200Y-59311200D01*
X-43651200Y-62671200D02*
X-43151200Y-62671200D01*
X-43151200Y-62771200D02*
X-43651200Y-62771200D01*
X-43151200Y-62571200D02*
X-43151200Y-62771200D01*
X-43651200Y-62571200D02*
X-43151200Y-62571200D01*
X-42151200Y-65731200D02*
X-42151200Y-65121200D01*
X-40851200Y-65731200D02*
X-40851200Y-65121200D01*
X-42151200Y-59611200D02*
X-42151200Y-60221200D01*
X-40851200Y-59611200D02*
X-40851200Y-60221200D01*
X-40151200Y-63171200D02*
X-39541200Y-63171200D01*
X-40151200Y-65121200D02*
X-40151200Y-63171200D01*
X-43651200Y-65121200D02*
X-40151200Y-65121200D01*
X-43651200Y-60221200D02*
X-43651200Y-65121200D01*
X-40151200Y-60221200D02*
X-43651200Y-60221200D01*
X-40151200Y-62171200D02*
X-40151200Y-60221200D01*
X-39541200Y-62171200D02*
X-40151200Y-62171200D01*
X-39441200Y-61371200D02*
X-39441200Y-61071200D01*
X-39341200Y-61071200D02*
X-39541200Y-61071200D01*
X-39341200Y-61371200D02*
X-39341200Y-61071200D01*
X-39541200Y-61371200D02*
X-39341200Y-61371200D01*
X-39541200Y-65731200D02*
X-39541200Y-59611200D01*
X-44261200Y-65731200D02*
X-39541200Y-65731200D01*
X-44261200Y-59611200D02*
X-44261200Y-65731200D01*
X-39541200Y-59611200D02*
X-44261200Y-59611200D01*
%TO.C,J4*%
X-34364400Y-59311200D02*
X-35614400Y-59311200D01*
X-34364400Y-60561200D02*
X-34364400Y-59311200D01*
X-38774400Y-62671200D02*
X-38274400Y-62671200D01*
X-38274400Y-62771200D02*
X-38774400Y-62771200D01*
X-38274400Y-62571200D02*
X-38274400Y-62771200D01*
X-38774400Y-62571200D02*
X-38274400Y-62571200D01*
X-37274400Y-65731200D02*
X-37274400Y-65121200D01*
X-35974400Y-65731200D02*
X-35974400Y-65121200D01*
X-37274400Y-59611200D02*
X-37274400Y-60221200D01*
X-35974400Y-59611200D02*
X-35974400Y-60221200D01*
X-35274400Y-63171200D02*
X-34664400Y-63171200D01*
X-35274400Y-65121200D02*
X-35274400Y-63171200D01*
X-38774400Y-65121200D02*
X-35274400Y-65121200D01*
X-38774400Y-60221200D02*
X-38774400Y-65121200D01*
X-35274400Y-60221200D02*
X-38774400Y-60221200D01*
X-35274400Y-62171200D02*
X-35274400Y-60221200D01*
X-34664400Y-62171200D02*
X-35274400Y-62171200D01*
X-34564400Y-61371200D02*
X-34564400Y-61071200D01*
X-34464400Y-61071200D02*
X-34664400Y-61071200D01*
X-34464400Y-61371200D02*
X-34464400Y-61071200D01*
X-34664400Y-61371200D02*
X-34464400Y-61371200D01*
X-34664400Y-65731200D02*
X-34664400Y-59611200D01*
X-39384400Y-65731200D02*
X-34664400Y-65731200D01*
X-39384400Y-59611200D02*
X-39384400Y-65731200D01*
X-34664400Y-59611200D02*
X-39384400Y-59611200D01*
%TO.C,J3*%
X-32586420Y-64861486D02*
X-33211420Y-65944018D01*
X-31503888Y-65486486D02*
X-32586420Y-64861486D01*
X-31881575Y-70360658D02*
X-31631575Y-69927646D01*
X-31544972Y-69977646D02*
X-31794972Y-70410658D01*
X-31718177Y-69877646D02*
X-31544972Y-69977646D01*
X-31968177Y-70310658D02*
X-31718177Y-69877646D01*
X-28481537Y-70591620D02*
X-29009812Y-70286620D01*
X-27831537Y-69465787D02*
X-28359812Y-69160787D01*
X-33781612Y-67531620D02*
X-33253337Y-67836620D01*
X-33131612Y-66405787D02*
X-32603337Y-66710787D01*
X-29698562Y-67579570D02*
X-29393562Y-67051294D01*
X-28009812Y-68554570D02*
X-29698562Y-67579570D01*
X-29759812Y-71585658D02*
X-28009812Y-68554570D01*
X-34003337Y-69135658D02*
X-29759812Y-71585658D01*
X-32253337Y-66104570D02*
X-34003337Y-69135658D01*
X-30564587Y-67079570D02*
X-32253337Y-66104570D01*
X-30259587Y-66551294D02*
X-30564587Y-67079570D01*
X-30902408Y-66064691D02*
X-31162215Y-65914691D01*
X-31112215Y-65828089D02*
X-31212215Y-66001294D01*
X-30852408Y-65978089D02*
X-31112215Y-65828089D01*
X-30952408Y-66151294D02*
X-30852408Y-65978089D01*
X-27176537Y-68331294D02*
X-32476612Y-65271294D01*
X-29536537Y-72418934D02*
X-27176537Y-68331294D01*
X-34836612Y-69358934D02*
X-29536537Y-72418934D01*
X-32476612Y-65271294D02*
X-34836612Y-69358934D01*
%TO.C,J2*%
X-18092700Y-38857100D02*
X-28462700Y-38857100D01*
X-18092700Y-29727100D02*
X-18092700Y-38857100D01*
X-19092700Y-28727100D02*
X-18092700Y-29727100D01*
X-27462700Y-28727100D02*
X-19092700Y-28727100D01*
X-28462700Y-29727100D02*
X-27462700Y-28727100D01*
X-28462700Y-38857100D02*
X-28462700Y-29727100D01*
%TO.C,C33*%
X-34741150Y-50058250D02*
X-35528650Y-50058250D01*
X-35134900Y-49664500D02*
X-35134900Y-50452000D01*
X-39327963Y-50692000D02*
X-40392400Y-51756437D01*
X-34636837Y-50692000D02*
X-33572400Y-51756437D01*
X-34636837Y-50692000D02*
X-35922400Y-50692000D01*
X-39327963Y-50692000D02*
X-38042400Y-50692000D01*
X-40392400Y-51756437D02*
X-40392400Y-57512000D01*
X-33572400Y-51756437D02*
X-33572400Y-57512000D01*
X-33572400Y-57512000D02*
X-35922400Y-57512000D01*
X-40392400Y-57512000D02*
X-38042400Y-57512000D01*
%TO.C,J6*%
D13*
X-12699904Y-67914780D02*
X-12699904Y-66914780D01*
X-12699904Y-67390971D02*
X-12128476Y-67390971D01*
X-12128476Y-67914780D02*
X-12128476Y-66914780D01*
X-11461809Y-66914780D02*
X-11366571Y-66914780D01*
X-11271333Y-66962400D01*
X-11223714Y-67010019D01*
X-11176095Y-67105257D01*
X-11128476Y-67295733D01*
X-11128476Y-67533828D01*
X-11176095Y-67724304D01*
X-11223714Y-67819542D01*
X-11271333Y-67867161D01*
X-11366571Y-67914780D01*
X-11461809Y-67914780D01*
X-11557047Y-67867161D01*
X-11604666Y-67819542D01*
X-11652285Y-67724304D01*
X-11699904Y-67533828D01*
X-11699904Y-67295733D01*
X-11652285Y-67105257D01*
X-11604666Y-67010019D01*
X-11557047Y-66962400D01*
X-11461809Y-66914780D01*
%TO.C,TH1*%
X-34356514Y-54570380D02*
X-33785085Y-54570380D01*
X-34070800Y-55570380D02*
X-34070800Y-54570380D01*
X-33451752Y-55570380D02*
X-33451752Y-54570380D01*
X-33451752Y-55046571D02*
X-32880323Y-55046571D01*
X-32880323Y-55570380D02*
X-32880323Y-54570380D01*
X-31880323Y-55570380D02*
X-32451752Y-55570380D01*
X-32166038Y-55570380D02*
X-32166038Y-54570380D01*
X-32261276Y-54713238D01*
X-32356514Y-54808476D01*
X-32451752Y-54856095D01*
%TO.C,JP4*%
X-33092876Y-60066180D02*
X-33092876Y-59066180D01*
X-32711923Y-59066180D01*
X-32616685Y-59113800D01*
X-32569066Y-59161419D01*
X-32521447Y-59256657D01*
X-32521447Y-59399514D01*
X-32569066Y-59494752D01*
X-32616685Y-59542371D01*
X-32711923Y-59589990D01*
X-33092876Y-59589990D01*
X-31521447Y-59970942D02*
X-31569066Y-60018561D01*
X-31711923Y-60066180D01*
X-31807161Y-60066180D01*
X-31950019Y-60018561D01*
X-32045257Y-59923323D01*
X-32092876Y-59828085D01*
X-32140495Y-59637609D01*
X-32140495Y-59494752D01*
X-32092876Y-59304276D01*
X-32045257Y-59209038D01*
X-31950019Y-59113800D01*
X-31807161Y-59066180D01*
X-31711923Y-59066180D01*
X-31569066Y-59113800D01*
X-31521447Y-59161419D01*
X-30759542Y-59542371D02*
X-31092876Y-59542371D01*
X-31092876Y-60066180D02*
X-31092876Y-59066180D01*
X-30616685Y-59066180D01*
%TO.C,JP3*%
X-15949466Y-60066180D02*
X-15949466Y-59066180D01*
X-15949466Y-59542371D02*
X-15378038Y-59542371D01*
X-15378038Y-60066180D02*
X-15378038Y-59066180D01*
X-14901847Y-59542371D02*
X-14568514Y-59542371D01*
X-14425657Y-60066180D02*
X-14901847Y-60066180D01*
X-14901847Y-59066180D01*
X-14425657Y-59066180D01*
X-13663752Y-59542371D02*
X-13997085Y-59542371D01*
X-13997085Y-60066180D02*
X-13997085Y-59066180D01*
X-13520895Y-59066180D01*
%TO.C,JP2*%
X-22065904Y-48134542D02*
X-22113523Y-48182161D01*
X-22256380Y-48229780D01*
X-22351619Y-48229780D01*
X-22494476Y-48182161D01*
X-22589714Y-48086923D01*
X-22637333Y-47991685D01*
X-22684952Y-47801209D01*
X-22684952Y-47658352D01*
X-22637333Y-47467876D01*
X-22589714Y-47372638D01*
X-22494476Y-47277400D01*
X-22351619Y-47229780D01*
X-22256380Y-47229780D01*
X-22113523Y-47277400D01*
X-22065904Y-47325019D01*
X-21684952Y-47944066D02*
X-21208761Y-47944066D01*
X-21780190Y-48229780D02*
X-21446857Y-47229780D01*
X-21113523Y-48229780D01*
X-20780190Y-48229780D02*
X-20780190Y-47229780D01*
X-20208761Y-48229780D01*
X-20208761Y-47229780D01*
X-19732571Y-47848828D02*
X-18970666Y-47848828D01*
X-18494476Y-47229780D02*
X-18494476Y-48039304D01*
X-18446857Y-48134542D01*
X-18399238Y-48182161D01*
X-18304000Y-48229780D01*
X-18113523Y-48229780D01*
X-18018285Y-48182161D01*
X-17970666Y-48134542D01*
X-17923047Y-48039304D01*
X-17923047Y-47229780D01*
X-17494476Y-48182161D02*
X-17351619Y-48229780D01*
X-17113523Y-48229780D01*
X-17018285Y-48182161D01*
X-16970666Y-48134542D01*
X-16923047Y-48039304D01*
X-16923047Y-47944066D01*
X-16970666Y-47848828D01*
X-17018285Y-47801209D01*
X-17113523Y-47753590D01*
X-17304000Y-47705971D01*
X-17399238Y-47658352D01*
X-17446857Y-47610733D01*
X-17494476Y-47515495D01*
X-17494476Y-47420257D01*
X-17446857Y-47325019D01*
X-17399238Y-47277400D01*
X-17304000Y-47229780D01*
X-17065904Y-47229780D01*
X-16923047Y-47277400D01*
X-16161142Y-47705971D02*
X-16018285Y-47753590D01*
X-15970666Y-47801209D01*
X-15923047Y-47896447D01*
X-15923047Y-48039304D01*
X-15970666Y-48134542D01*
X-16018285Y-48182161D01*
X-16113523Y-48229780D01*
X-16494476Y-48229780D01*
X-16494476Y-47229780D01*
X-16161142Y-47229780D01*
X-16065904Y-47277400D01*
X-16018285Y-47325019D01*
X-15970666Y-47420257D01*
X-15970666Y-47515495D01*
X-16018285Y-47610733D01*
X-16065904Y-47658352D01*
X-16161142Y-47705971D01*
X-16494476Y-47705971D01*
%TO.C,J10*%
X-11344114Y-58024780D02*
X-10772685Y-58024780D01*
X-11058400Y-59024780D02*
X-11058400Y-58024780D01*
X-10439352Y-59024780D02*
X-10439352Y-58024780D01*
X-10439352Y-58500971D02*
X-9867923Y-58500971D01*
X-9867923Y-59024780D02*
X-9867923Y-58024780D01*
X-9201257Y-58024780D02*
X-9106019Y-58024780D01*
X-9010780Y-58072400D01*
X-8963161Y-58120019D01*
X-8915542Y-58215257D01*
X-8867923Y-58405733D01*
X-8867923Y-58643828D01*
X-8915542Y-58834304D01*
X-8963161Y-58929542D01*
X-9010780Y-58977161D01*
X-9106019Y-59024780D01*
X-9201257Y-59024780D01*
X-9296495Y-58977161D01*
X-9344114Y-58929542D01*
X-9391733Y-58834304D01*
X-9439352Y-58643828D01*
X-9439352Y-58405733D01*
X-9391733Y-58215257D01*
X-9344114Y-58120019D01*
X-9296495Y-58072400D01*
X-9201257Y-58024780D01*
%TO.C,J7*%
X-6399066Y-59024780D02*
X-6399066Y-58024780D01*
X-6399066Y-58500971D02*
X-5827638Y-58500971D01*
X-5827638Y-59024780D02*
X-5827638Y-58024780D01*
X-5351447Y-58500971D02*
X-5018114Y-58500971D01*
X-4875257Y-59024780D02*
X-5351447Y-59024780D01*
X-5351447Y-58024780D01*
X-4875257Y-58024780D01*
X-4113352Y-58500971D02*
X-4446685Y-58500971D01*
X-4446685Y-59024780D02*
X-4446685Y-58024780D01*
X-3970495Y-58024780D01*
%TO.C,J5*%
X-42613104Y-58024780D02*
X-41946438Y-59024780D01*
X-41946438Y-58024780D02*
X-42613104Y-59024780D01*
X-41565485Y-58500971D02*
X-41232152Y-58500971D01*
X-41089295Y-59024780D02*
X-41565485Y-59024780D01*
X-41565485Y-58024780D01*
X-41089295Y-58024780D01*
X-40708342Y-58977161D02*
X-40565485Y-59024780D01*
X-40327390Y-59024780D01*
X-40232152Y-58977161D01*
X-40184533Y-58929542D01*
X-40136914Y-58834304D01*
X-40136914Y-58739066D01*
X-40184533Y-58643828D01*
X-40232152Y-58596209D01*
X-40327390Y-58548590D01*
X-40517866Y-58500971D01*
X-40613104Y-58453352D01*
X-40660723Y-58405733D01*
X-40708342Y-58310495D01*
X-40708342Y-58215257D01*
X-40660723Y-58120019D01*
X-40613104Y-58072400D01*
X-40517866Y-58024780D01*
X-40279771Y-58024780D01*
X-40136914Y-58072400D01*
%TO.C,J4*%
X-37352171Y-58548590D02*
X-37352171Y-59024780D01*
X-37685504Y-58024780D02*
X-37352171Y-58548590D01*
X-37018838Y-58024780D01*
X-36685504Y-58500971D02*
X-36352171Y-58500971D01*
X-36209314Y-59024780D02*
X-36685504Y-59024780D01*
X-36685504Y-58024780D01*
X-36209314Y-58024780D01*
X-35828361Y-58977161D02*
X-35685504Y-59024780D01*
X-35447409Y-59024780D01*
X-35352171Y-58977161D01*
X-35304552Y-58929542D01*
X-35256933Y-58834304D01*
X-35256933Y-58739066D01*
X-35304552Y-58643828D01*
X-35352171Y-58596209D01*
X-35447409Y-58548590D01*
X-35637885Y-58500971D01*
X-35733123Y-58453352D01*
X-35780742Y-58405733D01*
X-35828361Y-58310495D01*
X-35828361Y-58215257D01*
X-35780742Y-58120019D01*
X-35733123Y-58072400D01*
X-35637885Y-58024780D01*
X-35399790Y-58024780D01*
X-35256933Y-58072400D01*
%TO.C,J3*%
X-30510837Y-65795325D02*
X-30010837Y-64929300D01*
X-29680923Y-65119776D01*
X-29622254Y-65208634D01*
X-29604824Y-65273683D01*
X-29611204Y-65379971D01*
X-29682632Y-65503689D01*
X-29771491Y-65562358D01*
X-29836539Y-65579788D01*
X-29942828Y-65573408D01*
X-30272742Y-65382932D01*
X-29149940Y-66581040D02*
X-29200520Y-66001980D01*
X-29644812Y-66295325D02*
X-29144812Y-65429300D01*
X-28814897Y-65619776D01*
X-28756228Y-65708634D01*
X-28738799Y-65773683D01*
X-28745178Y-65879971D01*
X-28816607Y-66003689D01*
X-28905465Y-66062358D01*
X-28970514Y-66079788D01*
X-29076802Y-66073408D01*
X-29406717Y-65882932D01*
X-28113829Y-66024538D02*
X-27948872Y-66119776D01*
X-27890203Y-66208634D01*
X-27855343Y-66338732D01*
X-27909342Y-66527499D01*
X-28076009Y-66816174D01*
X-28212486Y-66957322D01*
X-28342584Y-66992181D01*
X-28448872Y-66985801D01*
X-28613829Y-66890563D01*
X-28672498Y-66801705D01*
X-28707358Y-66671607D01*
X-28653359Y-66482841D01*
X-28486692Y-66194165D01*
X-28350215Y-66053018D01*
X-28220117Y-66018158D01*
X-28113829Y-66024538D01*
X-27320942Y-67032169D02*
X-27221034Y-67144837D01*
X-27203604Y-67209886D01*
X-27209983Y-67316174D01*
X-27281412Y-67439892D01*
X-27370270Y-67498561D01*
X-27435319Y-67515991D01*
X-27541607Y-67509611D01*
X-27871522Y-67319135D01*
X-27371522Y-66453109D01*
X-27082847Y-66619776D01*
X-27024178Y-66708634D01*
X-27006748Y-66773683D01*
X-27013128Y-66879971D01*
X-27060747Y-66962450D01*
X-27149605Y-67021119D01*
X-27214654Y-67038549D01*
X-27320942Y-67032169D01*
X-27609617Y-66865502D01*
X-26743592Y-67365502D02*
X-26454916Y-67532169D01*
X-26593103Y-68057230D02*
X-27005496Y-67819135D01*
X-26505496Y-66953109D01*
X-26093103Y-67191205D01*
%TD*%
M02*
