M48
; DRILL file {KiCad (5.1.10)-1} date 12/06/21 16:33:31
; FORMAT={-:-/ absolute / inch / decimal}
; #@! TF.CreationDate,2021-12-06T16:33:31+01:00
; #@! TF.GenerationSoftware,Kicad,Pcbnew,(5.1.10)-1
; #@! TF.FileFunction,Plated,1,4,PTH
FMAT,2
INCH
T1C0.0118
T2C0.0157
T3C0.0236
T4C0.0295
T5C0.0402
%
G90
G05
T1
X-1.87Y-2.32
X-1.87Y-2.37
X-1.87Y-2.42
X-1.82Y-2.32
X-1.82Y-2.37
X-1.82Y-2.42
X-1.797Y-2.597
X-1.77Y-2.32
X-1.77Y-2.37
X-1.72Y-2.02
X-1.72Y-2.32
X-1.72Y-2.42
X-1.72Y-2.47
X-1.72Y-2.52
X-1.72Y-2.585
X-1.68Y-2.27
X-1.67Y-2.07
X-1.66Y-2.32
X-1.65Y-2.04
X-1.65Y-2.12
X-1.65Y-2.17
X-1.65Y-2.22
X-1.63Y-1.68
X-1.62Y-2.068
X-1.62Y-2.284
X-1.62Y-2.322
X-1.595Y-1.745
X-1.592Y-2.098
X-1.586Y-2.162
X-1.586Y-2.194
X-1.586Y-2.226
X-1.586Y-2.258
X-1.586Y-2.302
X-1.58Y-1.63
X-1.562Y-2.422
X-1.562Y-2.498
X-1.545Y-1.805
X-1.536Y-2.422
X-1.536Y-2.498
X-1.53Y-1.58
X-1.516Y-1.964
X-1.512Y-2.422
X-1.51Y-2.498
X-1.508Y-2.07
X-1.508Y-2.099
X-1.504Y-2.222
X-1.503Y-2.27
X-1.48Y-1.53
X-1.47Y-1.73
X-1.464Y-2.258
X-1.46Y-2.585
X-1.455Y-2.114
X-1.443Y-1.905
X-1.434Y-1.754
X-1.43Y-1.48
X-1.415Y-1.868
X-1.415Y-2.1246
X-1.41Y-1.933
X-1.408Y-2.585
X-1.408Y-2.638
X-1.404Y-1.786
X-1.4Y-2.03
X-1.385Y-1.958
X-1.376Y-2.674
X-1.36Y-1.505
X-1.36Y-1.6
X-1.36Y-2.03
X-1.345Y-2.627
X-1.344Y-2.124
X-1.336Y-2.714
X-1.332Y-1.786
X-1.332Y-2.272
X-1.32Y-1.99
X-1.32Y-2.036
X-1.3061Y-2.5512
X-1.3Y-1.618
X-1.298Y-1.75
X-1.298Y-1.82
X-1.298Y-2.17
X-1.297Y-2.015
X-1.297Y-2.624
X-1.292Y-2.312
X-1.266Y-1.648
X-1.266Y-1.72
X-1.266Y-1.852
X-1.266Y-1.936
X-1.262Y-1.784
X-1.256Y-2.426
X-1.255Y-2.35
X-1.255Y-2.52
X-1.24Y-2.037
X-1.228Y-1.75
X-1.228Y-1.82
X-1.222Y-2.336
X-1.222Y-2.366
X-1.216Y-2.538
X-1.212Y-2.136
X-1.211Y-2.167
X-1.204Y-2.244
X-1.198Y-1.786
X-1.192Y-1.592
X-1.18Y-1.962
X-1.174Y-2.117
X-1.174Y-2.148
X-1.174Y-2.178
X-1.17Y-2.248
X-1.17Y-2.276
X-1.17Y-2.314
X-1.17Y-2.348
X-1.17Y-2.81
X-1.1022Y-1.6038
X-1.08Y-1.18
X-1.08Y-1.28
X-1.08Y-1.38
X-1.08Y-1.48
X-1.07Y-2.81
X-1.06Y-1.59
X-1.05Y-2.066
X-1.05Y-2.11
X-1.03Y-1.23
X-1.03Y-1.33
X-1.03Y-1.43
X-1.025Y-2.267
X-1.025Y-2.298
X-1.02Y-2.36
X-1.02Y-2.394
X-1.02Y-2.85
X-1.016Y-2.09
X-1.007Y-1.874
X-0.992Y-2.07
X-0.98Y-1.18
X-0.979Y-1.38
X-0.973Y-1.874
X-0.97Y-2.86
X-0.966Y-2.362
X-0.964Y-2.09
X-0.941Y-2.336
X-0.94Y-2.382
X-0.938Y-2.07
X-0.92Y-1.968
X-0.92Y-1.992
X-0.92Y-2.016
X-0.92Y-2.86
X-0.915Y-1.23
X-0.915Y-1.43
X-0.914Y-2.25
X-0.914Y-2.312
X-0.914Y-2.366
X-0.896Y-2.07
X-0.888Y-2.25
X-0.888Y-2.382
X-0.87Y-2.86
X-0.86Y-2.311
X-0.858Y-2.366
X-0.85Y-1.18
X-0.85Y-1.38
X-0.834Y-2.394
X-0.834Y-2.432
X-0.8236Y-2.1064
X-0.822Y-2.068
X-0.822Y-2.311
X-0.82Y-2.85
X-0.812Y-1.708
X-0.812Y-1.784
X-0.812Y-2.242
X-0.806Y-1.968
X-0.806Y-2.33
X-0.8Y-1.23
X-0.8Y-1.33
X-0.8Y-1.43
X-0.7714Y-2.0934
X-0.77Y-2.81
X-0.7603Y-2.5185
X-0.75Y-1.18
X-0.75Y-1.28
X-0.75Y-1.38
X-0.75Y-1.48
X-0.734Y-2.094
X-0.704Y-2.464
X-0.7Y-1.53
X-0.7Y-1.58
X-0.696Y-2.055
X-0.696Y-2.094
X-0.684Y-1.92
X-0.678Y-1.868
X-0.678Y-2.238
X-0.678Y-2.396
X-0.678Y-2.43
X-0.676Y-2.474
X-0.66Y-2.094
X-0.652Y-1.92
X-0.646Y-1.868
X-0.634Y-2.634
X-0.63Y-2.094
X-0.625Y-1.94
X-0.624Y-2.594
X-0.62Y-2.81
X-0.618Y-2.238
X-0.602Y-2.634
X-0.594Y-1.844
X-0.594Y-2.594
X-0.58Y-2.356
X-0.57Y-2.71
X-0.57Y-2.76
X-0.568Y-2.634
X-0.5606Y-2.1685
X-0.554Y-1.804
X-0.554Y-1.884
X-0.55Y-1.53
X-0.52Y-2.66
X-0.52Y-2.71
X-0.518Y-2.5079
X-0.514Y-1.844
X-0.514Y-1.8841
X-0.5Y-1.58
X-0.498Y-2.168
X-0.472Y-1.848
X-0.472Y-1.88
X-0.472Y-1.942
X-0.47Y-2.61
X-0.47Y-2.66
X-0.44Y-1.53
X-0.44Y-1.63
X-0.432Y-1.942
X-0.4246Y-2.1685
X-0.42Y-2.61
X-0.418Y-2.228
X-0.392Y-1.942
X-0.39Y-1.48
X-0.39Y-1.58
X-0.39Y-1.679
X-0.38Y-2.228
X-0.376Y-2.31
X-0.364Y-2.006
X-0.34Y-1.53
X-0.34Y-1.63
X-0.34Y-1.73
X-0.334Y-2.192
X-0.334Y-2.414
X-0.334Y-2.468
X-0.33Y-1.944
X-0.32Y-1.89
X-0.32Y-2.042
X-0.2939Y-2.2295
X-0.29Y-1.58
X-0.29Y-1.679
X-0.29Y-1.78
X-0.2601Y-2.138
X-0.26Y-2.18
X-0.25Y-1.89
X-0.24Y-1.63
X-0.24Y-1.83
X-0.232Y-1.944
X-0.17Y-2.17
X-0.17Y-2.22
X-0.17Y-2.269
X-0.16Y-2.12
X-0.15Y-2.02
X-0.15Y-2.07
X-0.14Y-2.46
X-0.14Y-2.51
X-0.13Y-2.32
X-0.115Y-2.42
X-0.1Y-2.045
X-0.09Y-2.46
X-0.09Y-2.51
X-0.08Y-2.32
X-0.03Y-2.32
X-0.03Y-2.37
X-0.03Y-2.59
X0.02Y-2.32
X0.02Y-2.37
X0.02Y-2.42
T2
X-1.5136Y-1.9044
X-1.4856Y-1.8624
X-1.359Y-2.246
X-1.088Y-2.752
X-1.064Y-2.778
X-1.039Y-2.803
T4
X-1.814Y-2.464
X-1.8003Y-2.5415
X-1.628Y-2.428
X-1.628Y-2.5067
X-1.558Y-1.712
X-1.5023Y-1.6563
X-1.4466Y-1.6006
X-1.436Y-2.428
X-1.436Y-2.5067
X-1.391Y-1.545
X-1.244Y-2.672
X-1.1758Y-2.7114
X-0.396Y-2.4273
X-0.396Y-2.506
X-0.204Y-2.4273
X-0.204Y-2.506
X-0.026Y-2.54
X-0.0123Y-2.4625
T5
X-0.9841Y-2.732
X-0.9755Y-1.4865
X-0.9755Y-1.6046
X-0.866Y-2.732
X-0.8574Y-1.4865
X-0.8574Y-1.6046
T3
G00X-0.5939Y-1.6154
M15
G01X-0.6217Y-1.6432
M16
G05
G00X-0.4377Y-1.4592
M15
G01X-0.4795Y-1.5009
M16
G05
G00X-0.3534Y-1.8559
M15
G01X-0.3812Y-1.8837
M16
G05
G00X-0.1972Y-1.6997
M15
G01X-0.2389Y-1.7415
M16
G05
T0
M30
