G04 #@! TF.GenerationSoftware,KiCad,Pcbnew,(6.0.0)*
G04 #@! TF.CreationDate,2022-01-08T17:27:50+01:00*
G04 #@! TF.ProjectId,MiniAB-CAN-Board,4d696e69-4142-42d4-9341-4e2d426f6172,1*
G04 #@! TF.SameCoordinates,Original*
G04 #@! TF.FileFunction,Legend,Bot*
G04 #@! TF.FilePolarity,Positive*
%FSLAX46Y46*%
G04 Gerber Fmt 4.6, Leading zero omitted, Abs format (unit mm)*
G04 Created by KiCad (PCBNEW (6.0.0)) date 2022-01-08 17:27:50*
%MOMM*%
%LPD*%
G01*
G04 APERTURE LIST*
%ADD10C,0.152400*%
%ADD11C,0.100000*%
%ADD12C,0.150000*%
%ADD13C,0.120000*%
G04 APERTURE END LIST*
D10*
X212510000Y-56380000D02*
X212060000Y-56380000D01*
X215500000Y-56375000D02*
X215500000Y-55260000D01*
X209970000Y-56380000D02*
X209510000Y-56380000D01*
X218490000Y-55260000D02*
X218490000Y-56380000D01*
X218490000Y-56380000D02*
X218030000Y-56380000D01*
X212510000Y-55260000D02*
X212510000Y-56380000D01*
X209510000Y-56380000D02*
X209510000Y-55310000D01*
X216050000Y-56375000D02*
X215500000Y-56375000D01*
D11*
X211265714Y-57518571D02*
X211237142Y-57547142D01*
X211208571Y-57632857D01*
X211208571Y-57690000D01*
X211237142Y-57775714D01*
X211294285Y-57832857D01*
X211351428Y-57861428D01*
X211465714Y-57890000D01*
X211551428Y-57890000D01*
X211665714Y-57861428D01*
X211722857Y-57832857D01*
X211780000Y-57775714D01*
X211808571Y-57690000D01*
X211808571Y-57632857D01*
X211780000Y-57547142D01*
X211751428Y-57518571D01*
X211380000Y-57290000D02*
X211380000Y-57004285D01*
X211208571Y-57347142D02*
X211808571Y-57147142D01*
X211208571Y-56947142D01*
X211208571Y-56747142D02*
X211808571Y-56747142D01*
X211208571Y-56404285D01*
X211808571Y-56404285D01*
X211208571Y-55832857D02*
X211208571Y-56118571D01*
X211808571Y-56118571D01*
X218110000Y-72217142D02*
X218024285Y-72245714D01*
X217995714Y-72274285D01*
X217967142Y-72331428D01*
X217967142Y-72417142D01*
X217995714Y-72474285D01*
X218024285Y-72502857D01*
X218081428Y-72531428D01*
X218310000Y-72531428D01*
X218310000Y-71931428D01*
X218110000Y-71931428D01*
X218052857Y-71960000D01*
X218024285Y-71988571D01*
X217995714Y-72045714D01*
X217995714Y-72102857D01*
X218024285Y-72160000D01*
X218052857Y-72188571D01*
X218110000Y-72217142D01*
X218310000Y-72217142D01*
X217595714Y-71931428D02*
X217481428Y-71931428D01*
X217424285Y-71960000D01*
X217367142Y-72017142D01*
X217338571Y-72131428D01*
X217338571Y-72331428D01*
X217367142Y-72445714D01*
X217424285Y-72502857D01*
X217481428Y-72531428D01*
X217595714Y-72531428D01*
X217652857Y-72502857D01*
X217710000Y-72445714D01*
X217738571Y-72331428D01*
X217738571Y-72131428D01*
X217710000Y-72017142D01*
X217652857Y-71960000D01*
X217595714Y-71931428D01*
X216967142Y-71931428D02*
X216852857Y-71931428D01*
X216795714Y-71960000D01*
X216738571Y-72017142D01*
X216710000Y-72131428D01*
X216710000Y-72331428D01*
X216738571Y-72445714D01*
X216795714Y-72502857D01*
X216852857Y-72531428D01*
X216967142Y-72531428D01*
X217024285Y-72502857D01*
X217081428Y-72445714D01*
X217110000Y-72331428D01*
X217110000Y-72131428D01*
X217081428Y-72017142D01*
X217024285Y-71960000D01*
X216967142Y-71931428D01*
X216538571Y-71931428D02*
X216195714Y-71931428D01*
X216367142Y-72531428D02*
X216367142Y-71931428D01*
X215681428Y-72531428D02*
X216024285Y-72531428D01*
X215852857Y-72531428D02*
X215852857Y-71931428D01*
X215910000Y-72017142D01*
X215967142Y-72074285D01*
X216024285Y-72102857D01*
X216947142Y-74500000D02*
X217004285Y-74471428D01*
X217090000Y-74471428D01*
X217175714Y-74500000D01*
X217232857Y-74557142D01*
X217261428Y-74614285D01*
X217290000Y-74728571D01*
X217290000Y-74814285D01*
X217261428Y-74928571D01*
X217232857Y-74985714D01*
X217175714Y-75042857D01*
X217090000Y-75071428D01*
X217032857Y-75071428D01*
X216947142Y-75042857D01*
X216918571Y-75014285D01*
X216918571Y-74814285D01*
X217032857Y-74814285D01*
X216661428Y-75071428D02*
X216661428Y-74471428D01*
X216318571Y-75071428D01*
X216318571Y-74471428D01*
X216032857Y-75071428D02*
X216032857Y-74471428D01*
X215890000Y-74471428D01*
X215804285Y-74500000D01*
X215747142Y-74557142D01*
X215718571Y-74614285D01*
X215690000Y-74728571D01*
X215690000Y-74814285D01*
X215718571Y-74928571D01*
X215747142Y-74985714D01*
X215804285Y-75042857D01*
X215890000Y-75071428D01*
X216032857Y-75071428D01*
X210295714Y-57530000D02*
X210267142Y-57558571D01*
X210238571Y-57644285D01*
X210238571Y-57701428D01*
X210267142Y-57787142D01*
X210324285Y-57844285D01*
X210381428Y-57872857D01*
X210495714Y-57901428D01*
X210581428Y-57901428D01*
X210695714Y-57872857D01*
X210752857Y-57844285D01*
X210810000Y-57787142D01*
X210838571Y-57701428D01*
X210838571Y-57644285D01*
X210810000Y-57558571D01*
X210781428Y-57530000D01*
X210410000Y-57301428D02*
X210410000Y-57015714D01*
X210238571Y-57358571D02*
X210838571Y-57158571D01*
X210238571Y-56958571D01*
X210238571Y-56758571D02*
X210838571Y-56758571D01*
X210238571Y-56415714D01*
X210838571Y-56415714D01*
X210238571Y-56130000D02*
X210838571Y-56130000D01*
X210552857Y-56130000D02*
X210552857Y-55787142D01*
X210238571Y-55787142D02*
X210838571Y-55787142D01*
X217721428Y-57334285D02*
X217750000Y-57305714D01*
X217778571Y-57248571D01*
X217778571Y-57105714D01*
X217750000Y-57048571D01*
X217721428Y-57020000D01*
X217664285Y-56991428D01*
X217607142Y-56991428D01*
X217521428Y-57020000D01*
X217178571Y-57362857D01*
X217178571Y-56991428D01*
X217578571Y-56477142D02*
X217178571Y-56477142D01*
X217807142Y-56620000D02*
X217378571Y-56762857D01*
X217378571Y-56391428D01*
X217778571Y-56248571D02*
X217178571Y-56048571D01*
X217778571Y-55848571D01*
X216830000Y-57037142D02*
X216858571Y-57094285D01*
X216858571Y-57180000D01*
X216830000Y-57265714D01*
X216772857Y-57322857D01*
X216715714Y-57351428D01*
X216601428Y-57380000D01*
X216515714Y-57380000D01*
X216401428Y-57351428D01*
X216344285Y-57322857D01*
X216287142Y-57265714D01*
X216258571Y-57180000D01*
X216258571Y-57122857D01*
X216287142Y-57037142D01*
X216315714Y-57008571D01*
X216515714Y-57008571D01*
X216515714Y-57122857D01*
X216258571Y-56751428D02*
X216858571Y-56751428D01*
X216258571Y-56408571D01*
X216858571Y-56408571D01*
X216258571Y-56122857D02*
X216858571Y-56122857D01*
X216858571Y-55980000D01*
X216830000Y-55894285D01*
X216772857Y-55837142D01*
X216715714Y-55808571D01*
X216601428Y-55780000D01*
X216515714Y-55780000D01*
X216401428Y-55808571D01*
X216344285Y-55837142D01*
X216287142Y-55894285D01*
X216258571Y-55980000D01*
X216258571Y-56122857D01*
X237354843Y-77411595D02*
X237441667Y-76919191D01*
X237254085Y-76886115D01*
X237203054Y-76901294D01*
X237175472Y-76920607D01*
X237143755Y-76963369D01*
X237131352Y-77033712D01*
X237146531Y-77084742D01*
X237165844Y-77112324D01*
X237208605Y-77144041D01*
X237396188Y-77177117D01*
X236743784Y-77037904D02*
X236669306Y-77048948D01*
X236641723Y-77068261D01*
X236610007Y-77111022D01*
X236597603Y-77181366D01*
X236612782Y-77232396D01*
X236632095Y-77259978D01*
X236674857Y-77291695D01*
X236862439Y-77324771D01*
X236949263Y-76832367D01*
X236785128Y-76803426D01*
X236734098Y-76818604D01*
X236706516Y-76837918D01*
X236674799Y-76880679D01*
X236666530Y-76927575D01*
X236681709Y-76978605D01*
X236701023Y-77006187D01*
X236743784Y-77037904D01*
X236907918Y-77066845D01*
X236112109Y-77192467D02*
X236393483Y-77242081D01*
X236252796Y-77217274D02*
X236339620Y-76724870D01*
X236374112Y-76803483D01*
X236412739Y-76858647D01*
X236455500Y-76890364D01*
X236003082Y-76713883D02*
X235983769Y-76686301D01*
X235941008Y-76654584D01*
X235823769Y-76633912D01*
X235772738Y-76649091D01*
X235745156Y-76668404D01*
X235713439Y-76711165D01*
X235705170Y-76758061D01*
X235716215Y-76832539D01*
X235947975Y-77163526D01*
X235643153Y-77109778D01*
X199042335Y-57753756D02*
X198840304Y-57551725D01*
X198961522Y-57915380D02*
X199244365Y-57349695D01*
X198678680Y-57632538D01*
X198315025Y-57268883D02*
X198557461Y-57511319D01*
X198436243Y-57390101D02*
X198860507Y-56965837D01*
X198840304Y-57066852D01*
X198840304Y-57147664D01*
X198860507Y-57208274D01*
X193063398Y-81273912D02*
X192976574Y-80781508D01*
X192788991Y-80814584D01*
X192746230Y-80846301D01*
X192726917Y-80873883D01*
X192711738Y-80924913D01*
X192724142Y-80995257D01*
X192755858Y-81038018D01*
X192783441Y-81057331D01*
X192834471Y-81072510D01*
X193022053Y-81039434D01*
X192361380Y-81131752D02*
X192295171Y-81167603D01*
X192275858Y-81195185D01*
X192260679Y-81246216D01*
X192273083Y-81316559D01*
X192304799Y-81359320D01*
X192332382Y-81378633D01*
X192383412Y-81393812D01*
X192570994Y-81360736D01*
X192484170Y-80868333D01*
X192320035Y-80897274D01*
X192277274Y-80928991D01*
X192257961Y-80956573D01*
X192242782Y-81007603D01*
X192251051Y-81054499D01*
X192282768Y-81097260D01*
X192310350Y-81116573D01*
X192361380Y-81131752D01*
X192525515Y-81102811D01*
X191820664Y-81493040D02*
X192102038Y-81443426D01*
X191961351Y-81468233D02*
X191874527Y-80975829D01*
X191933826Y-81037903D01*
X191988991Y-81076530D01*
X192040021Y-81091709D01*
X191554527Y-81080607D02*
X191526945Y-81061294D01*
X191475914Y-81046115D01*
X191358675Y-81066788D01*
X191315914Y-81098504D01*
X191296601Y-81126087D01*
X191281422Y-81177117D01*
X191289691Y-81224012D01*
X191325542Y-81290221D01*
X191656530Y-81521981D01*
X191351708Y-81575729D01*
X196152030Y-60381421D02*
X196071218Y-60341015D01*
X196030812Y-60341015D01*
X195970203Y-60361218D01*
X195909593Y-60421827D01*
X195889390Y-60482436D01*
X195889390Y-60522842D01*
X195909593Y-60583451D01*
X196071218Y-60745076D01*
X196495482Y-60320812D01*
X196354061Y-60179390D01*
X196293451Y-60159187D01*
X196253045Y-60159187D01*
X196192436Y-60179390D01*
X196152030Y-60219796D01*
X196131827Y-60280406D01*
X196131827Y-60320812D01*
X196152030Y-60381421D01*
X196293451Y-60522842D01*
X196051015Y-59957157D02*
X196051015Y-59916751D01*
X196030812Y-59856142D01*
X195929796Y-59755126D01*
X195869187Y-59734923D01*
X195828781Y-59734923D01*
X195768172Y-59755126D01*
X195727766Y-59795532D01*
X195687360Y-59876345D01*
X195687360Y-60361218D01*
X195424720Y-60098578D01*
X209035714Y-72531428D02*
X209035714Y-71931428D01*
X208692857Y-72531428D01*
X208692857Y-71931428D01*
X208064285Y-72531428D02*
X208264285Y-72245714D01*
X208407142Y-72531428D02*
X208407142Y-71931428D01*
X208178571Y-71931428D01*
X208121428Y-71960000D01*
X208092857Y-71988571D01*
X208064285Y-72045714D01*
X208064285Y-72131428D01*
X208092857Y-72188571D01*
X208121428Y-72217142D01*
X208178571Y-72245714D01*
X208407142Y-72245714D01*
X207835714Y-72502857D02*
X207750000Y-72531428D01*
X207607142Y-72531428D01*
X207550000Y-72502857D01*
X207521428Y-72474285D01*
X207492857Y-72417142D01*
X207492857Y-72360000D01*
X207521428Y-72302857D01*
X207550000Y-72274285D01*
X207607142Y-72245714D01*
X207721428Y-72217142D01*
X207778571Y-72188571D01*
X207807142Y-72160000D01*
X207835714Y-72102857D01*
X207835714Y-72045714D01*
X207807142Y-71988571D01*
X207778571Y-71960000D01*
X207721428Y-71931428D01*
X207578571Y-71931428D01*
X207492857Y-71960000D01*
X207321428Y-71931428D02*
X206978571Y-71931428D01*
X207150000Y-72531428D02*
X207150000Y-71931428D01*
X209027142Y-75042857D02*
X208941428Y-75071428D01*
X208798571Y-75071428D01*
X208741428Y-75042857D01*
X208712857Y-75014285D01*
X208684285Y-74957142D01*
X208684285Y-74900000D01*
X208712857Y-74842857D01*
X208741428Y-74814285D01*
X208798571Y-74785714D01*
X208912857Y-74757142D01*
X208970000Y-74728571D01*
X208998571Y-74700000D01*
X209027142Y-74642857D01*
X209027142Y-74585714D01*
X208998571Y-74528571D01*
X208970000Y-74500000D01*
X208912857Y-74471428D01*
X208770000Y-74471428D01*
X208684285Y-74500000D01*
X208484285Y-74471428D02*
X208341428Y-75071428D01*
X208227142Y-74642857D01*
X208112857Y-75071428D01*
X207970000Y-74471428D01*
X207398571Y-75014285D02*
X207427142Y-75042857D01*
X207512857Y-75071428D01*
X207570000Y-75071428D01*
X207655714Y-75042857D01*
X207712857Y-74985714D01*
X207741428Y-74928571D01*
X207770000Y-74814285D01*
X207770000Y-74728571D01*
X207741428Y-74614285D01*
X207712857Y-74557142D01*
X207655714Y-74500000D01*
X207570000Y-74471428D01*
X207512857Y-74471428D01*
X207427142Y-74500000D01*
X207398571Y-74528571D01*
X206855714Y-75071428D02*
X207141428Y-75071428D01*
X207141428Y-74471428D01*
X206655714Y-75071428D02*
X206655714Y-74471428D01*
X206312857Y-75071428D02*
X206570000Y-74728571D01*
X206312857Y-74471428D02*
X206655714Y-74814285D01*
X200452335Y-56343756D02*
X200250304Y-56141725D01*
X200371522Y-56505380D02*
X200654365Y-55939695D01*
X200088680Y-56222538D01*
X200351319Y-55717461D02*
X200351319Y-55677055D01*
X200331116Y-55616446D01*
X200230101Y-55515431D01*
X200169492Y-55495228D01*
X200129086Y-55495228D01*
X200068477Y-55515431D01*
X200028071Y-55555837D01*
X199987664Y-55636649D01*
X199987664Y-56121522D01*
X199725025Y-55858883D01*
X209032857Y-73201428D02*
X208661428Y-73201428D01*
X208861428Y-73430000D01*
X208775714Y-73430000D01*
X208718571Y-73458571D01*
X208690000Y-73487142D01*
X208661428Y-73544285D01*
X208661428Y-73687142D01*
X208690000Y-73744285D01*
X208718571Y-73772857D01*
X208775714Y-73801428D01*
X208947142Y-73801428D01*
X209004285Y-73772857D01*
X209032857Y-73744285D01*
X208490000Y-73201428D02*
X208290000Y-73801428D01*
X208090000Y-73201428D01*
X207947142Y-73201428D02*
X207575714Y-73201428D01*
X207775714Y-73430000D01*
X207690000Y-73430000D01*
X207632857Y-73458571D01*
X207604285Y-73487142D01*
X207575714Y-73544285D01*
X207575714Y-73687142D01*
X207604285Y-73744285D01*
X207632857Y-73772857D01*
X207690000Y-73801428D01*
X207861428Y-73801428D01*
X207918571Y-73772857D01*
X207947142Y-73744285D01*
X197552030Y-58981421D02*
X197471218Y-58941015D01*
X197430812Y-58941015D01*
X197370203Y-58961218D01*
X197309593Y-59021827D01*
X197289390Y-59082436D01*
X197289390Y-59122842D01*
X197309593Y-59183451D01*
X197471218Y-59345076D01*
X197895482Y-58920812D01*
X197754061Y-58779390D01*
X197693451Y-58759187D01*
X197653045Y-58759187D01*
X197592436Y-58779390D01*
X197552030Y-58819796D01*
X197531827Y-58880406D01*
X197531827Y-58920812D01*
X197552030Y-58981421D01*
X197693451Y-59122842D01*
X196824720Y-58698578D02*
X197067157Y-58941015D01*
X196945938Y-58819796D02*
X197370203Y-58395532D01*
X197349999Y-58496548D01*
X197350000Y-58577360D01*
X197370203Y-58637969D01*
X218231428Y-73772857D02*
X218145714Y-73801428D01*
X218002857Y-73801428D01*
X217945714Y-73772857D01*
X217917142Y-73744285D01*
X217888571Y-73687142D01*
X217888571Y-73630000D01*
X217917142Y-73572857D01*
X217945714Y-73544285D01*
X218002857Y-73515714D01*
X218117142Y-73487142D01*
X218174285Y-73458571D01*
X218202857Y-73430000D01*
X218231428Y-73372857D01*
X218231428Y-73315714D01*
X218202857Y-73258571D01*
X218174285Y-73230000D01*
X218117142Y-73201428D01*
X217974285Y-73201428D01*
X217888571Y-73230000D01*
X217688571Y-73201428D02*
X217545714Y-73801428D01*
X217431428Y-73372857D01*
X217317142Y-73801428D01*
X217174285Y-73201428D01*
X216945714Y-73801428D02*
X216945714Y-73201428D01*
X216802857Y-73201428D01*
X216717142Y-73230000D01*
X216660000Y-73287142D01*
X216631428Y-73344285D01*
X216602857Y-73458571D01*
X216602857Y-73544285D01*
X216631428Y-73658571D01*
X216660000Y-73715714D01*
X216717142Y-73772857D01*
X216802857Y-73801428D01*
X216945714Y-73801428D01*
X216345714Y-73801428D02*
X216345714Y-73201428D01*
X215945714Y-73201428D02*
X215831428Y-73201428D01*
X215774285Y-73230000D01*
X215717142Y-73287142D01*
X215688571Y-73401428D01*
X215688571Y-73601428D01*
X215717142Y-73715714D01*
X215774285Y-73772857D01*
X215831428Y-73801428D01*
X215945714Y-73801428D01*
X216002857Y-73772857D01*
X216060000Y-73715714D01*
X216088571Y-73601428D01*
X216088571Y-73401428D01*
X216060000Y-73287142D01*
X216002857Y-73230000D01*
X215945714Y-73201428D01*
X236299803Y-81025647D02*
X235998652Y-81581802D01*
X235905880Y-80956188D01*
X235644420Y-81287244D02*
X235194222Y-81207862D01*
X235379630Y-81472652D02*
X235459012Y-81022454D01*
X191765691Y-76537192D02*
X191672918Y-77162807D01*
X191371768Y-76606652D01*
X191239304Y-77007167D02*
X190789106Y-77086549D01*
X191053896Y-77271957D02*
X190974514Y-76821759D01*
G04 #@! TO.C,J12*
X220937142Y-79087142D02*
X220737142Y-79087142D01*
X220651428Y-79401428D02*
X220937142Y-79401428D01*
X220937142Y-78801428D01*
X220651428Y-78801428D01*
X220394285Y-79401428D02*
X220394285Y-78801428D01*
X220051428Y-79401428D01*
X220051428Y-78801428D01*
X219765714Y-79401428D02*
X219765714Y-78801428D01*
X219622857Y-78801428D01*
X219537142Y-78830000D01*
X219480000Y-78887142D01*
X219451428Y-78944285D01*
X219422857Y-79058571D01*
X219422857Y-79144285D01*
X219451428Y-79258571D01*
X219480000Y-79315714D01*
X219537142Y-79372857D01*
X219622857Y-79401428D01*
X219765714Y-79401428D01*
X219194285Y-79372857D02*
X219108571Y-79401428D01*
X218965714Y-79401428D01*
X218908571Y-79372857D01*
X218880000Y-79344285D01*
X218851428Y-79287142D01*
X218851428Y-79230000D01*
X218880000Y-79172857D01*
X218908571Y-79144285D01*
X218965714Y-79115714D01*
X219080000Y-79087142D01*
X219137142Y-79058571D01*
X219165714Y-79030000D01*
X219194285Y-78972857D01*
X219194285Y-78915714D01*
X219165714Y-78858571D01*
X219137142Y-78830000D01*
X219080000Y-78801428D01*
X218937142Y-78801428D01*
X218851428Y-78830000D01*
X218680000Y-78801428D02*
X218337142Y-78801428D01*
X218508571Y-79401428D02*
X218508571Y-78801428D01*
X218022857Y-78801428D02*
X217908571Y-78801428D01*
X217851428Y-78830000D01*
X217794285Y-78887142D01*
X217765714Y-79001428D01*
X217765714Y-79201428D01*
X217794285Y-79315714D01*
X217851428Y-79372857D01*
X217908571Y-79401428D01*
X218022857Y-79401428D01*
X218080000Y-79372857D01*
X218137142Y-79315714D01*
X218165714Y-79201428D01*
X218165714Y-79001428D01*
X218137142Y-78887142D01*
X218080000Y-78830000D01*
X218022857Y-78801428D01*
X217508571Y-79401428D02*
X217508571Y-78801428D01*
X217280000Y-78801428D01*
X217222857Y-78830000D01*
X217194285Y-78858571D01*
X217165714Y-78915714D01*
X217165714Y-79001428D01*
X217194285Y-79058571D01*
X217222857Y-79087142D01*
X217280000Y-79115714D01*
X217508571Y-79115714D01*
X216594285Y-79401428D02*
X216937142Y-79401428D01*
X216765714Y-79401428D02*
X216765714Y-78801428D01*
X216822857Y-78887142D01*
X216880000Y-78944285D01*
X216937142Y-78972857D01*
G04 #@! TO.C,JP1*
X230454285Y-66011428D02*
X230454285Y-65411428D01*
X230225714Y-65411428D01*
X230168571Y-65440000D01*
X230140000Y-65468571D01*
X230111428Y-65525714D01*
X230111428Y-65611428D01*
X230140000Y-65668571D01*
X230168571Y-65697142D01*
X230225714Y-65725714D01*
X230454285Y-65725714D01*
X229511428Y-65954285D02*
X229540000Y-65982857D01*
X229625714Y-66011428D01*
X229682857Y-66011428D01*
X229768571Y-65982857D01*
X229825714Y-65925714D01*
X229854285Y-65868571D01*
X229882857Y-65754285D01*
X229882857Y-65668571D01*
X229854285Y-65554285D01*
X229825714Y-65497142D01*
X229768571Y-65440000D01*
X229682857Y-65411428D01*
X229625714Y-65411428D01*
X229540000Y-65440000D01*
X229511428Y-65468571D01*
X229054285Y-65697142D02*
X229254285Y-65697142D01*
X229254285Y-66011428D02*
X229254285Y-65411428D01*
X228968571Y-65411428D01*
X224727005Y-63513147D02*
X224727005Y-63472741D01*
X224706802Y-63412132D01*
X224605786Y-63311116D01*
X224545177Y-63290913D01*
X224504771Y-63290913D01*
X224444162Y-63311116D01*
X224403756Y-63351522D01*
X224363350Y-63432335D01*
X224363350Y-63917208D01*
X224100710Y-63654568D01*
X224019898Y-63008071D02*
X223737055Y-63290913D01*
X224282538Y-62947461D02*
X224080507Y-63351522D01*
X223817867Y-63088883D01*
X223999695Y-62705025D02*
X223434009Y-62987867D01*
X223716852Y-62422182D01*
X227073147Y-63558477D02*
X227275177Y-63760507D01*
X227093350Y-63982741D01*
X227093350Y-63942335D01*
X227073147Y-63881725D01*
X226972132Y-63780710D01*
X226911522Y-63760507D01*
X226871116Y-63760507D01*
X226810507Y-63780710D01*
X226709492Y-63881725D01*
X226689289Y-63942335D01*
X226689289Y-63982741D01*
X226709492Y-64043350D01*
X226810507Y-64144365D01*
X226871116Y-64164568D01*
X226911522Y-64164568D01*
X226931725Y-63417055D02*
X226366040Y-63699898D01*
X226648883Y-63134213D01*
G04 #@! TO.C,J3*
X203500000Y-76191428D02*
X203500000Y-75591428D01*
X203500000Y-75877142D02*
X203157142Y-75877142D01*
X203157142Y-76191428D02*
X203157142Y-75591428D01*
X202871428Y-75877142D02*
X202671428Y-75877142D01*
X202585714Y-76191428D02*
X202871428Y-76191428D01*
X202871428Y-75591428D01*
X202585714Y-75591428D01*
X202128571Y-75877142D02*
X202328571Y-75877142D01*
X202328571Y-76191428D02*
X202328571Y-75591428D01*
X202042857Y-75591428D01*
G04 #@! TO.C,TP2*
X212962857Y-66481428D02*
X212591428Y-66481428D01*
X212791428Y-66710000D01*
X212705714Y-66710000D01*
X212648571Y-66738571D01*
X212620000Y-66767142D01*
X212591428Y-66824285D01*
X212591428Y-66967142D01*
X212620000Y-67024285D01*
X212648571Y-67052857D01*
X212705714Y-67081428D01*
X212877142Y-67081428D01*
X212934285Y-67052857D01*
X212962857Y-67024285D01*
X212420000Y-66481428D02*
X212220000Y-67081428D01*
X212020000Y-66481428D01*
X211877142Y-66481428D02*
X211505714Y-66481428D01*
X211705714Y-66710000D01*
X211620000Y-66710000D01*
X211562857Y-66738571D01*
X211534285Y-66767142D01*
X211505714Y-66824285D01*
X211505714Y-66967142D01*
X211534285Y-67024285D01*
X211562857Y-67052857D01*
X211620000Y-67081428D01*
X211791428Y-67081428D01*
X211848571Y-67052857D01*
X211877142Y-67024285D01*
D12*
G04 #@! TO.C,J7*
X230543333Y-82192380D02*
X230543333Y-82906666D01*
X230590952Y-83049523D01*
X230686190Y-83144761D01*
X230829047Y-83192380D01*
X230924285Y-83192380D01*
X230162380Y-82192380D02*
X229495714Y-82192380D01*
X229924285Y-83192380D01*
D11*
X232220000Y-76661428D02*
X232220000Y-76061428D01*
X231877142Y-76661428D01*
X231877142Y-76061428D01*
X231591428Y-76347142D02*
X231391428Y-76347142D01*
X231305714Y-76661428D02*
X231591428Y-76661428D01*
X231591428Y-76061428D01*
X231305714Y-76061428D01*
X230934285Y-76061428D02*
X230820000Y-76061428D01*
X230762857Y-76090000D01*
X230705714Y-76147142D01*
X230677142Y-76261428D01*
X230677142Y-76461428D01*
X230705714Y-76575714D01*
X230762857Y-76632857D01*
X230820000Y-76661428D01*
X230934285Y-76661428D01*
X230991428Y-76632857D01*
X231048571Y-76575714D01*
X231077142Y-76461428D01*
X231077142Y-76261428D01*
X231048571Y-76147142D01*
X230991428Y-76090000D01*
X230934285Y-76061428D01*
X230420000Y-76661428D02*
X230420000Y-76061428D01*
X230191428Y-76061428D01*
X230134285Y-76090000D01*
X230105714Y-76118571D01*
X230077142Y-76175714D01*
X230077142Y-76261428D01*
X230105714Y-76318571D01*
X230134285Y-76347142D01*
X230191428Y-76375714D01*
X230420000Y-76375714D01*
X229820000Y-76661428D02*
X229820000Y-76061428D01*
X229591428Y-76061428D02*
X229191428Y-76661428D01*
X229191428Y-76061428D02*
X229591428Y-76661428D01*
X228962857Y-76347142D02*
X228762857Y-76347142D01*
X228677142Y-76661428D02*
X228962857Y-76661428D01*
X228962857Y-76061428D01*
X228677142Y-76061428D01*
X228134285Y-76661428D02*
X228420000Y-76661428D01*
X228420000Y-76061428D01*
G04 #@! TO.C,TP3*
X207744285Y-57448571D02*
X207715714Y-57420000D01*
X207658571Y-57391428D01*
X207515714Y-57391428D01*
X207458571Y-57420000D01*
X207430000Y-57448571D01*
X207401428Y-57505714D01*
X207401428Y-57562857D01*
X207430000Y-57648571D01*
X207772857Y-57991428D01*
X207401428Y-57991428D01*
X206887142Y-57591428D02*
X206887142Y-57991428D01*
X207030000Y-57362857D02*
X207172857Y-57791428D01*
X206801428Y-57791428D01*
X206658571Y-57391428D02*
X206458571Y-57991428D01*
X206258571Y-57391428D01*
G04 #@! TO.C,TP4*
X199107142Y-70050000D02*
X199164285Y-70021428D01*
X199250000Y-70021428D01*
X199335714Y-70050000D01*
X199392857Y-70107142D01*
X199421428Y-70164285D01*
X199450000Y-70278571D01*
X199450000Y-70364285D01*
X199421428Y-70478571D01*
X199392857Y-70535714D01*
X199335714Y-70592857D01*
X199250000Y-70621428D01*
X199192857Y-70621428D01*
X199107142Y-70592857D01*
X199078571Y-70564285D01*
X199078571Y-70364285D01*
X199192857Y-70364285D01*
X198821428Y-70621428D02*
X198821428Y-70021428D01*
X198478571Y-70621428D01*
X198478571Y-70021428D01*
X198192857Y-70621428D02*
X198192857Y-70021428D01*
X198050000Y-70021428D01*
X197964285Y-70050000D01*
X197907142Y-70107142D01*
X197878571Y-70164285D01*
X197850000Y-70278571D01*
X197850000Y-70364285D01*
X197878571Y-70478571D01*
X197907142Y-70535714D01*
X197964285Y-70592857D01*
X198050000Y-70621428D01*
X198192857Y-70621428D01*
G04 #@! TO.C,TP1*
X213910000Y-64527142D02*
X213824285Y-64555714D01*
X213795714Y-64584285D01*
X213767142Y-64641428D01*
X213767142Y-64727142D01*
X213795714Y-64784285D01*
X213824285Y-64812857D01*
X213881428Y-64841428D01*
X214110000Y-64841428D01*
X214110000Y-64241428D01*
X213910000Y-64241428D01*
X213852857Y-64270000D01*
X213824285Y-64298571D01*
X213795714Y-64355714D01*
X213795714Y-64412857D01*
X213824285Y-64470000D01*
X213852857Y-64498571D01*
X213910000Y-64527142D01*
X214110000Y-64527142D01*
X213395714Y-64241428D02*
X213281428Y-64241428D01*
X213224285Y-64270000D01*
X213167142Y-64327142D01*
X213138571Y-64441428D01*
X213138571Y-64641428D01*
X213167142Y-64755714D01*
X213224285Y-64812857D01*
X213281428Y-64841428D01*
X213395714Y-64841428D01*
X213452857Y-64812857D01*
X213510000Y-64755714D01*
X213538571Y-64641428D01*
X213538571Y-64441428D01*
X213510000Y-64327142D01*
X213452857Y-64270000D01*
X213395714Y-64241428D01*
X212767142Y-64241428D02*
X212652857Y-64241428D01*
X212595714Y-64270000D01*
X212538571Y-64327142D01*
X212510000Y-64441428D01*
X212510000Y-64641428D01*
X212538571Y-64755714D01*
X212595714Y-64812857D01*
X212652857Y-64841428D01*
X212767142Y-64841428D01*
X212824285Y-64812857D01*
X212881428Y-64755714D01*
X212910000Y-64641428D01*
X212910000Y-64441428D01*
X212881428Y-64327142D01*
X212824285Y-64270000D01*
X212767142Y-64241428D01*
X212338571Y-64241428D02*
X211995714Y-64241428D01*
X212167142Y-64841428D02*
X212167142Y-64241428D01*
X211681428Y-64241428D02*
X211624285Y-64241428D01*
X211567142Y-64270000D01*
X211538571Y-64298571D01*
X211510000Y-64355714D01*
X211481428Y-64470000D01*
X211481428Y-64612857D01*
X211510000Y-64727142D01*
X211538571Y-64784285D01*
X211567142Y-64812857D01*
X211624285Y-64841428D01*
X211681428Y-64841428D01*
X211738571Y-64812857D01*
X211767142Y-64784285D01*
X211795714Y-64727142D01*
X211824285Y-64612857D01*
X211824285Y-64470000D01*
X211795714Y-64355714D01*
X211767142Y-64298571D01*
X211738571Y-64270000D01*
X211681428Y-64241428D01*
G04 #@! TO.C,J6*
X220341315Y-59500497D02*
X220496606Y-58920941D01*
X220422658Y-59196920D02*
X220091483Y-59108182D01*
X220010140Y-59411759D02*
X220165432Y-58832203D01*
X219779061Y-58728676D02*
X219723865Y-58713886D01*
X219661275Y-58726694D01*
X219626282Y-58746897D01*
X219583895Y-58794698D01*
X219526717Y-58897695D01*
X219489743Y-59035684D01*
X219487762Y-59153471D01*
X219500570Y-59216061D01*
X219520773Y-59251054D01*
X219568574Y-59293441D01*
X219623770Y-59308231D01*
X219686360Y-59295423D01*
X219721353Y-59275220D01*
X219763741Y-59227419D01*
X219820918Y-59124422D01*
X219857892Y-58986433D01*
X219859873Y-58868646D01*
X219847065Y-58806056D01*
X219826862Y-58771063D01*
X219779061Y-58728676D01*
G04 #@! TO.C,J4*
X197291428Y-75621428D02*
X196948571Y-75621428D01*
X197120000Y-76221428D02*
X197120000Y-75621428D01*
X196748571Y-76221428D02*
X196748571Y-75621428D01*
X196748571Y-75907142D02*
X196405714Y-75907142D01*
X196405714Y-76221428D02*
X196405714Y-75621428D01*
X196005714Y-75621428D02*
X195948571Y-75621428D01*
X195891428Y-75650000D01*
X195862857Y-75678571D01*
X195834285Y-75735714D01*
X195805714Y-75850000D01*
X195805714Y-75992857D01*
X195834285Y-76107142D01*
X195862857Y-76164285D01*
X195891428Y-76192857D01*
X195948571Y-76221428D01*
X196005714Y-76221428D01*
X196062857Y-76192857D01*
X196091428Y-76164285D01*
X196120000Y-76107142D01*
X196148571Y-75992857D01*
X196148571Y-75850000D01*
X196120000Y-75735714D01*
X196091428Y-75678571D01*
X196062857Y-75650000D01*
X196005714Y-75621428D01*
G04 #@! TO.C,J14*
X209732857Y-79371428D02*
X209732857Y-78771428D01*
X209504285Y-78771428D01*
X209447142Y-78800000D01*
X209418571Y-78828571D01*
X209390000Y-78885714D01*
X209390000Y-78971428D01*
X209418571Y-79028571D01*
X209447142Y-79057142D01*
X209504285Y-79085714D01*
X209732857Y-79085714D01*
X208790000Y-79371428D02*
X208990000Y-79085714D01*
X209132857Y-79371428D02*
X209132857Y-78771428D01*
X208904285Y-78771428D01*
X208847142Y-78800000D01*
X208818571Y-78828571D01*
X208790000Y-78885714D01*
X208790000Y-78971428D01*
X208818571Y-79028571D01*
X208847142Y-79057142D01*
X208904285Y-79085714D01*
X209132857Y-79085714D01*
X208418571Y-78771428D02*
X208304285Y-78771428D01*
X208247142Y-78800000D01*
X208190000Y-78857142D01*
X208161428Y-78971428D01*
X208161428Y-79171428D01*
X208190000Y-79285714D01*
X208247142Y-79342857D01*
X208304285Y-79371428D01*
X208418571Y-79371428D01*
X208475714Y-79342857D01*
X208532857Y-79285714D01*
X208561428Y-79171428D01*
X208561428Y-78971428D01*
X208532857Y-78857142D01*
X208475714Y-78800000D01*
X208418571Y-78771428D01*
X207704285Y-79057142D02*
X207618571Y-79085714D01*
X207590000Y-79114285D01*
X207561428Y-79171428D01*
X207561428Y-79257142D01*
X207590000Y-79314285D01*
X207618571Y-79342857D01*
X207675714Y-79371428D01*
X207904285Y-79371428D01*
X207904285Y-78771428D01*
X207704285Y-78771428D01*
X207647142Y-78800000D01*
X207618571Y-78828571D01*
X207590000Y-78885714D01*
X207590000Y-78942857D01*
X207618571Y-79000000D01*
X207647142Y-79028571D01*
X207704285Y-79057142D01*
X207904285Y-79057142D01*
X207304285Y-79057142D02*
X207104285Y-79057142D01*
X207018571Y-79371428D02*
X207304285Y-79371428D01*
X207304285Y-78771428D01*
X207018571Y-78771428D01*
G04 #@! TO.C,JP2*
X230460000Y-68581428D02*
X230460000Y-67981428D01*
X230460000Y-68267142D02*
X230117142Y-68267142D01*
X230117142Y-68581428D02*
X230117142Y-67981428D01*
X229831428Y-68267142D02*
X229631428Y-68267142D01*
X229545714Y-68581428D02*
X229831428Y-68581428D01*
X229831428Y-67981428D01*
X229545714Y-67981428D01*
X229088571Y-68267142D02*
X229288571Y-68267142D01*
X229288571Y-68581428D02*
X229288571Y-67981428D01*
X229002857Y-67981428D01*
G04 #@! TO.C,J13*
X215797142Y-79097142D02*
X215597142Y-79097142D01*
X215511428Y-79411428D02*
X215797142Y-79411428D01*
X215797142Y-78811428D01*
X215511428Y-78811428D01*
X215254285Y-79411428D02*
X215254285Y-78811428D01*
X214911428Y-79411428D01*
X214911428Y-78811428D01*
X214625714Y-79411428D02*
X214625714Y-78811428D01*
X214482857Y-78811428D01*
X214397142Y-78840000D01*
X214340000Y-78897142D01*
X214311428Y-78954285D01*
X214282857Y-79068571D01*
X214282857Y-79154285D01*
X214311428Y-79268571D01*
X214340000Y-79325714D01*
X214397142Y-79382857D01*
X214482857Y-79411428D01*
X214625714Y-79411428D01*
X214054285Y-79382857D02*
X213968571Y-79411428D01*
X213825714Y-79411428D01*
X213768571Y-79382857D01*
X213740000Y-79354285D01*
X213711428Y-79297142D01*
X213711428Y-79240000D01*
X213740000Y-79182857D01*
X213768571Y-79154285D01*
X213825714Y-79125714D01*
X213940000Y-79097142D01*
X213997142Y-79068571D01*
X214025714Y-79040000D01*
X214054285Y-78982857D01*
X214054285Y-78925714D01*
X214025714Y-78868571D01*
X213997142Y-78840000D01*
X213940000Y-78811428D01*
X213797142Y-78811428D01*
X213711428Y-78840000D01*
X213540000Y-78811428D02*
X213197142Y-78811428D01*
X213368571Y-79411428D02*
X213368571Y-78811428D01*
X212882857Y-78811428D02*
X212768571Y-78811428D01*
X212711428Y-78840000D01*
X212654285Y-78897142D01*
X212625714Y-79011428D01*
X212625714Y-79211428D01*
X212654285Y-79325714D01*
X212711428Y-79382857D01*
X212768571Y-79411428D01*
X212882857Y-79411428D01*
X212940000Y-79382857D01*
X212997142Y-79325714D01*
X213025714Y-79211428D01*
X213025714Y-79011428D01*
X212997142Y-78897142D01*
X212940000Y-78840000D01*
X212882857Y-78811428D01*
X212368571Y-79411428D02*
X212368571Y-78811428D01*
X212140000Y-78811428D01*
X212082857Y-78840000D01*
X212054285Y-78868571D01*
X212025714Y-78925714D01*
X212025714Y-79011428D01*
X212054285Y-79068571D01*
X212082857Y-79097142D01*
X212140000Y-79125714D01*
X212368571Y-79125714D01*
X211797142Y-78868571D02*
X211768571Y-78840000D01*
X211711428Y-78811428D01*
X211568571Y-78811428D01*
X211511428Y-78840000D01*
X211482857Y-78868571D01*
X211454285Y-78925714D01*
X211454285Y-78982857D01*
X211482857Y-79068571D01*
X211825714Y-79411428D01*
X211454285Y-79411428D01*
G04 #@! TO.C,J9*
X213642857Y-76851428D02*
X213642857Y-76251428D01*
X213500000Y-76251428D01*
X213414285Y-76280000D01*
X213357142Y-76337142D01*
X213328571Y-76394285D01*
X213300000Y-76508571D01*
X213300000Y-76594285D01*
X213328571Y-76708571D01*
X213357142Y-76765714D01*
X213414285Y-76822857D01*
X213500000Y-76851428D01*
X213642857Y-76851428D01*
X213042857Y-76537142D02*
X212842857Y-76537142D01*
X212757142Y-76851428D02*
X213042857Y-76851428D01*
X213042857Y-76251428D01*
X212757142Y-76251428D01*
X212300000Y-76537142D02*
X212214285Y-76565714D01*
X212185714Y-76594285D01*
X212157142Y-76651428D01*
X212157142Y-76737142D01*
X212185714Y-76794285D01*
X212214285Y-76822857D01*
X212271428Y-76851428D01*
X212500000Y-76851428D01*
X212500000Y-76251428D01*
X212300000Y-76251428D01*
X212242857Y-76280000D01*
X212214285Y-76308571D01*
X212185714Y-76365714D01*
X212185714Y-76422857D01*
X212214285Y-76480000D01*
X212242857Y-76508571D01*
X212300000Y-76537142D01*
X212500000Y-76537142D01*
X211900000Y-76251428D02*
X211900000Y-76737142D01*
X211871428Y-76794285D01*
X211842857Y-76822857D01*
X211785714Y-76851428D01*
X211671428Y-76851428D01*
X211614285Y-76822857D01*
X211585714Y-76794285D01*
X211557142Y-76737142D01*
X211557142Y-76251428D01*
X210957142Y-76280000D02*
X211014285Y-76251428D01*
X211100000Y-76251428D01*
X211185714Y-76280000D01*
X211242857Y-76337142D01*
X211271428Y-76394285D01*
X211300000Y-76508571D01*
X211300000Y-76594285D01*
X211271428Y-76708571D01*
X211242857Y-76765714D01*
X211185714Y-76822857D01*
X211100000Y-76851428D01*
X211042857Y-76851428D01*
X210957142Y-76822857D01*
X210928571Y-76794285D01*
X210928571Y-76594285D01*
X211042857Y-76594285D01*
G04 #@! TO.C,J5*
X224735714Y-74781428D02*
X224735714Y-74181428D01*
X224478571Y-74238571D02*
X224450000Y-74210000D01*
X224392857Y-74181428D01*
X224250000Y-74181428D01*
X224192857Y-74210000D01*
X224164285Y-74238571D01*
X224135714Y-74295714D01*
X224135714Y-74352857D01*
X224164285Y-74438571D01*
X224507142Y-74781428D01*
X224135714Y-74781428D01*
X223535714Y-74724285D02*
X223564285Y-74752857D01*
X223650000Y-74781428D01*
X223707142Y-74781428D01*
X223792857Y-74752857D01*
X223850000Y-74695714D01*
X223878571Y-74638571D01*
X223907142Y-74524285D01*
X223907142Y-74438571D01*
X223878571Y-74324285D01*
X223850000Y-74267142D01*
X223792857Y-74210000D01*
X223707142Y-74181428D01*
X223650000Y-74181428D01*
X223564285Y-74210000D01*
X223535714Y-74238571D01*
D13*
G04 #@! TO.C,J12*
X217030000Y-84830000D02*
X217530000Y-84830000D01*
X220530000Y-82230000D02*
X221140000Y-82230000D01*
X221340000Y-86330000D02*
X221140000Y-86330000D01*
X217030000Y-84730000D02*
X217530000Y-84730000D01*
X218530000Y-79670000D02*
X218530000Y-80280000D01*
X217530000Y-84830000D02*
X217530000Y-84630000D01*
X219830000Y-87790000D02*
X219830000Y-87180000D01*
X216420000Y-87790000D02*
X216420000Y-79670000D01*
X221140000Y-79670000D02*
X221140000Y-87790000D01*
X221340000Y-86030000D02*
X221340000Y-86330000D01*
X221440000Y-88090000D02*
X220190000Y-88090000D01*
X217530000Y-82630000D02*
X217030000Y-82630000D01*
X221140000Y-87790000D02*
X216420000Y-87790000D01*
X221140000Y-85230000D02*
X220530000Y-85230000D01*
X220530000Y-87180000D02*
X217030000Y-87180000D01*
X217030000Y-82730000D02*
X217530000Y-82730000D01*
X220530000Y-85230000D02*
X220530000Y-87180000D01*
X220530000Y-80280000D02*
X220530000Y-82230000D01*
X221140000Y-86030000D02*
X221340000Y-86030000D01*
X217030000Y-82830000D02*
X217530000Y-82830000D01*
X217030000Y-87180000D02*
X217030000Y-80280000D01*
X217030000Y-80280000D02*
X220530000Y-80280000D01*
X216420000Y-79670000D02*
X221140000Y-79670000D01*
X219830000Y-79670000D02*
X219830000Y-80280000D01*
X218530000Y-87790000D02*
X218530000Y-87180000D01*
X217530000Y-84630000D02*
X217030000Y-84630000D01*
X221240000Y-86030000D02*
X221240000Y-86330000D01*
X217530000Y-82830000D02*
X217530000Y-82630000D01*
X221440000Y-86840000D02*
X221440000Y-88090000D01*
G04 #@! TO.C,JP1*
X224315000Y-66730000D02*
X227115000Y-66730000D01*
X227115000Y-64730000D02*
X224315000Y-64730000D01*
X227765000Y-66030000D02*
X227765000Y-65430000D01*
X223665000Y-65430000D02*
X223665000Y-66030000D01*
X223665000Y-66030000D02*
G75*
G03*
X224365000Y-66730000I699999J-1D01*
G01*
X227065000Y-66730000D02*
G75*
G03*
X227765000Y-66030000I1J699999D01*
G01*
X224365000Y-64730000D02*
G75*
G03*
X223665000Y-65430000I-1J-699999D01*
G01*
X227765000Y-65430000D02*
G75*
G03*
X227065000Y-64730000I-699999J1D01*
G01*
G04 #@! TO.C,J3*
X199420000Y-81660000D02*
X199420000Y-80410000D01*
X203280000Y-80750000D02*
X203280000Y-81360000D01*
X202280000Y-80750000D02*
X200330000Y-80750000D01*
X205840000Y-78750000D02*
X205230000Y-78750000D01*
X200670000Y-81660000D02*
X199420000Y-81660000D01*
X201480000Y-81560000D02*
X201180000Y-81560000D01*
X199720000Y-76640000D02*
X205840000Y-76640000D01*
X199720000Y-80050000D02*
X200330000Y-80050000D01*
X205230000Y-77250000D02*
X205230000Y-80750000D01*
X199720000Y-78750000D02*
X200330000Y-78750000D01*
X202680000Y-77250000D02*
X202680000Y-77750000D01*
X199720000Y-81360000D02*
X199720000Y-76640000D01*
X202780000Y-77250000D02*
X202780000Y-77750000D01*
X200330000Y-77250000D02*
X205230000Y-77250000D01*
X202880000Y-77750000D02*
X202880000Y-77250000D01*
X205230000Y-80750000D02*
X203280000Y-80750000D01*
X201180000Y-81560000D02*
X201180000Y-81360000D01*
X205840000Y-81360000D02*
X199720000Y-81360000D01*
X200330000Y-80750000D02*
X200330000Y-77250000D01*
X201480000Y-81360000D02*
X201480000Y-81560000D01*
X205840000Y-80050000D02*
X205230000Y-80050000D01*
X202680000Y-77750000D02*
X202880000Y-77750000D01*
X202280000Y-81360000D02*
X202280000Y-80750000D01*
X205840000Y-76640000D02*
X205840000Y-81360000D01*
X201480000Y-81460000D02*
X201180000Y-81460000D01*
G04 #@! TO.C,TP2*
X210980000Y-66320000D02*
G75*
G03*
X210980000Y-66320000I-700000J0D01*
G01*
G04 #@! TO.C,J7*
X226760000Y-81040000D02*
X226760000Y-77540000D01*
X227100000Y-81950000D02*
X225850000Y-81950000D01*
X228710000Y-81650000D02*
X228710000Y-81040000D01*
X234270000Y-79040000D02*
X233660000Y-79040000D01*
X234270000Y-81650000D02*
X226150000Y-81650000D01*
X229210000Y-77540000D02*
X229210000Y-78040000D01*
X229110000Y-78040000D02*
X229310000Y-78040000D01*
X228710000Y-81040000D02*
X226760000Y-81040000D01*
X231710000Y-81040000D02*
X231710000Y-81650000D01*
X229110000Y-77540000D02*
X229110000Y-78040000D01*
X226150000Y-76930000D02*
X234270000Y-76930000D01*
X226150000Y-80340000D02*
X226760000Y-80340000D01*
X229310000Y-78040000D02*
X229310000Y-77540000D01*
X227910000Y-81750000D02*
X227610000Y-81750000D01*
X231310000Y-78040000D02*
X231310000Y-77540000D01*
X227910000Y-81850000D02*
X227610000Y-81850000D01*
X226760000Y-77540000D02*
X233660000Y-77540000D01*
X226150000Y-79040000D02*
X226760000Y-79040000D01*
X231110000Y-78040000D02*
X231310000Y-78040000D01*
X233660000Y-77540000D02*
X233660000Y-81040000D01*
X233660000Y-81040000D02*
X231710000Y-81040000D01*
X227610000Y-81850000D02*
X227610000Y-81650000D01*
X234270000Y-76930000D02*
X234270000Y-81650000D01*
X234270000Y-80340000D02*
X233660000Y-80340000D01*
X231110000Y-77540000D02*
X231110000Y-78040000D01*
X231210000Y-77540000D02*
X231210000Y-78040000D01*
X225850000Y-81950000D02*
X225850000Y-80700000D01*
X227910000Y-81650000D02*
X227910000Y-81850000D01*
X226150000Y-81650000D02*
X226150000Y-76930000D01*
G04 #@! TO.C,TP3*
X209830000Y-57710000D02*
G75*
G03*
X209830000Y-57710000I-700000J0D01*
G01*
G04 #@! TO.C,TP4*
X197320000Y-70350000D02*
G75*
G03*
X197320000Y-70350000I-700000J0D01*
G01*
G04 #@! TO.C,J11*
X221935000Y-45940000D02*
X220935000Y-44940000D01*
X214848233Y-55060000D02*
X213151767Y-55060000D01*
X220935000Y-44940000D02*
X207065000Y-44940000D01*
X206065000Y-45940000D02*
X206065000Y-55060000D01*
X206065000Y-55060000D02*
X208848233Y-55060000D01*
X207065000Y-44940000D02*
X206065000Y-45940000D01*
X221935000Y-55060000D02*
X219510000Y-55060000D01*
X221935000Y-55060000D02*
X221935000Y-45940000D01*
X211848233Y-55060000D02*
X210151767Y-55060000D01*
X217490000Y-55060000D02*
X216151767Y-55060000D01*
G04 #@! TO.C,TP1*
X210980000Y-64070000D02*
G75*
G03*
X210980000Y-64070000I-700000J0D01*
G01*
G04 #@! TO.C,J6*
X230029489Y-63461537D02*
X231254234Y-62754430D01*
X221210586Y-61098519D02*
X230029489Y-63461537D01*
X223118083Y-53979645D02*
X221210586Y-61098519D01*
X232644092Y-57567408D02*
X231936986Y-56342663D01*
X231936986Y-56342663D02*
X223118083Y-53979645D01*
X231254234Y-62754430D02*
X232644092Y-57567408D01*
G04 #@! TO.C,J4*
X193460000Y-76640000D02*
X199580000Y-76640000D01*
X193160000Y-81660000D02*
X193160000Y-80410000D01*
X195220000Y-81460000D02*
X194920000Y-81460000D01*
X193460000Y-80050000D02*
X194070000Y-80050000D01*
X195220000Y-81560000D02*
X194920000Y-81560000D01*
X193460000Y-78750000D02*
X194070000Y-78750000D01*
X193460000Y-81360000D02*
X193460000Y-76640000D01*
X196420000Y-77750000D02*
X196620000Y-77750000D01*
X196020000Y-81360000D02*
X196020000Y-80750000D01*
X199580000Y-81360000D02*
X193460000Y-81360000D01*
X196420000Y-77250000D02*
X196420000Y-77750000D01*
X196020000Y-80750000D02*
X194070000Y-80750000D01*
X199580000Y-80050000D02*
X198970000Y-80050000D01*
X194410000Y-81660000D02*
X193160000Y-81660000D01*
X195220000Y-81360000D02*
X195220000Y-81560000D01*
X197020000Y-80750000D02*
X197020000Y-81360000D01*
X198970000Y-77250000D02*
X198970000Y-80750000D01*
X199580000Y-78750000D02*
X198970000Y-78750000D01*
X194920000Y-81560000D02*
X194920000Y-81360000D01*
X198970000Y-80750000D02*
X197020000Y-80750000D01*
X199580000Y-76640000D02*
X199580000Y-81360000D01*
X194070000Y-80750000D02*
X194070000Y-77250000D01*
X196520000Y-77250000D02*
X196520000Y-77750000D01*
X196620000Y-77750000D02*
X196620000Y-77250000D01*
X194070000Y-77250000D02*
X198970000Y-77250000D01*
G04 #@! TO.C,J14*
X210250000Y-85230000D02*
X210250000Y-87180000D01*
X206750000Y-84730000D02*
X207250000Y-84730000D01*
X207250000Y-84830000D02*
X207250000Y-84630000D01*
X206140000Y-87790000D02*
X206140000Y-79670000D01*
X206750000Y-82830000D02*
X207250000Y-82830000D01*
X207250000Y-84630000D02*
X206750000Y-84630000D01*
X209550000Y-79670000D02*
X209550000Y-80280000D01*
X207250000Y-82630000D02*
X206750000Y-82630000D01*
X206750000Y-82730000D02*
X207250000Y-82730000D01*
X206750000Y-84830000D02*
X207250000Y-84830000D01*
X208250000Y-87790000D02*
X208250000Y-87180000D01*
X207250000Y-82830000D02*
X207250000Y-82630000D01*
X210860000Y-79670000D02*
X210860000Y-87790000D01*
X209550000Y-87790000D02*
X209550000Y-87180000D01*
X206140000Y-79670000D02*
X210860000Y-79670000D01*
X206750000Y-80280000D02*
X210250000Y-80280000D01*
X211060000Y-86030000D02*
X211060000Y-86330000D01*
X210860000Y-87790000D02*
X206140000Y-87790000D01*
X211060000Y-86330000D02*
X210860000Y-86330000D01*
X210250000Y-82230000D02*
X210860000Y-82230000D01*
X210960000Y-86030000D02*
X210960000Y-86330000D01*
X211160000Y-86840000D02*
X211160000Y-88090000D01*
X210250000Y-80280000D02*
X210250000Y-82230000D01*
X210250000Y-87180000D02*
X206750000Y-87180000D01*
X210860000Y-86030000D02*
X211060000Y-86030000D01*
X208250000Y-79670000D02*
X208250000Y-80280000D01*
X206750000Y-87180000D02*
X206750000Y-80280000D01*
X211160000Y-88090000D02*
X209910000Y-88090000D01*
X210860000Y-85230000D02*
X210250000Y-85230000D01*
G04 #@! TO.C,JP2*
X227765000Y-68610000D02*
X227765000Y-68010000D01*
X223665000Y-68010000D02*
X223665000Y-68610000D01*
X224315000Y-69310000D02*
X227115000Y-69310000D01*
X227115000Y-67310000D02*
X224315000Y-67310000D01*
X223665000Y-68610000D02*
G75*
G03*
X224365000Y-69310000I699999J-1D01*
G01*
X227065000Y-69310000D02*
G75*
G03*
X227765000Y-68610000I1J699999D01*
G01*
X224365000Y-67310000D02*
G75*
G03*
X223665000Y-68010000I-1J-699999D01*
G01*
X227765000Y-68010000D02*
G75*
G03*
X227065000Y-67310000I-699999J1D01*
G01*
G04 #@! TO.C,J10*
X218525000Y-65670000D02*
X218525000Y-68570000D01*
X222075000Y-67820000D02*
X222075000Y-65670000D01*
X218525000Y-73970000D02*
X218525000Y-71070000D01*
X222075000Y-71820000D02*
X222075000Y-73970000D01*
X222075000Y-71520000D02*
X222075000Y-70920000D01*
X221325000Y-71520000D02*
X222075000Y-71520000D01*
X222075000Y-65670000D02*
X218525000Y-65670000D01*
X222075000Y-73970000D02*
X218525000Y-73970000D01*
G04 #@! TO.C,J13*
X216200000Y-86330000D02*
X216000000Y-86330000D01*
X216000000Y-85230000D02*
X215390000Y-85230000D01*
X211280000Y-79670000D02*
X216000000Y-79670000D01*
X211890000Y-84730000D02*
X212390000Y-84730000D01*
X212390000Y-84630000D02*
X211890000Y-84630000D01*
X216000000Y-87790000D02*
X211280000Y-87790000D01*
X211890000Y-87180000D02*
X211890000Y-80280000D01*
X215390000Y-87180000D02*
X211890000Y-87180000D01*
X216200000Y-86030000D02*
X216200000Y-86330000D01*
X211280000Y-87790000D02*
X211280000Y-79670000D01*
X212390000Y-84830000D02*
X212390000Y-84630000D01*
X214690000Y-79670000D02*
X214690000Y-80280000D01*
X212390000Y-82630000D02*
X211890000Y-82630000D01*
X215390000Y-80280000D02*
X215390000Y-82230000D01*
X216100000Y-86030000D02*
X216100000Y-86330000D01*
X213390000Y-87790000D02*
X213390000Y-87180000D01*
X216300000Y-88090000D02*
X215050000Y-88090000D01*
X215390000Y-85230000D02*
X215390000Y-87180000D01*
X211890000Y-82730000D02*
X212390000Y-82730000D01*
X214690000Y-87790000D02*
X214690000Y-87180000D01*
X211890000Y-84830000D02*
X212390000Y-84830000D01*
X215390000Y-82230000D02*
X216000000Y-82230000D01*
X212390000Y-82830000D02*
X212390000Y-82630000D01*
X216000000Y-79670000D02*
X216000000Y-87790000D01*
X213390000Y-79670000D02*
X213390000Y-80280000D01*
X216000000Y-86030000D02*
X216200000Y-86030000D01*
X211890000Y-80280000D02*
X215390000Y-80280000D01*
X211890000Y-82830000D02*
X212390000Y-82830000D01*
X216300000Y-86840000D02*
X216300000Y-88090000D01*
G04 #@! TO.C,J9*
X210595000Y-75465000D02*
X210595000Y-75400000D01*
X210595000Y-71600000D02*
X210595000Y-71535000D01*
X210595000Y-71535000D02*
X214125000Y-71535000D01*
X210595000Y-75465000D02*
X214125000Y-75465000D01*
X209270000Y-75400000D02*
X210595000Y-75400000D01*
X214125000Y-75465000D02*
X214125000Y-75400000D01*
X214125000Y-71600000D02*
X214125000Y-71535000D01*
G04 #@! TO.C,J5*
X226000000Y-75020000D02*
X226000000Y-85140000D01*
X226200000Y-83680000D02*
X226000000Y-83680000D01*
X224690000Y-75020000D02*
X224690000Y-75630000D01*
X221890000Y-78080000D02*
X222390000Y-78080000D01*
X222390000Y-79980000D02*
X221890000Y-79980000D01*
X226300000Y-84190000D02*
X226300000Y-85440000D01*
X221280000Y-85140000D02*
X221280000Y-75020000D01*
X225390000Y-77580000D02*
X226000000Y-77580000D01*
X225390000Y-82580000D02*
X225390000Y-84530000D01*
X226000000Y-85140000D02*
X221280000Y-85140000D01*
X221890000Y-78180000D02*
X222390000Y-78180000D01*
X222390000Y-78180000D02*
X222390000Y-77980000D01*
X225390000Y-84530000D02*
X221890000Y-84530000D01*
X222390000Y-77980000D02*
X221890000Y-77980000D01*
X221890000Y-84530000D02*
X221890000Y-75630000D01*
X221280000Y-75020000D02*
X226000000Y-75020000D01*
X222390000Y-81980000D02*
X221890000Y-81980000D01*
X226300000Y-85440000D02*
X225050000Y-85440000D01*
X226200000Y-83380000D02*
X226200000Y-83680000D01*
X226000000Y-82580000D02*
X225390000Y-82580000D01*
X226100000Y-83380000D02*
X226100000Y-83680000D01*
X222390000Y-80180000D02*
X222390000Y-79980000D01*
X225390000Y-75630000D02*
X225390000Y-77580000D01*
X224690000Y-85140000D02*
X224690000Y-84530000D01*
X226000000Y-83380000D02*
X226200000Y-83380000D01*
X221890000Y-80180000D02*
X222390000Y-80180000D01*
X223390000Y-75020000D02*
X223390000Y-75630000D01*
X221890000Y-80080000D02*
X222390000Y-80080000D01*
X221890000Y-82080000D02*
X222390000Y-82080000D01*
X221890000Y-75630000D02*
X225390000Y-75630000D01*
X223390000Y-85140000D02*
X223390000Y-84530000D01*
X221890000Y-82180000D02*
X222390000Y-82180000D01*
X222390000Y-82180000D02*
X222390000Y-81980000D01*
G04 #@! TD*
M02*
